<?xml version="1.0" encoding="UTF-8" standalone="no"?>
<!-- Created with Inkscape (http://www.inkscape.org/) -->

<svg
   width="103.82676mm"
   height="37.528397mm"
   viewBox="0 0 103.82676 37.528397"
   version="1.1"
   id="svg1"
   xml:space="preserve"
   xmlns:inkscape="http://www.inkscape.org/namespaces/inkscape"
   xmlns:sodipodi="http://sodipodi.sourceforge.net/DTD/sodipodi-0.dtd"
   xmlns="http://www.w3.org/2000/svg"
   xmlns:svg="http://www.w3.org/2000/svg"><sodipodi:namedview
     id="namedview1"
     pagecolor="#ffffff"
     bordercolor="#000000"
     borderopacity="0.25"
     inkscape:showpageshadow="2"
     inkscape:pageopacity="0.0"
     inkscape:pagecheckerboard="0"
     inkscape:deskcolor="#d1d1d1"
     inkscape:document-units="mm" /><defs
     id="defs1"><clipPath
       clipPathUnits="userSpaceOnUse"
       id="clipPath16"><path
         d="M 0,228.38 H 412.688 V 0 H 0 Z"
         id="path14" /></clipPath></defs><g
     inkscape:label="Calque 1"
     inkscape:groupmode="layer"
     id="layer1"
     transform="translate(-11.037467,-96.254277)"><g
       id="g12"
       clip-path="url(#clipPath16)"
       transform="matrix(0.35277777,0,0,-0.35277777,-10.067569,155.30222)"><g
         id="g18"
         transform="translate(60.4045,73.453)"><path
           d="m 0,0 c 0.128,1.479 1.736,2.636 3.579,2.636 1.778,0 3.515,-0.814 3.644,-2.957 H 5.122 C 5.037,0.429 4.351,0.75 3.665,0.75 3.108,0.75 2.464,0.536 2.25,0.193 2.079,-0.086 2.058,-0.407 2.165,-0.708 2.293,-1.093 2.851,-1.329 3.386,-1.479 l 1.543,-0.385 c 2.165,-0.536 2.615,-1.908 2.615,-2.915 0,-1.93 -1.692,-3.023 -3.987,-3.023 -1.864,0 -3.792,1.179 -3.836,3.28 h 2.036 c 0.107,-0.858 0.815,-1.437 1.972,-1.437 1.008,0 1.779,0.45 1.779,1.2 0,0.644 -0.665,1.008 -1.393,1.18 l -1.35,0.321 C 0.643,-2.68 -0.129,-1.607 0,0"
           style="fill:#00a3a6;fill-opacity:1;fill-rule:nonzero;stroke:none"
           id="path20" /></g><g
         id="g22"
         transform="translate(75.0451,76.0887)"><path
           d="M 0,0 C 1.585,0 3.021,-0.621 3.964,-1.735 L 2.25,-3.107 C 1.715,-2.486 0.878,-2.144 0,-2.144 c -1.672,0 -3.151,-1.178 -3.151,-3.043 0,-1.864 1.479,-3.129 3.151,-3.129 0.878,0 1.715,0.365 2.25,0.987 L 3.986,-8.68 C 3.043,-9.795 1.607,-10.438 0,-10.438 c -2.873,0 -5.337,2.08 -5.337,5.251 C -5.337,-2.014 -2.873,0 0,0"
           style="fill:#00a3a6;fill-opacity:1;fill-rule:nonzero;stroke:none"
           id="path24" /></g><path
         d="m 83.555,75.875 h -2.187 v -10.01 h 2.187 z m -1.092,5.443 c 0.814,0 1.457,-0.599 1.457,-1.392 0,-0.793 -0.643,-1.393 -1.457,-1.393 -0.794,0 -1.479,0.6 -1.479,1.393 0,0.793 0.685,1.392 1.479,1.392"
         style="fill:#00a3a6;fill-opacity:1;fill-rule:nonzero;stroke:none"
         id="path26" /><g
         id="g28"
         transform="translate(93.9939,71.6952)"><path
           d="M 0,0 C -0.213,1.564 -1.35,2.465 -2.851,2.465 -4.394,2.465 -5.594,1.543 -5.808,0 Z m 2.144,-1.607 h -7.952 c 0.214,-1.543 1.457,-2.508 3.065,-2.508 1.115,0 2.207,0.514 2.722,1.436 0.557,-0.257 1.222,-0.536 1.8,-0.793 -0.878,-1.757 -2.743,-2.572 -4.63,-2.572 -2.849,0 -5.144,2.079 -5.144,5.251 0,3.173 2.295,5.187 5.144,5.187 2.851,0 5.016,-2.014 5.016,-5.187 0,-0.235 0,-0.6 -0.021,-0.814"
           style="fill:#00a3a6;fill-opacity:1;fill-rule:nonzero;stroke:none"
           id="path30" /></g><g
         id="g32"
         transform="translate(100.7053,65.8651)"><path
           d="M 0,0 H -2.208 V 10.01 H 0 V 8.509 c 0.578,1.158 1.95,1.715 3.064,1.715 2.423,0 3.815,-1.565 3.815,-4.394 V 0 H 4.672 V 5.573 C 4.672,7.159 3.858,8.06 2.572,8.06 1.264,8.06 0,7.353 0,5.381 Z"
           style="fill:#00a3a6;fill-opacity:1;fill-rule:nonzero;stroke:none"
           id="path34" /></g><g
         id="g36"
         transform="translate(115.26,76.0887)"><path
           d="M 0,0 C 1.585,0 3.021,-0.621 3.964,-1.735 L 2.25,-3.107 C 1.715,-2.486 0.878,-2.144 0,-2.144 c -1.672,0 -3.151,-1.178 -3.151,-3.043 0,-1.864 1.479,-3.129 3.151,-3.129 0.878,0 1.715,0.365 2.25,0.987 L 3.986,-8.68 C 3.043,-9.795 1.607,-10.438 0,-10.438 c -2.873,0 -5.337,2.08 -5.337,5.251 C -5.337,-2.014 -2.873,0 0,0"
           style="fill:#00a3a6;fill-opacity:1;fill-rule:nonzero;stroke:none"
           id="path38" /></g><g
         id="g40"
         transform="translate(128.7429,71.6952)"><path
           d="M 0,0 C -0.214,1.564 -1.35,2.465 -2.851,2.465 -4.394,2.465 -5.594,1.543 -5.808,0 Z m 2.143,-1.607 h -7.951 c 0.214,-1.543 1.457,-2.508 3.064,-2.508 1.115,0 2.208,0.514 2.722,1.436 0.558,-0.257 1.222,-0.536 1.801,-0.793 -0.878,-1.757 -2.744,-2.572 -4.63,-2.572 -2.85,0 -5.144,2.079 -5.144,5.251 0,3.173 2.294,5.187 5.144,5.187 2.851,0 5.016,-2.014 5.016,-5.187 0,-0.235 0,-0.6 -0.022,-0.814"
           style="fill:#00a3a6;fill-opacity:1;fill-rule:nonzero;stroke:none"
           id="path42" /></g><g
         id="g44"
         transform="translate(144.0065,79.1971)"><path
           d="m 0,0 h -1.093 c -1.457,0 -1.78,-1.137 -1.78,-2.4 v -0.922 h 2.251 v -1.823 h -2.251 v -8.187 h -2.229 v 8.187 h -1.906 v 1.823 h 1.906 V -2.4 c 0,2.743 1.266,4.521 4.009,4.521 H 0 Z"
           style="fill:#00a3a6;fill-opacity:1;fill-rule:nonzero;stroke:none"
           id="path46" /></g><g
         id="g48"
         transform="translate(152.9235,70.9022)"><path
           d="m 0,0 c 0,1.843 -1.372,3.022 -3.044,3.022 -1.65,0 -3.022,-1.179 -3.022,-3.022 0,-1.886 1.372,-3.107 3.022,-3.107 C -1.372,-3.107 0,-1.886 0,0 m -8.252,0 c 0,3.173 2.379,5.187 5.208,5.187 2.851,0 5.252,-2.014 5.252,-5.187 0,-3.172 -2.401,-5.251 -5.252,-5.251 -2.829,0 -5.208,2.079 -5.208,5.251"
           style="fill:#00a3a6;fill-opacity:1;fill-rule:nonzero;stroke:none"
           id="path50" /></g><g
         id="g52"
         transform="translate(159.7844,65.8651)"><path
           d="M 0,0 H -2.208 V 10.01 H 0 V 7.716 c 0.515,1.779 1.5,2.508 2.744,2.508 0.706,0 1.457,-0.172 1.778,-0.385 L 4.158,7.802 C 3.601,8.08 3.107,8.145 2.678,8.145 0.792,8.145 0,6.259 0,3.602 Z"
           style="fill:#00a3a6;fill-opacity:1;fill-rule:nonzero;stroke:none"
           id="path54" /></g><g
         id="g56"
         transform="translate(176.0105,67.7723)"><path
           d="M 0,0 C 1.672,0 3.001,1.201 3.001,3.045 3.001,4.909 1.672,6.173 0,6.173 -1.629,6.173 -3.042,4.994 -3.042,3.045 -3.042,1.072 -1.521,0 0,0 m -3.064,6.623 c 0.622,1.072 1.993,1.693 3.343,1.693 2.701,0 4.972,-2.079 4.972,-5.229 0,-3.193 -2.271,-5.208 -4.972,-5.208 -1.35,0 -2.721,0.536 -3.343,1.65 V -6.772 H -5.271 V 8.103 h 2.207 z"
           style="fill:#00a3a6;fill-opacity:1;fill-rule:nonzero;stroke:none"
           id="path58" /></g><g
         id="g60"
         transform="translate(191.0813,71.6952)"><path
           d="M 0,0 C -0.215,1.564 -1.351,2.465 -2.851,2.465 -4.394,2.465 -5.594,1.543 -5.809,0 Z m 2.143,-1.607 h -7.952 c 0.215,-1.543 1.457,-2.508 3.065,-2.508 1.115,0 2.208,0.514 2.722,1.436 0.557,-0.257 1.222,-0.536 1.8,-0.793 -0.879,-1.757 -2.743,-2.572 -4.629,-2.572 -2.851,0 -5.144,2.079 -5.144,5.251 0,3.173 2.293,5.187 5.144,5.187 2.851,0 5.015,-2.014 5.015,-5.187 0,-0.235 0,-0.6 -0.021,-0.814"
           style="fill:#00a3a6;fill-opacity:1;fill-rule:nonzero;stroke:none"
           id="path62" /></g><g
         id="g64"
         transform="translate(203.1921,70.9022)"><path
           d="m 0,0 c 0,1.843 -1.372,3.022 -3.043,3.022 -1.65,0 -3.022,-1.179 -3.022,-3.022 0,-1.886 1.372,-3.107 3.022,-3.107 C -1.372,-3.107 0,-1.886 0,0 m -8.252,0 c 0,3.173 2.38,5.187 5.209,5.187 2.85,0 5.251,-2.014 5.251,-5.187 0,-3.172 -2.401,-5.251 -5.251,-5.251 -2.829,0 -5.209,2.079 -5.209,5.251"
           style="fill:#00a3a6;fill-opacity:1;fill-rule:nonzero;stroke:none"
           id="path66" /></g><g
         id="g68"
         transform="translate(213.1179,67.7723)"><path
           d="M 0,0 C 1.672,0 3.002,1.201 3.002,3.045 3.002,4.909 1.672,6.173 0,6.173 -1.628,6.173 -3.043,4.994 -3.043,3.045 -3.043,1.072 -1.521,0 0,0 m -3.064,6.623 c 0.621,1.072 1.993,1.693 3.342,1.693 2.701,0 4.973,-2.079 4.973,-5.229 0,-3.193 -2.272,-5.208 -4.973,-5.208 -1.349,0 -2.721,0.536 -3.342,1.65 V -6.772 H -5.272 V 8.103 h 2.208 z"
           style="fill:#00a3a6;fill-opacity:1;fill-rule:nonzero;stroke:none"
           id="path70" /></g><path
         d="m 220.837,81.318 h 2.208 V 65.865 h -2.208 z"
         style="fill:#00a3a6;fill-opacity:1;fill-rule:nonzero;stroke:none"
         id="path72" /><g
         id="g74"
         transform="translate(233.4831,71.6952)"><path
           d="M 0,0 C -0.214,1.564 -1.351,2.465 -2.852,2.465 -4.395,2.465 -5.595,1.543 -5.809,0 Z m 2.143,-1.607 h -7.952 c 0.214,-1.543 1.458,-2.508 3.066,-2.508 1.114,0 2.208,0.514 2.722,1.436 0.557,-0.257 1.221,-0.536 1.799,-0.793 -0.878,-1.757 -2.743,-2.572 -4.63,-2.572 -2.849,0 -5.143,2.079 -5.143,5.251 0,3.173 2.294,5.187 5.143,5.187 2.852,0 5.017,-2.014 5.017,-5.187 0,-0.235 0,-0.6 -0.022,-0.814"
           style="fill:#00a3a6;fill-opacity:1;fill-rule:nonzero;stroke:none"
           id="path76" /></g><g
         id="g78"
         transform="translate(236.6774,63.6366)"><path
           d="M 0,0 C 0.857,1.2 1.544,2.872 1.501,4.93 H 3.816 C 3.666,2.079 2.466,0.257 1.501,-0.515 Z"
           style="fill:#00a3a6;fill-opacity:1;fill-rule:nonzero;stroke:none"
           id="path80" /></g><path
         d="m 248.596,81.318 h 2.208 V 65.865 h -2.208 z"
         style="fill:#00a3a6;fill-opacity:1;fill-rule:nonzero;stroke:none"
         id="path82" /><path
         d="m 256.077,75.875 h -2.186 v -10.01 h 2.186 z m -1.093,5.443 c 0.816,0 1.458,-0.599 1.458,-1.392 0,-0.793 -0.642,-1.393 -1.458,-1.393 -0.793,0 -1.478,0.6 -1.478,1.393 0,0.793 0.685,1.392 1.478,1.392"
         style="fill:#00a3a6;fill-opacity:1;fill-rule:nonzero;stroke:none"
         id="path84" /><g
         id="g86"
         transform="translate(265.1657,79.1971)"><path
           d="M 0,0 H -1.093 C -2.55,0 -2.872,-1.137 -2.872,-2.4 v -0.922 h 2.25 v -1.823 h -2.25 v -8.187 h -2.23 v 8.187 h -1.906 v 1.823 h 1.906 V -2.4 c 0,2.743 1.266,4.521 4.009,4.521 H 0 Z"
           style="fill:#00a3a6;fill-opacity:1;fill-rule:nonzero;stroke:none"
           id="path88" /></g><g
         id="g90"
         transform="translate(273.8259,71.6952)"><path
           d="M 0,0 C -0.214,1.564 -1.35,2.465 -2.85,2.465 -4.393,2.465 -5.593,1.543 -5.808,0 Z m 2.144,-1.607 h -7.952 c 0.215,-1.543 1.457,-2.508 3.065,-2.508 1.114,0 2.207,0.514 2.722,1.436 C 0.536,-2.936 1.2,-3.215 1.78,-3.472 0.9,-5.229 -0.964,-6.044 -2.85,-6.044 c -2.85,0 -5.143,2.079 -5.143,5.251 0,3.173 2.293,5.187 5.143,5.187 2.85,0 5.015,-2.014 5.015,-5.187 0,-0.235 0,-0.6 -0.021,-0.814"
           style="fill:#00a3a6;fill-opacity:1;fill-rule:nonzero;stroke:none"
           id="path92" /></g><g
         id="g94"
         transform="translate(285.2312,70.3231)"><path
           d="m 0,0 c 0.064,-1.479 1.136,-2.551 2.786,-2.551 1.95,0 2.851,1.416 2.851,3.474 V 2.744 H 2.786 C 0.985,2.744 -0.021,1.286 0,0 m -2.207,-0.064 c 0,1.672 0.836,3.086 2.25,3.858 -0.772,0.579 -1.265,1.672 -1.265,2.829 0,2.058 1.715,3.751 3.966,3.794 1.585,0.021 2.937,-0.814 3.729,-2.058 L 4.651,7.245 C 4.243,7.866 3.623,8.295 2.872,8.295 1.736,8.295 1.008,7.502 1.008,6.559 1.008,5.766 1.586,4.523 2.851,4.523 H 5.637 V 6.388 H 7.694 V 4.523 H 9.537 V 2.744 H 7.694 V 0 c 0,-1.629 0.322,-2.679 2.186,-2.679 v -1.993 c -1.778,0 -3.043,0.536 -3.579,1.651 -0.707,-1.073 -2.207,-1.651 -3.643,-1.651 -2.85,0 -4.865,1.993 -4.865,4.608"
           style="fill:#00a3a6;fill-opacity:1;fill-rule:nonzero;stroke:none"
           id="path96" /></g><g
         id="g98"
         transform="translate(310.0974,71.6952)"><path
           d="M 0,0 C -0.214,1.564 -1.351,2.465 -2.851,2.465 -4.395,2.465 -5.595,1.543 -5.809,0 Z m 2.144,-1.607 h -7.953 c 0.214,-1.543 1.458,-2.508 3.066,-2.508 1.114,0 2.208,0.514 2.722,1.436 C 0.536,-2.936 1.2,-3.215 1.778,-3.472 0.9,-5.229 -0.965,-6.044 -2.851,-6.044 c -2.85,0 -5.144,2.079 -5.144,5.251 0,3.173 2.294,5.187 5.144,5.187 2.851,0 5.016,-2.014 5.016,-5.187 0,-0.235 0,-0.6 -0.021,-0.814"
           style="fill:#00a3a6;fill-opacity:1;fill-rule:nonzero;stroke:none"
           id="path100" /></g><g
         id="g102"
         transform="translate(319.2946,67.7948)"><path
           d="M 0,0 C 1.629,0 3.086,1.136 3.086,3.107 3.086,5.08 1.501,6.15 0,6.15 -1.671,6.15 -3.064,4.95 -3.064,3.107 -3.064,1.264 -1.671,0 0,0 m 3.108,-0.493 c -0.665,-1.093 -2.122,-1.651 -3.365,-1.651 -2.7,0 -5.079,2.037 -5.079,5.23 0,3.194 2.379,5.208 5.079,5.208 1.2,0 2.679,-0.492 3.365,-1.629 V 8.08 H 5.295 V -1.93 H 3.108 Z"
           style="fill:#00a3a6;fill-opacity:1;fill-rule:nonzero;stroke:none"
           id="path104" /></g><g
         id="g106"
         transform="translate(329.8845,65.8651)"><path
           d="M 0,0 H -2.208 V 10.01 H 0 V 7.716 c 0.514,1.779 1.5,2.508 2.743,2.508 0.707,0 1.457,-0.172 1.778,-0.385 L 4.158,7.802 C 3.601,8.08 3.107,8.145 2.679,8.145 0.793,8.145 0,6.259 0,3.602 Z"
           style="fill:#00a3a6;fill-opacity:1;fill-rule:nonzero;stroke:none"
           id="path108" /></g><g
         id="g110"
         transform="translate(339.2302,75.8748)"><path
           d="M 0,0 H 2.121 V -1.822 H 0 v -8.188 h -2.207 v 8.188 H -4.008 V 0 h 1.801 V 3.794 H 0 Z"
           style="fill:#00a3a6;fill-opacity:1;fill-rule:nonzero;stroke:none"
           id="path112" /></g><g
         id="g114"
         transform="translate(345.6404,65.8651)"><path
           d="M 0,0 H -2.207 V 15.453 H 0 V 8.488 c 0.558,1.221 2.122,1.736 3.172,1.736 2.551,0 4.052,-1.671 4.052,-4.523 V 0 H 5.016 V 5.573 C 5.016,7.138 4.029,8.06 2.787,8.06 1.522,8.06 0,7.353 0,5.381 Z"
           style="fill:#00a3a6;fill-opacity:1;fill-rule:nonzero;stroke:none"
           id="path116" /></g><g
         id="g118"
         transform="translate(73.3923,166.6468)"><path
           d="m 0,0 h -12.653 c -0.505,0 -0.914,-0.41 -0.914,-0.916 v -73.207 c 0,-0.505 0.409,-0.915 0.914,-0.915 H 0 c 0.504,0 0.914,0.41 0.914,0.915 V -0.916 C 0.914,-0.41 0.504,0 0,0"
           style="fill:#00a3a6;fill-opacity:1;fill-rule:nonzero;stroke:none"
           id="path120" /></g><g
         id="g122"
         transform="translate(144.6945,166.6468)"><path
           d="m 0,0 h -12.604 c -0.505,0 -0.914,-0.41 -0.914,-0.916 v -48.96 L -44.519,-0.429 C -44.686,-0.161 -44.979,0 -45.292,0 h -12.704 c -0.504,0 -0.915,-0.41 -0.915,-0.916 v -73.207 c 0,-0.505 0.411,-0.915 0.915,-0.915 h 12.704 c 0.504,0 0.915,0.41 0.915,0.915 v 48.763 l 30.899,-49.251 c 0.167,-0.265 0.459,-0.427 0.773,-0.427 H 0 c 0.504,0 0.914,0.41 0.914,0.915 V -0.916 C 0.914,-0.41 0.504,0 0,0"
           style="fill:#00a3a6;fill-opacity:1;fill-rule:nonzero;stroke:none"
           id="path124" /></g><g
         id="g126"
         transform="translate(193.072,134.8626)"><path
           d="m 0,0 c -2.227,-1.997 -5.399,-3.009 -9.433,-3.009 h -12.141 v 22.706 h 12.48 C -4.937,19.633 -1.791,18.602 0.253,16.634 2.282,14.677 3.31,11.837 3.31,8.192 3.31,4.679 2.228,1.999 0,0 m 4.797,-11.638 c 3.922,1.815 7.06,4.345 9.335,7.529 2.462,3.447 3.71,7.765 3.71,12.835 0,7.432 -2.426,13.207 -7.211,17.161 C 5.897,29.8 -0.87,31.785 -9.483,31.785 h -25.708 c -0.506,0 -0.915,-0.41 -0.915,-0.916 v -73.207 c 0,-0.505 0.409,-0.915 0.915,-0.915 h 12.703 c 0.504,0 0.914,0.41 0.914,0.915 v 27.241 H -8.882 L 5.525,-42.761 c 0.157,-0.303 0.469,-0.492 0.809,-0.492 h 13.608 c 0.505,0 0.914,0.41 0.914,0.915 v 0.652 c 0,0.152 -0.038,0.302 -0.11,0.435 z"
           style="fill:#00a3a6;fill-opacity:1;fill-rule:nonzero;stroke:none"
           id="path128" /></g><g
         id="g130"
         transform="translate(354.1374,129.056)"><path
           d="m 0,0 c 0,5.144 -1.096,10.208 -3.097,14.916 -0.367,0.541 -0.731,0.225 -0.86,0.076 L -11.58,3.025 c -0.682,-1.19 -1.18,-2.019 -1.313,-5.002 -0.007,-0.207 -0.018,-0.375 -0.048,-0.524 -1.261,-12.896 -12.162,-23.008 -25.383,-23.008 -2.476,0 -4.935,0.36 -7.309,1.071 -4.038,1.21 -7.753,3.434 -10.743,6.431 -0.106,0.107 -0.211,0.215 -0.314,0.324 16.257,7.176 29.868,19.674 38.42,35.314 1.871,3.42 3.505,7.006 4.859,10.661 0.134,0.361 0.026,0.769 -0.27,1.017 -2.845,2.398 -6.006,4.362 -9.392,5.838 -4.832,2.108 -9.963,3.177 -15.251,3.177 -0.008,0 -0.015,-10e-4 -0.022,-10e-4 -0.007,0 -0.013,10e-4 -0.021,10e-4 -13.111,0 -24.696,-6.641 -31.595,-16.735 C -74.175,15.437 -76.648,8.004 -76.648,0 c 0,-3.626 0.511,-7.215 1.524,-10.682 -1.741,-0.366 -3.505,-0.665 -5.263,-0.892 L -98.743,37 c -0.133,0.355 -0.475,0.59 -0.854,0.59 h -11.399 c -0.38,0 -0.721,-0.235 -0.855,-0.591 l -27.617,-73.207 c -0.106,-0.281 -0.068,-0.595 0.103,-0.844 0.172,-0.248 0.451,-0.396 0.751,-0.396 h 13.208 c 0.386,0 0.733,0.247 0.863,0.616 l 4.433,12.73 h 29.616 l 0.138,-0.398 4.306,-12.333 c 0.129,-0.368 0.475,-0.615 0.863,-0.615 h 13.256 c 0.3,0 0.582,0.148 0.752,0.396 0.17,0.249 0.209,0.563 0.104,0.844 l -4.833,12.787 c 2.06,0.342 4.116,0.771 6.136,1.271 0.057,0.015 0.116,0.025 0.174,0.039 0.055,-0.079 0.112,-0.16 0.168,-0.238 2.512,-3.491 5.568,-6.518 9.082,-8.996 6.474,-4.566 14.075,-6.98 21.981,-6.98 v 0.002 c 0.014,0 0.028,-0.002 0.043,-0.002 C -17.192,-38.325 0,-21.132 0,0 m -38.354,25.508 c 3.195,-10e-4 6.309,-0.592 9.273,-1.764 -7.459,-13.766 -19.405,-24.586 -33.807,-30.617 -0.628,2.237 -0.946,4.544 -0.946,6.873 0,14.057 11.429,25.492 25.48,25.508 m -56.395,-37.425 0.098,-0.278 h -21.312 l 1.685,4.839 8.958,25.718 z"
           style="fill:#00a3a6;fill-opacity:1;fill-rule:nonzero;stroke:none"
           id="path132" /></g></g></g></svg>
