<?xml version="1.0" encoding="UTF-8" standalone="no"?>
<!-- Created with Inkscape (http://www.inkscape.org/) -->

<svg
   width="177.58144mm"
   height="22.487503mm"
   viewBox="0 0 177.58144 22.487503"
   version="1.1"
   id="svg5"
   xml:space="preserve"
   xmlns:inkscape="http://www.inkscape.org/namespaces/inkscape"
   xmlns:sodipodi="http://sodipodi.sourceforge.net/DTD/sodipodi-0.dtd"
   xmlns="http://www.w3.org/2000/svg"
   xmlns:svg="http://www.w3.org/2000/svg"><sodipodi:namedview
     id="namedview7"
     pagecolor="#ffffff"
     bordercolor="#000000"
     borderopacity="0.25"
     inkscape:showpageshadow="2"
     inkscape:pageopacity="0.0"
     inkscape:pagecheckerboard="0"
     inkscape:deskcolor="#d1d1d1"
     inkscape:document-units="mm"
     showgrid="false" /><defs
     id="defs2"><clipPath
       id="clipPath18-5"
       clipPathUnits="userSpaceOnUse"><path
         style="clip-rule:evenodd"
         id="path16-3"
         d="M 8.871e-6,0 H 595.32001 V 841.92 H 8.871e-6 Z" /></clipPath><clipPath
       clipPathUnits="userSpaceOnUse"
       id="clipPath2846"><path
         d="M 0,652 H 1700.787 V 0 H 0 Z"
         id="path2848" /></clipPath></defs><g
     inkscape:label="Layer 1"
     inkscape:groupmode="layer"
     id="layer1"
     transform="translate(-0.17288201,-99.27876)"><g
       id="g1041"><g
         id="Symbols"
         transform="matrix(0.1,0,0,0.1,17.284026,82.992513)">
	<g
   id="header_x2F_headerv3"
   transform="translate(-217.31144,-61)">
		<g
   id="headerv3">
			<g
   id="header_x2F_menu">
				<g
   id="Group-5">
					<g
   id="Group-11"
   transform="translate(178,61)">
						<g
   id="logo-inrae">
							<g
   id="Combined-Shape">
								<path
   class="st0"
   d="m -104.1,202.2 c 1,0 1.9,0.8 1.9,1.8 v 142.2 c 0,1 -0.8,1.8 -1.9,1.8 h -25.8 c -1,0 -1.9,-0.8 -1.9,-1.8 V 204 c 0,-1 0.8,-1.8 1.9,-1.8 z m 146.1,0 c 1,0 1.9,0.8 1.9,1.8 v 142.2 c 0,1 -0.8,1.8 -1.9,1.8 H 16.1 c -0.6,0 -1.2,-0.3 -1.6,-0.8 l -62.9,-95.7 v 94.7 c 0,1 -0.8,1.8 -1.9,1.8 h -25.9 c -1,0 -1.9,-0.8 -1.9,-1.8 V 204 c 0,-1 0.8,-1.8 1.9,-1.8 h 25.9 c 0.6,0 1.2,0.3 1.6,0.8 l 63.1,96.1 V 204 c 0,-1 0.8,-1.8 1.9,-1.8 z m 108.2,84.4 32.5,57.5 c 0.1,0.3 0.2,0.6 0.2,0.8 v 1.3 c 0,1 -0.8,1.8 -1.9,1.8 h -27.7 c -0.7,0 -1.3,-0.4 -1.6,-1 L 122.4,293.2 H 96.5 v 52.9 c 0,1 -0.8,1.8 -1.9,1.8 H 68.8 c -1,0 -1.9,-0.8 -1.9,-1.8 V 204 c 0,-1 0.8,-1.8 1.9,-1.8 h 52.3 c 17.5,0 31.3,3.9 40.9,11.5 9.7,7.7 14.7,18.9 14.7,33.3 0,9.9 -2.5,18.2 -7.6,24.9 -4.5,6.2 -10.9,11.2 -18.9,14.7 z M 140.4,264 c 4.5,-3.9 6.7,-9.1 6.7,-15.9 0,-7.1 -2.1,-12.6 -6.2,-16.4 -4.2,-3.8 -10.6,-5.8 -19,-6 H 96.5 v 44.1 h 24.7 c 8.2,0 14.7,-1.9 19.2,-5.8 z m 135,34.4 -21.5,-58.8 -18.2,50 -3.4,9.4 h 43.4 z m 114.8,-72.7 c -28.6,0 -51.9,22.3 -51.9,49.6 0,4.5 0.6,9 1.9,13.4 29.3,-11.7 53.6,-32.7 68.8,-59.5 -6,-2.3 -12.3,-3.5 -18.8,-3.5 z m 78,49.6 c 0,41.1 -35,74.5 -78,74.5 0,0 -0.1,0 -0.1,0 v 0 c -16.1,0 -31.6,-4.7 -44.7,-13.6 -7.2,-4.8 -13.4,-10.7 -18.5,-17.5 -0.1,-0.2 -0.2,-0.3 -0.3,-0.5 -0.1,0 -0.2,0 -0.4,0.1 -4.1,1 -8.3,1.8 -12.5,2.5 l 9.8,24.8 c 0.2,0.5 0.1,1.2 -0.2,1.6 -0.3,0.5 -0.9,0.8 -1.5,0.8 h -27 c -0.8,0 -1.5,-0.5 -1.8,-1.2 l -8.8,-24 -0.3,-0.8 h -60.3 l -9,24.7 c -0.3,0.7 -1,1.2 -1.8,1.2 h -26.9 c -0.6,0 -1.2,-0.3 -1.5,-0.8 -0.3,-0.5 -0.4,-1.1 -0.2,-1.6 l 56.2,-142.2 c 0.3,-0.7 1,-1.1 1.7,-1.1 h 23.2 c 0.8,0 1.5,0.5 1.7,1.1 l 37.4,94.4 c 3.6,-0.4 7.2,-1 10.7,-1.7 -2.1,-6.7 -3.1,-13.7 -3.1,-20.8 0,-15.6 5,-30 13.6,-41.9 14,-19.6 37.6,-32.5 64.3,-32.5 0,0 0,0 0,0 0,0 0,0 0,0 10.8,0 21.2,2.1 31,6.2 6.9,2.9 13.3,6.7 19.1,11.3 0.6,0.5 0.8,1.3 0.5,2 -2.8,7.1 -6.1,14.1 -9.9,20.7 -17.4,30.4 -45.1,54.7 -78.2,68.6 0.2,0.2 0.4,0.4 0.6,0.6 6.1,5.8 13.6,10.1 21.9,12.5 4.8,1.4 9.8,2.1 14.9,2.1 26.9,0 49.1,-19.6 51.7,-44.7 0.1,-0.3 0.1,-0.6 0.1,-1 0.3,-5.8 1.3,-7.4 2.7,-9.7 l 15.5,-23.2 c 0.3,-0.3 1,-0.9 1.8,0.1 4.4,9.1 6.6,19 6.6,29 z"
   id="path712" />
							</g>
						</g>
					</g>
				</g>
			</g>
		</g>
	</g>
</g><g
         transform="matrix(0.4165124,0,0,-0.4165124,43.787269,433.39251)"
         id="g10"
         inkscape:export-filename="inrae-logo.svg"
         inkscape:export-xdpi="96"
         inkscape:export-ydpi="96"><g
           id="g12"><g
             clip-path="url(#clipPath18-5)"
             id="g14" /></g><path
           id="path20"
           style="fill:#787878;fill-opacity:0.50196;fill-rule:evenodd;stroke:none"
           d="m 223.81,785.57 c 2.07,0 4.14,0 6.21,0 0.45,2.87 0.93,5.73 1.38,8.59 0.19,1.18 0.28,2.08 0.28,2.7 0,0.61 -0.12,1.06 -0.34,1.38 -0.22,0.32 -0.77,0.52 -1.63,0.63 0.05,0.28 0.09,0.56 0.14,0.84 2.81,0 5.63,0 8.44,0 -0.04,-0.28 -0.09,-0.56 -0.14,-0.84 -0.82,0 -1.45,-0.31 -1.88,-0.95 -0.41,-0.64 -0.79,-1.88 -1.09,-3.76 -1.03,-6.56 -2.12,-13.11 -3.15,-19.67 -0.21,-1.29 -0.31,-2.19 -0.31,-2.76 0,-0.57 0.11,-0.97 0.33,-1.27 0.29,-0.39 0.83,-0.61 1.59,-0.63 -0.04,-0.28 -0.08,-0.56 -0.12,-0.84 -2.76,0 -5.52,0 -8.28,0 0.06,0.28 0.13,0.56 0.19,0.84 0.8,0 1.39,0.29 1.78,0.86 0.37,0.57 0.73,1.83 1.04,3.8 0.48,3.06 0.98,6.1 1.46,9.16 -2.06,0 -4.12,0 -6.19,0 -0.47,-3.06 -0.97,-6.1 -1.45,-9.16 -0.21,-1.24 -0.31,-2.17 -0.31,-2.78 0,-0.55 0.13,-0.97 0.39,-1.32 0.24,-0.34 0.75,-0.54 1.5,-0.56 -0.04,-0.28 -0.09,-0.56 -0.13,-0.84 -2.72,0 -5.44,0 -8.16,0 0.04,0.28 0.09,0.56 0.14,0.84 0.8,0 1.39,0.29 1.76,0.86 0.36,0.57 0.72,1.83 1.03,3.8 1.03,6.56 2.12,13.11 3.15,19.67 0.19,1.13 0.28,2.02 0.28,2.67 0,0.61 -0.12,1.09 -0.33,1.41 -0.22,0.32 -0.75,0.52 -1.59,0.63 0.05,0.28 0.1,0.56 0.14,0.84 2.77,0 5.54,0 8.31,0 -0.07,-0.28 -0.13,-0.56 -0.19,-0.84 -0.77,0 -1.36,-0.29 -1.74,-0.88 -0.39,-0.62 -0.76,-1.88 -1.08,-3.83 -0.47,-2.86 -0.96,-5.72 -1.43,-8.59 z" /><path
           id="path22"
           style="fill:#787878;fill-opacity:0.50196;fill-rule:evenodd;stroke:none"
           d="m 242.93,782.56 c -0.47,3.73 -0.97,7.46 -1.43,11.19 -0.23,1.93 -0.55,3.26 -0.88,3.97 -0.26,0.54 -0.73,0.92 -1.41,1.15 0.04,0.28 0.09,0.56 0.13,0.84 2.72,0 5.44,0 8.16,0 -0.05,-0.28 -0.1,-0.56 -0.15,-0.84 -0.79,0 -1.37,-0.29 -1.73,-0.86 -0.36,-0.59 -0.55,-1.29 -0.55,-2.08 0,-0.5 0.08,-1.36 0.22,-2.61 0.36,-3.03 0.75,-6.05 1.11,-9.08 0.89,2.28 1.84,4.55 2.74,6.84 0.69,1.75 1.14,2.99 1.31,3.71 0.18,0.71 0.27,1.34 0.27,1.88 0,0.55 -0.12,1.02 -0.34,1.43 -0.22,0.41 -0.59,0.66 -1.09,0.77 0.04,0.28 0.09,0.56 0.14,0.84 1.7,0 3.4,0 5.09,0 0,-0.28 0,-0.56 0,-0.84 -0.46,-0.09 -0.85,-0.36 -1.19,-0.81 -0.33,-0.46 -1,-1.88 -1.95,-4.31 -1.58,-4.01 -3.24,-7.99 -4.82,-12.01 -0.37,-2.37 -0.76,-4.74 -1.13,-7.11 -0.23,-1.47 -0.36,-2.31 -0.36,-2.56 0,-0.66 0.14,-1.18 0.41,-1.61 0.27,-0.43 0.74,-0.63 1.39,-0.63 0.16,0 0.32,0 0.48,0 -0.05,-0.28 -0.09,-0.56 -0.14,-0.84 -2.9,0 -5.8,0 -8.69,0 0.04,0.28 0.08,0.56 0.12,0.84 0.64,-0.03 1.15,0.13 1.53,0.47 0.39,0.32 0.68,0.73 0.86,1.25 0.14,0.36 0.34,1.33 0.59,2.9 0.43,2.7 0.88,5.4 1.31,8.11 z" /><path
           id="path24"
           style="fill:#787878;fill-opacity:0.50196;fill-rule:evenodd;stroke:none"
           d="m 250.88,768.99 c 0.05,0.28 0.1,0.56 0.15,0.84 0.81,0 1.45,0.31 1.87,0.92 0.4,0.62 0.77,1.75 1.04,3.43 1,6.46 2.07,12.91 3.08,19.37 0.19,1.27 0.3,2.31 0.3,3.12 0,0.71 -0.12,1.2 -0.35,1.54 -0.24,0.35 -0.83,0.55 -1.79,0.66 0.05,0.28 0.1,0.56 0.15,0.84 1.93,0 3.87,0 5.81,0 3.07,0 5.29,-1.1 6.64,-3.35 1.33,-2.26 2.03,-5.39 2.03,-9.45 0,-2.86 -0.33,-5.25 -0.94,-7.18 -1.21,-3.79 -2.7,-6.49 -4.37,-8.21 -1.68,-1.71 -3.86,-2.53 -6.51,-2.53 -2.37,0 -4.74,0 -7.11,0 z m 10.61,28.91 c -1.22,-7.77 -2.51,-15.53 -3.73,-23.29 -0.18,-1.07 -0.27,-1.84 -0.27,-2.31 0,-0.43 0.11,-0.77 0.29,-1.02 0.25,-0.35 0.63,-0.53 1.12,-0.53 1.17,0 2.24,0.65 3.15,2 1.18,1.71 2.11,4.01 2.72,6.89 0.6,2.88 0.93,5.75 0.93,8.58 0,2.07 -0.18,3.85 -0.54,5.37 -0.36,1.52 -0.92,2.69 -1.67,3.49 -0.52,0.55 -1.19,0.82 -2,0.82 z" /><path
           id="path26"
           style="fill:#787878;fill-opacity:0.50196;fill-rule:evenodd;stroke:none"
           d="m 277.7,783.99 c -0.49,-3.11 -1.01,-6.21 -1.51,-9.32 -0.2,-1.31 -0.32,-2.28 -0.32,-2.89 0,-0.57 0.13,-1.04 0.39,-1.39 0.26,-0.34 0.8,-0.54 1.61,-0.56 -0.05,-0.28 -0.11,-0.56 -0.17,-0.84 -2.73,0 -5.46,0 -8.18,0 0.05,0.28 0.1,0.56 0.15,0.84 0.81,0 1.42,0.29 1.8,0.86 0.37,0.57 0.73,1.85 1.04,3.85 1.03,6.57 2.13,13.14 3.16,19.71 0.17,1.11 0.26,1.97 0.26,2.61 0,0.61 -0.11,1.06 -0.32,1.38 -0.21,0.32 -0.73,0.52 -1.52,0.63 0.04,0.28 0.08,0.56 0.13,0.84 2.34,0 4.69,0 7.03,0 2.02,0 3.45,-0.63 4.25,-1.9 0.8,-1.28 1.23,-2.9 1.23,-4.9 0,-2.1 -0.49,-3.98 -1.43,-5.68 -0.59,-1.07 -1.67,-1.96 -3.19,-2.74 0.5,-3.11 1.03,-6.21 1.52,-9.32 0.41,-2.49 0.77,-3.98 1.08,-4.51 0.3,-0.52 0.8,-0.79 1.52,-0.83 0,-0.28 0,-0.56 0,-0.84 -1.76,0 -3.53,0 -5.29,0 -0.78,5 -1.62,9.99 -2.4,15 -0.14,-0.02 -0.28,-0.03 -0.42,-0.05 -0.08,0 -0.23,0.02 -0.42,0.05 z m 0.17,1.36 c 0.29,-0.03 0.54,-0.05 0.74,-0.05 1.22,0 2.23,0.74 3.01,2.27 0.77,1.52 1.18,3.49 1.18,5.93 0,1.45 -0.22,2.56 -0.63,3.31 -0.41,0.75 -0.96,1.13 -1.65,1.13 -0.17,0 -0.37,0 -0.59,-0.02 -0.67,-4.19 -1.39,-8.38 -2.06,-12.57 z" /><path
           id="path28"
           style="fill:#787878;fill-opacity:0.50196;fill-rule:evenodd;stroke:none"
           d="m 290.99,798.87 c 0.04,0.28 0.09,0.56 0.14,0.84 2.76,0 5.52,0 8.29,0 -0.06,-0.28 -0.11,-0.56 -0.17,-0.84 -0.75,0 -1.33,-0.29 -1.71,-0.9 -0.4,-0.62 -0.76,-1.86 -1.05,-3.79 -1.02,-6.56 -2.09,-13.1 -3.11,-19.66 -0.22,-1.39 -0.34,-2.32 -0.34,-2.79 0,-0.54 0.12,-0.97 0.35,-1.27 0.3,-0.39 0.87,-0.61 1.71,-0.63 -0.05,-0.28 -0.09,-0.56 -0.13,-0.84 -2.81,0 -5.62,0 -8.43,0 0.05,0.28 0.09,0.56 0.14,0.84 0.84,0 1.47,0.29 1.85,0.88 0.39,0.57 0.76,1.83 1.07,3.81 1.02,6.56 2.1,13.1 3.13,19.66 0.18,1.2 0.29,2.13 0.29,2.74 0,0.57 -0.12,1 -0.35,1.32 -0.24,0.32 -0.79,0.52 -1.68,0.63 z" /><path
           id="path30"
           style="fill:#787878;fill-opacity:0.50196;fill-rule:evenodd;stroke:none"
           d="m 312.39,800.41 c -0.46,-3.47 -0.95,-6.94 -1.41,-10.42 -0.14,0 -0.28,0 -0.41,0 -0.09,1.63 -0.26,2.95 -0.49,3.92 -0.35,1.43 -0.83,2.51 -1.39,3.29 -0.58,0.77 -1.22,1.15 -1.9,1.15 -0.65,0 -1.22,-0.45 -1.7,-1.33 -0.48,-0.92 -0.74,-1.93 -0.74,-3.06 0,-1.11 0.18,-2.22 0.52,-3.29 0.33,-1.09 1.14,-2.71 2.39,-4.89 1,-1.76 1.7,-3.24 2.04,-4.49 0.33,-1.25 0.51,-2.6 0.51,-4.08 0,-1.65 -0.24,-3.17 -0.72,-4.55 -0.48,-1.39 -1.2,-2.46 -2.11,-3.22 -0.92,-0.78 -1.98,-1.15 -3.14,-1.15 -0.71,0 -1.62,0.17 -2.71,0.56 -1.08,0.39 -1.81,0.59 -2.18,0.59 -0.28,0 -0.54,-0.07 -0.76,-0.23 -0.22,-0.16 -0.51,-0.47 -0.84,-0.92 -0.16,0 -0.32,0 -0.49,0 0.5,3.9 1.02,7.8 1.52,11.71 0.16,0 0.31,0 0.47,0 0.11,-2.06 0.35,-3.81 0.69,-5.23 0.35,-1.46 0.86,-2.58 1.51,-3.38 0.64,-0.82 1.39,-1.22 2.22,-1.22 0.83,0 1.53,0.49 2.08,1.49 0.55,0.98 0.83,2.13 0.83,3.47 0,1.13 -0.16,2.22 -0.46,3.26 -0.31,1.04 -1.05,2.55 -2.14,4.55 -1.1,2.01 -1.9,3.79 -2.32,5.35 -0.31,1.16 -0.46,2.4 -0.46,3.72 0,2.29 0.51,4.25 1.49,5.91 0.97,1.66 2.29,2.49 3.89,2.49 0.73,0 1.68,-0.28 2.87,-0.88 0.69,-0.35 1.18,-0.52 1.46,-0.52 0.24,0 0.47,0.09 0.66,0.29 0.18,0.19 0.41,0.55 0.67,1.11 0.19,0 0.37,0 0.55,0 z" /><path
           id="path32"
           style="fill:#33cccc;fill-opacity:1;fill-rule:evenodd;stroke:none"
           d="m 222.05,787.33 c 2.07,0 4.15,0 6.22,0 0.45,2.86 0.92,5.72 1.38,8.59 0.18,1.18 0.27,2.08 0.27,2.69 0,0.62 -0.11,1.07 -0.34,1.39 -0.22,0.31 -0.76,0.51 -1.63,0.63 0.05,0.28 0.1,0.56 0.14,0.84 2.82,0 5.63,0 8.44,0 -0.04,-0.28 -0.09,-0.56 -0.13,-0.84 -0.83,0 -1.46,-0.31 -1.88,-0.95 -0.42,-0.64 -0.8,-1.88 -1.09,-3.76 -1.03,-6.56 -2.13,-13.11 -3.16,-19.67 -0.21,-1.29 -0.31,-2.2 -0.31,-2.76 0,-0.57 0.11,-0.97 0.34,-1.27 0.28,-0.39 0.82,-0.61 1.59,-0.64 -0.04,-0.28 -0.09,-0.55 -0.13,-0.83 -2.76,0 -5.52,0 -8.28,0 0.06,0.28 0.13,0.55 0.19,0.83 0.8,0 1.4,0.29 1.78,0.86 0.37,0.57 0.73,1.84 1.04,3.81 0.48,3.05 0.98,6.1 1.46,9.15 -2.06,0 -4.12,0 -6.18,0 -0.48,-3.05 -0.98,-6.1 -1.46,-9.15 -0.21,-1.25 -0.31,-2.17 -0.31,-2.79 0,-0.54 0.13,-0.97 0.39,-1.31 0.25,-0.34 0.75,-0.54 1.5,-0.57 -0.04,-0.28 -0.08,-0.55 -0.12,-0.83 -2.73,0 -5.45,0 -8.17,0 0.04,0.28 0.09,0.55 0.14,0.83 0.8,0 1.39,0.29 1.76,0.86 0.36,0.57 0.72,1.84 1.03,3.81 1.03,6.56 2.13,13.11 3.16,19.67 0.18,1.13 0.27,2.01 0.27,2.67 0,0.61 -0.11,1.09 -0.32,1.41 -0.23,0.31 -0.75,0.51 -1.59,0.63 0.04,0.28 0.09,0.56 0.13,0.84 2.77,0 5.54,0 8.31,0 -0.06,-0.28 -0.13,-0.56 -0.19,-0.84 -0.76,0 -1.36,-0.29 -1.74,-0.88 -0.38,-0.62 -0.76,-1.88 -1.08,-3.83 -0.46,-2.87 -0.96,-5.73 -1.43,-8.59 z" /><path
           id="path34"
           style="fill:#33cccc;fill-opacity:1;fill-rule:evenodd;stroke:none"
           d="m 241.17,784.32 c -0.47,3.73 -0.96,7.46 -1.43,11.19 -0.23,1.93 -0.54,3.26 -0.88,3.96 -0.26,0.55 -0.72,0.93 -1.41,1.16 0.04,0.28 0.09,0.56 0.14,0.84 2.71,0 5.43,0 8.15,0 -0.05,-0.28 -0.1,-0.56 -0.15,-0.84 -0.79,0 -1.37,-0.29 -1.73,-0.86 -0.36,-0.59 -0.55,-1.29 -0.55,-2.09 0,-0.49 0.08,-1.36 0.23,-2.6 0.36,-3.03 0.74,-6.06 1.1,-9.09 0.9,2.29 1.84,4.56 2.74,6.85 0.69,1.74 1.14,2.99 1.32,3.71 0.17,0.7 0.26,1.34 0.26,1.88 0,0.55 -0.12,1.02 -0.34,1.43 -0.22,0.41 -0.59,0.65 -1.09,0.77 0.05,0.28 0.09,0.56 0.14,0.84 1.7,0 3.4,0 5.1,0 0,-0.28 0,-0.56 0,-0.84 -0.47,-0.09 -0.86,-0.36 -1.19,-0.82 -0.34,-0.45 -1.01,-1.87 -1.96,-4.3 -1.58,-4.01 -3.24,-7.99 -4.82,-12.01 -0.37,-2.37 -0.76,-4.74 -1.13,-7.11 -0.23,-1.48 -0.36,-2.31 -0.36,-2.56 0,-0.66 0.14,-1.18 0.41,-1.61 0.27,-0.43 0.74,-0.64 1.39,-0.64 0.16,0 0.32,0 0.48,0 -0.04,-0.28 -0.09,-0.55 -0.14,-0.83 -2.89,0 -5.79,0 -8.69,0 0.04,0.28 0.08,0.55 0.13,0.83 0.63,-0.02 1.14,0.14 1.52,0.48 0.39,0.32 0.68,0.72 0.87,1.25 0.13,0.36 0.33,1.33 0.59,2.9 0.42,2.7 0.87,5.4 1.3,8.11 z" /><path
           id="path36"
           style="fill:#33cccc;fill-opacity:1;fill-rule:evenodd;stroke:none"
           d="m 249.12,770.75 c 0.05,0.28 0.1,0.55 0.15,0.83 0.82,0 1.45,0.32 1.87,0.93 0.41,0.62 0.77,1.75 1.04,3.42 1.01,6.46 2.07,12.91 3.08,19.38 0.2,1.27 0.3,2.31 0.3,3.12 0,0.7 -0.12,1.2 -0.35,1.54 -0.23,0.34 -0.83,0.54 -1.79,0.66 0.05,0.28 0.1,0.56 0.15,0.84 1.94,0 3.87,0 5.81,0 3.07,0 5.3,-1.1 6.64,-3.35 1.33,-2.26 2.03,-5.4 2.03,-9.45 0,-2.86 -0.33,-5.26 -0.94,-7.19 -1.21,-3.79 -2.7,-6.48 -4.37,-8.2 -1.68,-1.71 -3.86,-2.53 -6.5,-2.53 -2.37,0 -4.75,0 -7.12,0 z m 10.61,28.91 c -1.22,-7.77 -2.51,-15.53 -3.73,-23.3 -0.17,-1.06 -0.26,-1.83 -0.26,-2.31 0,-0.43 0.1,-0.76 0.28,-1.02 0.25,-0.34 0.63,-0.52 1.12,-0.52 1.18,0 2.24,0.65 3.16,2 1.17,1.71 2.1,4 2.71,6.88 0.61,2.88 0.93,5.76 0.93,8.59 0,2.06 -0.18,3.85 -0.54,5.37 -0.35,1.52 -0.92,2.69 -1.66,3.49 -0.52,0.55 -1.19,0.82 -2.01,0.82 z" /><path
           id="path38"
           style="fill:#33cccc;fill-opacity:1;fill-rule:evenodd;stroke:none"
           d="m 275.94,785.74 c -0.49,-3.1 -1.01,-6.2 -1.5,-9.31 -0.21,-1.31 -0.33,-2.29 -0.33,-2.9 0,-0.56 0.13,-1.04 0.39,-1.38 0.26,-0.34 0.8,-0.54 1.62,-0.57 -0.06,-0.28 -0.12,-0.55 -0.18,-0.83 -2.73,0 -5.45,0 -8.18,0 0.05,0.28 0.1,0.55 0.15,0.83 0.82,0 1.42,0.29 1.8,0.86 0.38,0.57 0.74,1.86 1.04,3.86 1.04,6.57 2.13,13.13 3.16,19.71 0.17,1.11 0.26,1.97 0.26,2.6 0,0.62 -0.11,1.07 -0.32,1.39 -0.21,0.31 -0.73,0.51 -1.52,0.63 0.04,0.28 0.09,0.56 0.13,0.84 2.34,0 4.69,0 7.04,0 2.01,0 3.44,-0.63 4.24,-1.9 0.81,-1.28 1.23,-2.9 1.23,-4.9 0,-2.11 -0.49,-3.98 -1.43,-5.69 -0.59,-1.07 -1.67,-1.96 -3.19,-2.74 0.5,-3.1 1.03,-6.2 1.53,-9.31 0.4,-2.49 0.77,-3.98 1.07,-4.51 0.3,-0.52 0.81,-0.79 1.52,-0.84 0,-0.28 0,-0.55 0,-0.83 -1.76,0 -3.52,0 -5.29,0 -0.78,5 -1.61,9.99 -2.4,14.99 -0.14,-0.01 -0.28,-0.03 -0.41,-0.04 -0.09,0 -0.24,0.02 -0.43,0.04 z m 0.18,1.36 c 0.28,-0.02 0.53,-0.04 0.74,-0.04 1.21,0 2.22,0.74 3,2.26 0.78,1.53 1.18,3.49 1.18,5.94 0,1.45 -0.22,2.56 -0.63,3.31 -0.41,0.75 -0.96,1.13 -1.65,1.13 -0.16,0 -0.36,0 -0.59,-0.02 -0.67,-4.19 -1.38,-8.38 -2.05,-12.58 z" /><path
           id="path40"
           style="fill:#33cccc;fill-opacity:1;fill-rule:evenodd;stroke:none"
           d="m 289.23,800.63 c 0.05,0.28 0.09,0.56 0.14,0.84 2.76,0 5.53,0 8.29,0 -0.05,-0.28 -0.11,-0.56 -0.16,-0.84 -0.75,0 -1.34,-0.29 -1.72,-0.91 -0.39,-0.61 -0.76,-1.85 -1.05,-3.78 -1.02,-6.56 -2.09,-13.11 -3.11,-19.67 -0.22,-1.38 -0.34,-2.31 -0.34,-2.78 0,-0.55 0.12,-0.97 0.36,-1.27 0.29,-0.39 0.86,-0.61 1.7,-0.64 -0.04,-0.28 -0.09,-0.55 -0.13,-0.83 -2.81,0 -5.62,0 -8.43,0 0.05,0.28 0.1,0.55 0.14,0.83 0.84,0 1.47,0.29 1.86,0.89 0.38,0.57 0.75,1.83 1.06,3.8 1.02,6.56 2.11,13.11 3.13,19.67 0.19,1.2 0.29,2.13 0.29,2.74 0,0.57 -0.12,1 -0.35,1.32 -0.24,0.31 -0.79,0.51 -1.68,0.63 z" /><path
           id="path42"
           style="fill:#33cccc;fill-opacity:1;fill-rule:evenodd;stroke:none"
           d="m 310.64,802.17 c -0.47,-3.47 -0.96,-6.95 -1.42,-10.42 -0.14,0 -0.27,0 -0.41,0 -0.09,1.63 -0.26,2.94 -0.49,3.92 -0.34,1.43 -0.82,2.51 -1.39,3.28 -0.58,0.78 -1.22,1.16 -1.89,1.16 -0.65,0 -1.22,-0.45 -1.71,-1.34 -0.48,-0.91 -0.73,-1.92 -0.73,-3.06 0,-1.11 0.18,-2.21 0.51,-3.28 0.33,-1.09 1.15,-2.71 2.39,-4.9 1,-1.75 1.7,-3.23 2.04,-4.48 0.33,-1.25 0.52,-2.61 0.52,-4.08 0,-1.65 -0.25,-3.17 -0.73,-4.55 -0.48,-1.39 -1.2,-2.46 -2.1,-3.22 -0.92,-0.78 -1.98,-1.16 -3.15,-1.16 -0.71,0 -1.62,0.18 -2.7,0.57 -1.09,0.39 -1.82,0.59 -2.18,0.59 -0.29,0 -0.54,-0.07 -0.77,-0.23 -0.22,-0.16 -0.5,-0.47 -0.84,-0.93 -0.16,0 -0.32,0 -0.48,0 0.49,3.91 1.02,7.81 1.51,11.72 0.16,0 0.32,0 0.48,0 0.11,-2.07 0.34,-3.81 0.69,-5.24 0.34,-1.45 0.85,-2.57 1.5,-3.37 0.64,-0.83 1.39,-1.23 2.23,-1.23 0.83,0 1.52,0.5 2.08,1.5 0.54,0.98 0.82,2.13 0.82,3.47 0,1.13 -0.15,2.21 -0.46,3.26 -0.31,1.04 -1.04,2.55 -2.14,4.55 -1.1,2.01 -1.9,3.78 -2.32,5.35 -0.31,1.16 -0.46,2.4 -0.46,3.71 0,2.29 0.51,4.26 1.49,5.92 0.97,1.66 2.29,2.49 3.89,2.49 0.73,0 1.69,-0.28 2.87,-0.88 0.69,-0.35 1.18,-0.52 1.47,-0.52 0.24,0 0.46,0.08 0.65,0.29 0.19,0.18 0.42,0.54 0.68,1.11 0.18,0 0.36,0 0.55,0 z" /><path
           id="path44"
           style="fill:#33cccc;fill-opacity:1;fill-rule:evenodd;stroke:none"
           d="m 259.1,765.42 c -0.7,-3 -1.44,-5.98 -2.13,-8.98 0.9,1.7 1.64,2.81 2.15,3.37 0.51,0.56 1.01,0.83 1.48,0.83 0.24,0 0.45,-0.1 0.61,-0.31 0.15,-0.2 0.24,-0.47 0.24,-0.81 0,-0.41 -0.07,-0.9 -0.21,-1.48 -0.3,-1.29 -0.63,-2.58 -0.93,-3.88 -0.11,-0.47 -0.17,-0.73 -0.17,-0.77 0,-0.09 0.02,-0.16 0.07,-0.22 0.03,-0.05 0.09,-0.08 0.14,-0.08 0.07,0 0.14,0.04 0.23,0.12 0.28,0.27 0.58,0.65 0.85,1.13 0.08,-0.06 0.16,-0.12 0.24,-0.18 -0.17,-0.32 -0.41,-0.68 -0.71,-1.07 -0.31,-0.4 -0.57,-0.66 -0.79,-0.81 -0.22,-0.16 -0.42,-0.23 -0.59,-0.23 -0.19,0 -0.35,0.07 -0.46,0.21 -0.12,0.15 -0.18,0.33 -0.18,0.56 0,0.27 0.09,0.78 0.26,1.52 0.29,1.23 0.59,2.47 0.88,3.7 0.11,0.46 0.16,0.82 0.16,1.09 0,0.12 -0.03,0.22 -0.09,0.3 -0.06,0.07 -0.15,0.11 -0.25,0.11 -0.14,0 -0.31,-0.06 -0.5,-0.21 -0.34,-0.26 -0.75,-0.73 -1.19,-1.44 -0.12,-0.19 -0.53,-0.95 -1.21,-2.31 -0.21,-0.44 -0.39,-0.91 -0.53,-1.42 -0.16,-0.63 -0.32,-1.26 -0.48,-1.89 -0.38,0 -0.76,0 -1.14,0 0.82,3.53 1.68,7.05 2.5,10.58 0.08,0.38 0.17,0.76 0.26,1.15 0,0.15 -0.05,0.3 -0.16,0.42 -0.11,0.12 -0.24,0.19 -0.4,0.19 -0.09,0 -0.23,-0.02 -0.42,-0.06 -0.05,-0.01 -0.1,-0.02 -0.16,-0.03 0,0.12 0,0.24 0,0.36 0.88,0.19 1.75,0.36 2.63,0.54 z" /><path
           id="path46"
           style="fill:#33cccc;fill-opacity:1;fill-rule:evenodd;stroke:none"
           d="m 264.79,760.64 c 0.17,-0.36 0.29,-0.69 0.35,-1 0.07,-0.32 0.14,-0.92 0.2,-1.84 0.11,-1.52 0.23,-3.03 0.34,-4.55 0.29,0.45 0.75,1.14 1.32,2.11 0.27,0.47 0.62,1.1 1.03,1.91 0.24,0.49 0.4,0.84 0.45,1.04 0.03,0.1 0.05,0.2 0.05,0.3 0,0.07 -0.02,0.12 -0.06,0.17 -0.03,0.05 -0.12,0.09 -0.27,0.16 -0.15,0.05 -0.27,0.16 -0.37,0.32 -0.1,0.16 -0.15,0.33 -0.15,0.54 0,0.25 0.06,0.45 0.18,0.61 0.12,0.16 0.27,0.23 0.46,0.23 0.22,0 0.41,-0.11 0.56,-0.33 0.16,-0.24 0.24,-0.54 0.24,-0.94 0,-0.49 -0.14,-1.04 -0.41,-1.66 -0.27,-0.63 -0.81,-1.59 -1.58,-2.89 -0.77,-1.3 -1.73,-2.7 -2.83,-4.24 -0.75,-1.06 -1.33,-1.71 -1.7,-1.99 -0.37,-0.27 -0.68,-0.41 -0.95,-0.41 -0.15,0 -0.29,0.07 -0.41,0.21 -0.12,0.15 -0.18,0.32 -0.18,0.51 0,0.24 0.09,0.46 0.25,0.66 0.16,0.19 0.34,0.29 0.53,0.29 0.1,0 0.19,-0.02 0.26,-0.08 0.03,-0.03 0.08,-0.12 0.12,-0.27 0.06,-0.14 0.1,-0.24 0.14,-0.28 0.02,-0.03 0.05,-0.05 0.09,-0.05 0.03,0 0.09,0.03 0.16,0.09 0.28,0.22 0.6,0.54 0.97,1 0.48,0.61 0.85,1.1 1.08,1.48 -0.14,1.96 -0.29,3.91 -0.43,5.87 -0.06,0.97 -0.17,1.55 -0.31,1.76 -0.15,0.22 -0.38,0.32 -0.72,0.32 -0.1,0 -0.29,-0.02 -0.57,-0.06 -0.02,0.11 -0.04,0.23 -0.07,0.34 0.74,0.23 1.49,0.44 2.23,0.67 z" /><path
           id="path48"
           style="fill:#33cccc;fill-opacity:1;fill-rule:evenodd;stroke:none"
           d="m 277.61,765.42 c -0.85,-3.64 -1.76,-7.27 -2.61,-10.91 -0.14,-0.6 -0.21,-0.98 -0.21,-1.17 0,-0.06 0.02,-0.12 0.07,-0.17 0.03,-0.06 0.08,-0.09 0.12,-0.09 0.07,0 0.15,0.04 0.24,0.12 0.17,0.15 0.47,0.52 0.86,1.11 0.09,-0.06 0.18,-0.13 0.26,-0.19 -0.36,-0.62 -0.73,-1.12 -1.1,-1.5 -0.37,-0.38 -0.72,-0.57 -1.04,-0.57 -0.18,0 -0.32,0.07 -0.43,0.22 -0.11,0.15 -0.17,0.36 -0.17,0.63 0,0.35 0.08,0.82 0.23,1.41 0.1,0.39 0.2,0.77 0.3,1.15 -0.73,-1.39 -1.41,-2.33 -2.01,-2.87 -0.41,-0.36 -0.81,-0.54 -1.19,-0.54 -0.38,0 -0.72,0.2 -1,0.63 -0.28,0.41 -0.43,0.98 -0.43,1.69 0,0.91 0.25,1.89 0.72,2.94 0.47,1.05 1.12,1.88 1.9,2.54 0.62,0.54 1.2,0.79 1.72,0.79 0.27,0 0.51,-0.06 0.7,-0.21 0.2,-0.14 0.4,-0.35 0.59,-0.67 0.24,1.07 0.5,2.14 0.74,3.22 0.05,0.23 0.1,0.41 0.14,0.54 0.06,0.25 0.09,0.46 0.09,0.61 0,0.13 -0.04,0.24 -0.11,0.33 -0.11,0.1 -0.25,0.16 -0.41,0.16 -0.12,0 -0.31,-0.02 -0.58,-0.07 0,0.11 0,0.23 0,0.34 0.87,0.18 1.74,0.35 2.61,0.53 z m -2.82,-6.57 c 0,0.4 -0.09,0.71 -0.28,0.96 -0.18,0.24 -0.42,0.36 -0.71,0.36 -0.64,0 -1.31,-0.64 -1.99,-1.93 -0.68,-1.29 -1.04,-2.5 -1.04,-3.68 0,-0.46 0.09,-0.81 0.25,-1.05 0.17,-0.25 0.37,-0.37 0.6,-0.37 0.53,0 1.2,0.68 1.98,2.08 0.79,1.39 1.19,2.6 1.19,3.63 z" /><path
           id="path50"
           style="fill:#33cccc;fill-opacity:1;fill-rule:evenodd;stroke:none"
           d="m 277.78,760.12 c 0.88,0.18 1.75,0.34 2.62,0.52 -0.36,-1.5 -0.73,-3 -1.09,-4.5 0.87,1.85 1.7,3.13 2.41,3.87 0.41,0.42 0.74,0.63 1,0.63 0.17,0 0.3,-0.06 0.4,-0.18 0.09,-0.12 0.14,-0.29 0.14,-0.52 0,-0.41 -0.09,-0.8 -0.26,-1.17 -0.12,-0.28 -0.29,-0.42 -0.52,-0.42 -0.11,0 -0.21,0.05 -0.3,0.14 -0.08,0.1 -0.13,0.23 -0.16,0.43 0,0.12 -0.03,0.19 -0.06,0.23 -0.04,0.05 -0.09,0.07 -0.15,0.07 -0.08,0 -0.17,-0.02 -0.24,-0.07 -0.13,-0.09 -0.34,-0.32 -0.6,-0.72 -0.41,-0.61 -0.88,-1.39 -1.37,-2.35 -0.2,-0.41 -0.39,-0.87 -0.54,-1.38 -0.21,-0.7 -0.34,-1.13 -0.37,-1.27 -0.08,-0.38 -0.16,-0.77 -0.24,-1.16 -0.39,0 -0.77,0 -1.16,0 0.46,1.91 0.95,3.82 1.4,5.74 0.16,0.67 0.25,1.14 0.25,1.43 0,0.11 -0.04,0.2 -0.12,0.27 -0.09,0.11 -0.23,0.15 -0.4,0.15 -0.1,0 -0.3,-0.02 -0.58,-0.08 -0.02,0.11 -0.04,0.23 -0.06,0.34 z" /><path
           id="path52"
           style="fill:#33cccc;fill-opacity:1;fill-rule:evenodd;stroke:none"
           d="m 290.2,757.74 c 0,-0.92 -0.2,-1.83 -0.6,-2.74 -0.39,-0.91 -0.96,-1.62 -1.68,-2.16 -0.72,-0.53 -1.42,-0.79 -2.09,-0.79 -0.69,0 -1.27,0.26 -1.7,0.81 -0.43,0.54 -0.66,1.23 -0.66,2.09 0,0.91 0.22,1.81 0.65,2.73 0.42,0.92 1,1.63 1.71,2.16 0.71,0.54 1.41,0.8 2.07,0.8 0.67,0 1.23,-0.27 1.66,-0.81 0.42,-0.54 0.64,-1.23 0.64,-2.09 z m -1.26,0.64 c 0,0.58 -0.11,1.02 -0.34,1.32 -0.23,0.31 -0.53,0.46 -0.89,0.46 -0.75,0 -1.44,-0.64 -2.05,-1.94 -0.62,-1.31 -0.94,-2.59 -0.94,-3.88 0,-0.58 0.12,-1.03 0.36,-1.35 0.24,-0.33 0.55,-0.48 0.92,-0.48 0.71,0 1.39,0.64 2.01,1.94 0.61,1.29 0.93,2.6 0.93,3.93 z" /><path
           id="path54"
           style="fill:#33cccc;fill-opacity:1;fill-rule:evenodd;stroke:none"
           d="m 295.41,765.42 c -0.85,-3.67 -1.75,-7.33 -2.6,-11.01 -0.12,-0.54 -0.19,-0.88 -0.19,-1 0,-0.1 0.03,-0.17 0.08,-0.24 0.04,-0.06 0.11,-0.09 0.17,-0.09 0.1,0 0.2,0.06 0.31,0.16 0.27,0.25 0.55,0.64 0.83,1.17 0.08,-0.09 0.15,-0.19 0.23,-0.28 -0.47,-0.83 -0.93,-1.4 -1.33,-1.73 -0.29,-0.24 -0.58,-0.35 -0.85,-0.35 -0.19,0 -0.35,0.08 -0.48,0.24 -0.12,0.15 -0.19,0.34 -0.19,0.55 0,0.22 0.08,0.68 0.24,1.37 0.67,2.9 1.38,5.78 2.05,8.68 0.17,0.71 0.26,1.12 0.26,1.22 0,0.14 -0.05,0.26 -0.15,0.37 -0.1,0.09 -0.24,0.14 -0.45,0.14 -0.11,0 -0.29,-0.02 -0.53,-0.07 0,0.11 0,0.23 0,0.34 0.87,0.18 1.73,0.35 2.6,0.53 z" /><path
           id="path56"
           style="fill:#33cccc;fill-opacity:1;fill-rule:evenodd;stroke:none"
           d="m 302.29,757.74 c 0,-0.92 -0.21,-1.83 -0.6,-2.74 -0.4,-0.91 -0.97,-1.62 -1.69,-2.16 -0.71,-0.53 -1.41,-0.79 -2.09,-0.79 -0.69,0 -1.26,0.26 -1.69,0.81 -0.44,0.54 -0.66,1.23 -0.66,2.09 0,0.91 0.22,1.81 0.64,2.73 0.42,0.92 1,1.63 1.72,2.16 0.71,0.54 1.4,0.8 2.07,0.8 0.67,0 1.23,-0.27 1.65,-0.81 0.43,-0.54 0.65,-1.23 0.65,-2.09 z m -1.26,0.64 c 0,0.58 -0.12,1.02 -0.34,1.32 -0.23,0.31 -0.53,0.46 -0.9,0.46 -0.74,0 -1.43,-0.64 -2.05,-1.94 -0.62,-1.31 -0.94,-2.59 -0.94,-3.88 0,-0.58 0.13,-1.03 0.37,-1.35 0.24,-0.33 0.54,-0.48 0.92,-0.48 0.71,0 1.39,0.64 2.01,1.94 0.61,1.29 0.93,2.6 0.93,3.93 z" /><path
           id="path58"
           style="fill:#33cccc;fill-opacity:1;fill-rule:evenodd;stroke:none"
           d="m 310.97,760.06 c -0.07,-0.32 -0.15,-0.64 -0.22,-0.96 -0.42,0 -0.85,0 -1.27,0 0.1,-0.33 0.14,-0.64 0.14,-0.93 0,-0.81 -0.28,-1.53 -0.84,-2.17 -0.57,-0.65 -1.36,-0.99 -2.36,-1.06 -0.53,-0.2 -0.94,-0.43 -1.2,-0.7 -0.1,-0.1 -0.15,-0.21 -0.15,-0.31 0,-0.12 0.04,-0.23 0.13,-0.33 0.09,-0.1 0.32,-0.21 0.69,-0.31 0.49,-0.15 0.98,-0.28 1.47,-0.42 0.81,-0.24 1.36,-0.51 1.62,-0.83 0.26,-0.33 0.39,-0.71 0.39,-1.13 0,-0.51 -0.16,-0.97 -0.46,-1.39 -0.31,-0.42 -0.76,-0.74 -1.34,-0.99 -0.59,-0.23 -1.24,-0.35 -1.96,-0.35 -0.63,0 -1.2,0.09 -1.71,0.27 -0.52,0.19 -0.89,0.43 -1.11,0.74 -0.22,0.31 -0.33,0.63 -0.33,0.95 0,0.27 0.07,0.54 0.21,0.82 0.14,0.29 0.33,0.53 0.54,0.72 0.14,0.12 0.53,0.39 1.17,0.83 -0.24,0.22 -0.35,0.46 -0.35,0.73 0,0.25 0.1,0.51 0.31,0.79 0.2,0.27 0.64,0.57 1.29,0.91 -0.55,0.13 -0.99,0.41 -1.32,0.85 -0.32,0.44 -0.49,0.93 -0.49,1.46 0,0.88 0.33,1.65 0.95,2.35 0.62,0.7 1.46,1.04 2.51,1.04 0.38,0 0.69,-0.05 0.93,-0.14 0.25,-0.09 0.48,-0.24 0.71,-0.44 0.68,0 1.36,0 2.05,0 z m -2.63,-1.45 c 0,0.49 -0.12,0.88 -0.34,1.17 -0.22,0.29 -0.52,0.42 -0.89,0.42 -0.57,0 -1.04,-0.34 -1.41,-1.04 -0.36,-0.71 -0.56,-1.43 -0.56,-2.19 0,-0.47 0.12,-0.86 0.36,-1.17 0.23,-0.31 0.52,-0.45 0.86,-0.45 0.27,0 0.53,0.09 0.78,0.27 0.25,0.17 0.46,0.42 0.63,0.74 0.18,0.31 0.32,0.71 0.41,1.2 0.1,0.49 0.16,0.84 0.16,1.05 z m -3.64,-6.34 c -0.41,-0.24 -0.72,-0.52 -0.92,-0.88 -0.21,-0.36 -0.32,-0.71 -0.32,-1.06 0,-0.4 0.15,-0.73 0.45,-1 0.43,-0.39 1.07,-0.58 1.91,-0.58 0.72,0 1.35,0.15 1.86,0.45 0.51,0.31 0.77,0.69 0.77,1.16 0,0.24 -0.09,0.47 -0.28,0.69 -0.19,0.21 -0.56,0.38 -1.11,0.52 -0.29,0.08 -1.09,0.3 -2.36,0.7 z" /><path
           id="path60"
           style="fill:#33cccc;fill-opacity:1;fill-rule:evenodd;stroke:none"
           d="m 314.12,764.31 c 0.21,0 0.39,-0.09 0.53,-0.27 0.15,-0.17 0.22,-0.4 0.22,-0.65 0,-0.25 -0.07,-0.47 -0.22,-0.65 -0.15,-0.19 -0.33,-0.28 -0.53,-0.28 -0.21,0 -0.39,0.09 -0.53,0.28 -0.16,0.18 -0.23,0.4 -0.23,0.65 0,0.25 0.07,0.48 0.22,0.65 0.14,0.18 0.32,0.27 0.54,0.27 z m 0.09,-3.67 c -0.49,-2.16 -1.01,-4.32 -1.5,-6.48 -0.09,-0.44 -0.15,-0.71 -0.15,-0.79 0,-0.1 0.02,-0.18 0.08,-0.24 0.04,-0.07 0.1,-0.09 0.16,-0.09 0.08,0 0.17,0.04 0.28,0.14 0.28,0.28 0.58,0.68 0.87,1.19 0.09,-0.07 0.18,-0.14 0.26,-0.21 -0.33,-0.65 -0.75,-1.18 -1.21,-1.62 -0.34,-0.33 -0.67,-0.49 -0.99,-0.49 -0.2,0 -0.38,0.07 -0.5,0.23 -0.13,0.15 -0.2,0.33 -0.2,0.56 0,0.23 0.06,0.61 0.19,1.14 0.32,1.38 0.66,2.76 0.98,4.14 0.16,0.68 0.25,1.1 0.25,1.28 0,0.14 -0.04,0.25 -0.12,0.33 -0.08,0.09 -0.19,0.13 -0.32,0.13 -0.12,0 -0.34,-0.03 -0.69,-0.1 0,0.12 0,0.24 0,0.36 0.87,0.18 1.74,0.34 2.61,0.52 z" /><path
           id="path62"
           style="fill:#33cccc;fill-opacity:1;fill-rule:evenodd;stroke:none"
           d="m 316.81,755.76 c -0.04,-0.31 -0.05,-0.57 -0.05,-0.77 0,-0.55 0.16,-1.02 0.47,-1.4 0.32,-0.39 0.71,-0.58 1.16,-0.58 0.37,0 0.72,0.09 1.06,0.28 0.33,0.17 0.84,0.57 1.49,1.2 0.06,-0.09 0.11,-0.18 0.16,-0.27 -1.18,-1.46 -2.34,-2.17 -3.43,-2.17 -0.73,0 -1.3,0.28 -1.66,0.85 -0.37,0.57 -0.57,1.19 -0.57,1.87 0,0.92 0.25,1.86 0.7,2.83 0.46,0.96 1.05,1.7 1.75,2.24 0.7,0.54 1.43,0.8 2.17,0.8 0.54,0 0.94,-0.13 1.19,-0.4 0.26,-0.27 0.39,-0.58 0.39,-0.94 0,-0.51 -0.17,-1 -0.5,-1.47 -0.43,-0.62 -1.09,-1.1 -1.94,-1.48 -0.57,-0.26 -1.37,-0.45 -2.39,-0.59 z m 0.05,0.45 c 0.75,0.1 1.36,0.28 1.83,0.54 0.62,0.34 1.1,0.74 1.4,1.22 0.31,0.47 0.47,0.91 0.47,1.34 0,0.26 -0.07,0.47 -0.2,0.63 -0.13,0.15 -0.33,0.24 -0.58,0.24 -0.51,0 -1.07,-0.33 -1.64,-1 -0.57,-0.68 -1.01,-1.67 -1.28,-2.97 z" /></g><g
         id="g2826"
         inkscape:label="amu"
         transform="matrix(0.04670804,0,0,-0.04670804,57.276603,125.43183)"><g
           id="g2828"
           transform="translate(395.7476,457.7734)"><path
             d="M 0,0 -25.594,-79.342 H 25.58 Z M 60.847,-129.87 H 42.135 L 30.308,-95.467 H -30.538 L -42.15,-129.87 h -18.695 l 48.371,143.191 h 24.941 z"
             style="fill:#231f20;fill-opacity:1;fill-rule:nonzero;stroke:none"
             id="path2830" /></g><path
           d="m 479.811,432.609 h 18.057 V 327.903 h -18.057 z m 0,42.79 h 18.057 v -26.011 h -18.057 z"
           style="fill:#231f20;fill-opacity:1;fill-rule:nonzero;stroke:none"
           id="path2832" /><g
           id="g2834"
           transform="translate(518.9429,327.9033)"><path
             d="M 0,0 34.396,52.684 0.638,104.706 H 19.35 L 44.283,66.222 69.231,104.706 H 87.935 L 53.969,52.684 88.575,0 H 69.663 L 44.283,38.917 19.135,0 Z"
             style="fill:#231f20;fill-opacity:1;fill-rule:nonzero;stroke:none"
             id="path2836" /></g><g
           id="g2838"
           transform="translate(754.0352,444.0059)"><path
             d="m 0,0 -2.795,-116.103 h -17.842 l 4.944,143.192 H 7.746 L 49.018,-83.639 90.306,27.089 h 23.424 l 4.953,-143.192 H 100.84 L 98.037,0 61.493,-97.607 H 36.552 Z"
             style="fill:#231f20;fill-opacity:1;fill-rule:nonzero;stroke:none"
             id="path2840" /></g><g
           id="g2842"><g
             id="g2844"
             clip-path="url(#clipPath2846)"><g
               id="g2850"
               transform="translate(952.9902,370.2617)"><path
                 d="m 0,0 h -26.673 c -11.172,0 -15.262,-3.441 -15.262,-13.977 0,-10.748 1.94,-15.044 14.839,-15.044 9.033,0 19.133,3.433 27.096,8.592 z M 18.049,-42.358 H 2.788 l -1.078,7.747 c -9.241,-6.453 -21.283,-9.896 -33.966,-9.896 -19.566,0 -27.736,11.612 -27.736,30.101 0,21.714 10.966,29.459 32.041,29.459 H 0 v 16.341 c 0,13.113 -5.806,17.633 -22.791,17.633 -10.103,0 -19.897,-1.017 -28.061,-2.733 L -52.791,60.7 c 9.886,2.579 19.897,3.804 31.069,3.804 29.885,0 39.771,-11.611 39.771,-33.974 z"
                 style="fill:#231f20;fill-opacity:1;fill-rule:nonzero;stroke:none"
                 id="path2852" /></g><g
               id="g2854"
               transform="translate(1047.1152,418.2109)"><path
                 d="M 0,0 C -9.892,-4.729 -21.289,-12.043 -29.883,-18.065 V -90.308 H -47.946 V 14.398 h 15.7 l 1.07,-14.614 c 7.745,6.021 18.495,12.466 28.815,16.771 z"
                 style="fill:#231f20;fill-opacity:1;fill-rule:nonzero;stroke:none"
                 id="path2856" /></g><g
               id="g2858"
               transform="translate(1094.4189,325.7549)"><path
                 d="m 0,0 c -10.749,0 -24.941,2.364 -33.326,5.591 l 2.371,14.191 c 9.023,-2.58 20.851,-4.297 29.883,-4.297 16.557,0 19.345,3.003 19.345,14.184 0,11.18 -0.856,12.475 -21.931,17.633 -26.01,6.453 -28.375,11.828 -28.375,33.542 0,19.35 8.602,28.167 36.121,28.167 10.103,0 21.068,-1.293 29.671,-3.657 L 32.462,90.515 c -8.808,1.725 -20.42,3.019 -29.02,3.019 -15.478,0 -17.634,-3.658 -17.634,-13.121 0,-11.611 0.214,-13.76 17.849,-18.057 C 33.759,54.832 36.12,51.167 36.12,30.315 36.12,9.896 29.893,0 0,0"
                 style="fill:#231f20;fill-opacity:1;fill-rule:nonzero;stroke:none"
                 id="path2860" /></g><g
               id="g2862"
               transform="translate(1170.0029,388.3184)"><path
                 d="m 0,0 h 44.938 v 8.609 c 0,14.615 -4.944,22.792 -21.931,22.792 C 6.02,31.401 0,23.224 0,8.609 Z m 24.941,-47.078 c 10.317,0 21.714,1.925 33.112,4.943 l 2.361,-14.408 c -9.886,-3.656 -23.86,-6.02 -36.974,-6.02 -30.964,0 -41.499,14.838 -41.499,38.485 V 7.316 c 0,21.713 9.89,39.131 41.066,39.131 30.954,0 39.348,-17.848 39.348,-39.562 v -21.93 H 0 v -8.817 c 0,-16.556 4.512,-23.216 24.941,-23.216"
                 style="fill:#231f20;fill-opacity:1;fill-rule:nonzero;stroke:none"
                 id="path2864" /></g><path
               d="m 1256.02,432.609 h 18.065 V 327.903 h -18.065 z m 0,42.79 h 18.065 v -26.011 h -18.065 z"
               style="fill:#231f20;fill-opacity:1;fill-rule:nonzero;stroke:none"
               id="path2866" /><g
               id="g2868"
               transform="translate(1308.4824,327.9033)"><path
                 d="m 0,0 v 147.496 l 18.055,2.579 V 0 Z"
                 style="fill:#231f20;fill-opacity:1;fill-rule:nonzero;stroke:none"
                 id="path2870" /></g><g
               id="g2872"
               transform="translate(1360.9414,327.9033)"><path
                 d="m 0,0 v 147.496 l 18.066,2.579 V 0 Z"
                 style="fill:#231f20;fill-opacity:1;fill-rule:nonzero;stroke:none"
                 id="path2874" /></g><g
               id="g2876"
               transform="translate(1418.9102,388.3184)"><path
                 d="m 0,0 h 44.938 v 8.609 c 0,14.615 -4.944,22.792 -21.929,22.792 C 6.021,31.401 0,23.224 0,8.609 Z m 24.948,-47.078 c 10.318,0 21.707,1.925 33.103,4.943 l 2.365,-14.408 c -9.888,-3.656 -23.863,-6.02 -36.978,-6.02 -30.961,0 -41.495,14.838 -41.495,38.485 V 7.316 c 0,21.713 9.886,39.131 41.066,39.131 30.961,0 39.346,-17.848 39.346,-39.562 v -21.93 H 0 v -8.817 c 0,-16.556 4.521,-23.216 24.948,-23.216"
                 style="fill:#231f20;fill-opacity:1;fill-rule:nonzero;stroke:none"
                 id="path2878" /></g><g
               id="g2880"
               transform="translate(582.6919,287.1934)"><path
                 d="m 0,0 v -83.793 c 0,-7.662 4.042,-10.426 11.273,-10.426 8.5,0 26.796,5.106 39.77,11.912 V 0 H 63.379 V -103.575 H 52.537 l -0.853,9.356 C 40.619,-99.524 22.115,-105.7 9.579,-105.7 c -16.171,0 -21.915,9.148 -21.915,23.393 V 0 Z"
                 style="fill:#4dc6f4;fill-opacity:1;fill-rule:nonzero;stroke:none"
                 id="path2882" /></g><g
               id="g2884"
               transform="translate(748.3066,183.6182)"><path
                 d="m 0,0 v 83.794 c 0,7.653 -4.043,10.425 -11.273,10.425 -8.502,0 -26.797,-5.113 -39.764,-11.919 V 0 h -12.352 v 103.575 h 10.859 l 0.846,-9.356 c 11.057,5.313 29.569,11.481 42.104,11.481 16.17,0 21.915,-9.148 21.915,-23.4 V 0 Z"
                 style="fill:#4dc6f4;fill-opacity:1;fill-rule:nonzero;stroke:none"
                 id="path2886" /></g><path
               d="m 792.967,252.696 h 12.335 v -69.078 h -12.335 z m 0,34.967 h 12.335 v -22.747 h -12.335 z"
               style="fill:#4dc6f4;fill-opacity:1;fill-rule:nonzero;stroke:none"
               id="path2888" /><g
               id="g2890"
               transform="translate(884.168,183.6182)"><path
                 d="m 0,0 h -18.929 l -35.096,103.575 h 12.551 L -9.572,8.726 22.545,103.575 H 35.08 Z"
                 style="fill:#4dc6f4;fill-opacity:1;fill-rule:nonzero;stroke:none"
                 id="path2892" /></g><g
               id="g2894"
               transform="translate(947.6309,242.7402)"><path
                 d="m 0,0 h 51.884 v 9.363 c 0,17.434 -6.16,26.581 -25.519,26.581 C 7.015,35.944 0,26.797 0,9.363 Z m 27.012,-50.396 c 10.627,0 22.547,2.116 32.742,4.888 l 2.14,-9.994 c -9.579,-3.404 -23.192,-5.745 -35.744,-5.745 -29.137,0 -38.485,15.101 -38.485,37.639 v 32.54 c 0,21.268 9.564,37.646 38.7,37.646 29.139,0 37.654,-16.378 37.654,-37.646 V -11.057 H 0 v -12.967 c 0,-18.503 6.377,-26.372 27.012,-26.372"
                 style="fill:#4dc6f4;fill-opacity:1;fill-rule:nonzero;stroke:none"
                 id="path2896" /></g><g
               id="g2898"
               transform="translate(1087.374,277.1904)"><path
                 d="m 0,0 c -10.842,-4.682 -22.749,-12.552 -32.757,-19.136 v -74.436 h -12.32 V 10.003 h 11.056 l 0.632,-15.747 c 11.057,7.238 22.114,14.261 31.91,17.872 z"
                 style="fill:#4dc6f4;fill-opacity:1;fill-rule:nonzero;stroke:none"
                 id="path2900" /></g><g
               id="g2902"
               transform="translate(1138.6855,181.4932)"><path
                 d="m 0,0 c -10.426,0 -22.745,2.125 -30.415,5.313 l 2.126,9.995 c 8.931,-2.756 19.772,-4.25 27.429,-4.25 19.14,0 22.976,3.619 22.976,16.801 0,14.893 -0.416,16.378 -24.024,21.908 -25.95,6.167 -28.074,12.543 -28.074,31.47 0,17.217 8.285,26.588 33.801,26.588 9.579,0 21.268,-1.27 29.354,-3.611 L 31.896,93.788 c -8.288,1.693 -20.407,2.979 -28.923,2.979 -18.078,0 -20.621,-4.688 -20.621,-15.954 0,-14.246 0.846,-15.731 19.973,-20.628 C 32.743,52.53 34.45,47.642 34.45,28.283 34.45,9.571 27.644,0 0,0"
                 style="fill:#4dc6f4;fill-opacity:1;fill-rule:nonzero;stroke:none"
                 id="path2904" /></g><path
               d="m 1203.074,252.696 h 12.337 v -69.078 h -12.337 z m 0,34.967 h 12.337 v -22.747 h -12.337 z"
               style="fill:#4dc6f4;fill-opacity:1;fill-rule:nonzero;stroke:none"
               id="path2906" /><g
               id="g2908"
               transform="translate(1304.5332,184.7188)"><path
                 d="m 0,0 c -5.947,-2.348 -11.798,-3.226 -19.253,-3.226 -16.368,0 -23.393,5.96 -23.393,22.33 V 91.84 h -19.987 v 10.635 h 19.987 v 20.904 l 12.353,1.695 V 102.475 H -2.08 L -3.357,91.84 H -30.293 V 20.383 c 0,-9.147 1.264,-12.983 11.903,-12.983 5.729,0 9.886,0.262 16.048,2.172 z"
                 style="fill:#4dc6f4;fill-opacity:1;fill-rule:nonzero;stroke:none"
                 id="path2910" /></g><g
               id="g2912"
               transform="translate(1334.3301,242.7402)"><path
                 d="m 0,0 h 51.901 v 9.363 c 0,17.434 -6.176,26.581 -25.535,26.581 C 7.024,35.944 0,26.797 0,9.363 Z m 27.013,-50.396 c 10.627,0 22.547,2.116 32.742,4.888 l 2.14,-9.994 c -9.579,-3.404 -23.192,-5.745 -35.73,-5.745 -29.152,0 -38.499,15.101 -38.499,37.639 v 32.54 c 0,21.268 9.578,37.646 38.7,37.646 C 55.505,46.578 64.02,30.2 64.02,8.932 V -11.057 H 0 v -12.967 c 0,-18.503 6.376,-26.372 27.013,-26.372"
                 style="fill:#4dc6f4;fill-opacity:1;fill-rule:nonzero;stroke:none"
                 id="path2914" /></g><g
               id="g2916"
               transform="translate(1347.252,306.251)"><path
                 d="M 0,0 C 9.549,3.079 20.807,6.807 31.495,10.911 L 35.175,0.323 C 24.703,-3.835 13.074,-7.247 3.42,-9.856 Z"
                 style="fill:#4dc6f4;fill-opacity:1;fill-rule:nonzero;stroke:none"
                 id="path2918" /></g><g
               id="g2920"
               transform="translate(665.5273,454.5464)"><path
                 d="M 0,0 C 0,0 -4.736,-2.003 -4.736,-4.144 V -63.608 -89 -121.741 c 0,-2.128 4.792,-4.142 4.792,-4.142 0,0 4.736,2.004 4.736,4.142 V -89 -63.608 -4.144 C 4.792,-2.014 0,0 0,0"
                 style="fill:#fab20b;fill-opacity:1;fill-rule:nonzero;stroke:none"
                 id="path2922" /></g><g
               id="g2924"
               transform="translate(664.8691,452.9854)"><path
                 d="m 0,0 0.657,1.56 z m -2.36,-120.204 c 0.037,-0.075 0.129,-0.214 0.275,-0.373 0.294,-0.322 0.793,-0.713 1.318,-1.048 0.532,-0.342 1.07,-0.628 1.473,-0.828 0.299,0.148 0.672,0.345 1.065,0.58 0.915,0.512 1.854,1.346 1.959,1.658 0.037,0.03 0.027,0.034 0.027,0.034 v 32.744 25.392 59.436 C 3.753,-2.597 3.746,-2.58 3.733,-2.557 3.696,-2.479 3.601,-2.344 3.456,-2.184 3.16,-1.861 2.662,-1.472 2.14,-1.136 1.606,-0.793 1.066,-0.506 0.662,-0.307 0.365,-0.454 -0.008,-0.65 -0.4,-0.885 -1.315,-1.4 -2.255,-2.231 -2.36,-2.543 -2.398,-2.577 -2.387,-2.581 -2.384,-2.581 v -59.464 c -0.003,-13.215 -0.003,-25.392 0,-25.392 l -0.003,-32.709 c 0.004,-0.009 0.012,-0.028 0.027,-0.058 m 2.418,-5.677 c -0.051,0.023 -1.313,0.546 -2.656,1.407 -1.267,0.918 -2.991,1.91 -3.173,4.293 v 32.744 25.392 59.464 c 0.176,2.371 1.885,3.381 3.139,4.293 1.33,0.862 2.577,1.384 2.629,1.411 L 0.654,3.401 1.313,3.123 C 1.367,3.1 2.625,2.574 3.967,1.712 5.236,0.797 6.961,-0.197 7.145,-2.581 v -59.464 c -0.003,-13.215 -0.003,-25.392 0,-25.392 l -0.003,-32.744 c -0.173,-2.371 -1.886,-3.378 -3.138,-4.293 -1.332,-0.861 -2.58,-1.384 -2.63,-1.407 l -0.659,-0.278 z"
                 style="fill:#fab20b;fill-opacity:1;fill-rule:nonzero;stroke:none"
                 id="path2926" /></g><g
               id="g2928"
               transform="translate(622.606,403.0068)"><path
                 d="m 0,0 c 0,0 -0.633,-5.104 1.219,-6.175 l 28.354,-16.368 c 11.442,-6.607 21.989,-12.696 21.989,-12.696 l 28.354,-16.369 c 1.843,-1.066 5.983,2.078 5.983,2.078 0,0 0.634,5.103 -1.219,6.174 l -28.355,16.371 c 0,0 -10.545,6.089 -21.989,12.694 L 5.985,2.079 C 4.139,3.144 0,0 0,0"
                 style="fill:#fab20b;fill-opacity:1;fill-rule:nonzero;stroke:none"
                 id="path2930" /></g><g
               id="g2932"
               transform="translate(703.4473,352.873)"><path
                 d="M 0,0 C 0.397,-0.033 1.567,0.398 2.451,0.929 2.832,1.145 3.171,1.357 3.437,1.535 3.454,1.81 3.469,2.146 3.469,2.518 3.526,3.687 3.176,5.163 2.993,5.313 H 2.992 L 2.969,5.326 -25.366,21.684 c -0.02,0.012 -10.545,6.087 -21.988,12.694 l -28.323,16.353 c -0.012,0.004 -0.049,0.01 -0.106,0.01 -0.402,0.034 -1.571,-0.397 -2.455,-0.928 -0.381,-0.215 -0.72,-0.43 -0.985,-0.608 -0.017,-0.274 -0.032,-0.613 -0.032,-0.983 -0.059,-1.173 0.296,-2.655 0.478,-2.798 l 0.001,0.002 28.355,-16.367 c 11.44,-6.608 21.964,-12.684 21.988,-12.698 L -0.104,0.007 C -0.085,0.004 -0.052,0 0,0 M -1.772,-2.941 -30.127,13.43 c 0,0 -10.548,6.087 -21.988,12.694 l -28.354,16.371 c -1.211,0.737 -1.619,1.867 -1.874,2.846 -0.245,1.003 -0.296,2.016 -0.299,2.881 0,1.18 0.116,2.077 0.119,2.125 l 0.088,0.707 0.568,0.428 c 0.17,0.028 2.969,2.504 6.084,2.646 0.558,0 1.183,-0.108 1.772,-0.448 l 28.35,-16.371 c 11.447,-6.604 21.992,-12.695 21.989,-12.695 L 4.683,8.243 C 5.896,7.506 6.302,6.377 6.556,5.4 6.801,4.397 6.852,3.384 6.855,2.518 6.855,1.338 6.743,0.439 6.736,0.395 L 6.651,-0.313 6.08,-0.744 C 5.91,-0.774 3.108,-3.244 0,-3.387 c -0.555,0 -1.18,0.106 -1.772,0.446"
                 style="fill:#fab20b;fill-opacity:1;fill-rule:nonzero;stroke:none"
                 id="path2934" /></g><g
               id="g2936"
               transform="translate(708.5049,403.0068)"><path
                 d="m 0,0 c 0,0 0.634,-5.104 -1.219,-6.175 l -28.353,-16.368 c -11.443,-6.607 -21.989,-12.696 -21.989,-12.696 l -28.353,-16.369 c -1.845,-1.066 -5.985,2.078 -5.985,2.078 0,0 -0.633,5.103 1.219,6.174 l 28.355,16.371 c 0,0 10.545,6.089 21.989,12.694 L -5.983,2.079 C -4.139,3.144 0,0 0,0"
                 style="fill:#fab20b;fill-opacity:1;fill-rule:nonzero;stroke:none"
                 id="path2938" /></g><g
               id="g2940"
               transform="translate(703.3398,403.6055)"><path
                 d="m 0,0 v 0.002 c 0,0 -0.001,0 0,-0.002 m -78.132,-49.805 c 0.887,-0.53 2.053,-0.963 2.454,-0.929 0.054,0 0.092,0.005 0.108,0.008 l 28.328,16.357 c 0.021,0.01 10.546,6.086 21.989,12.693 L 3.074,-5.322 v 0.001 c 0.01,0.01 0.037,0.044 0.072,0.105 0.068,0.115 0.16,0.343 0.227,0.629 0.144,0.575 0.204,1.378 0.201,2.075 0,0.369 -0.012,0.705 -0.029,0.981 C 3.279,-1.354 2.939,-1.137 2.558,-0.922 1.674,-0.391 0.503,0.045 0.105,0.011 0.054,0.011 0.022,0.006 0.007,0.002 l -28.331,-16.358 c -11.447,-6.605 -21.968,-12.682 -21.992,-12.695 L -78.65,-45.408 c -0.01,-0.01 -0.034,-0.04 -0.068,-0.103 -0.071,-0.114 -0.159,-0.34 -0.227,-0.625 -0.147,-0.575 -0.204,-1.378 -0.201,-2.077 0,-0.371 0.013,-0.707 0.03,-0.982 0.265,-0.178 0.603,-0.395 0.984,-0.61 m 2.454,-4.312 c -3.111,0.142 -5.91,2.611 -6.08,2.638 l -0.568,0.432 -0.088,0.707 c -0.007,0.045 -0.119,0.944 -0.119,2.127 0,0.863 0.054,1.877 0.295,2.883 0.256,0.976 0.663,2.105 1.875,2.844 l 28.357,16.369 c 0,0 10.542,6.088 21.988,12.695 L -1.67,2.945 c 0.592,0.34 1.218,0.452 1.775,0.452 C 3.217,3.252 6.02,0.779 6.188,0.749 L 5.165,-0.598 6.188,0.749 6.757,0.32 6.846,-0.391 C 6.849,-0.436 6.961,-1.332 6.961,-2.512 6.961,-3.377 6.906,-4.386 6.665,-5.393 6.407,-6.369 6.002,-7.498 4.791,-8.239 L -23.56,-24.607 c -11.443,-6.608 -21.988,-12.698 -21.992,-12.698 l -28.354,-16.37 c -0.586,-0.335 -1.198,-0.442 -1.746,-0.442 z"
                 style="fill:#fab20b;fill-opacity:1;fill-rule:nonzero;stroke:none"
                 id="path2942" /></g><g
               id="g2944"
               transform="translate(196.6899,319.0898)"><path
                 d="m 0,0 c 0,23.059 1.987,44.648 5.964,64.738 3.974,20.092 9.997,39.877 18.104,59.354 8.094,19.475 18.107,38.99 30.023,58.555 7.178,11.918 13.539,20.227 18.103,25.778 4.715,5.737 9.708,11.8 16.582,11.8 7.493,0 11.23,-2.059 11.23,-6.184 0,-1.38 -3.517,-9.662 -10.543,-24.869 C 82.43,173.974 75.824,158.048 69.64,141.397 63.449,124.737 57.719,103.961 52.462,79.06 47.181,54.16 44.551,27.799 44.551,0 c 0,-27.502 2.589,-53.553 7.787,-78.157 5.193,-24.591 12.552,-45.909 19.202,-63.933 6.65,-18.023 11.848,-34.189 18.489,-48.47 6.651,-14.281 9.977,-22.036 9.977,-23.256 0,-4.125 -3.737,-6.184 -11.23,-6.184 -7.026,0 -11.847,7.02 -16.582,12.365 -4.738,5.355 -10.77,13.9 -18.103,25.676 -12.071,20.155 -22.045,39.598 -29.912,58.314 -7.871,18.719 -13.858,38.164 -17.983,58.332 C 2.062,-45.15 0,-23.377 0,0"
                 style="fill:#1476c6;fill-opacity:1;fill-rule:nonzero;stroke:none"
                 id="path2946" /></g></g></g></g></g></g><style
     type="text/css"
     id="style710">
	.st0{fill:#009992;}
</style></svg>
