<?xml version="1.0" encoding="UTF-8" standalone="no"?>
<!-- Created with Inkscape (http://www.inkscape.org/) -->

<svg
   width="49.369019mm"
   height="66.649429mm"
   viewBox="0 0 49.369019 66.649429"
   version="1.1"
   id="svg1"
   xml:space="preserve"
   inkscape:version="1.3 (0e150ed, 2023-07-21)"
   sodipodi:docname="grd_structure.svg"
   xmlns:inkscape="http://www.inkscape.org/namespaces/inkscape"
   xmlns:sodipodi="http://sodipodi.sourceforge.net/DTD/sodipodi-0.dtd"
   xmlns="http://www.w3.org/2000/svg"
   xmlns:svg="http://www.w3.org/2000/svg"><sodipodi:namedview
     id="namedview1"
     pagecolor="#ffffff"
     bordercolor="#000000"
     borderopacity="0.25"
     inkscape:showpageshadow="2"
     inkscape:pageopacity="0.0"
     inkscape:pagecheckerboard="0"
     inkscape:deskcolor="#d1d1d1"
     inkscape:document-units="mm"
     inkscape:zoom="1.4538721"
     inkscape:cx="110.39486"
     inkscape:cy="213.91153"
     inkscape:window-width="1846"
     inkscape:window-height="1016"
     inkscape:window-x="74"
     inkscape:window-y="27"
     inkscape:window-maximized="1"
     inkscape:current-layer="layer1" /><defs
     id="defs1"><marker
       style="overflow:visible"
       id="marker111"
       refX="0"
       refY="0"
       orient="auto-start-reverse"
       inkscape:stockid="Rounded arrow"
       markerWidth="0.80000001"
       markerHeight="0.80000001"
       viewBox="0 0 1 1"
       inkscape:isstock="true"
       inkscape:collect="always"
       preserveAspectRatio="xMidYMid"><path
         transform="scale(0.7)"
         d="m -0.21114562,-4.1055728 6.42229122,3.21114561 a 1,1 90 0 1 0,1.78885438 L -0.21114562,4.1055728 A 1.236068,1.236068 31.717474 0 1 -2,3 v -6 a 1.236068,1.236068 148.28253 0 1 1.78885438,-1.1055728 z"
         style="fill:context-stroke;fill-rule:evenodd;stroke:none"
         id="path111" /></marker><marker
       style="overflow:visible"
       id="marker110"
       refX="0"
       refY="0"
       orient="auto-start-reverse"
       inkscape:stockid="Rounded arrow"
       markerWidth="1"
       markerHeight="1"
       viewBox="0 0 1 1"
       inkscape:isstock="true"
       inkscape:collect="always"
       preserveAspectRatio="xMidYMid"><path
         transform="scale(0.7)"
         d="m -0.21114562,-4.1055728 6.42229122,3.21114561 a 1,1 90 0 1 0,1.78885438 L -0.21114562,4.1055728 A 1.236068,1.236068 31.717474 0 1 -2,3 v -6 a 1.236068,1.236068 148.28253 0 1 1.78885438,-1.1055728 z"
         style="fill:context-stroke;fill-rule:evenodd;stroke:none"
         id="path110" /></marker><marker
       style="overflow:visible"
       id="RoundedArrow"
       refX="0"
       refY="0"
       orient="auto-start-reverse"
       inkscape:stockid="Rounded arrow"
       markerWidth="0.80000001"
       markerHeight="0.80000001"
       viewBox="0 0 1 1"
       inkscape:isstock="true"
       inkscape:collect="always"
       preserveAspectRatio="xMidYMid"><path
         transform="scale(0.7)"
         d="m -0.21114562,-4.1055728 6.42229122,3.21114561 a 1,1 90 0 1 0,1.78885438 L -0.21114562,4.1055728 A 1.236068,1.236068 31.717474 0 1 -2,3 v -6 a 1.236068,1.236068 148.28253 0 1 1.78885438,-1.1055728 z"
         style="fill:context-stroke;fill-rule:evenodd;stroke:none"
         id="path8" /></marker></defs><g
     inkscape:label="Calque 1"
     inkscape:groupmode="layer"
     id="layer1"
     transform="translate(-42.188863,-57.650629)"><g
       id="g24"
       inkscape:export-filename="grd_structure.svg"
       inkscape:export-xdpi="96"
       inkscape:export-ydpi="96"><path
         d="m 58.497007,59.307204 c 0.0055,-0.01654 0.01654,-0.03858 0.01654,-0.04961 0,0 0,-0.03859 -0.0441,-0.03859 -0.03307,0 -0.03858,0.02205 -0.0441,0.0441 -0.231511,0.518143 -0.358291,0.755166 -0.959116,0.755166 h -0.51263 c -0.04961,0 -0.06063,0 -0.07717,0 -0.03859,-0.0055 -0.04961,-0.01102 -0.04961,-0.03859 0,-0.01103 0,-0.01654 0.01654,-0.07717 l 0.242535,-0.964628 h 0.347265 c 0.297657,0 0.297657,0.07717 0.297657,0.165365 0,0.02205 0,0.06615 -0.02205,0.170877 -0.0055,0.01654 -0.01102,0.02756 -0.01102,0.03858 0,0.01654 0.01102,0.03859 0.0441,0.03859 0.02756,0 0.03859,-0.01654 0.05512,-0.07166 l 0.198437,-0.821311 c 0,-0.02205 -0.01654,-0.03858 -0.0441,-0.03858 -0.02756,0 -0.03859,0.02205 -0.0441,0.06063 -0.07717,0.270096 -0.137804,0.352778 -0.463021,0.352778 h -0.33073 l 0.209462,-0.848872 c 0.03307,-0.126779 0.03858,-0.137804 0.192926,-0.137804 h 0.496094 c 0.424436,0 0.534679,0.09922 0.534679,0.391363 0,0.08268 0,0.08819 -0.01654,0.187414 0,0.01654 -0.0055,0.0441 -0.0055,0.06063 0,0.01654 0.01103,0.0441 0.0441,0.0441 0.03859,0 0.0441,-0.02205 0.04961,-0.0882 l 0.07166,-0.611849 c 0.01102,-0.09371 -0.0055,-0.09371 -0.09371,-0.09371 h -1.780426 c -0.06615,0 -0.104731,0 -0.104731,0.07166 0,0.03858 0.03307,0.03858 0.09922,0.03858 0.132292,0 0.23151,0 0.23151,0.06063 0,0.01654 0,0.02205 -0.02205,0.0882 l -0.463021,1.857596 c -0.03307,0.137804 -0.03859,0.165365 -0.319705,0.165365 -0.06063,0 -0.09922,0 -0.09922,0.06615 0,0.0441 0.03307,0.0441 0.09922,0.0441 h 1.824523 c 0.08268,0 0.08819,-0.0055 0.110243,-0.06063 z m 0,0"
         id="path24"
         style="fill:#31859c;fill-opacity:1;stroke:#31859c;stroke-width:0.1;stroke-dasharray:none;stroke-opacity:1" /><path
         d="m 66.498496,58.990727 h 0.600825 c 0.496094,0 0.986676,-0.363802 0.986676,-0.755165 0,-0.275608 -0.23151,-0.534679 -0.694532,-0.534679 h -1.135504 c -0.06615,0 -0.104731,0 -0.104731,0.06615 0,0.0441 0.02756,0.0441 0.09922,0.0441 0.0441,0 0.110243,0.0055 0.148828,0.0055 0.06063,0.01102 0.07717,0.01654 0.07717,0.06063 0,0.01102 0,0.02205 -0.01103,0.06615 l -0.474045,1.885157 c -0.03307,0.137804 -0.03859,0.165365 -0.319705,0.165365 -0.05512,0 -0.09371,0 -0.09371,0.06615 0,0.0441 0.03859,0.0441 0.04961,0.0441 0.09922,0 0.347266,-0.01102 0.446485,-0.01102 0.07717,0 0.154341,0.0055 0.225999,0.0055 0.07717,0 0.15434,0.0055 0.225998,0.0055 0.02756,0 0.07166,0 0.07166,-0.07166 0,-0.03859 -0.03307,-0.03859 -0.09922,-0.03859 -0.126779,0 -0.225998,0 -0.225998,-0.06063 0,-0.02205 0.0055,-0.03858 0.01102,-0.06063 z m 0.253559,-1.047309 c 0.03307,-0.121268 0.03858,-0.132292 0.192926,-0.132292 h 0.336241 c 0.292145,0 0.479558,0.09371 0.479558,0.336242 0,0.137803 -0.07166,0.440972 -0.209462,0.567752 -0.176389,0.159852 -0.385851,0.187413 -0.540191,0.187413 h -0.496094 z m 0,0"
         id="path28"
         style="fill:#31859c;fill-opacity:1;stroke:#31859c;stroke-width:0.1;stroke-dasharray:none;stroke-opacity:1" /><path
         style="fill:#1a1a1a;stroke:#000000;stroke-width:0.345;stroke-linecap:round;stroke-dasharray:none"
         d="m 57.370576,61.517402 v 5.384975"
         id="path21" /><path
         style="fill:#1a1a1a;stroke:#000000;stroke-width:0.345;stroke-linecap:round;stroke-dasharray:none"
         d="m 66.876778,61.487558 v 5.384975"
         id="path88" /><path
         style="fill:#0070c0;fill-opacity:1;stroke:none;stroke-width:0.328001;stroke-linecap:round;stroke-dasharray:none"
         d="m 57.606727,65.389887 v 3.551651"
         id="path105" /><path
         style="fill:#000000;stroke:#000000;stroke-width:0.307325;stroke-linecap:round;stroke-dasharray:none"
         d="M 51.935357,66.918653 H 73.260863"
         id="path1" /><path
         style="fill:#000000;stroke:#000000;stroke-width:0.345001;stroke-linecap:round;stroke-dasharray:none"
         d="m 71.651502,66.950998 v 5.900404"
         id="path2" /><g
         inkscape:label=""
         transform="translate(69.900584,74.73518)"
         id="g9"
         style="stroke:#000000;stroke-width:0.1;stroke-dasharray:none;stroke-opacity:1"><g
   fill="#000000"
   fill-opacity="1"
   id="g6"
   transform="matrix(0.352778,0,0,0.352778,-0.592843,-0.661723)"
   style="stroke:#000000;stroke-width:0.283464;stroke-dasharray:none;stroke-opacity:1">&#10;    <g
   id="g5"
   transform="translate(1.993,6.2820001)"
   style="stroke:#000000;stroke-width:0.283464;stroke-dasharray:none;stroke-opacity:1">&#10;      <path
   d="M 0.453125,1.21875 C 0.375,1.5625 0.34375,1.625 -0.09375,1.625 c -0.109375,0 -0.21875,0 -0.21875,0.1875 0,0.078125 0.046875,0.125 0.125,0.125 0.265625,0 0.5625,-0.03125 0.828125,-0.03125 0.34375,0 0.671875,0.03125 1,0.03125 0.046875,0 0.171875,0 0.171875,-0.203125 C 1.8125,1.625 1.71875,1.625 1.578125,1.625 c -0.5,0 -0.5,-0.0625 -0.5,-0.15625 0,-0.125 0.421875,-1.75 0.484375,-2 0.125,0.296875 0.40625,0.640625 0.921875,0.640625 1.15625,0 2.40625,-1.453125 2.40625,-2.921875 0,-0.9375 -0.578125,-1.59375 -1.328125,-1.59375 -0.5,0 -0.984375,0.359375 -1.3125,0.75 -0.09375,-0.546875 -0.53125,-0.75 -0.890625,-0.75 -0.46875,0 -0.65625,0.390625 -0.734375,0.5625 C 0.4375,-3.5 0.3125,-2.90625 0.3125,-2.875 c 0,0.109375 0.09375,0.109375 0.109375,0.109375 0.109375,0 0.109375,-0.015625 0.171875,-0.234375 0.171875,-0.703125 0.375,-1.1875 0.734375,-1.1875 0.171875,0 0.3125,0.078125 0.3125,0.453125 0,0.234375 -0.03125,0.34375 -0.078125,0.515625 z m 1.75,-4.328125 C 2.265625,-3.375 2.546875,-3.65625 2.71875,-3.8125 c 0.359375,-0.296875 0.640625,-0.375 0.8125,-0.375 0.390625,0 0.640625,0.34375 0.640625,0.9375 0,0.59375 -0.328125,1.734375 -0.515625,2.109375 -0.34375,0.703125 -0.8125,1.03125 -1.1875,1.03125 C 1.8125,-0.109375 1.6875,-0.9375 1.6875,-1 c 0,-0.015625 0,-0.03125 0.03125,-0.15625 z m 0,0"
   id="path3"
   style="stroke:#000000;stroke-width:0.283464;stroke-dasharray:none;stroke-opacity:1" />&#10;    </g>&#10;  </g>&#10;  <g
   fill="#000000"
   fill-opacity="1"
   id="g8"
   transform="matrix(0.352778,0,0,0.352778,-0.592843,-0.661723)"
   style="stroke:#000000;stroke-width:0.283464;stroke-dasharray:none;stroke-opacity:1">&#10;    <g
   id="g7"
   transform="translate(7.0050001,7.777)"
   style="stroke:#000000;stroke-width:0.283464;stroke-dasharray:none;stroke-opacity:1">&#10;      <path
   d="m 0.84375,-0.4375 c -0.015625,0.09375 -0.0625,0.265625 -0.0625,0.28125 0,0.15625 0.125,0.21875 0.234375,0.21875 0.125,0 0.234375,-0.078125 0.28125,-0.140625 0.03125,-0.0625 0.078125,-0.296875 0.125,-0.4375 0.03125,-0.125 0.109375,-0.453125 0.140625,-0.625 0.046875,-0.15625 0.09375,-0.3125 0.125,-0.46875 0.078125,-0.28125 0.09375,-0.34375 0.296875,-0.625 C 2.171875,-2.515625 2.5,-2.875 3.03125,-2.875 c 0.390625,0 0.40625,0.359375 0.40625,0.484375 0,0.421875 -0.296875,1.1875 -0.40625,1.484375 -0.078125,0.203125 -0.109375,0.265625 -0.109375,0.375 0,0.375 0.296875,0.59375 0.65625,0.59375 0.703125,0 1,-0.953125 1,-1.0625 0,-0.09375 -0.078125,-0.09375 -0.109375,-0.09375 -0.09375,0 -0.09375,0.046875 -0.125,0.125 C 4.1875,-0.40625 3.875,-0.125 3.609375,-0.125 c -0.15625,0 -0.1875,-0.09375 -0.1875,-0.25 0,-0.15625 0.046875,-0.25 0.171875,-0.5625 0.078125,-0.21875 0.359375,-0.953125 0.359375,-1.34375 0,-0.671875 -0.53125,-0.796875 -0.90625,-0.796875 -0.578125,0 -0.96875,0.359375 -1.171875,0.640625 -0.046875,-0.484375 -0.453125,-0.640625 -0.75,-0.640625 -0.296875,0 -0.453125,0.21875 -0.546875,0.375 -0.15625,0.265625 -0.25,0.65625 -0.25,0.703125 0,0.078125 0.09375,0.078125 0.125,0.078125 0.09375,0 0.09375,-0.015625 0.140625,-0.203125 0.109375,-0.40625 0.25,-0.75 0.515625,-0.75 0.1875,0 0.234375,0.15625 0.234375,0.34375 0,0.125 -0.0625,0.390625 -0.125,0.578125 -0.046875,0.1875 -0.109375,0.46875 -0.140625,0.625 z m 0,0"
   id="path6"
   style="stroke:#000000;stroke-width:0.283464;stroke-dasharray:none;stroke-opacity:1" />&#10;    </g>&#10;  </g>&#10;</g><g
         id="g11"
         transform="translate(31.063058,31.390266)"><path
           style="fill:#000000;stroke:#000000;stroke-width:0.345;stroke-linecap:round;stroke-dasharray:none;stroke-opacity:1"
           d="m 40.58812,47.259869 -4.369882,4.369882"
           id="path9" /><path
           style="fill:#000000;stroke:#000000;stroke-width:0.345;stroke-linecap:round;stroke-dasharray:none;stroke-opacity:1"
           d="m 40.588769,47.25987 4.369882,4.369882"
           id="path11" /></g><g
         fill="#000000"
         fill-opacity="1"
         id="g13"
         transform="matrix(0.352778,0,0,0.352778,63.168216,83.463876)"
         style="stroke:#000000;stroke-width:0.283464;stroke-dasharray:none;stroke-opacity:1">&#10;    <g
   id="g12"
   transform="translate(1.993,6.2820001)"
   style="stroke:#000000;stroke-width:0.283464;stroke-dasharray:none;stroke-opacity:1">&#10;      <path
   d="M 0.453125,1.21875 C 0.375,1.5625 0.34375,1.625 -0.09375,1.625 c -0.109375,0 -0.21875,0 -0.21875,0.1875 0,0.078125 0.046875,0.125 0.125,0.125 0.265625,0 0.5625,-0.03125 0.828125,-0.03125 0.34375,0 0.671875,0.03125 1,0.03125 0.046875,0 0.171875,0 0.171875,-0.203125 C 1.8125,1.625 1.71875,1.625 1.578125,1.625 c -0.5,0 -0.5,-0.0625 -0.5,-0.15625 0,-0.125 0.421875,-1.75 0.484375,-2 0.125,0.296875 0.40625,0.640625 0.921875,0.640625 1.15625,0 2.40625,-1.453125 2.40625,-2.921875 0,-0.9375 -0.578125,-1.59375 -1.328125,-1.59375 -0.5,0 -0.984375,0.359375 -1.3125,0.75 -0.09375,-0.546875 -0.53125,-0.75 -0.890625,-0.75 -0.46875,0 -0.65625,0.390625 -0.734375,0.5625 C 0.4375,-3.5 0.3125,-2.90625 0.3125,-2.875 c 0,0.109375 0.09375,0.109375 0.109375,0.109375 0.109375,0 0.109375,-0.015625 0.171875,-0.234375 0.171875,-0.703125 0.375,-1.1875 0.734375,-1.1875 0.171875,0 0.3125,0.078125 0.3125,0.453125 0,0.234375 -0.03125,0.34375 -0.078125,0.515625 z m 1.75,-4.328125 C 2.265625,-3.375 2.546875,-3.65625 2.71875,-3.8125 c 0.359375,-0.296875 0.640625,-0.375 0.8125,-0.375 0.390625,0 0.640625,0.34375 0.640625,0.9375 0,0.59375 -0.328125,1.734375 -0.515625,2.109375 -0.34375,0.703125 -0.8125,1.03125 -1.1875,1.03125 C 1.8125,-0.109375 1.6875,-0.9375 1.6875,-1 c 0,-0.015625 0,-0.03125 0.03125,-0.15625 z m 0,0"
   id="path12"
   style="stroke:#000000;stroke-width:0.283464;stroke-dasharray:none;stroke-opacity:1" />&#10;    </g>&#10;  </g><g
         fill="#000000"
         fill-opacity="1"
         id="g15"
         transform="matrix(0.352778,0,0,0.352778,63.168216,83.463876)"
         style="stroke:#000000;stroke-width:0.283464;stroke-dasharray:none;stroke-opacity:1">&#10;    <g
   id="g14"
   transform="translate(7.0050001,7.777)"
   style="stroke:#000000;stroke-width:0.283464;stroke-dasharray:none;stroke-opacity:1">&#10;      <path
   d="m 3,-2.625 c -0.171875,0.046875 -0.296875,0.1875 -0.296875,0.328125 0,0.171875 0.140625,0.234375 0.234375,0.234375 0.078125,0 0.34375,-0.046875 0.34375,-0.40625 0,-0.453125 -0.5,-0.609375 -0.9375,-0.609375 -1.078125,0 -1.28125,0.8125 -1.28125,1.015625 0,0.265625 0.15625,0.4375 0.25,0.515625 0.171875,0.140625 0.296875,0.171875 0.78125,0.25 0.15625,0.03125 0.59375,0.109375 0.59375,0.453125 0,0.125 -0.078125,0.390625 -0.359375,0.5625 C 2.046875,-0.125 1.703125,-0.125 1.625,-0.125 1.34375,-0.125 0.953125,-0.1875 0.78125,-0.421875 1.015625,-0.453125 1.171875,-0.625 1.171875,-0.8125 c 0,-0.171875 -0.125,-0.265625 -0.265625,-0.265625 -0.203125,0 -0.40625,0.171875 -0.40625,0.46875 0,0.421875 0.4375,0.671875 1.109375,0.671875 1.296875,0 1.53125,-0.875 1.53125,-1.140625 0,-0.640625 -0.703125,-0.765625 -0.96875,-0.8125 -0.0625,-0.015625 -0.234375,-0.046875 -0.28125,-0.0625 -0.25,-0.046875 -0.375,-0.1875 -0.375,-0.34375 0,-0.15625 0.125,-0.34375 0.28125,-0.453125 0.1875,-0.109375 0.421875,-0.125 0.546875,-0.125 0.140625,0 0.5,0.015625 0.65625,0.25 z m 0,0"
   id="path13"
   style="stroke:#000000;stroke-width:0.283464;stroke-dasharray:none;stroke-opacity:1" />&#10;    </g>&#10;  </g><g
         inkscape:label=""
         transform="translate(48.120235,83.881278)"
         id="g53"
         style="fill:#000000;fill-opacity:1;stroke:#000000;stroke-width:0.1;stroke-dasharray:none;stroke-opacity:1"><g
   fill="#000000"
   fill-opacity="1"
   id="g50"
   transform="matrix(0.352778,0,0,0.352778,-0.862939,-0.661723)"
   style="fill:#000000;fill-opacity:1;stroke:#000000;stroke-width:0.283464;stroke-dasharray:none;stroke-opacity:1">&#10;    <g
   id="g49"
   transform="translate(1.993,6.2820001)"
   style="fill:#000000;fill-opacity:1;stroke:#000000;stroke-width:0.283464;stroke-dasharray:none;stroke-opacity:1">&#10;      <path
   d="m 1.859375,-2.296875 c 0.296875,0 1.03125,-0.03125 1.53125,-0.234375 0.703125,-0.296875 0.75,-0.890625 0.75,-1.03125 0,-0.4375 -0.375,-0.84375 -1.0625,-0.84375 -1.109375,0 -2.625,0.96875 -2.625,2.71875 0,1.015625 0.59375,1.796875 1.578125,1.796875 1.421875,0 2.25,-1.0625 2.25,-1.171875 0,-0.0625 -0.046875,-0.140625 -0.109375,-0.140625 -0.0625,0 -0.078125,0.03125 -0.140625,0.109375 -0.78125,0.984375 -1.875,0.984375 -1.984375,0.984375 -0.78125,0 -0.875,-0.84375 -0.875,-1.15625 0,-0.125 0.015625,-0.421875 0.15625,-1.03125 z m -0.46875,-0.21875 C 1.78125,-4.03125 2.8125,-4.1875 3.078125,-4.1875 c 0.453125,0 0.734375,0.296875 0.734375,0.625 0,1.046875 -1.59375,1.046875 -2.015625,1.046875 z m 0,0"
   id="path49"
   style="fill:#000000;fill-opacity:1;stroke:#000000;stroke-width:0.283464;stroke-dasharray:none;stroke-opacity:1" />&#10;    </g>&#10;  </g>&#10;  <g
   fill="#000000"
   fill-opacity="1"
   id="g52"
   transform="matrix(0.352778,0,0,0.352778,-0.862939,-0.661723)"
   style="fill:#000000;fill-opacity:1;stroke:#000000;stroke-width:0.283464;stroke-dasharray:none;stroke-opacity:1">&#10;    <g
   id="g51"
   transform="translate(6.631,7.776)"
   style="fill:#000000;fill-opacity:1;stroke:#000000;stroke-width:0.283464;stroke-dasharray:none;stroke-opacity:1">&#10;      <path
   d="m 3,-2.625 c -0.171875,0.046875 -0.296875,0.1875 -0.296875,0.328125 0,0.171875 0.140625,0.234375 0.234375,0.234375 0.078125,0 0.34375,-0.046875 0.34375,-0.40625 0,-0.453125 -0.5,-0.609375 -0.9375,-0.609375 -1.078125,0 -1.28125,0.8125 -1.28125,1.015625 0,0.265625 0.15625,0.4375 0.25,0.515625 0.171875,0.140625 0.296875,0.171875 0.78125,0.25 0.15625,0.03125 0.59375,0.109375 0.59375,0.453125 0,0.125 -0.078125,0.390625 -0.359375,0.5625 C 2.046875,-0.125 1.703125,-0.125 1.625,-0.125 1.34375,-0.125 0.953125,-0.1875 0.78125,-0.421875 1.015625,-0.453125 1.171875,-0.625 1.171875,-0.8125 c 0,-0.171875 -0.125,-0.265625 -0.265625,-0.265625 -0.203125,0 -0.40625,0.171875 -0.40625,0.46875 0,0.421875 0.4375,0.671875 1.109375,0.671875 1.296875,0 1.53125,-0.875 1.53125,-1.140625 0,-0.640625 -0.703125,-0.765625 -0.96875,-0.8125 -0.0625,-0.015625 -0.234375,-0.046875 -0.28125,-0.0625 -0.25,-0.046875 -0.375,-0.1875 -0.375,-0.34375 0,-0.15625 0.125,-0.34375 0.28125,-0.453125 0.1875,-0.109375 0.421875,-0.125 0.546875,-0.125 0.140625,0 0.5,0.015625 0.65625,0.25 z m 0,0"
   id="path50"
   style="fill:#000000;fill-opacity:1;stroke:#000000;stroke-width:0.283464;stroke-dasharray:none;stroke-opacity:1" />&#10;    </g>&#10;  </g>&#10;</g><g
         inkscape:label=""
         transform="translate(76.766811,84.125615)"
         id="g22"
         style="stroke:#000000;stroke-width:0.1;stroke-dasharray:none;stroke-opacity:1"><g
   fill="#000000"
   fill-opacity="1"
   id="g17"
   transform="matrix(0.352778,0,0,0.352778,-0.592843,-1.19865)"
   style="stroke:#000000;stroke-width:0.283464;stroke-dasharray:none;stroke-opacity:1">&#10;    <g
   id="use4"
   transform="translate(1.993,7.8039999)"
   style="stroke:#000000;stroke-width:0.283464;stroke-dasharray:none;stroke-opacity:1">&#10;      <path
   d="M 0.453125,1.21875 C 0.375,1.5625 0.34375,1.625 -0.09375,1.625 c -0.109375,0 -0.21875,0 -0.21875,0.1875 0,0.078125 0.046875,0.125 0.125,0.125 0.265625,0 0.5625,-0.03125 0.828125,-0.03125 0.34375,0 0.671875,0.03125 1,0.03125 0.046875,0 0.171875,0 0.171875,-0.203125 C 1.8125,1.625 1.71875,1.625 1.578125,1.625 c -0.5,0 -0.5,-0.0625 -0.5,-0.15625 0,-0.125 0.421875,-1.75 0.484375,-2 0.125,0.296875 0.40625,0.640625 0.921875,0.640625 1.15625,0 2.40625,-1.453125 2.40625,-2.921875 0,-0.9375 -0.578125,-1.59375 -1.328125,-1.59375 -0.5,0 -0.984375,0.359375 -1.3125,0.75 -0.09375,-0.546875 -0.53125,-0.75 -0.890625,-0.75 -0.46875,0 -0.65625,0.390625 -0.734375,0.5625 C 0.4375,-3.5 0.3125,-2.90625 0.3125,-2.875 c 0,0.109375 0.09375,0.109375 0.109375,0.109375 0.109375,0 0.109375,-0.015625 0.171875,-0.234375 0.171875,-0.703125 0.375,-1.1875 0.734375,-1.1875 0.171875,0 0.3125,0.078125 0.3125,0.453125 0,0.234375 -0.03125,0.34375 -0.078125,0.515625 z m 1.75,-4.328125 C 2.265625,-3.375 2.546875,-3.65625 2.71875,-3.8125 c 0.359375,-0.296875 0.640625,-0.375 0.8125,-0.375 0.390625,0 0.640625,0.34375 0.640625,0.9375 0,0.59375 -0.328125,1.734375 -0.515625,2.109375 -0.34375,0.703125 -0.8125,1.03125 -1.1875,1.03125 C 1.8125,-0.109375 1.6875,-0.9375 1.6875,-1 c 0,-0.015625 0,-0.03125 0.03125,-0.15625 z m 0,0"
   id="path46"
   style="stroke:#000000;stroke-width:0.283464;stroke-dasharray:none;stroke-opacity:1" />&#10;    </g>&#10;  </g>&#10;  <g
   fill="#000000"
   fill-opacity="1"
   id="g18"
   transform="matrix(0.352778,0,0,0.352778,-0.592843,-1.19865)"
   style="stroke:#000000;stroke-width:0.283464;stroke-dasharray:none;stroke-opacity:1">&#10;    <g
   id="use5"
   transform="translate(7.0050001,9.2989998)"
   style="stroke:#000000;stroke-width:0.283464;stroke-dasharray:none;stroke-opacity:1">&#10;      <path
   d="m 0.84375,-0.4375 c -0.015625,0.09375 -0.0625,0.265625 -0.0625,0.28125 0,0.15625 0.125,0.21875 0.234375,0.21875 0.125,0 0.234375,-0.078125 0.28125,-0.140625 0.03125,-0.0625 0.078125,-0.296875 0.125,-0.4375 0.03125,-0.125 0.109375,-0.453125 0.140625,-0.625 0.046875,-0.15625 0.09375,-0.3125 0.125,-0.46875 0.078125,-0.28125 0.09375,-0.34375 0.296875,-0.625 C 2.171875,-2.515625 2.5,-2.875 3.03125,-2.875 c 0.390625,0 0.40625,0.359375 0.40625,0.484375 0,0.421875 -0.296875,1.1875 -0.40625,1.484375 -0.078125,0.203125 -0.109375,0.265625 -0.109375,0.375 0,0.375 0.296875,0.59375 0.65625,0.59375 0.703125,0 1,-0.953125 1,-1.0625 0,-0.09375 -0.078125,-0.09375 -0.109375,-0.09375 -0.09375,0 -0.09375,0.046875 -0.125,0.125 C 4.1875,-0.40625 3.875,-0.125 3.609375,-0.125 c -0.15625,0 -0.1875,-0.09375 -0.1875,-0.25 0,-0.15625 0.046875,-0.25 0.171875,-0.5625 0.078125,-0.21875 0.359375,-0.953125 0.359375,-1.34375 0,-0.671875 -0.53125,-0.796875 -0.90625,-0.796875 -0.578125,0 -0.96875,0.359375 -1.171875,0.640625 -0.046875,-0.484375 -0.453125,-0.640625 -0.75,-0.640625 -0.296875,0 -0.453125,0.21875 -0.546875,0.375 -0.15625,0.265625 -0.25,0.65625 -0.25,0.703125 0,0.078125 0.09375,0.078125 0.125,0.078125 0.09375,0 0.09375,-0.015625 0.140625,-0.203125 0.109375,-0.40625 0.25,-0.75 0.515625,-0.75 0.1875,0 0.234375,0.15625 0.234375,0.34375 0,0.125 -0.0625,0.390625 -0.125,0.578125 -0.046875,0.1875 -0.109375,0.46875 -0.140625,0.625 z m 0,0"
   id="path10"
   style="stroke:#000000;stroke-width:0.283464;stroke-dasharray:none;stroke-opacity:1" />&#10;    </g>&#10;  </g>&#10;  <g
   fill="#000000"
   fill-opacity="1"
   id="g19"
   transform="matrix(0.352778,0,0,0.352778,-0.592843,-1.19865)"
   style="stroke:#000000;stroke-width:0.283464;stroke-dasharray:none;stroke-opacity:1">&#10;    <g
   id="g47"
   transform="translate(14.642,7.8039999)"
   style="stroke:#000000;stroke-width:0.283464;stroke-dasharray:none;stroke-opacity:1">&#10;      <path
   d="m 6.5625,-2.296875 c 0.171875,0 0.359375,0 0.359375,-0.203125 0,-0.1875 -0.1875,-0.1875 -0.359375,-0.1875 H 1.171875 c -0.171875,0 -0.34375,0 -0.34375,0.1875 0,0.203125 0.171875,0.203125 0.34375,0.203125 z m 0,0"
   id="path47"
   style="stroke:#000000;stroke-width:0.283464;stroke-dasharray:none;stroke-opacity:1" />&#10;    </g>&#10;  </g>&#10;  <g
   fill="#000000"
   fill-opacity="1"
   id="g20"
   transform="matrix(0.352778,0,0,0.352778,-0.592843,-1.19865)"
   style="stroke:#000000;stroke-width:0.283464;stroke-dasharray:none;stroke-opacity:1">&#10;    <g
   id="g48"
   transform="translate(24.604,7.8039999)"
   style="stroke:#000000;stroke-width:0.283464;stroke-dasharray:none;stroke-opacity:1">&#10;      <path
   d="M 0.453125,1.21875 C 0.375,1.5625 0.34375,1.625 -0.09375,1.625 c -0.109375,0 -0.21875,0 -0.21875,0.1875 0,0.078125 0.046875,0.125 0.125,0.125 0.265625,0 0.5625,-0.03125 0.828125,-0.03125 0.34375,0 0.671875,0.03125 1,0.03125 0.046875,0 0.171875,0 0.171875,-0.203125 C 1.8125,1.625 1.71875,1.625 1.578125,1.625 c -0.5,0 -0.5,-0.0625 -0.5,-0.15625 0,-0.125 0.421875,-1.75 0.484375,-2 0.125,0.296875 0.40625,0.640625 0.921875,0.640625 1.15625,0 2.40625,-1.453125 2.40625,-2.921875 0,-0.9375 -0.578125,-1.59375 -1.328125,-1.59375 -0.5,0 -0.984375,0.359375 -1.3125,0.75 -0.09375,-0.546875 -0.53125,-0.75 -0.890625,-0.75 -0.46875,0 -0.65625,0.390625 -0.734375,0.5625 C 0.4375,-3.5 0.3125,-2.90625 0.3125,-2.875 c 0,0.109375 0.09375,0.109375 0.109375,0.109375 0.109375,0 0.109375,-0.015625 0.171875,-0.234375 0.171875,-0.703125 0.375,-1.1875 0.734375,-1.1875 0.171875,0 0.3125,0.078125 0.3125,0.453125 0,0.234375 -0.03125,0.34375 -0.078125,0.515625 z m 1.75,-4.328125 C 2.265625,-3.375 2.546875,-3.65625 2.71875,-3.8125 c 0.359375,-0.296875 0.640625,-0.375 0.8125,-0.375 0.390625,0 0.640625,0.34375 0.640625,0.9375 0,0.59375 -0.328125,1.734375 -0.515625,2.109375 -0.34375,0.703125 -0.8125,1.03125 -1.1875,1.03125 C 1.8125,-0.109375 1.6875,-0.9375 1.6875,-1 c 0,-0.015625 0,-0.03125 0.03125,-0.15625 z m 0,0"
   id="path48"
   style="stroke:#000000;stroke-width:0.283464;stroke-dasharray:none;stroke-opacity:1" />&#10;    </g>&#10;  </g>&#10;  <g
   fill="#000000"
   fill-opacity="1"
   id="g21"
   transform="matrix(0.352778,0,0,0.352778,-0.592843,-1.19865)"
   style="stroke:#000000;stroke-width:0.283464;stroke-dasharray:none;stroke-opacity:1">&#10;    <g
   id="g54"
   transform="translate(29.617001,9.2989998)"
   style="stroke:#000000;stroke-width:0.283464;stroke-dasharray:none;stroke-opacity:1">&#10;      <path
   d="m 3,-2.625 c -0.171875,0.046875 -0.296875,0.1875 -0.296875,0.328125 0,0.171875 0.140625,0.234375 0.234375,0.234375 0.078125,0 0.34375,-0.046875 0.34375,-0.40625 0,-0.453125 -0.5,-0.609375 -0.9375,-0.609375 -1.078125,0 -1.28125,0.8125 -1.28125,1.015625 0,0.265625 0.15625,0.4375 0.25,0.515625 0.171875,0.140625 0.296875,0.171875 0.78125,0.25 0.15625,0.03125 0.59375,0.109375 0.59375,0.453125 0,0.125 -0.078125,0.390625 -0.359375,0.5625 C 2.046875,-0.125 1.703125,-0.125 1.625,-0.125 1.34375,-0.125 0.953125,-0.1875 0.78125,-0.421875 1.015625,-0.453125 1.171875,-0.625 1.171875,-0.8125 c 0,-0.171875 -0.125,-0.265625 -0.265625,-0.265625 -0.203125,0 -0.40625,0.171875 -0.40625,0.46875 0,0.421875 0.4375,0.671875 1.109375,0.671875 1.296875,0 1.53125,-0.875 1.53125,-1.140625 0,-0.640625 -0.703125,-0.765625 -0.96875,-0.8125 -0.0625,-0.015625 -0.234375,-0.046875 -0.28125,-0.0625 -0.25,-0.046875 -0.375,-0.1875 -0.375,-0.34375 0,-0.15625 0.125,-0.34375 0.28125,-0.453125 0.1875,-0.109375 0.421875,-0.125 0.546875,-0.125 0.140625,0 0.5,0.015625 0.65625,0.25 z m 0,0"
   id="path20"
   style="stroke:#000000;stroke-width:0.283464;stroke-dasharray:none;stroke-opacity:1" />&#10;    </g>&#10;  </g>&#10;</g><g
         id="g32"
         transform="translate(36.934088,59.264573)"><rect
           style="fill:#bfbfbf;fill-opacity:1;stroke:none;stroke-width:0.307968;stroke-linecap:round;stroke-dasharray:none"
           id="rect28"
           width="18.389385"
           height="5.7789955"
           x="13.09277"
           y="32.094002" /><g
           id="g31"
           transform="translate(-28.219618,-2.2181131)"><path
             style="fill:#31859c;fill-opacity:1;stroke:#000000;stroke-width:0.328001;stroke-linecap:round;stroke-dasharray:none"
             d="M 41.425705,40.098974 H 59.668122"
             id="path29" /><path
             style="fill:#31859c;fill-opacity:1;stroke:#000000;stroke-width:0.328001;stroke-linecap:round;stroke-dasharray:none"
             d="M 41.386095,40.092629 V 32.029978"
             id="path30" /><path
             style="fill:#31859c;fill-opacity:1;stroke:#000000;stroke-width:0.328001;stroke-linecap:round;stroke-dasharray:none"
             d="M 59.673443,40.097759 V 32.035108"
             id="path31" /></g></g><path
         style="fill:#0070c0;fill-opacity:1;stroke:#0070c0;stroke-width:0.200573;stroke-linecap:round;stroke-dasharray:none;stroke-opacity:1;marker-start:url(#RoundedArrow);marker-end:url(#marker111)"
         d="m 63.299736,92.480156 v 3.270318"
         id="path32" /><g
         inkscape:label=""
         transform="translate(64.314086,92.391065)"
         id="g37"
         style="fill:#0070c0;fill-opacity:1;stroke:#0070c0;stroke-width:0.1;stroke-dasharray:none;stroke-opacity:1"><g
   fill="#000000"
   fill-opacity="1"
   id="g34"
   transform="matrix(0.352778,0,0,0.352778,-0.896011,-0.701719)"
   style="fill:#0070c0;fill-opacity:1;stroke:#0070c0;stroke-width:0.283464;stroke-dasharray:none;stroke-opacity:1">&#10;    <g
   id="g33"
   transform="translate(1.993,8.9110003)"
   style="fill:#0070c0;fill-opacity:1;stroke:#0070c0;stroke-width:0.283464;stroke-dasharray:none;stroke-opacity:1">&#10;      <path
   d="m 2.859375,-6.8125 c 0,0 0,-0.109375 -0.125,-0.109375 -0.234375,0 -0.953125,0.078125 -1.21875,0.109375 -0.078125,0 -0.1875,0.015625 -0.1875,0.1875 0,0.125 0.09375,0.125 0.234375,0.125 0.484375,0 0.5,0.0625 0.5,0.171875 L 2.03125,-6.125 0.59375,-0.390625 c -0.046875,0.140625 -0.046875,0.15625 -0.046875,0.21875 0,0.234375 0.203125,0.28125 0.296875,0.28125 0.15625,0 0.3125,-0.125 0.359375,-0.265625 l 0.1875,-0.75 0.21875,-0.890625 C 1.671875,-2.03125 1.734375,-2.25 1.78125,-2.46875 1.796875,-2.53125 1.890625,-2.859375 1.890625,-2.921875 1.921875,-3.015625 2.234375,-3.5625 2.578125,-3.84375 2.796875,-4 3.09375,-4.1875 3.53125,-4.1875 c 0.421875,0 0.53125,0.34375 0.53125,0.703125 0,0.53125 -0.375,1.625 -0.609375,2.234375 C 3.375,-1.03125 3.3125,-0.90625 3.3125,-0.703125 c 0,0.46875 0.359375,0.8125 0.828125,0.8125 0.9375,0 1.296875,-1.453125 1.296875,-1.53125 0,-0.109375 -0.078125,-0.109375 -0.109375,-0.109375 -0.109375,0 -0.109375,0.03125 -0.15625,0.1875 -0.140625,0.53125 -0.46875,1.234375 -1.015625,1.234375 -0.171875,0 -0.234375,-0.09375 -0.234375,-0.328125 0,-0.25 0.078125,-0.484375 0.171875,-0.703125 0.15625,-0.4375 0.609375,-1.625 0.609375,-2.203125 0,-0.640625 -0.390625,-1.0625 -1.140625,-1.0625 -0.625,0 -1.109375,0.3125 -1.484375,0.765625 z m 0,0"
   id="path33"
   style="fill:#0070c0;fill-opacity:1;stroke:#0070c0;stroke-width:0.283464;stroke-dasharray:none;stroke-opacity:1" />&#10;    </g>&#10;  </g>&#10;  <g
   fill="#000000"
   fill-opacity="1"
   id="g36"
   transform="matrix(0.352778,0,0,0.352778,-0.896011,-0.701719)"
   style="fill:#0070c0;fill-opacity:1;stroke:#0070c0;stroke-width:0.283464;stroke-dasharray:none;stroke-opacity:1">&#10;    <g
   id="g35"
   transform="translate(7.7329998,10.405)"
   style="fill:#0070c0;fill-opacity:1;stroke:#0070c0;stroke-width:0.283464;stroke-dasharray:none;stroke-opacity:1">&#10;      <path
   d="m 0.515625,0.84375 c -0.046875,0.203125 -0.0625,0.25 -0.328125,0.25 -0.09375,0 -0.1875,0 -0.1875,0.15625 0,0.078125 0.0625,0.109375 0.09375,0.109375 0.171875,0 0.40625,-0.03125 0.59375,-0.03125 0.234375,0 0.5,0.03125 0.734375,0.03125 0.0625,0 0.140625,-0.03125 0.140625,-0.15625 0,-0.109375 -0.09375,-0.109375 -0.1875,-0.109375 -0.15625,0 -0.34375,0 -0.34375,-0.078125 0,-0.03125 0.0625,-0.21875 0.078125,-0.3125 0.09375,-0.375 0.1875,-0.75 0.265625,-1.046875 0.078125,0.140625 0.296875,0.40625 0.71875,0.40625 0.84375,0 1.78125,-0.9375 1.78125,-1.96875 0,-0.8125 -0.5625,-1.171875 -1.03125,-1.171875 -0.4375,0 -0.8125,0.296875 -1,0.5 -0.109375,-0.40625 -0.5,-0.5 -0.71875,-0.5 -0.265625,0 -0.4375,0.1875 -0.546875,0.375 -0.140625,0.234375 -0.25,0.65625 -0.25,0.703125 0,0.078125 0.09375,0.078125 0.125,0.078125 0.09375,0 0.09375,-0.015625 0.140625,-0.203125 0.109375,-0.40625 0.25,-0.75 0.515625,-0.75 0.1875,0 0.234375,0.15625 0.234375,0.34375 0,0.078125 -0.015625,0.15625 -0.03125,0.203125 z M 1.84375,-2.234375 C 2.25,-2.78125 2.59375,-2.875 2.8125,-2.875 c 0.28125,0 0.515625,0.203125 0.515625,0.671875 0,0.28125 -0.15625,1 -0.359375,1.40625 -0.1875,0.34375 -0.515625,0.671875 -0.875,0.671875 -0.5,0 -0.625,-0.53125 -0.625,-0.609375 0,-0.03125 0.015625,-0.078125 0.015625,-0.109375 z m 0,0"
   id="path34"
   style="fill:#0070c0;fill-opacity:1;stroke:#0070c0;stroke-width:0.283464;stroke-dasharray:none;stroke-opacity:1" />&#10;    </g>&#10;  </g>&#10;</g><path
         style="fill:#1a1a1a;stroke:#000000;stroke-width:0.345;stroke-linecap:round;stroke-dasharray:none"
         d="M 53.778075,78.322253 V 90.252029"
         id="path37" /><path
         style="fill:#0070c0;fill-opacity:1;stroke:#000000;stroke-width:0.345;stroke-linecap:round;stroke-dasharray:none;stroke-opacity:1"
         d="m 65.200612,87.257812 v 2.865004"
         id="path38" /><path
         style="fill:#1a1a1a;stroke:#000000;stroke-width:0.328001;stroke-linecap:round;stroke-dasharray:none"
         d="M 53.745036,84.933042 H 51.317033"
         id="path39" /><path
         style="fill:#1a1a1a;stroke:#000000;stroke-width:0.328001;stroke-linecap:round;stroke-dasharray:none;marker-start:url(#marker110)"
         d="m 43.741866,84.933042 h 3.815455"
         id="path54" /><path
         style="fill:#fc9900;fill-opacity:1;stroke:#fc9900;stroke-width:0.26052;stroke-linecap:round;stroke-dasharray:none;stroke-opacity:1;marker-start:url(#RoundedArrow);marker-end:url(#marker111)"
         d="m 48.29505,90.419712 v 5.517282"
         id="path55" /><g
         inkscape:label=""
         transform="translate(44.191736,91.897835)"
         id="g60"
         style="fill:#fc9900;fill-opacity:1;stroke:#fc9900;stroke-width:0.1;stroke-dasharray:none;stroke-opacity:1"><g
   fill="#000000"
   fill-opacity="1"
   id="g57"
   transform="matrix(0.352778,0,0,0.352778,-0.846402,-0.661723)"
   style="fill:#fc9900;fill-opacity:1;stroke:#fc9900;stroke-width:0.283464;stroke-dasharray:none;stroke-opacity:1">&#10;    <g
   id="g56"
   transform="translate(1.993,6.2820001)"
   style="fill:#fc9900;fill-opacity:1;stroke:#fc9900;stroke-width:0.283464;stroke-dasharray:none;stroke-opacity:1">&#10;      <path
   d="m 3.953125,-3.78125 c -0.171875,0 -0.296875,0 -0.4375,0.125 -0.171875,0.15625 -0.1875,0.328125 -0.1875,0.390625 0,0.25 0.1875,0.359375 0.375,0.359375 0.28125,0 0.546875,-0.25 0.546875,-0.640625 0,-0.484375 -0.46875,-0.859375 -1.171875,-0.859375 -1.34375,0 -2.671875,1.421875 -2.671875,2.828125 0,0.90625 0.578125,1.6875 1.625,1.6875 1.421875,0 2.25,-1.0625 2.25,-1.171875 0,-0.0625 -0.046875,-0.140625 -0.109375,-0.140625 -0.0625,0 -0.078125,0.03125 -0.140625,0.109375 -0.78125,0.984375 -1.875,0.984375 -1.984375,0.984375 -0.625,0 -0.90625,-0.484375 -0.90625,-1.09375 0,-0.40625 0.203125,-1.375 0.546875,-1.984375 0.3125,-0.578125 0.859375,-1 1.40625,-1 0.328125,0 0.71875,0.125 0.859375,0.40625 z m 0,0"
   id="path56"
   style="fill:#fc9900;fill-opacity:1;stroke:#fc9900;stroke-width:0.283464;stroke-dasharray:none;stroke-opacity:1" />&#10;    </g>&#10;  </g>&#10;  <g
   fill="#000000"
   fill-opacity="1"
   id="g59"
   transform="matrix(0.352778,0,0,0.352778,-0.846402,-0.661723)"
   style="fill:#fc9900;fill-opacity:1;stroke:#fc9900;stroke-width:0.283464;stroke-dasharray:none;stroke-opacity:1">&#10;    <g
   id="g58"
   transform="translate(6.3039999,7.776)"
   style="fill:#fc9900;fill-opacity:1;stroke:#fc9900;stroke-width:0.283464;stroke-dasharray:none;stroke-opacity:1">&#10;      <path
   d="m 0.515625,0.84375 c -0.046875,0.203125 -0.0625,0.25 -0.328125,0.25 -0.09375,0 -0.1875,0 -0.1875,0.15625 0,0.078125 0.0625,0.109375 0.09375,0.109375 0.171875,0 0.40625,-0.03125 0.59375,-0.03125 0.234375,0 0.5,0.03125 0.734375,0.03125 0.0625,0 0.140625,-0.03125 0.140625,-0.15625 0,-0.109375 -0.09375,-0.109375 -0.1875,-0.109375 -0.15625,0 -0.34375,0 -0.34375,-0.078125 0,-0.03125 0.0625,-0.21875 0.078125,-0.3125 0.09375,-0.375 0.1875,-0.75 0.265625,-1.046875 0.078125,0.140625 0.296875,0.40625 0.71875,0.40625 0.84375,0 1.78125,-0.9375 1.78125,-1.96875 0,-0.8125 -0.5625,-1.171875 -1.03125,-1.171875 -0.4375,0 -0.8125,0.296875 -1,0.5 -0.109375,-0.40625 -0.5,-0.5 -0.71875,-0.5 -0.265625,0 -0.4375,0.1875 -0.546875,0.375 -0.140625,0.234375 -0.25,0.65625 -0.25,0.703125 0,0.078125 0.09375,0.078125 0.125,0.078125 0.09375,0 0.09375,-0.015625 0.140625,-0.203125 0.109375,-0.40625 0.25,-0.75 0.515625,-0.75 0.1875,0 0.234375,0.15625 0.234375,0.34375 0,0.078125 -0.015625,0.15625 -0.03125,0.203125 z M 1.84375,-2.234375 C 2.25,-2.78125 2.59375,-2.875 2.8125,-2.875 c 0.28125,0 0.515625,0.203125 0.515625,0.671875 0,0.28125 -0.15625,1 -0.359375,1.40625 -0.1875,0.34375 -0.515625,0.671875 -0.875,0.671875 -0.5,0 -0.625,-0.53125 -0.625,-0.609375 0,-0.03125 0.015625,-0.078125 0.015625,-0.109375 z m 0,0"
   id="path57"
   style="fill:#fc9900;fill-opacity:1;stroke:#fc9900;stroke-width:0.283464;stroke-dasharray:none;stroke-opacity:1" />&#10;    </g>&#10;  </g>&#10;</g><path
         style="fill:#0070c0;fill-opacity:1;stroke:#000000;stroke-width:0.345;stroke-linecap:round;stroke-dasharray:none;stroke-opacity:1"
         d="m 59.244239,98.702854 v 2.864996"
         id="path60" /><path
         style="fill:#0070c0;fill-opacity:1;stroke:#000000;stroke-width:0.345;stroke-linecap:round;stroke-dasharray:none;stroke-opacity:1"
         d="M 62.118343,101.55814 H 59.253339"
         id="path61" /><g
         inkscape:label=""
         transform="translate(63.101201,100.43916)"
         id="g68"
         style="fill:#000000;fill-opacity:1;stroke:#000000;stroke-width:0.1;stroke-dasharray:none;stroke-opacity:1"><g
   fill="#000000"
   fill-opacity="1"
   id="g62"
   transform="matrix(0.352778,0,0,0.352778,-0.592843,-0.661723)"
   style="fill:#000000;fill-opacity:1;stroke:#000000;stroke-width:0.283464;stroke-dasharray:none;stroke-opacity:1">&#10;    <g
   id="g61"
   transform="translate(1.993,6.2820001)"
   style="fill:#000000;fill-opacity:1;stroke:#000000;stroke-width:0.283464;stroke-dasharray:none;stroke-opacity:1">&#10;      <path
   d="M 0.453125,1.21875 C 0.375,1.5625 0.34375,1.625 -0.09375,1.625 c -0.109375,0 -0.21875,0 -0.21875,0.1875 0,0.078125 0.046875,0.125 0.125,0.125 0.265625,0 0.5625,-0.03125 0.828125,-0.03125 0.34375,0 0.671875,0.03125 1,0.03125 0.046875,0 0.171875,0 0.171875,-0.203125 C 1.8125,1.625 1.71875,1.625 1.578125,1.625 c -0.5,0 -0.5,-0.0625 -0.5,-0.15625 0,-0.125 0.421875,-1.75 0.484375,-2 0.125,0.296875 0.40625,0.640625 0.921875,0.640625 1.15625,0 2.40625,-1.453125 2.40625,-2.921875 0,-0.9375 -0.578125,-1.59375 -1.328125,-1.59375 -0.5,0 -0.984375,0.359375 -1.3125,0.75 -0.09375,-0.546875 -0.53125,-0.75 -0.890625,-0.75 -0.46875,0 -0.65625,0.390625 -0.734375,0.5625 C 0.4375,-3.5 0.3125,-2.90625 0.3125,-2.875 c 0,0.109375 0.09375,0.109375 0.109375,0.109375 0.109375,0 0.109375,-0.015625 0.171875,-0.234375 0.171875,-0.703125 0.375,-1.1875 0.734375,-1.1875 0.171875,0 0.3125,0.078125 0.3125,0.453125 0,0.234375 -0.03125,0.34375 -0.078125,0.515625 z m 1.75,-4.328125 C 2.265625,-3.375 2.546875,-3.65625 2.71875,-3.8125 c 0.359375,-0.296875 0.640625,-0.375 0.8125,-0.375 0.390625,0 0.640625,0.34375 0.640625,0.9375 0,0.59375 -0.328125,1.734375 -0.515625,2.109375 -0.34375,0.703125 -0.8125,1.03125 -1.1875,1.03125 C 1.8125,-0.109375 1.6875,-0.9375 1.6875,-1 c 0,-0.015625 0,-0.03125 0.03125,-0.15625 z m 0,0"
   id="path7"
   style="fill:#000000;fill-opacity:1;stroke:#000000;stroke-width:0.283464;stroke-dasharray:none;stroke-opacity:1" />&#10;    </g>&#10;  </g>&#10;  <g
   fill="#000000"
   fill-opacity="1"
   id="g65"
   transform="matrix(0.352778,0,0,0.352778,-0.592843,-0.661723)"
   style="fill:#000000;fill-opacity:1;stroke:#000000;stroke-width:0.283464;stroke-dasharray:none;stroke-opacity:1">&#10;    <g
   id="g63"
   transform="translate(7.0050001,7.777)"
   style="fill:#000000;fill-opacity:1;stroke:#000000;stroke-width:0.283464;stroke-dasharray:none;stroke-opacity:1">&#10;      <path
   d="m 1.5625,-1.59375 c 0.1875,0 0.75,-0.015625 1.125,-0.140625 0.515625,-0.1875 0.609375,-0.515625 0.609375,-0.71875 0,-0.390625 -0.390625,-0.625 -0.859375,-0.625 -0.84375,0 -1.96875,0.640625 -1.96875,1.84375 0,0.703125 0.4375,1.296875 1.25,1.296875 1.1875,0 1.734375,-0.6875 1.734375,-0.78125 0,-0.046875 -0.0625,-0.125 -0.125,-0.125 -0.03125,0 -0.046875,0.015625 -0.109375,0.078125 C 2.671875,-0.125 1.859375,-0.125 1.734375,-0.125 1.3125,-0.125 1.03125,-0.40625 1.03125,-0.96875 c 0,-0.09375 0,-0.234375 0.09375,-0.625 z M 1.171875,-1.78125 C 1.46875,-2.796875 2.234375,-2.875 2.4375,-2.875 2.734375,-2.875 3,-2.71875 3,-2.453125 3,-1.78125 1.8125,-1.78125 1.515625,-1.78125 Z m 0,0"
   id="path62"
   style="fill:#000000;fill-opacity:1;stroke:#000000;stroke-width:0.283464;stroke-dasharray:none;stroke-opacity:1" />&#10;    </g>&#10;    <g
   id="g64"
   transform="translate(10.7848,7.777)"
   style="fill:#000000;fill-opacity:1;stroke:#000000;stroke-width:0.283464;stroke-dasharray:none;stroke-opacity:1">&#10;      <path
   d="m 1.640625,-1.40625 c 0,-0.046875 0.171875,-0.671875 0.171875,-0.703125 0.015625,-0.0625 0.21875,-0.40625 0.453125,-0.578125 0.0625,-0.046875 0.25,-0.1875 0.5625,-0.1875 0.0625,0 0.234375,0 0.375,0.09375 -0.21875,0.0625 -0.296875,0.265625 -0.296875,0.390625 0,0.140625 0.109375,0.25 0.265625,0.25 0.171875,0 0.390625,-0.125 0.390625,-0.421875 0,-0.359375 -0.375,-0.515625 -0.734375,-0.515625 -0.359375,0 -0.671875,0.15625 -0.984375,0.5 -0.125,-0.421875 -0.546875,-0.5 -0.71875,-0.5 -0.25,0 -0.421875,0.171875 -0.546875,0.359375 -0.15625,0.265625 -0.25,0.671875 -0.25,0.71875 0,0.078125 0.09375,0.078125 0.125,0.078125 0.09375,0 0.09375,-0.015625 0.140625,-0.203125 0.109375,-0.421875 0.25,-0.75 0.515625,-0.75 0.1875,0 0.234375,0.15625 0.234375,0.34375 0,0.125 -0.0625,0.390625 -0.125,0.578125 -0.046875,0.1875 -0.109375,0.46875 -0.140625,0.625 L 0.84375,-0.4375 C 0.828125,-0.34375 0.78125,-0.171875 0.78125,-0.15625 0.78125,0 0.90625,0.0625 1.015625,0.0625 1.125,0.0625 1.265625,0 1.3125,-0.125 1.328125,-0.171875 1.40625,-0.484375 1.453125,-0.65625 Z m 0,0"
   id="path63"
   style="fill:#000000;fill-opacity:1;stroke:#000000;stroke-width:0.283464;stroke-dasharray:none;stroke-opacity:1" />&#10;    </g>&#10;  </g>&#10;  <g
   fill="#000000"
   fill-opacity="1"
   id="g67"
   transform="matrix(0.352778,0,0,0.352778,-0.592843,-0.661723)"
   style="fill:#000000;fill-opacity:1;stroke:#000000;stroke-width:0.283464;stroke-dasharray:none;stroke-opacity:1">&#10;    <g
   id="g66"
   transform="translate(14.699891,7.777)"
   style="fill:#000000;fill-opacity:1;stroke:#000000;stroke-width:0.283464;stroke-dasharray:none;stroke-opacity:1">&#10;      <path
   d="m 3.046875,-2.671875 c -0.25,0.046875 -0.34375,0.234375 -0.34375,0.390625 0,0.1875 0.140625,0.265625 0.265625,0.265625 0.15625,0 0.390625,-0.109375 0.390625,-0.453125 0,-0.46875 -0.53125,-0.609375 -0.90625,-0.609375 -1.046875,0 -2.015625,0.96875 -2.015625,1.9375 0,0.59375 0.40625,1.203125 1.28125,1.203125 1.1875,0 1.734375,-0.6875 1.734375,-0.78125 0,-0.046875 -0.0625,-0.125 -0.125,-0.125 -0.03125,0 -0.046875,0.015625 -0.109375,0.078125 C 2.671875,-0.125 1.859375,-0.125 1.734375,-0.125 c -0.5,0 -0.71875,-0.34375 -0.71875,-0.78125 0,-0.1875 0.09375,-0.953125 0.453125,-1.4375 0.265625,-0.34375 0.625,-0.53125 0.984375,-0.53125 0.09375,0 0.421875,0.015625 0.59375,0.203125 z m 0,0"
   id="path65"
   style="fill:#000000;fill-opacity:1;stroke:#000000;stroke-width:0.283464;stroke-dasharray:none;stroke-opacity:1" />&#10;    </g>&#10;  </g>&#10;</g><path
         style="fill:#000000;fill-opacity:1;stroke:#000000;stroke-width:0.345;stroke-linecap:round;stroke-dasharray:none;stroke-opacity:1"
         d="M 82.277804,87.574611 V 101.51899"
         id="path69" /><path
         style="fill:#000000;fill-opacity:1;stroke:#000000;stroke-width:0.345;stroke-linecap:round;stroke-dasharray:none;stroke-opacity:1"
         d="M 70.09478,101.55599 H 82.272003"
         id="path70" /><circle
         style="fill:none;fill-opacity:1;stroke:#000000;stroke-width:0.345001;stroke-linecap:round;stroke-dasharray:none;stroke-opacity:1"
         id="path71"
         cx="82.281624"
         cy="101.56101"
         r="0.80000001" /><path
         style="fill:none;fill-opacity:1;stroke:#000000;stroke-width:0.345001;stroke-linecap:round;stroke-dasharray:none;stroke-opacity:1"
         d="m 82.261922,101.55599 h 0.815403"
         id="path72" /><path
         style="fill:none;fill-opacity:1;stroke:#000000;stroke-width:0.336678;stroke-linecap:round;stroke-dasharray:none;stroke-opacity:1"
         d="m 82.277804,102.34927 v -0.86024"
         id="path73" /><path
         style="fill:#000000;fill-opacity:1;stroke:#000000;stroke-width:0.345;stroke-linecap:round;stroke-dasharray:none;stroke-opacity:1"
         d="m 82.290892,102.32893 v 6.66573"
         id="path74" /><g
         id="g23"
         transform="translate(0.91662513,-7.4197473)"><g
           id="g78"
           transform="translate(59.023431,85.925096)"><rect
             style="fill:#bfbfbf;fill-opacity:1;stroke:none;stroke-width:0.307968;stroke-linecap:round;stroke-dasharray:none"
             id="rect74"
             width="18.389385"
             height="5.7789955"
             x="13.09277"
             y="32.094002" /><g
             id="g77"
             transform="translate(-28.219618,-2.2181131)"><path
               style="fill:#31859c;fill-opacity:1;stroke:#000000;stroke-width:0.328001;stroke-linecap:round;stroke-dasharray:none"
               d="M 41.425705,40.098974 H 59.668122"
               id="path75" /><path
               style="fill:#31859c;fill-opacity:1;stroke:#000000;stroke-width:0.328001;stroke-linecap:round;stroke-dasharray:none"
               d="M 41.386095,40.092629 V 32.029978"
               id="path76" /><path
               style="fill:#31859c;fill-opacity:1;stroke:#000000;stroke-width:0.328001;stroke-linecap:round;stroke-dasharray:none"
               d="M 59.673443,40.097759 V 32.035108"
               id="path77" /></g></g><path
           style="fill:#0070c0;fill-opacity:1;stroke:#0070c0;stroke-width:0.200573;stroke-linecap:round;stroke-dasharray:none;stroke-opacity:1;marker-start:url(#RoundedArrow);marker-end:url(#marker111)"
           d="m 85.885599,119.34316 v 3.27031"
           id="path81" /><path
           style="fill:#fc9900;fill-opacity:1;stroke:#fc9900;stroke-width:0.26052;stroke-linecap:round;stroke-dasharray:none;stroke-opacity:1;marker-start:url(#RoundedArrow);marker-end:url(#marker111)"
           d="m 70.539709,117.01281 v 5.51728"
           id="path82" /><g
           inkscape:label=""
           transform="translate(66.865604,118.71968)"
           id="g88"
           style="fill:#fc9900;fill-opacity:1;stroke:#fc9900;stroke-width:0.1;stroke-dasharray:none;stroke-opacity:1"><g
   fill="#000000"
   fill-opacity="1"
   id="g84"
   transform="matrix(0.352778,0,0,0.352778,-0.846402,-0.661723)"
   style="fill:#fc9900;fill-opacity:1;stroke:#fc9900;stroke-width:0.283464;stroke-dasharray:none;stroke-opacity:1">&#10;    <g
   id="g83"
   transform="translate(1.993,6.2820001)"
   style="fill:#fc9900;fill-opacity:1;stroke:#fc9900;stroke-width:0.283464;stroke-dasharray:none;stroke-opacity:1">&#10;      <path
   d="m 3.953125,-3.78125 c -0.171875,0 -0.296875,0 -0.4375,0.125 -0.171875,0.15625 -0.1875,0.328125 -0.1875,0.390625 0,0.25 0.1875,0.359375 0.375,0.359375 0.28125,0 0.546875,-0.25 0.546875,-0.640625 0,-0.484375 -0.46875,-0.859375 -1.171875,-0.859375 -1.34375,0 -2.671875,1.421875 -2.671875,2.828125 0,0.90625 0.578125,1.6875 1.625,1.6875 1.421875,0 2.25,-1.0625 2.25,-1.171875 0,-0.0625 -0.046875,-0.140625 -0.109375,-0.140625 -0.0625,0 -0.078125,0.03125 -0.140625,0.109375 -0.78125,0.984375 -1.875,0.984375 -1.984375,0.984375 -0.625,0 -0.90625,-0.484375 -0.90625,-1.09375 0,-0.40625 0.203125,-1.375 0.546875,-1.984375 0.3125,-0.578125 0.859375,-1 1.40625,-1 0.328125,0 0.71875,0.125 0.859375,0.40625 z m 0,0"
   id="path83"
   style="fill:#fc9900;fill-opacity:1;stroke:#fc9900;stroke-width:0.283464;stroke-dasharray:none;stroke-opacity:1" />&#10;    </g>&#10;  </g>&#10;  <g
   fill="#000000"
   fill-opacity="1"
   id="g86"
   transform="matrix(0.352778,0,0,0.352778,-0.846402,-0.661723)"
   style="fill:#fc9900;fill-opacity:1;stroke:#fc9900;stroke-width:0.283464;stroke-dasharray:none;stroke-opacity:1">&#10;    <g
   id="g85"
   transform="translate(6.3039999,7.776)"
   style="fill:#fc9900;fill-opacity:1;stroke:#fc9900;stroke-width:0.283464;stroke-dasharray:none;stroke-opacity:1">&#10;      <path
   d="m 1.71875,-2.75 h 0.703125 c 0.140625,0 0.21875,0 0.21875,-0.15625 C 2.640625,-3 2.5625,-3 2.4375,-3 H 1.78125 l 0.25,-1.03125 C 2.046875,-4.0625 2.0625,-4.109375 2.0625,-4.125 c 0,-0.140625 -0.109375,-0.234375 -0.25,-0.234375 -0.171875,0 -0.265625,0.125 -0.328125,0.296875 C 1.4375,-3.875 1.53125,-4.21875 1.21875,-3 H 0.515625 c -0.125,0 -0.21875,0 -0.21875,0.15625 C 0.296875,-2.75 0.375,-2.75 0.5,-2.75 H 1.15625 L 0.75,-1.109375 C 0.703125,-0.9375 0.640625,-0.6875 0.640625,-0.59375 c 0,0.40625 0.359375,0.65625 0.75,0.65625 0.78125,0 1.21875,-0.96875 1.21875,-1.0625 0,-0.09375 -0.09375,-0.09375 -0.109375,-0.09375 -0.09375,0 -0.09375,0.015625 -0.15625,0.140625 -0.1875,0.4375 -0.546875,0.828125 -0.921875,0.828125 -0.15625,0 -0.25,-0.09375 -0.25,-0.34375 0,-0.0625 0.03125,-0.21875 0.046875,-0.28125 z m 0,0"
   id="path84"
   style="fill:#fc9900;fill-opacity:1;stroke:#fc9900;stroke-width:0.283464;stroke-dasharray:none;stroke-opacity:1" />&#10;    </g>&#10;  </g>&#10;</g><g
           inkscape:label=""
           transform="translate(86.883669,119.48282)"
           id="g95"
           style="fill:#0070c0;fill-opacity:1;stroke:#0070c0;stroke-width:0.1;stroke-dasharray:none;stroke-opacity:1"><g
   fill="#000000"
   fill-opacity="1"
   id="g92"
   transform="matrix(0.352778,0,0,0.352778,-0.896011,-0.701719)"
   style="fill:#0070c0;fill-opacity:1;stroke:#0070c0;stroke-width:0.283464;stroke-dasharray:none;stroke-opacity:1">&#10;    <g
   id="g91"
   transform="translate(1.993,8.9110003)"
   style="fill:#0070c0;fill-opacity:1;stroke:#0070c0;stroke-width:0.283464;stroke-dasharray:none;stroke-opacity:1">&#10;      <path
   d="m 2.859375,-6.8125 c 0,0 0,-0.109375 -0.125,-0.109375 -0.234375,0 -0.953125,0.078125 -1.21875,0.109375 -0.078125,0 -0.1875,0.015625 -0.1875,0.1875 0,0.125 0.09375,0.125 0.234375,0.125 0.484375,0 0.5,0.0625 0.5,0.171875 L 2.03125,-6.125 0.59375,-0.390625 c -0.046875,0.140625 -0.046875,0.15625 -0.046875,0.21875 0,0.234375 0.203125,0.28125 0.296875,0.28125 0.15625,0 0.3125,-0.125 0.359375,-0.265625 l 0.1875,-0.75 0.21875,-0.890625 C 1.671875,-2.03125 1.734375,-2.25 1.78125,-2.46875 1.796875,-2.53125 1.890625,-2.859375 1.890625,-2.921875 1.921875,-3.015625 2.234375,-3.5625 2.578125,-3.84375 2.796875,-4 3.09375,-4.1875 3.53125,-4.1875 c 0.421875,0 0.53125,0.34375 0.53125,0.703125 0,0.53125 -0.375,1.625 -0.609375,2.234375 C 3.375,-1.03125 3.3125,-0.90625 3.3125,-0.703125 c 0,0.46875 0.359375,0.8125 0.828125,0.8125 0.9375,0 1.296875,-1.453125 1.296875,-1.53125 0,-0.109375 -0.078125,-0.109375 -0.109375,-0.109375 -0.109375,0 -0.109375,0.03125 -0.15625,0.1875 -0.140625,0.53125 -0.46875,1.234375 -1.015625,1.234375 -0.171875,0 -0.234375,-0.09375 -0.234375,-0.328125 0,-0.25 0.078125,-0.484375 0.171875,-0.703125 0.15625,-0.4375 0.609375,-1.625 0.609375,-2.203125 0,-0.640625 -0.390625,-1.0625 -1.140625,-1.0625 -0.625,0 -1.109375,0.3125 -1.484375,0.765625 z m 0,0"
   id="path91"
   style="fill:#0070c0;fill-opacity:1;stroke:#0070c0;stroke-width:0.283464;stroke-dasharray:none;stroke-opacity:1" />&#10;    </g>&#10;  </g>&#10;  <g
   fill="#000000"
   fill-opacity="1"
   id="g94"
   transform="matrix(0.352778,0,0,0.352778,-0.896011,-0.701719)"
   style="fill:#0070c0;fill-opacity:1;stroke:#0070c0;stroke-width:0.283464;stroke-dasharray:none;stroke-opacity:1">&#10;    <g
   id="g93"
   transform="translate(7.7329998,10.405)"
   style="fill:#0070c0;fill-opacity:1;stroke:#0070c0;stroke-width:0.283464;stroke-dasharray:none;stroke-opacity:1">&#10;      <path
   d="m 1.71875,-2.75 h 0.703125 c 0.140625,0 0.21875,0 0.21875,-0.15625 C 2.640625,-3 2.5625,-3 2.4375,-3 H 1.78125 l 0.25,-1.03125 C 2.046875,-4.0625 2.0625,-4.109375 2.0625,-4.125 c 0,-0.140625 -0.109375,-0.234375 -0.25,-0.234375 -0.171875,0 -0.265625,0.125 -0.328125,0.296875 C 1.4375,-3.875 1.53125,-4.21875 1.21875,-3 H 0.515625 c -0.125,0 -0.21875,0 -0.21875,0.15625 C 0.296875,-2.75 0.375,-2.75 0.5,-2.75 H 1.15625 L 0.75,-1.109375 C 0.703125,-0.9375 0.640625,-0.6875 0.640625,-0.59375 c 0,0.40625 0.359375,0.65625 0.75,0.65625 0.78125,0 1.21875,-0.96875 1.21875,-1.0625 0,-0.09375 -0.09375,-0.09375 -0.109375,-0.09375 -0.09375,0 -0.09375,0.015625 -0.15625,0.140625 -0.1875,0.4375 -0.546875,0.828125 -0.921875,0.828125 -0.15625,0 -0.25,-0.09375 -0.25,-0.34375 0,-0.0625 0.03125,-0.21875 0.046875,-0.28125 z m 0,0"
   id="path92"
   style="fill:#0070c0;fill-opacity:1;stroke:#0070c0;stroke-width:0.283464;stroke-dasharray:none;stroke-opacity:1" />&#10;    </g>&#10;  </g>&#10;</g></g><g
         inkscape:label=""
         transform="translate(81.114683,122.0121)"
         id="g180"
         style="stroke:#000000;stroke-width:0.1;stroke-dasharray:none;stroke-opacity:1"><g
   fill="#000000"
   fill-opacity="1"
   id="g177"
   transform="matrix(0.352778,0,0,0.352778,-0.846402,-0.661723)"
   style="stroke:#000000;stroke-width:0.283464;stroke-dasharray:none;stroke-opacity:1">&#10;    <g
   id="g176"
   transform="translate(1.993,6.2820001)"
   style="stroke:#000000;stroke-width:0.283464;stroke-dasharray:none;stroke-opacity:1">&#10;      <path
   d="m 4.5,-4.296875 c 0,-0.046875 -0.03125,-0.09375 -0.09375,-0.09375 -0.109375,0 -0.515625,0.390625 -0.671875,0.6875 C 3.515625,-4.25 3.125,-4.40625 2.796875,-4.40625 c -1.171875,0 -2.390625,1.46875 -2.390625,2.921875 0,0.96875 0.578125,1.59375 1.3125,1.59375 0.421875,0 0.8125,-0.234375 1.171875,-0.59375 -0.09375,0.34375 -0.421875,1.6875 -0.453125,1.78125 -0.078125,0.28125 -0.15625,0.3125 -0.71875,0.328125 -0.125,0 -0.21875,0 -0.21875,0.203125 0,0 0,0.109375 0.125,0.109375 0.3125,0 0.671875,-0.03125 1,-0.03125 0.328125,0 0.6875,0.03125 1.03125,0.03125 0.046875,0 0.171875,0 0.171875,-0.203125 C 3.828125,1.625 3.734375,1.625 3.5625,1.625 3.09375,1.625 3.09375,1.5625 3.09375,1.46875 3.09375,1.390625 3.109375,1.328125 3.125,1.25 Z m -2.75,4.1875 c -0.609375,0 -0.640625,-0.765625 -0.640625,-0.9375 0,-0.484375 0.28125,-1.5625 0.453125,-1.984375 0.3125,-0.734375 0.828125,-1.15625 1.234375,-1.15625 0.65625,0 0.796875,0.8125 0.796875,0.875 0,0.0625 -0.546875,2.25 -0.578125,2.28125 C 2.859375,-0.75 2.296875,-0.109375 1.75,-0.109375 Z m 0,0"
   id="path176"
   style="stroke:#000000;stroke-width:0.283464;stroke-dasharray:none;stroke-opacity:1" />&#10;    </g>&#10;  </g>&#10;  <g
   fill="#000000"
   fill-opacity="1"
   id="g179"
   transform="matrix(0.352778,0,0,0.352778,-0.846402,-0.661723)"
   style="stroke:#000000;stroke-width:0.283464;stroke-dasharray:none;stroke-opacity:1">&#10;    <g
   id="g178"
   transform="translate(6.4400001,7.777)"
   style="stroke:#000000;stroke-width:0.283464;stroke-dasharray:none;stroke-opacity:1">&#10;      <path
   d="m 1.71875,-2.75 h 0.703125 c 0.140625,0 0.21875,0 0.21875,-0.15625 C 2.640625,-3 2.5625,-3 2.4375,-3 H 1.78125 l 0.25,-1.03125 C 2.046875,-4.0625 2.0625,-4.109375 2.0625,-4.125 c 0,-0.140625 -0.109375,-0.234375 -0.25,-0.234375 -0.171875,0 -0.265625,0.125 -0.328125,0.296875 C 1.4375,-3.875 1.53125,-4.21875 1.21875,-3 H 0.515625 c -0.125,0 -0.21875,0 -0.21875,0.15625 C 0.296875,-2.75 0.375,-2.75 0.5,-2.75 H 1.15625 L 0.75,-1.109375 C 0.703125,-0.9375 0.640625,-0.6875 0.640625,-0.59375 c 0,0.40625 0.359375,0.65625 0.75,0.65625 0.78125,0 1.21875,-0.96875 1.21875,-1.0625 0,-0.09375 -0.09375,-0.09375 -0.109375,-0.09375 -0.09375,0 -0.09375,0.015625 -0.15625,0.140625 -0.1875,0.4375 -0.546875,0.828125 -0.921875,0.828125 -0.15625,0 -0.25,-0.09375 -0.25,-0.34375 0,-0.0625 0.03125,-0.21875 0.046875,-0.28125 z m 0,0"
   id="path177"
   style="stroke:#000000;stroke-width:0.283464;stroke-dasharray:none;stroke-opacity:1" />&#10;    </g>&#10;  </g>&#10;</g><path
         style="fill:#000000;stroke:#000000;stroke-width:0.345001;stroke-linecap:round;stroke-dasharray:none"
         d="m 53.659824,66.950998 v 5.900404"
         id="path4" /><g
         inkscape:label=""
         transform="translate(52.935138,74.919612)"
         id="g16"
         style="stroke:#000000;stroke-width:0.1;stroke-dasharray:none;stroke-opacity:1"><g
   fill="#000000"
   fill-opacity="1"
   id="g3"
   transform="matrix(0.352778,0,0,0.352778,-0.862939,-0.661723)"
   style="stroke:#000000;stroke-width:0.283464;stroke-dasharray:none;stroke-opacity:1">&#10;    <g
   id="use2"
   transform="translate(1.993,6.2820001)"
   style="stroke:#000000;stroke-width:0.283464;stroke-dasharray:none;stroke-opacity:1">&#10;      <path
   d="m 1.859375,-2.296875 c 0.296875,0 1.03125,-0.03125 1.53125,-0.234375 0.703125,-0.296875 0.75,-0.890625 0.75,-1.03125 0,-0.4375 -0.375,-0.84375 -1.0625,-0.84375 -1.109375,0 -2.625,0.96875 -2.625,2.71875 0,1.015625 0.59375,1.796875 1.578125,1.796875 1.421875,0 2.25,-1.0625 2.25,-1.171875 0,-0.0625 -0.046875,-0.140625 -0.109375,-0.140625 -0.0625,0 -0.078125,0.03125 -0.140625,0.109375 -0.78125,0.984375 -1.875,0.984375 -1.984375,0.984375 -0.78125,0 -0.875,-0.84375 -0.875,-1.15625 0,-0.125 0.015625,-0.421875 0.15625,-1.03125 z m -0.46875,-0.21875 C 1.78125,-4.03125 2.8125,-4.1875 3.078125,-4.1875 c 0.453125,0 0.734375,0.296875 0.734375,0.625 0,1.046875 -1.59375,1.046875 -2.015625,1.046875 z m 0,0"
   id="path5"
   style="stroke:#000000;stroke-width:0.283464;stroke-dasharray:none;stroke-opacity:1" />&#10;    </g>&#10;  </g>&#10;  <g
   fill="#000000"
   fill-opacity="1"
   id="g4"
   transform="matrix(0.352778,0,0,0.352778,-0.862939,-0.661723)"
   style="stroke:#000000;stroke-width:0.283464;stroke-dasharray:none;stroke-opacity:1">&#10;    <g
   id="use3"
   transform="translate(6.631,7.776)"
   style="stroke:#000000;stroke-width:0.283464;stroke-dasharray:none;stroke-opacity:1">&#10;      <path
   d="m 0.84375,-0.4375 c -0.015625,0.09375 -0.0625,0.265625 -0.0625,0.28125 0,0.15625 0.125,0.21875 0.234375,0.21875 0.125,0 0.234375,-0.078125 0.28125,-0.140625 0.03125,-0.0625 0.078125,-0.296875 0.125,-0.4375 0.03125,-0.125 0.109375,-0.453125 0.140625,-0.625 0.046875,-0.15625 0.09375,-0.3125 0.125,-0.46875 0.078125,-0.28125 0.09375,-0.34375 0.296875,-0.625 C 2.171875,-2.515625 2.5,-2.875 3.03125,-2.875 c 0.390625,0 0.40625,0.359375 0.40625,0.484375 0,0.421875 -0.296875,1.1875 -0.40625,1.484375 -0.078125,0.203125 -0.109375,0.265625 -0.109375,0.375 0,0.375 0.296875,0.59375 0.65625,0.59375 0.703125,0 1,-0.953125 1,-1.0625 0,-0.09375 -0.078125,-0.09375 -0.109375,-0.09375 -0.09375,0 -0.09375,0.046875 -0.125,0.125 C 4.1875,-0.40625 3.875,-0.125 3.609375,-0.125 c -0.15625,0 -0.1875,-0.09375 -0.1875,-0.25 0,-0.15625 0.046875,-0.25 0.171875,-0.5625 0.078125,-0.21875 0.359375,-0.953125 0.359375,-1.34375 0,-0.671875 -0.53125,-0.796875 -0.90625,-0.796875 -0.578125,0 -0.96875,0.359375 -1.171875,0.640625 -0.046875,-0.484375 -0.453125,-0.640625 -0.75,-0.640625 -0.296875,0 -0.453125,0.21875 -0.546875,0.375 -0.15625,0.265625 -0.25,0.65625 -0.25,0.703125 0,0.078125 0.09375,0.078125 0.125,0.078125 0.09375,0 0.09375,-0.015625 0.140625,-0.203125 0.109375,-0.40625 0.25,-0.75 0.515625,-0.75 0.1875,0 0.234375,0.15625 0.234375,0.34375 0,0.125 -0.0625,0.390625 -0.125,0.578125 -0.046875,0.1875 -0.109375,0.46875 -0.140625,0.625 z m 0,0"
   id="path14"
   style="stroke:#000000;stroke-width:0.283464;stroke-dasharray:none;stroke-opacity:1" />&#10;    </g>&#10;  </g>&#10;</g><path
         style="fill:#0070c0;fill-opacity:1;stroke:#000000;stroke-width:0.345;stroke-linecap:round;stroke-dasharray:none;stroke-opacity:1"
         d="m 82.293205,117.53397 v 2.865"
         id="path23" /></g></g></svg>
