<?xml version="1.0" encoding="UTF-8" standalone="no"?>
<svg
   xmlns:dc="http://purl.org/dc/elements/1.1/"
   xmlns:cc="http://creativecommons.org/ns#"
   xmlns:rdf="http://www.w3.org/1999/02/22-rdf-syntax-ns#"
   xmlns:svg="http://www.w3.org/2000/svg"
   xmlns="http://www.w3.org/2000/svg"
   xmlns:sodipodi="http://sodipodi.sourceforge.net/DTD/sodipodi-0.dtd"
   xmlns:inkscape="http://www.inkscape.org/namespaces/inkscape"
   viewBox="0 0 17383.33 7670"
   version="1.1"
   id="svg847"
   sodipodi:docname="marianne+inrae-logo-dark.svg"
   inkscape:version="1.0.2 (e86c8708, 2021-01-15)"
   width="17383.33"
   height="7670">
  <metadata
     id="metadata853">
    <rdf:RDF>
      <cc:Work
         rdf:about="">
        <dc:format>image/svg+xml</dc:format>
        <dc:type
           rdf:resource="http://purl.org/dc/dcmitype/StillImage" />
        <dc:title />
      </cc:Work>
    </rdf:RDF>
  </metadata>
  <defs
     id="defs851">
    <clipPath
       clipPathUnits="userSpaceOnUse"
       id="clipPath942">
      <rect
         style="fill:#000000;fill-opacity:1;fill-rule:evenodd;stroke:none;stroke-width:1.635;stroke-linecap:round;stroke-linejoin:round;stroke-miterlimit:10"
         id="rect944"
         width="10028.56"
         height="10173.004"
         x="4275.2334"
         y="-701.58649" />
    </clipPath>
  </defs>
  <sodipodi:namedview
     pagecolor="#ffffff"
     bordercolor="#666666"
     borderopacity="1"
     objecttolerance="10"
     gridtolerance="10"
     guidetolerance="10"
     inkscape:pageopacity="0"
     inkscape:pageshadow="2"
     inkscape:window-width="1920"
     inkscape:window-height="1027"
     id="namedview849"
     showgrid="false"
     inkscape:zoom="0.12095722"
     inkscape:cx="1181.2594"
     inkscape:cy="2095.7634"
     inkscape:window-x="0"
     inkscape:window-y="25"
     inkscape:window-maximized="0"
     inkscape:current-layer="svg847"
     inkscape:snap-page="true"
     fit-margin-top="1000"
     fit-margin-left="1000"
     fit-margin-bottom="1000"
     fit-margin-right="1000"
     inkscape:document-rotation="0"
     inkscape:pagecheckerboard="true" />
  <!-- fond -->
  <!-- Marianne -->
  <!-- RF -->
  <path
     d="m 1000,3250 v -750 h 228 q 124,0 194,60 71,60 72,164 0,67 -31,116 -31,50 -88,78 l 234,332 h -181 l -199,-303 h -77 v 303 z m 152,-432 h 85 q 48,0 74,-25 27,-25 27,-71 0,-43 -27,-68 -27,-25 -74,-24 h -85 z m 563,432 v -750 h 435 v 130 h -284 v 173 h 241 v 130 h -241 v 187 h 284 v 130 z m 147,-814 120,-145 h 156 l -138,145 z m 473,814 v -750 h 247 q 123,0 193,60 71,60 71,164 0,104 -71,163 -71,60 -193,60 h -95 v 303 z m 152,-432 h 101 q 49,0 76,-26 27,-25 27,-70 0,-43 -28,-68 -27,-25 -75,-24 h -101 z m 481,139 v -457 h 152 v 469 q 0,75 40,118 40,42 111,42 70,0 110,-42 40,-42 40,-118 v -469 h 152 v 457 q 0,148 -81,231 -81,83 -222,83 -140,0 -221,-83 -81,-84 -81,-231 z m 803,293 v -750 h 212 q 117,0 183,54 67,54 67,150 0,93 -79,148 59,27 91,72 32,46 32,105 0,103 -75,162 -74,59 -203,59 z m 151,-130 h 86 q 53,0 83,-26 30,-27 30,-73 0,-46 -30,-72 -30,-25 -83,-25 h -86 z m 0,-326 h 64 q 43,0 67,-22 24,-21 24,-61 0,-38 -24,-59 -23,-22 -67,-22 h -64 z m 520,456 v -750 h 151 v 612 h 284 v 138 z m 579,0 v -750 h 151 v 750 z m 336,-222 q -29,-73 -29,-153 0,-80 29,-152 29,-73 80,-127 52,-54 126,-86 75,-32 161,-32 86,0 161,32 75,32 126,86 51,54 80,127 29,72 29,152 0,94 -39,176 -39,82 -108,137 l 45,43 q 79,72 156,71 32,0 54,-8 v 129 q -35,14 -79,13 -121,0 -233,-98 l -89,-80 q -49,13 -103,13 -86,0 -161,-32 -74,-32 -126,-85 -51,-54 -80,-126 z m 195,-334 q -68,73 -69,181 0,108 69,181 68,73 173,73 69,0 123,-33 55,-33 86,-92 31,-58 31,-129 0,-108 -69,-181 -68,-73 -172,-73 -105,0 -173,73 z m 710,263 v -457 h 152 v 469 q 0,75 40,118 40,42 111,42 70,0 110,-42 40,-42 40,-118 v -469 h 152 v 457 q 0,148 -81,231 -81,84 -222,83 -140,0 -221,-83 -81,-84 -81,-231 z m 803,293 v -750 h 435 v 130 h -284 v 173 h 241 v 130 h -241 v 187 h 284 v 130 z M 1000,4335 v -750 h 435 v 130 h -283 v 173 h 241 v 130 h -241 v 317 z m 579,0 v -750 h 228 q 123,0 195,60 71,60 71,164 0,67 -31,117 -31,50 -88,77 l 234,332 h -181 l -199,-303 h -77 v 303 z m 152,-432 h 85 q 48,0 75,-25 27,-25 26,-71 0,-43 -26,-68 -26,-25 -75,-24 h -85 z m 500,432 283,-750 h 198 l 283,750 h -161 l -72,-195 h -299 l -71,195 z m 279,-325 h 206 l -103,-281 z m 611,325 v -750 h 194 l 334,537 v -537 h 151 v 750 h -194 l -334,-539 v 539 z m 836,-375 q 0,-80 29,-152 29,-73 80,-127 52,-54 126,-85 75,-32 162,-32 99,0 180,40 82,41 134,112 l -119,93 q -33,-47 -83,-75 -50,-28 -112,-28 -105,0 -173,73 -68,73 -69,181 0,108 69,182 68,73 173,72 62,0 112,-27 50,-28 83,-76 l 119,92 q -44,61 -110,100 -66,39 -146,49 l -93,156 h -134 l 94,-158 q -95,-17 -169,-73 -74,-56 -114,-139 -40,-83 -39,-178 z m 755,375 283,-750 h 198 l 283,750 h -161 l -71,-195 h -299 l -72,195 z m 280,-325 h 205 l -103,-281 z m 610,325 v -750 h 152 v 750 z m 304,-104 110,-101 q 34,44 76,68 43,24 89,24 45,0 70,-23 26,-23 26,-64 0,-24 -14,-44 -15,-20 -39,-33 -24,-14 -55,-28 -31,-15 -63,-29 -32,-14 -62,-34 -31,-20 -55,-44 -24,-24 -39,-61 -15,-37 -15,-81 0,-91 68,-154 68,-63 172,-63 156,0 261,126 l -111,100 q -72,-94 -149,-94 -38,0 -63,23 -25,23 -24,56 0,21 12,39 12,17 31,31 20,13 46,26 l 53,25 q 29,13 57,26 29,14 54,34 26,19 46,44 20,24 31,57 12,34 12,75 -2,102 -73,163 -70,61 -175,61 -92,0 -159,-31 -67,-32 -118,-94 z m 694,104 v -750 h 435 v 130 h -283 v 173 h 241 v 130 h -241 v 187 h 283 v 130 z"
     id="path843"
     style="fill:#ffffff;fill-opacity:1" />
  <!-- devise -->
  <path
     d="m 3484,6391 c 22,0 41,17 31,56 l -101,27 c 16,-48 46,-83 70,-83 m 56,164 h -20 c -25,30 -53,54 -80,54 -28,0 -42,-17 -42,-54 0,-15 2,-31 5,-45 l 164,-54 c 32,-76 -7,-109 -52,-109 -78,0 -166,136 -166,243 0,51 24,79 62,79 45,0 91,-43 129,-114 m -26,-244 93,-85 v -12 h -62 l -55,98 h 24 z m -349,82 h 54 l -86,236 c -8,20 3,40 24,40 61,0 134,-52 162,-126 h -15 c -22,31 -70,65 -106,72 l 79,-222 h 81 l 10,-34 h -79 l 30,-85 h -31 l -56,85 -67,9 z m -56,-12 c 7,-22 -8,-34 -19,-34 -47,0 -104,43 -126,102 h 15 c 15,-22 41,-46 66,-50 l -91,236 c -8,22 8,34 20,34 45,0 98,-43 120,-102 h -15 c -15,22 -41,46 -66,50 z m 9,-94 c 20,0 37,-17 37,-37 0,-20 -17,-37 -37,-37 -10,0 -19,4 -26,11 -7,7 -11,16 -11,26 0,21 16,37 37,37 m -439,126 c 14,0 22,22 0,71 l -64,142 c -12,27 1,44 27,44 16,0 23,-4 30,-21 l 63,-166 c 29,-36 83,-74 107,-74 17,0 15,14 4,36 l -97,185 c -9,18 3,40 24,40 47,0 104,-43 126,-102 h -17 c -15,22 -41,46 -66,50 l 83,-168 c 11,-21 16,-41 16,-57 0,-27 -15,-45 -44,-45 -41,0 -76,46 -126,103 v -44 c 0,-31 -10,-59 -38,-59 -33,0 -63,52 -87,102 h 15 c 17,-24 32,-37 44,-37 m -65,6 c 11,-39 5,-72 -24,-72 -37,0 -49,25 -85,103 v -44 c 0,-31 -10,-59 -38,-59 -33,0 -63,52 -87,102 h 15 c 16,-23 31,-37 43,-37 14,0 22,22 0,71 l -64,142 c -12,27 1,44 27,44 16,0 23,-4 30,-21 l 61,-166 c 18,-22 34,-41 54,-62 h 68 z m -349,-28 c 22,0 41,17 31,56 l -101,27 c 17,-48 46,-83 70,-83 m 56,164 h -20 c -25,30 -53,54 -80,54 -28,0 -42,-17 -42,-54 0,-15 2,-31 5,-45 l 164,-54 c 32,-76 -6,-109 -52,-109 -78,0 -166,136 -166,243 0,51 24,79 62,79 45,0 91,-43 129,-114 m -375,-162 h 54 l -86,236 c -8,20 3,40 24,40 61,0 135,-52 162,-126 h -15 c -22,31 -70,65 -106,72 l 79,-222 h 81 l 10,-34 h -79 l 30,-85 h -31 l -56,85 -67,9 z m -287,184 c 0,-73 81,-172 127,-172 10,0 20,1 28,4 l -47,126 c -27,33 -69,73 -89,73 -12,0 -19,-9 -19,-31 m 249,-244 -25,-2 -28,28 h -5 c -119,0 -247,148 -247,265 0,27 15,45 44,45 35,0 69,-50 108,-103 l -2,19 c -5,54 12,84 40,84 33,0 63,-52 86,-102 h -15 c -16,23 -31,37 -43,37 -12,0 -21,-23 0,-71 z m -255,86 c 11,-39 5,-72 -24,-72 -37,0 -49,25 -85,103 v -44 c 0,-31 -10,-59 -39,-59 -33,0 -63,52 -86,102 h 15 c 16,-23 31,-37 43,-37 14,0 22,22 0,71 l -65,143 c -12,27 1,44 27,44 16,0 23,-4 30,-21 l 63,-167 c 18,-22 34,-41 54,-62 h 67 z m -419,239 6,-18 c -79,-15 -89,-15 -57,-101 l 30,-81 h 63 c 39,0 40,17 34,60 h 23 l 52,-143 h -23 c -20,34 -35,60 -78,60 h -63 l 43,-117 c 15,-42 22,-50 76,-50 h 14 c 55,0 62,15 62,73 h 22 l 18,-97 h -305 l -6,18 c 63,13 69,19 40,101 l -65,177 c -30,81 -42,88 -115,101 l -5,18 h 234 z m 1513,-956 c 22,0 41,17 31,56 l -101,27 c 16,-48 46,-83 70,-83 m 56,164 h -20 c -25,30 -53,54 -80,54 -28,0 -42,-17 -42,-54 0,-15 2,-31 5,-45 l 164,-54 c 32,-76 -7,-109 -52,-109 -78,0 -166,136 -166,243 0,51 24,79 62,79 45,1 91,-43 129,-114 m -26,-244 93,-85 v -12 h -62 l -55,98 h 24 z m -349,82 h 54 l -86,236 c -8,20 3,40 24,40 61,0 134,-52 162,-126 h -15 c -22,31 -70,65 -106,72 l 79,-222 h 81 l 10,-34 h -79 l 30,-85 h -31 l -56,85 -67,10 z m -56,-11 c 7,-22 -8,-34 -20,-34 -47,0 -104,43 -126,102 h 15 c 15,-22 41,-46 66,-50 l -91,236 c -8,22 8,34 20,34 45,0 98,-43 120,-102 h -15 c -15,22 -41,46 -66,50 z m 9,-94 c 20,0 37,-17 37,-37 0,-20 -17,-37 -37,-37 -13,0 -25,7 -32,18 -7,11 -7,26 0,38 7,11 19,19 32,18 m -290,330 150,-398 -5,-7 -104,12 v 12 l 20,15 c 18,14 12,27 -4,72 l -114,304 c -10,18 3,40 24,40 47,0 98,-43 120,-102 h -15 c -16,23 -48,47 -72,52 m -306,-41 c 0,-73 81,-172 127,-172 10,0 19,1 28,4 l -48,126 c -27,33 -69,73 -89,73 -11,1 -18,-9 -18,-31 m 249,-243 -25,-2 -28,28 h -5 c -119,0 -247,148 -247,265 0,27 15,45 44,45 35,0 69,-50 108,-103 l -2,19 c -5,54 12,84 40,84 33,0 63,-52 86,-102 h -15 c -16,23 -31,37 -43,37 -12,0 -21,-23 0,-70 z m -579,393 c 0,-31 30,-51 73,-68 14,7 36,15 64,24 45,15 62,21 62,34 0,29 -41,51 -116,51 -56,1 -83,-11 -83,-41 m 123,-191 c -20,0 -27,-17 -27,-36 0,-59 28,-130 73,-130 20,0 27,17 27,36 0,58 -29,130 -73,130 m 128,162 c 0,-38 -34,-52 -89,-68 -47,-14 -69,-18 -69,-34 0,-12 10,-27 30,-38 78,-4 127,-74 127,-136 0,-11 -2,-21 -5,-30 h 53 l 10,-34 h -90 c -12,-8 -27,-12 -44,-12 -82,0 -135,72 -135,136 0,41 24,69 62,74 -38,18 -60,37 -60,61 0,14 5,24 17,33 -88,26 -124,59 -124,97 0,41 54,58 118,58 108,1 199,-58 199,-107 m -408,-240 c 39,0 40,17 34,60 h 23 l 52,-143 h -23 c -20,34 -35,60 -78,60 h -87 l 43,-117 c 15,-42 23,-50 76,-50 h 38 c 55,0 62,15 62,73 h 22 l 18,-97 h -327 l -6,18 c 63,13 69,19 40,101 l -65,177 c -30,81 -42,88 -115,101 l -5,18 h 364 l 65,-103 h -25 c -42,42 -85,79 -166,79 -97,0 -88,-5 -56,-95 l 30,-81 h 86 z m 47,-244 93,-68 v -12 h -62 l -55,80 z m 1390,-511 c 22,0 41,17 31,56 l -101,27 c 16,-49 46,-83 70,-83 m 56,164 h -20 c -25,30 -53,54 -80,54 -28,0 -42,-17 -42,-54 0,-15 2,-31 5,-45 l 164,-54 c 32,-76 -7,-109 -52,-109 -78,0 -166,136 -166,243 0,51 24,79 62,79 45,0 91,-43 129,-114 m -26,-244 93,-85 v -12 h -62 l -55,98 h 24 z m -349,81 h 55 l -86,236 c -8,20 3,40 24,40 61,0 135,-52 162,-126 h -15 c -22,31 -70,65 -106,72 l 79,-222 h 81 l 10,-34 h -79 l 30,-85 h -31 l -56,85 -67,9 v 25 z m -28,27 c 11,-39 5,-72 -24,-72 -37,0 -49,25 -85,103 v -44 c 0,-31 -10,-59 -38,-59 -33,0 -63,52 -87,102 h 15 c 16,-23 31,-37 43,-37 14,0 22,22 0,71 l -64,142 c -12,27 1,44 27,44 16,0 23,-4 30,-21 l 63,-166 c 18,-22 34,-41 54,-62 h 66 z m -349,-28 c 22,0 41,17 31,56 l -101,27 c 16,-49 46,-83 70,-83 m 56,164 h -20 c -25,30 -53,54 -80,54 -28,0 -42,-17 -42,-54 0,-15 2,-31 5,-45 l 164,-54 c 32,-76 -6,-109 -52,-109 -78,0 -166,136 -166,243 0,51 24,79 62,79 45,0 91,-43 129,-114 m -382,66 c -16,0 -39,-15 -39,-28 0,-4 7,-23 16,-46 l 26,-70 c 28,-34 72,-71 97,-71 15,0 26,10 26,31 -1,66 -61,184 -126,184 m 182,-209 c 0,-48 -12,-66 -46,-66 -42,0 -81,45 -121,99 l 84,-226 -5,-7 -104,12 v 12 l 20,15 c 18,14 12,28 -4,72 l -91,239 c -8,20 -17,44 -17,50 0,28 38,55 73,55 79,2 211,-143 211,-255 m -307,-31 c 6,-22 -8,-34 -20,-34 -47,0 -104,43 -126,102 h 15 c 15,-22 41,-46 66,-50 l -91,236 c -8,22 8,34 20,34 45,0 98,-43 120,-102 h -15 c -15,22 -41,46 -66,50 z m 10,-94 c 20,0 37,-17 37,-37 0,-20 -17,-37 -37,-37 -13,0 -25,7 -32,18 -7,11 -7,26 0,38 7,11 19,19 32,18 m -231,-45 h -216 l -6,18 c 63,13 69,19 40,101 l -65,177 c -30,81 -42,88 -115,101 l -5,18 h 328 l 71,-127 h -25 c -41,45 -88,102 -161,102 -55,0 -63,-10 -32,-95 l 65,-177 c 30,-81 42,-88 115,-101 z"
     id="path845"
     style="fill:#ffffff;fill-opacity:1" />
  <path
     d="m 9662.2181,2519.5626 h -302.9194 c -12.0823,0 -21.8828,9.8179 -21.8828,21.9293 v 1752.5747 c 0,12.1197 9.8005,21.9296 21.8828,21.9296 h 302.9194 c 12.0731,0 21.8814,-9.8099 21.8814,-21.9296 V 2541.4919 c 0,-12.1114 -9.8083,-21.9293 -21.8814,-21.9293"
     style="fill:#00a3a6;fill-opacity:1;fill-rule:nonzero;stroke:none;stroke-width:2.39402"
     id="path958-3" />
  <path
     d="m 11369.212,2519.5626 h -301.731 c -12.111,0 -21.89,9.8179 -21.89,21.9293 v 1172.1165 l -742.167,-1183.7778 c -3.993,-6.4064 -11.008,-10.268 -18.518,-10.268 h -304.1343 c -12.073,0 -21.8909,9.8179 -21.8909,21.9293 v 1752.5747 c 0,12.1197 9.8179,21.9296 21.8909,21.9296 h 304.1343 c 12.083,0 21.903,-9.8099 21.903,-21.9296 V 3126.699 l 739.744,1179.0571 c 3.993,6.3593 10.979,10.2401 18.506,10.2401 h 304.153 c 12.064,0 21.884,-9.8099 21.884,-21.9296 V 2541.4919 c 0,-12.1114 -9.82,-21.9293 -21.884,-21.9293"
     style="fill:#00a3a6;fill-opacity:1;fill-rule:nonzero;stroke:none;stroke-width:2.39402"
     id="path960-2" />
  <path
     d="m 12527.372,3280.4864 c -53.291,47.8062 -129.254,72.0361 -225.829,72.0361 h -290.658 v -543.5823 h 298.774 c 99.52,1.5322 174.836,26.2314 223.77,73.317 48.574,46.8607 73.185,114.8461 73.185,202.1083 0,84.1069 -25.903,148.2595 -79.242,196.1209 m 114.865,278.6141 c 93.894,-43.4372 169.018,-104.0084 223.482,-180.2437 58.917,-82.5364 88.794,-185.8816 88.794,-307.2658 0,-177.9454 -58.079,-316.2003 -172.609,-410.8576 -113.357,-93.6662 -275.336,-141.1708 -481.558,-141.1708 h -615.458 c -12.111,0 -21.893,9.8179 -21.893,21.9101 v 1752.5939 c 0,12.0917 9.782,21.9109 21.893,21.9109 h 304.116 c 12.065,0 21.881,-9.8192 21.881,-21.9109 v -652.1568 h 303.849 l 344.907,662.2847 c 3.759,7.2474 11.228,11.783 19.368,11.783 h 325.803 c 12.09,0 21.881,-9.8192 21.881,-21.9109 v -15.6079 c 0,-3.6566 -0.909,-7.2007 -2.657,-10.4085 l -381.799,-708.9497"
     style="fill:#00a3a6;fill-opacity:1;fill-rule:nonzero;stroke:none;stroke-width:2.39402"
     id="path962-6" />
  <path
     d="m 16383.33,3419.4906 c 0,-123.1534 -26.238,-244.3676 -74.143,-357.0926 -8.786,-12.9445 -17.5,-5.377 -20.588,-1.7956 l -182.497,286.4785 c -16.327,28.4841 -28.249,48.3378 -31.433,119.7371 -0.192,4.9676 -0.431,8.9776 -1.173,12.5615 -30.165,308.7429 -291.137,550.829 -607.651,550.829 -59.276,0 -118.145,-8.6209 -174.98,-25.6592 -96.67,-28.9724 -185.608,-82.2012 -257.19,-153.9572 -2.561,-2.5712 -5.051,-5.1424 -7.541,-7.7615 389.221,-171.7903 715.047,-471.005 919.808,-845.4184 44.768,-81.8924 83.911,-167.7301 116.326,-255.2245 3.184,-8.6496 0.622,-18.4149 -6.464,-24.3616 -68.134,-57.4015 -143.785,-104.4202 -224.847,-139.7607 C 15715.254,2527.585 15592.441,2502 15465.845,2502 c -0.192,0 -0.36,0.036 -0.527,0.036 -0.168,0 -0.335,-0.036 -0.503,-0.036 -313.88,0 -591.228,159.0159 -756.392,400.6519 -100.86,147.29 -160.088,325.2234 -160.088,516.8387 0,86.8217 12.257,172.7336 36.509,255.7296 -41.68,8.7717 -83.911,15.9083 -125.998,21.3499 l -439.447,-1162.8684 c -3.184,-8.5012 -11.371,-14.1223 -20.445,-14.1223 h -272.895 c -9.097,0 -17.26,5.6211 -20.468,14.1606 l -661.158,1752.5927 c -2.538,6.7145 -1.628,14.2614 2.466,20.1996 4.094,5.9383 10.797,9.4639 17.955,9.4639 h 316.203 c 9.265,0 17.572,-5.9103 20.684,-14.7289 l 106.103,-304.7715 h 709.038 l 3.28,9.5498 103.111,295.2497 c 3.088,8.7906 11.371,14.7009 20.66,14.7009 h 317.352 c 7.182,0 13.933,-3.5256 18.003,-9.4639 4.07,-5.9382 5.004,-13.4851 2.49,-20.1996 l -115.703,-306.1258 c 49.317,-8.2019 98.538,-18.4699 146.873,-30.44 1.389,-0.3567 2.777,-0.6081 4.19,-0.9361 1.316,1.8889 2.657,3.8353 4.021,5.705 60.138,83.5754 133.276,156.0327 217.426,215.3688 154.989,109.2929 336.935,167.0955 526.23,167.0955 v -0.056 c 0.335,0 0.67,0.056 1.03,0.056 505.881,0 917.485,-411.5948 917.485,-917.5095 m -918.204,-610.6725 c 76.489,0.036 151.039,14.2038 221.998,42.2306 -178.57,329.5805 -464.584,588.5948 -809.347,732.9927 -15.035,-53.5567 -22.648,-108.7964 -22.648,-164.5508 0,-336.5208 273.589,-610.2894 609.997,-610.6725 m -1350.109,895.9635 2.322,6.6578 h -510.191 l 40.316,-115.8492 214.456,-615.6831 253.097,724.8745"
     style="fill:#00a3a6;fill-opacity:1;fill-rule:nonzero;stroke:none;stroke-width:2.39402"
     id="path964-8" />
  <g
     id="g1752">
    <path
       id="path1715"
       style="fill:#ffffff;fill-opacity:1;fill-rule:evenodd;stroke:none;stroke-width:1.03225;stroke-linecap:round;stroke-linejoin:round;stroke-miterlimit:10"
       d="M 1806.375 1862.25 C 1805.0625 1862.25 1803.5938 1862.4375 1802.2656 1862.75 C 1800.9375 1863.0625 1799.75 1863.5 1799 1864 C 1798 1864.5 1797.25 1865 1796.625 1865.625 C 1796 1866.25 1795.5 1867 1795 1868 C 1794 1869.5 1792.75 1871 1791.375 1872.375 C 1790 1873.75 1788.5 1875 1787 1876 C 1784.5 1878 1782.25 1880.25 1780 1882.5 C 1777.75 1884.75 1775.5 1887 1773 1889 C 1772.625 1889.375 1772.4688 1889.7188 1772.4863 1890.0293 C 1772.5039 1890.3398 1772.6953 1890.6172 1773.0156 1890.8594 C 1773.6562 1891.3438 1774.8125 1891.6875 1776.125 1891.875 C 1777.4375 1892.0625 1778.9062 1892.0938 1780.1719 1891.9531 C 1781.4375 1891.8125 1782.5 1891.5 1783 1891 C 1784 1889.5 1785.25 1888.25 1786.5 1887.125 C 1787.75 1886 1789 1885 1790 1884 L 1793 1884 C 1794.25 1883.5 1795.5 1882.875 1796.7344 1882.1562 C 1797.9688 1881.4375 1799.1875 1880.625 1800.375 1879.75 C 1802.75 1878 1805 1876 1807 1874 C 1807.5 1873.75 1807.75 1873.4375 1807.8125 1873.1094 C 1807.875 1872.7812 1807.75 1872.4375 1807.5 1872.125 C 1807.25 1871.8125 1806.875 1871.5312 1806.4375 1871.3281 C 1806 1871.125 1805.5 1871 1805 1871 C 1806 1870 1807 1869 1807.875 1868 C 1808.75 1867 1809.5 1866 1810 1865 C 1810.25 1864.5 1810.3125 1864.0781 1810.2246 1863.7266 C 1810.1367 1863.375 1809.8984 1863.0938 1809.5469 1862.875 C 1808.8438 1862.4375 1807.6875 1862.25 1806.375 1862.25 z " />
    <path
       id="path1736"
       style="fill:#ffffff;fill-opacity:1;fill-rule:evenodd;stroke:none;stroke-width:1.03225;stroke-linecap:round;stroke-linejoin:round;stroke-miterlimit:10"
       d="M 1806.375 1862.25 C 1807.6875 1862.25 1808.8438 1862.4375 1809.5469 1862.875 C 1809.8984 1863.0938 1810.1367 1863.375 1810.2246 1863.7266 C 1810.3125 1864.0781 1810.25 1864.5 1810 1865 C 1809.5 1866 1808.75 1867 1807.875 1868 C 1807 1869 1806 1870 1805 1871 C 1805.5 1871 1806 1871.125 1806.4375 1871.3281 C 1806.875 1871.5312 1807.25 1871.8125 1807.5 1872.125 C 1807.75 1872.4375 1807.875 1872.7812 1807.8125 1873.1094 C 1807.75 1873.4375 1807.5 1873.75 1807 1874 C 1805 1876 1802.75 1878 1800.375 1879.75 C 1799.1875 1880.625 1797.9688 1881.4375 1796.7344 1882.1562 C 1795.5 1882.875 1794.25 1883.5 1793 1884 L 1790 1884 C 1789 1885 1787.75 1886 1786.5 1887.125 C 1785.25 1888.25 1784 1889.5 1783 1891 C 1782.5 1891.5 1781.4375 1891.8125 1780.1719 1891.9531 C 1778.9062 1892.0938 1777.4375 1892.0625 1776.125 1891.875 C 1774.8125 1891.6875 1773.6562 1891.3438 1773.0156 1890.8594 C 1772.6953 1890.6172 1772.5039 1890.3398 1772.4863 1890.0293 C 1772.4688 1889.7188 1772.625 1889.375 1773 1889 C 1775.5 1887 1777.75 1884.75 1780 1882.5 C 1782.25 1880.25 1784.5 1878 1787 1876 C 1788.5 1875 1790 1873.75 1791.375 1872.375 C 1792.75 1871 1794 1869.5 1795 1868 C 1795.5 1867 1796 1866.25 1796.625 1865.625 C 1797.25 1865 1798 1864.5 1799 1864 C 1799.75 1863.5 1800.9375 1863.0625 1802.2656 1862.75 C 1803.5938 1862.4375 1805.0625 1862.25 1806.375 1862.25 z " />
    <path
       id="path1734"
       style="fill:#ffffff;fill-opacity:1;fill-rule:evenodd;stroke:none;stroke-width:1.03225;stroke-linecap:round;stroke-linejoin:round;stroke-miterlimit:10"
       d="M 1784.2188 1820.5938 C 1782.9531 1820.6094 1781.7109 1820.7109 1780.5039 1820.9336 C 1779.2969 1821.1562 1778.125 1821.5 1777 1822 C 1774.125 1823.375 1771.125 1824.5781 1768.041 1825.6641 C 1764.957 1826.75 1761.7891 1827.7188 1758.5781 1828.625 C 1752.1562 1830.4375 1745.5625 1832 1739.125 1833.75 C 1735.9062 1834.625 1732.7266 1835.5469 1729.627 1836.5703 C 1726.5273 1837.5938 1723.5078 1838.7188 1720.6094 1840 C 1717.7109 1841.2812 1714.9336 1842.7188 1712.3184 1844.3672 C 1709.7031 1846.0156 1707.25 1847.875 1705 1850 C 1704.5 1851 1703.75 1851.75 1703 1852.5 C 1702.25 1853.25 1701.5 1854 1701 1855 L 1700 1856 C 1699 1856.5 1698 1857 1697 1857.625 C 1696 1858.25 1695 1859 1694 1860 C 1692 1861.5 1690.25 1863.25 1688.625 1865 C 1687 1866.75 1685.5 1868.5 1684 1870 C 1683.5 1870.5 1683 1871.25 1682.375 1872 C 1681.75 1872.75 1681 1873.5 1680 1874 C 1679.625 1874.25 1679.3594 1874.5156 1679.1855 1874.7852 C 1679.0117 1875.0547 1678.9297 1875.3281 1678.9219 1875.5938 C 1678.9062 1876.125 1679.1875 1876.625 1679.625 1877 C 1680.0625 1877.375 1680.6562 1877.625 1681.2656 1877.6562 C 1681.875 1877.6875 1682.5 1877.5 1683 1877 C 1684 1876 1685 1875 1686.125 1874 C 1687.25 1873 1688.5 1872 1690 1871 L 1691 1871 C 1689.5 1872.5 1688 1874 1686.625 1875.625 C 1685.25 1877.25 1684 1879 1683 1881 L 1683 1882 C 1682.5 1882.5 1682.25 1883 1682.125 1883.5 C 1682 1884 1682 1884.5 1682 1885 C 1681.5 1885.5 1681.25 1885.75 1681.125 1886 C 1681 1886.25 1681 1886.5 1681 1887 L 1681 1888 C 1680.5 1888.5 1680.25 1889 1680 1889.625 C 1679.75 1890.25 1679.5 1891 1679 1892 L 1679 1893 C 1678.5 1894 1678.25 1894.75 1678 1895.375 C 1677.75 1896 1677.5 1896.5 1677 1897 C 1676 1898 1675 1900 1674 1901 L 1673 1902 C 1671 1905 1669 1907 1667 1910 C 1667 1910.5 1666.75 1910.75 1666.5 1911 C 1666.25 1911.25 1666 1911.5 1666 1912 C 1665 1913 1664 1915 1663 1916 C 1662.5 1916 1662.25 1916.25 1662 1916.625 C 1661.75 1917 1661.5 1917.5 1661 1918 C 1660 1919.5 1659 1920.75 1658 1921.875 C 1657 1923 1656 1924 1655 1925 L 1655 1926 C 1656 1927 1656 1928 1657 1929 C 1657.5 1929 1657.75 1929.25 1657.875 1929.5 C 1658 1929.75 1658 1930 1658 1930 L 1659 1931 C 1659.5 1931 1660 1930.75 1660.375 1930.5 C 1660.75 1930.25 1661 1930 1661 1930 C 1661 1929.5 1661.25 1929.25 1661.5 1929 C 1661.75 1928.75 1662 1928.5 1662 1928 C 1662.5 1928 1662.75 1927.75 1662.875 1927.5 C 1663 1927.25 1663 1927 1663 1927 L 1664 1926 L 1664 1925 C 1664.75 1923.75 1665.5625 1922.625 1666.4219 1921.5781 C 1667.2812 1920.5312 1668.1875 1919.5625 1669.125 1918.625 C 1671 1916.75 1673 1915 1675 1913 C 1677 1911 1680 1909 1682 1907 L 1684 1907 C 1685 1906 1686 1906 1687 1905 C 1688 1904 1689 1904 1690 1903 C 1690 1903.5 1690.1875 1903.875 1690.4844 1904.1406 C 1690.7812 1904.4062 1691.1875 1904.5625 1691.625 1904.625 C 1692.0625 1904.6875 1692.5312 1904.6562 1692.9531 1904.5469 C 1693.375 1904.4375 1693.75 1904.25 1694 1904 C 1695 1903.5 1695.5 1903 1695.875 1902.5 C 1696.25 1902 1696.5 1901.5 1697 1901 L 1701 1897 L 1704 1894 L 1707 1891 C 1710 1888 1713 1885.25 1716.125 1882.75 C 1719.25 1880.25 1722.5 1878 1726 1876 C 1726.5 1876 1727 1876 1727.5 1876.125 C 1728 1876.25 1728.5 1876.5 1729 1877 C 1733 1875 1737.25 1873.25 1741.5 1871.375 C 1743.625 1870.4375 1745.75 1869.4688 1747.8438 1868.4219 C 1749.9375 1867.375 1752 1866.25 1754 1865 C 1757.5 1862.5 1761 1860 1764.625 1857.5 C 1768.25 1855 1772 1852.5 1776 1850 C 1780 1847.5 1783.9375 1844.9375 1787.8594 1842.4531 C 1791.7812 1839.9688 1795.6875 1837.5625 1799.625 1835.375 C 1803.5625 1833.1875 1807.5312 1831.2188 1811.5781 1829.6094 C 1813.6016 1828.8047 1815.6445 1828.0898 1817.7129 1827.4824 C 1819.7812 1826.875 1821.875 1826.375 1824 1826 C 1822.5 1825 1821.0625 1824.25 1819.6562 1823.6875 C 1818.25 1823.125 1816.875 1822.75 1815.5 1822.5 C 1814.125 1822.25 1812.75 1822.125 1811.3438 1822.0625 C 1809.9375 1822 1808.5 1822 1807 1822 C 1805.875 1822.25 1804.7031 1822.375 1803.4961 1822.4102 C 1802.2891 1822.4453 1801.0469 1822.3906 1799.7812 1822.2812 C 1797.25 1822.0625 1794.625 1821.625 1792 1821.25 C 1789.375 1820.875 1786.75 1820.5625 1784.2188 1820.5938 z " />
    <path
       id="path1732"
       style="fill:#ffffff;fill-opacity:1;fill-rule:evenodd;stroke:none;stroke-width:1.03225;stroke-linecap:round;stroke-linejoin:round;stroke-miterlimit:10"
       d="M 1878.8438 1728.5 C 1877.75 1728.625 1876.625 1729 1875.5 1729.5 C 1873.25 1730.5 1871 1732 1869 1733 C 1867 1734 1864.6875 1734.75 1862.3125 1735.4531 C 1859.9375 1736.1562 1857.5 1736.8125 1855.25 1737.625 C 1854.125 1738.0312 1853.0469 1738.4766 1852.0469 1738.9863 C 1851.0469 1739.4961 1850.125 1740.0703 1849.3125 1740.7344 C 1848.5 1741.3984 1847.7969 1742.1523 1847.2344 1743.0215 C 1846.6719 1743.8906 1846.25 1744.875 1846 1746 C 1845.75 1746.5 1845.6406 1746.9062 1845.6484 1747.2344 C 1845.6562 1747.5625 1845.7812 1747.8125 1846 1748 C 1846.4375 1748.375 1847.25 1748.5 1848.25 1748.5 C 1850.25 1748.5 1853 1748 1855 1748 C 1856.625 1747.375 1858.2812 1746.9062 1859.959 1746.543 C 1861.6367 1746.1797 1863.3359 1745.9219 1865.0469 1745.7188 C 1868.4688 1745.3125 1871.9375 1745.125 1875.375 1744.75 C 1877.0938 1744.5625 1878.8047 1744.3281 1880.498 1743.9961 C 1882.1914 1743.6641 1883.8672 1743.2344 1885.5156 1742.6562 C 1887.1641 1742.0781 1888.7852 1741.3516 1890.3691 1740.4258 C 1891.9531 1739.5 1893.5 1738.375 1895 1737 C 1894 1736 1892.9375 1735.375 1891.8438 1734.9062 C 1890.75 1734.4375 1889.625 1734.125 1888.5 1733.75 C 1887.375 1733.375 1886.25 1732.9375 1885.1562 1732.2188 C 1884.6094 1731.8594 1884.0703 1731.4297 1883.543 1730.9023 C 1883.0156 1730.375 1882.5 1729.75 1882 1729 C 1881.5 1728.75 1880.9844 1728.5938 1880.457 1728.5156 C 1879.9297 1728.4375 1879.3906 1728.4375 1878.8438 1728.5 z " />
    <path
       id="path1730"
       style="fill:#ffffff;fill-opacity:1;fill-rule:evenodd;stroke:none;stroke-width:1.03225;stroke-linecap:round;stroke-linejoin:round;stroke-miterlimit:10"
       d="M 1720.7344 1578.7656 C 1720.3125 1578.6875 1719.75 1578.75 1719 1579 C 1717.25 1579.5 1715.5625 1580.3125 1713.9844 1581.375 C 1712.4062 1582.4375 1710.9375 1583.75 1709.625 1585.25 C 1708.3125 1586.75 1707.1562 1588.4375 1706.2031 1590.25 C 1705.25 1592.0625 1704.5 1594 1704 1596 C 1704 1596.5 1704.125 1596.875 1704.3438 1597.1562 C 1704.5625 1597.4375 1704.875 1597.625 1705.25 1597.75 C 1706 1598 1707 1598 1708 1598 C 1710 1597 1711.5 1596 1712.75 1594.75 C 1714 1593.5 1715 1592 1716 1590 C 1716.5 1589 1717 1588.25 1717.5 1587.625 C 1718 1587 1718.5 1586.5 1719 1586 C 1719.5 1585.5 1720 1585 1720.5 1584.375 C 1721 1583.75 1721.5 1583 1722 1582 C 1722 1581 1722 1580 1721.625 1579.375 C 1721.4375 1579.0625 1721.1562 1578.8438 1720.7344 1578.7656 z " />
    <path
       id="path1728"
       style="fill:#ffffff;fill-opacity:1;fill-rule:evenodd;stroke:none;stroke-width:1.03225;stroke-linecap:round;stroke-linejoin:round;stroke-miterlimit:10"
       d="M 1720.7344 1578.7656 C 1721.1562 1578.8438 1721.4375 1579.0625 1721.625 1579.375 C 1722 1580 1722 1581 1722 1582 C 1721.5 1583 1721 1583.75 1720.5 1584.375 C 1720 1585 1719.5 1585.5 1719 1586 C 1718.5 1586.5 1718 1587 1717.5 1587.625 C 1717 1588.25 1716.5 1589 1716 1590 C 1715 1592 1714 1593.5 1712.75 1594.75 C 1711.5 1596 1710 1597 1708 1598 C 1707 1598 1706 1598 1705.25 1597.75 C 1704.875 1597.625 1704.5625 1597.4375 1704.3438 1597.1562 C 1704.125 1596.875 1704 1596.5 1704 1596 C 1704.5 1594 1705.25 1592.0625 1706.2031 1590.25 C 1707.1562 1588.4375 1708.3125 1586.75 1709.625 1585.25 C 1710.9375 1583.75 1712.4062 1582.4375 1713.9844 1581.375 C 1715.5625 1580.3125 1717.25 1579.5 1719 1579 C 1719.75 1578.75 1720.3125 1578.6875 1720.7344 1578.7656 z " />
    <path
       id="path1726"
       style="fill:#ffffff;fill-opacity:1;fill-rule:evenodd;stroke:none;stroke-width:1.03225;stroke-linecap:round;stroke-linejoin:round;stroke-miterlimit:10"
       d="M 1794 1557 C 1791.25 1558.5 1788.5938 1560.125 1786.0332 1561.8691 C 1783.4727 1563.6133 1781.0078 1565.4766 1778.6406 1567.4531 C 1776.2734 1569.4297 1774.0039 1571.5195 1771.834 1573.7168 C 1769.6641 1575.9141 1767.5938 1578.2188 1765.625 1580.625 C 1763.6562 1583.0312 1761.7891 1585.5391 1760.0254 1588.1426 C 1758.2617 1590.7461 1756.6016 1593.4453 1755.0469 1596.2344 C 1753.4922 1599.0234 1752.043 1601.9023 1750.7012 1604.8652 C 1749.3594 1607.8281 1748.125 1610.875 1747 1614 C 1748.75 1615 1750.5156 1615.7812 1752.291 1616.3867 C 1754.0664 1616.9922 1755.8516 1617.4219 1757.6406 1617.7188 C 1759.4297 1618.0156 1761.2227 1618.1797 1763.0137 1618.2539 C 1764.8047 1618.3281 1766.5938 1618.3125 1768.375 1618.25 C 1771.9375 1618.125 1775.4688 1617.8125 1778.9219 1617.6562 C 1780.6484 1617.5781 1782.3555 1617.5391 1784.0371 1617.582 C 1785.7188 1617.625 1787.375 1617.75 1789 1618 C 1788.25 1618.75 1787.4531 1619.4062 1786.6172 1619.9844 C 1785.7812 1620.5625 1784.9062 1621.0625 1784 1621.5 C 1782.1875 1622.375 1780.25 1623 1778.25 1623.5 C 1774.25 1624.5 1770 1625 1766 1626 C 1764.75 1626.25 1763.4375 1626.6875 1762.2031 1627.2656 C 1760.9688 1627.8438 1759.8125 1628.5625 1758.875 1629.375 C 1757.9375 1630.1875 1757.2188 1631.0938 1756.8594 1632.0469 C 1756.6797 1632.5234 1756.5898 1633.0117 1756.6074 1633.5059 C 1756.625 1634 1756.75 1634.5 1757 1635 C 1757.5 1636 1758 1636.75 1758.625 1637.25 C 1759.25 1637.75 1760 1638 1761 1638 C 1759 1639 1757 1640 1755 1641.125 C 1753 1642.25 1751 1643.5 1749 1645 C 1750 1645.75 1750.9844 1646.3438 1751.957 1646.8086 C 1752.9297 1647.2734 1753.8906 1647.6094 1754.8438 1647.8438 C 1756.75 1648.3125 1758.625 1648.375 1760.5 1648.25 C 1762.375 1648.125 1764.25 1647.8125 1766.1562 1647.5312 C 1768.0625 1647.25 1770 1647 1772 1647 C 1772 1648 1772.25 1648.75 1772.6562 1649.3438 C 1773.0625 1649.9375 1773.625 1650.375 1774.25 1650.75 C 1774.875 1651.125 1775.5625 1651.4375 1776.2188 1651.7812 C 1776.875 1652.125 1777.5 1652.5 1778 1653 C 1775.75 1654 1773.5625 1655.1875 1771.5156 1656.5 C 1769.4688 1657.8125 1767.5625 1659.25 1765.875 1660.75 C 1764.1875 1662.25 1762.7188 1663.8125 1761.5469 1665.375 C 1760.375 1666.9375 1759.5 1668.5 1759 1670 C 1758.5 1671.25 1757.9219 1672.3906 1757.2812 1673.4453 C 1756.6406 1674.5 1755.9375 1675.4688 1755.1875 1676.375 C 1753.6875 1678.1875 1752 1679.75 1750.25 1681.25 C 1748.5 1682.75 1746.6875 1684.1875 1744.9375 1685.75 C 1743.1875 1687.3125 1741.5 1689 1740 1691 L 1740 1697 C 1735.25 1701.25 1730.375 1705.125 1725.5 1708.875 C 1720.625 1712.625 1715.75 1716.25 1711 1720 C 1708.625 1721.875 1706.2812 1723.7812 1703.9844 1725.75 C 1701.6875 1727.7188 1699.4375 1729.75 1697.25 1731.875 C 1695.0625 1734 1692.9375 1736.2188 1690.8906 1738.5625 C 1688.8438 1740.9062 1686.875 1743.375 1685 1746 C 1685.5 1746 1685.875 1746.125 1686.1562 1746.3438 C 1686.4375 1746.5625 1686.625 1746.875 1686.75 1747.25 C 1687 1748 1687 1749 1687 1750 C 1686 1751.25 1684.8125 1752.3125 1683.5625 1753.2969 C 1682.3125 1754.2812 1681 1755.1875 1679.75 1756.125 C 1678.5 1757.0625 1677.3125 1758.0312 1676.3125 1759.1406 C 1675.8125 1759.6953 1675.3594 1760.2852 1674.9688 1760.9238 C 1674.5781 1761.5625 1674.25 1762.25 1674 1763 C 1674 1764 1674 1765 1674.25 1765.75 C 1674.375 1766.125 1674.5625 1766.4375 1674.8438 1766.6562 C 1675.125 1766.875 1675.5 1767 1676 1767 C 1678.75 1766.125 1681.4219 1765.0938 1684.0332 1763.9434 C 1686.6445 1762.793 1689.1953 1761.5234 1691.7031 1760.1719 C 1696.7188 1757.4688 1701.5625 1754.4375 1706.375 1751.375 C 1711.1875 1748.3125 1715.9688 1745.2188 1720.8594 1742.3906 C 1723.3047 1740.9766 1725.7773 1739.6289 1728.2949 1738.3848 C 1730.8125 1737.1406 1733.375 1736 1736 1735 C 1739.75 1734 1743.3125 1732.6875 1746.75 1731.2188 C 1750.1875 1729.75 1753.5 1728.125 1756.75 1726.5 C 1760 1724.875 1763.1875 1723.25 1766.375 1721.7812 C 1769.5625 1720.3125 1772.75 1719 1776 1718 C 1780.5 1717 1785.75 1715.5 1791 1714 C 1796.25 1712.5 1801.5 1711 1806 1710 C 1806 1711 1806 1712 1806.25 1712.75 C 1806.375 1713.125 1806.5625 1713.4375 1806.8438 1713.6562 C 1807.125 1713.875 1807.5 1714 1808 1714 L 1823 1714 C 1822.75 1714.5 1822.4062 1714.9062 1822 1715.2383 C 1821.5938 1715.5703 1821.125 1715.8281 1820.625 1716.0312 C 1819.625 1716.4375 1818.5 1716.625 1817.5 1716.75 C 1816.5 1716.875 1815.625 1716.9375 1815.125 1717.0938 C 1814.875 1717.1719 1814.7188 1717.2734 1814.6875 1717.418 C 1814.6562 1717.5625 1814.75 1717.75 1815 1718 C 1815.75 1718.75 1816.5781 1719.375 1817.4668 1719.8828 C 1818.3555 1720.3906 1819.3047 1720.7812 1820.2969 1721.0625 C 1821.2891 1721.3438 1822.3242 1721.5156 1823.3848 1721.5859 C 1824.4453 1721.6562 1825.5312 1721.625 1826.625 1721.5 C 1827.7188 1721.375 1828.8203 1721.1562 1829.9121 1720.8516 C 1831.0039 1720.5469 1832.0859 1720.1562 1833.1406 1719.6875 C 1834.1953 1719.2188 1835.2227 1718.6719 1836.2051 1718.0547 C 1837.1875 1717.4375 1838.125 1716.75 1839 1716 C 1840.5 1715 1841.9375 1714.25 1843.375 1713.6875 C 1844.8125 1713.125 1846.25 1712.75 1847.75 1712.5 C 1849.25 1712.25 1850.8125 1712.125 1852.5 1712.0625 C 1854.1875 1712 1856 1712 1858 1712 C 1858.5 1712 1858.875 1711.75 1859.1562 1711.3438 C 1859.4375 1710.9375 1859.625 1710.375 1859.75 1709.75 C 1860 1708.5 1860 1707 1860 1706 C 1863 1707 1865.25 1707.5 1867.5 1707.75 C 1869.75 1708 1872 1708 1875 1708 C 1886.25 1705.5 1897.375 1703.0625 1908.3906 1700.4844 C 1919.4062 1697.9062 1930.3125 1695.1875 1941.125 1692.125 C 1946.5312 1690.5938 1951.9141 1688.9766 1957.2754 1687.248 C 1962.6367 1685.5195 1967.9766 1683.6797 1973.2969 1681.7031 C 1978.6172 1679.7266 1983.918 1677.6133 1989.2012 1675.3379 C 1994.4844 1673.0625 1999.75 1670.625 2005 1668 C 2001.9375 1665.625 1998.8242 1663.3469 1995.6641 1661.1602 C 1992.5039 1658.9734 1989.2969 1656.8779 1986.0469 1654.8652 C 1982.7969 1652.8525 1979.5039 1650.9231 1976.1719 1649.0703 C 1972.8398 1647.2175 1969.4688 1645.4414 1966.0625 1643.7344 C 1959.25 1640.3203 1952.2969 1637.1836 1945.2344 1634.2676 C 1938.1719 1631.3516 1931 1628.6562 1923.75 1626.125 C 1916.5 1623.5938 1909.1719 1621.2266 1901.7969 1618.9668 C 1894.4219 1616.707 1887 1614.5547 1879.5625 1612.4531 C 1864.6875 1608.25 1849.75 1604.25 1835 1600 C 1836.5 1600 1837.9375 1600.375 1839.3438 1600.8438 C 1840.75 1601.3125 1842.125 1601.875 1843.5 1602.25 C 1844.1875 1602.4375 1844.875 1602.5781 1845.5664 1602.6367 C 1846.2578 1602.6953 1846.9531 1602.6719 1847.6562 1602.5312 C 1848.3594 1602.3906 1849.0703 1602.1328 1849.793 1601.7227 C 1850.5156 1601.3125 1851.25 1600.75 1852 1600 C 1850.875 1599.125 1849.7031 1598.4219 1848.4961 1597.8496 C 1847.2891 1597.2773 1846.0469 1596.8359 1844.7812 1596.4844 C 1842.25 1595.7812 1839.625 1595.4375 1837 1595.125 C 1834.375 1594.8125 1831.75 1594.5312 1829.2188 1593.9531 C 1827.9531 1593.6641 1826.7109 1593.3008 1825.5039 1592.8223 C 1824.2969 1592.3438 1823.125 1591.75 1822 1591 C 1823 1591 1824.5 1591.5 1826 1591.5 C 1826.75 1591.5 1827.5 1591.375 1828.1875 1591 C 1828.875 1590.625 1829.5 1590 1830 1589 C 1828.125 1588.125 1826.25 1587.3594 1824.375 1586.6816 C 1822.5 1586.0039 1820.625 1585.4141 1818.75 1584.8906 C 1815 1583.8438 1811.25 1583.0625 1807.5 1582.375 C 1803.75 1581.6875 1800 1581.0938 1796.25 1580.4219 C 1792.5 1579.75 1788.75 1579 1785 1578 C 1786.125 1577.75 1787.2031 1577.4062 1788.2285 1576.9785 C 1789.2539 1576.5508 1790.2266 1576.0391 1791.1406 1575.4531 C 1792.0547 1574.8672 1792.9102 1574.207 1793.7012 1573.4824 C 1794.4922 1572.7578 1795.2188 1571.9688 1795.875 1571.125 C 1796.5312 1570.2812 1797.1172 1569.3828 1797.627 1568.4395 C 1798.1367 1567.4961 1798.5703 1566.5078 1798.9219 1565.4844 C 1799.2734 1564.4609 1799.543 1563.4023 1799.7246 1562.3184 C 1799.9062 1561.2344 1800 1560.125 1800 1559 C 1800 1558.5 1799.75 1558.125 1799.3438 1557.8438 C 1798.9375 1557.5625 1798.375 1557.375 1797.75 1557.25 C 1796.5 1557 1795 1557 1794 1557 z " />
    <path
       id="path1724"
       style="fill:#ffffff;fill-opacity:1;fill-rule:evenodd;stroke:none;stroke-width:1.03225;stroke-linecap:round;stroke-linejoin:round;stroke-miterlimit:10"
       d="M 1794 1557 C 1795 1557 1796.5 1557 1797.75 1557.25 C 1798.375 1557.375 1798.9375 1557.5625 1799.3438 1557.8438 C 1799.75 1558.125 1800 1558.5 1800 1559 C 1800 1560.125 1799.9062 1561.2344 1799.7246 1562.3184 C 1799.543 1563.4023 1799.2734 1564.4609 1798.9219 1565.4844 C 1798.5703 1566.5078 1798.1367 1567.4961 1797.627 1568.4395 C 1797.1172 1569.3828 1796.5312 1570.2812 1795.875 1571.125 C 1795.2188 1571.9688 1794.4922 1572.7578 1793.7012 1573.4824 C 1792.9102 1574.207 1792.0547 1574.8672 1791.1406 1575.4531 C 1790.2266 1576.0391 1789.2539 1576.5508 1788.2285 1576.9785 C 1787.2031 1577.4062 1786.125 1577.75 1785 1578 C 1788.75 1579 1792.5 1579.75 1796.25 1580.4219 C 1800 1581.0938 1803.75 1581.6875 1807.5 1582.375 C 1811.25 1583.0625 1815 1583.8438 1818.75 1584.8906 C 1820.625 1585.4141 1822.5 1586.0039 1824.375 1586.6816 C 1826.25 1587.3594 1828.125 1588.125 1830 1589 C 1829.5 1590 1828.875 1590.625 1828.1875 1591 C 1827.5 1591.375 1826.75 1591.5 1826 1591.5 C 1824.5 1591.5 1823 1591 1822 1591 C 1823.125 1591.75 1824.2969 1592.3438 1825.5039 1592.8223 C 1826.7109 1593.3008 1827.9531 1593.6641 1829.2188 1593.9531 C 1831.75 1594.5312 1834.375 1594.8125 1837 1595.125 C 1839.625 1595.4375 1842.25 1595.7812 1844.7812 1596.4844 C 1846.0469 1596.8359 1847.2891 1597.2773 1848.4961 1597.8496 C 1849.7031 1598.4219 1850.875 1599.125 1852 1600 C 1851.25 1600.75 1850.5156 1601.3125 1849.793 1601.7227 C 1849.0703 1602.1328 1848.3594 1602.3906 1847.6562 1602.5312 C 1846.9531 1602.6719 1846.2578 1602.6953 1845.5664 1602.6367 C 1844.875 1602.5781 1844.1875 1602.4375 1843.5 1602.25 C 1842.125 1601.875 1840.75 1601.3125 1839.3438 1600.8438 C 1837.9375 1600.375 1836.5 1600 1835 1600 C 1849.75 1604.25 1864.6875 1608.25 1879.5625 1612.4531 C 1887 1614.5547 1894.4219 1616.707 1901.7969 1618.9668 C 1909.1719 1621.2266 1916.5 1623.5938 1923.75 1626.125 C 1931 1628.6562 1938.1719 1631.3516 1945.2344 1634.2676 C 1952.2969 1637.1836 1959.25 1640.3203 1966.0625 1643.7344 C 1969.4688 1645.4414 1972.8398 1647.2175 1976.1719 1649.0703 C 1979.5039 1650.9231 1982.7969 1652.8525 1986.0469 1654.8652 C 1989.2969 1656.8779 1992.5039 1658.9734 1995.6641 1661.1602 C 1998.8242 1663.3469 2001.9375 1665.625 2005 1668 C 1999.75 1670.625 1994.4844 1673.0625 1989.2012 1675.3379 C 1983.918 1677.6133 1978.6172 1679.7266 1973.2969 1681.7031 C 1967.9766 1683.6797 1962.6367 1685.5195 1957.2754 1687.248 C 1951.9141 1688.9766 1946.5312 1690.5938 1941.125 1692.125 C 1930.3125 1695.1875 1919.4062 1697.9062 1908.3906 1700.4844 C 1897.375 1703.0625 1886.25 1705.5 1875 1708 C 1872 1708 1869.75 1708 1867.5 1707.75 C 1865.25 1707.5 1863 1707 1860 1706 C 1860 1707 1860 1708.5 1859.75 1709.75 C 1859.625 1710.375 1859.4375 1710.9375 1859.1562 1711.3438 C 1858.875 1711.75 1858.5 1712 1858 1712 C 1856 1712 1854.1875 1712 1852.5 1712.0625 C 1850.8125 1712.125 1849.25 1712.25 1847.75 1712.5 C 1846.25 1712.75 1844.8125 1713.125 1843.375 1713.6875 C 1841.9375 1714.25 1840.5 1715 1839 1716 C 1838.125 1716.75 1837.1875 1717.4375 1836.2051 1718.0547 C 1835.2227 1718.6719 1834.1953 1719.2188 1833.1406 1719.6875 C 1832.0859 1720.1562 1831.0039 1720.5469 1829.9121 1720.8516 C 1828.8203 1721.1562 1827.7188 1721.375 1826.625 1721.5 C 1825.5312 1721.625 1824.4453 1721.6562 1823.3848 1721.5859 C 1822.3242 1721.5156 1821.2891 1721.3438 1820.2969 1721.0625 C 1819.3047 1720.7812 1818.3555 1720.3906 1817.4668 1719.8828 C 1816.5781 1719.375 1815.75 1718.75 1815 1718 C 1814.75 1717.75 1814.6562 1717.5625 1814.6875 1717.418 C 1814.7188 1717.2734 1814.875 1717.1719 1815.125 1717.0938 C 1815.625 1716.9375 1816.5 1716.875 1817.5 1716.75 C 1818.5 1716.625 1819.625 1716.4375 1820.625 1716.0312 C 1821.125 1715.8281 1821.5938 1715.5703 1822 1715.2383 C 1822.4062 1714.9062 1822.75 1714.5 1823 1714 L 1808 1714 C 1807.5 1714 1807.125 1713.875 1806.8438 1713.6562 C 1806.5625 1713.4375 1806.375 1713.125 1806.25 1712.75 C 1806 1712 1806 1711 1806 1710 C 1801.5 1711 1796.25 1712.5 1791 1714 C 1785.75 1715.5 1780.5 1717 1776 1718 C 1772.75 1719 1769.5625 1720.3125 1766.375 1721.7812 C 1763.1875 1723.25 1760 1724.875 1756.75 1726.5 C 1753.5 1728.125 1750.1875 1729.75 1746.75 1731.2188 C 1743.3125 1732.6875 1739.75 1734 1736 1735 C 1733.375 1736 1730.8125 1737.1406 1728.2949 1738.3848 C 1725.7773 1739.6289 1723.3047 1740.9766 1720.8594 1742.3906 C 1715.9688 1745.2188 1711.1875 1748.3125 1706.375 1751.375 C 1701.5625 1754.4375 1696.7188 1757.4688 1691.7031 1760.1719 C 1689.1953 1761.5234 1686.6445 1762.793 1684.0332 1763.9434 C 1681.4219 1765.0938 1678.75 1766.125 1676 1767 C 1675.5 1767 1675.125 1766.875 1674.8438 1766.6562 C 1674.5625 1766.4375 1674.375 1766.125 1674.25 1765.75 C 1674 1765 1674 1764 1674 1763 C 1674.25 1762.25 1674.5781 1761.5625 1674.9688 1760.9238 C 1675.3594 1760.2852 1675.8125 1759.6953 1676.3125 1759.1406 C 1677.3125 1758.0312 1678.5 1757.0625 1679.75 1756.125 C 1681 1755.1875 1682.3125 1754.2812 1683.5625 1753.2969 C 1684.8125 1752.3125 1686 1751.25 1687 1750 C 1687 1749 1687 1748 1686.75 1747.25 C 1686.625 1746.875 1686.4375 1746.5625 1686.1562 1746.3438 C 1685.875 1746.125 1685.5 1746 1685 1746 C 1686.875 1743.375 1688.8438 1740.9062 1690.8906 1738.5625 C 1692.9375 1736.2188 1695.0625 1734 1697.25 1731.875 C 1699.4375 1729.75 1701.6875 1727.7188 1703.9844 1725.75 C 1706.2812 1723.7812 1708.625 1721.875 1711 1720 C 1715.75 1716.25 1720.625 1712.625 1725.5 1708.875 C 1730.375 1705.125 1735.25 1701.25 1740 1697 L 1740 1691 C 1741.5 1689 1743.1875 1687.3125 1744.9375 1685.75 C 1746.6875 1684.1875 1748.5 1682.75 1750.25 1681.25 C 1752 1679.75 1753.6875 1678.1875 1755.1875 1676.375 C 1755.9375 1675.4688 1756.6406 1674.5 1757.2812 1673.4453 C 1757.9219 1672.3906 1758.5 1671.25 1759 1670 C 1759.5 1668.5 1760.375 1666.9375 1761.5469 1665.375 C 1762.7188 1663.8125 1764.1875 1662.25 1765.875 1660.75 C 1767.5625 1659.25 1769.4688 1657.8125 1771.5156 1656.5 C 1773.5625 1655.1875 1775.75 1654 1778 1653 C 1777.5 1652.5 1776.875 1652.125 1776.2188 1651.7812 C 1775.5625 1651.4375 1774.875 1651.125 1774.25 1650.75 C 1773.625 1650.375 1773.0625 1649.9375 1772.6562 1649.3438 C 1772.25 1648.75 1772 1648 1772 1647 C 1770 1647 1768.0625 1647.25 1766.1562 1647.5312 C 1764.25 1647.8125 1762.375 1648.125 1760.5 1648.25 C 1758.625 1648.375 1756.75 1648.3125 1754.8438 1647.8438 C 1753.8906 1647.6094 1752.9297 1647.2734 1751.957 1646.8086 C 1750.9844 1646.3438 1750 1645.75 1749 1645 C 1751 1643.5 1753 1642.25 1755 1641.125 C 1757 1640 1759 1639 1761 1638 C 1760 1638 1759.25 1637.75 1758.625 1637.25 C 1758 1636.75 1757.5 1636 1757 1635 C 1756.75 1634.5 1756.625 1634 1756.6074 1633.5059 C 1756.5898 1633.0117 1756.6797 1632.5234 1756.8594 1632.0469 C 1757.2188 1631.0938 1757.9375 1630.1875 1758.875 1629.375 C 1759.8125 1628.5625 1760.9688 1627.8438 1762.2031 1627.2656 C 1763.4375 1626.6875 1764.75 1626.25 1766 1626 C 1770 1625 1774.25 1624.5 1778.25 1623.5 C 1780.25 1623 1782.1875 1622.375 1784 1621.5 C 1784.9062 1621.0625 1785.7812 1620.5625 1786.6172 1619.9844 C 1787.4531 1619.4062 1788.25 1618.75 1789 1618 C 1787.375 1617.75 1785.7188 1617.625 1784.0371 1617.582 C 1782.3555 1617.5391 1780.6484 1617.5781 1778.9219 1617.6562 C 1775.4688 1617.8125 1771.9375 1618.125 1768.375 1618.25 C 1766.5938 1618.3125 1764.8047 1618.3281 1763.0137 1618.2539 C 1761.2227 1618.1797 1759.4297 1618.0156 1757.6406 1617.7188 C 1755.8516 1617.4219 1754.0664 1616.9922 1752.291 1616.3867 C 1750.5156 1615.7812 1748.75 1615 1747 1614 C 1748.125 1610.875 1749.3594 1607.8281 1750.7012 1604.8652 C 1752.043 1601.9023 1753.4922 1599.0234 1755.0469 1596.2344 C 1756.6016 1593.4453 1758.2617 1590.7461 1760.0254 1588.1426 C 1761.7891 1585.5391 1763.6562 1583.0312 1765.625 1580.625 C 1767.5938 1578.2188 1769.6641 1575.9141 1771.834 1573.7168 C 1774.0039 1571.5195 1776.2734 1569.4297 1778.6406 1567.4531 C 1781.0078 1565.4766 1783.4727 1563.6133 1786.0332 1561.8691 C 1788.5938 1560.125 1791.25 1558.5 1794 1557 z M 1878.8438 1728.5 C 1879.3906 1728.4375 1879.9297 1728.4375 1880.457 1728.5156 C 1880.9844 1728.5938 1881.5 1728.75 1882 1729 C 1882.5 1729.75 1883.0156 1730.375 1883.543 1730.9023 C 1884.0703 1731.4297 1884.6094 1731.8594 1885.1562 1732.2188 C 1886.25 1732.9375 1887.375 1733.375 1888.5 1733.75 C 1889.625 1734.125 1890.75 1734.4375 1891.8438 1734.9062 C 1892.9375 1735.375 1894 1736 1895 1737 C 1893.5 1738.375 1891.9531 1739.5 1890.3691 1740.4258 C 1888.7852 1741.3516 1887.1641 1742.0781 1885.5156 1742.6562 C 1883.8672 1743.2344 1882.1914 1743.6641 1880.498 1743.9961 C 1878.8047 1744.3281 1877.0938 1744.5625 1875.375 1744.75 C 1871.9375 1745.125 1868.4688 1745.3125 1865.0469 1745.7188 C 1863.3359 1745.9219 1861.6367 1746.1797 1859.959 1746.543 C 1858.2812 1746.9062 1856.625 1747.375 1855 1748 C 1853 1748 1850.25 1748.5 1848.25 1748.5 C 1847.25 1748.5 1846.4375 1748.375 1846 1748 C 1845.7812 1747.8125 1845.6562 1747.5625 1845.6484 1747.2344 C 1845.6406 1746.9062 1845.75 1746.5 1846 1746 C 1846.25 1744.875 1846.6719 1743.8906 1847.2344 1743.0215 C 1847.7969 1742.1523 1848.5 1741.3984 1849.3125 1740.7344 C 1850.125 1740.0703 1851.0469 1739.4961 1852.0469 1738.9863 C 1853.0469 1738.4766 1854.125 1738.0312 1855.25 1737.625 C 1857.5 1736.8125 1859.9375 1736.1562 1862.3125 1735.4531 C 1864.6875 1734.75 1867 1734 1869 1733 C 1871 1732 1873.25 1730.5 1875.5 1729.5 C 1876.625 1729 1877.75 1728.625 1878.8438 1728.5 z " />
    <path
       id="path1722"
       style="fill:#ffffff;fill-opacity:1;fill-rule:evenodd;stroke:none;stroke-width:1.03225;stroke-linecap:round;stroke-linejoin:round;stroke-miterlimit:10"
       d="M 1812.1406 1467.4141 C 1810.0312 1467.4844 1807.9375 1467.6562 1805.875 1467.9375 C 1803.8125 1468.2188 1801.7812 1468.6094 1799.7969 1469.1172 C 1797.8125 1469.625 1795.875 1470.25 1794 1471 C 1789 1473.375 1784.0938 1475.9219 1779.2734 1478.627 C 1774.4531 1481.332 1769.7188 1484.1953 1765.0625 1487.2031 C 1760.4062 1490.2109 1755.8281 1493.3633 1751.3203 1496.6465 C 1746.8125 1499.9297 1742.375 1503.3438 1738 1506.875 C 1733.625 1510.4062 1729.3125 1514.0547 1725.0547 1517.8066 C 1720.7969 1521.5586 1716.5938 1525.4141 1712.4375 1529.3594 C 1708.2812 1533.3047 1704.1719 1537.3398 1700.1016 1541.4512 C 1696.0312 1545.5625 1692 1549.75 1688 1554 C 1683.25 1559.25 1678.4375 1564.375 1673.5 1569.3125 C 1668.5625 1574.25 1663.5 1579 1658.25 1583.5 C 1655.625 1585.75 1652.9531 1587.9375 1650.2266 1590.0547 C 1647.5 1592.1719 1644.7188 1594.2188 1641.875 1596.1875 C 1639.0312 1598.1562 1636.125 1600.0469 1633.1484 1601.8516 C 1630.1719 1603.6562 1627.125 1605.375 1624 1607 C 1619.5 1615.5 1615 1623.75 1610.3906 1631.8438 C 1605.7812 1639.9375 1601.0625 1647.875 1596.125 1655.75 C 1591.1875 1663.625 1586.0312 1671.4375 1580.5469 1679.2812 C 1575.0625 1687.125 1569.25 1695 1563 1703 C 1563 1703.5 1563.125 1704 1563.3125 1704.4688 C 1563.5 1704.9375 1563.75 1705.375 1564 1705.75 C 1564.5 1706.5 1565 1707 1565 1707 C 1576.5 1694.25 1587.6875 1681.9375 1598.9219 1670.0781 C 1604.5391 1664.1484 1610.168 1658.332 1615.8535 1652.6309 C 1621.5391 1646.9297 1627.2812 1641.3438 1633.125 1635.875 C 1638.9688 1630.4062 1644.9141 1625.0547 1651.0059 1619.8223 C 1657.0977 1614.5898 1663.3359 1609.4766 1669.7656 1604.4844 C 1676.1953 1599.4922 1682.8164 1594.6211 1689.6738 1589.873 C 1696.5312 1585.125 1703.625 1580.5 1711 1576 C 1711.5 1575.75 1711.7812 1575.6562 1711.9062 1575.6797 C 1712.0312 1575.7031 1712 1575.8438 1711.875 1576.0625 C 1711.625 1576.5 1711 1577.25 1710.5 1578 C 1710.25 1578.375 1710.0312 1578.75 1709.9062 1579.0859 C 1709.7812 1579.4219 1709.75 1579.7188 1709.875 1579.9375 C 1710 1580.1562 1710.2812 1580.2969 1710.7812 1580.3203 C 1711.2812 1580.3438 1712 1580.25 1713 1580 C 1716 1579.25 1718.75 1578.2188 1721.2871 1576.9512 C 1723.8242 1575.6836 1726.1484 1574.1797 1728.2969 1572.4844 C 1730.4453 1570.7891 1732.418 1568.9023 1734.252 1566.8691 C 1736.0859 1564.8359 1737.7812 1562.6562 1739.375 1560.375 C 1740.9688 1558.0938 1742.4609 1555.7109 1743.8887 1553.2715 C 1745.3164 1550.832 1746.6797 1548.3359 1748.0156 1545.8281 C 1750.6875 1540.8125 1753.25 1535.75 1756 1531 C 1757.875 1527.875 1759.9219 1525 1762.1055 1522.3203 C 1764.2891 1519.6406 1766.6094 1517.1562 1769.0312 1514.8125 C 1771.4531 1512.4688 1773.9766 1510.2656 1776.5664 1508.1484 C 1779.1562 1506.0312 1781.8125 1504 1784.5 1502 C 1789.875 1498 1795.375 1494.125 1800.7188 1489.9375 C 1803.3906 1487.8438 1806.0234 1485.6719 1808.582 1483.3672 C 1811.1406 1481.0625 1813.625 1478.625 1816 1476 C 1816 1477 1816 1478 1815.75 1479 C 1815.625 1479.5 1815.4375 1480 1815.1562 1480.5 C 1814.875 1481 1814.5 1481.5 1814 1482 C 1814.5 1482.5 1815 1482.875 1815.5 1483.1562 C 1816 1483.4375 1816.5 1483.625 1817 1483.75 C 1818 1484 1819 1484 1820 1484 C 1821 1483.375 1822.0156 1482.8594 1823.0391 1482.4199 C 1824.0625 1481.9805 1825.0938 1481.6172 1826.125 1481.2969 C 1828.1875 1480.6562 1830.25 1480.1875 1832.25 1479.625 C 1834.25 1479.0625 1836.1875 1478.4062 1838 1477.3906 C 1838.9062 1476.8828 1839.7812 1476.2852 1840.6172 1475.5645 C 1841.4531 1474.8438 1842.25 1474 1843 1473 C 1839.25 1471.5 1835.25 1470.25 1831.125 1469.3125 C 1829.0625 1468.8438 1826.9688 1468.4531 1824.8594 1468.1484 C 1822.75 1467.8438 1820.625 1467.625 1818.5 1467.5 C 1816.375 1467.375 1814.25 1467.3438 1812.1406 1467.4141 z " />
    <path
       id="path1720"
       style="fill:#ffffff;fill-opacity:1;fill-rule:evenodd;stroke:none;stroke-width:1.03225;stroke-linecap:round;stroke-linejoin:round;stroke-miterlimit:10"
       d="M 2304 1000 C 2304 1000 2298 1001.75 2288.75 1005 C 2284.125 1006.625 2278.6875 1008.625 2272.7812 1010.9688 C 2266.875 1013.3125 2260.5 1016 2254 1019 C 2249.5 1021 2244.5625 1023.25 2239.4531 1025.7812 C 2234.3438 1028.3125 2229.0625 1031.125 2223.875 1034.25 C 2221.2812 1035.8125 2218.7109 1037.4531 2216.1973 1039.1758 C 2213.6836 1040.8984 2211.2266 1042.7031 2208.8594 1044.5938 C 2206.4922 1046.4844 2204.2148 1048.4609 2202.0605 1050.5273 C 2199.9062 1052.5938 2197.875 1054.75 2196 1057 C 2192.25 1061.5 2188.5 1066.0625 2184.8906 1070.7344 C 2181.2812 1075.4062 2177.8125 1080.1875 2174.625 1085.125 C 2173.0312 1087.5938 2171.5078 1090.1016 2170.0723 1092.6543 C 2168.6367 1095.207 2167.2891 1097.8047 2166.0469 1100.4531 C 2164.8047 1103.1016 2163.668 1105.8008 2162.6543 1108.5566 C 2161.6406 1111.3125 2160.75 1114.125 2160 1117 C 2156.875 1118.875 2153.9062 1120.8594 2151.0781 1122.9414 C 2148.25 1125.0234 2145.5625 1127.2031 2143 1129.4688 C 2140.4375 1131.7344 2138 1134.0859 2135.6719 1136.5117 C 2133.3438 1138.9375 2131.125 1141.4375 2129 1144 C 2126.875 1146.5625 2124.8438 1149.1875 2122.8906 1151.8633 C 2120.9375 1154.5391 2119.0625 1157.2656 2117.25 1160.0312 C 2113.625 1165.5625 2110.25 1171.25 2107 1177 C 2104.875 1181 2102.625 1184.9375 2100.3223 1188.8359 C 2098.0195 1192.7344 2095.6641 1196.5938 2093.3281 1200.4375 C 2090.9922 1204.2812 2088.6758 1208.1094 2086.4512 1211.9453 C 2084.2266 1215.7812 2082.0938 1219.625 2080.125 1223.5 C 2078.1562 1227.375 2076.3516 1231.2812 2074.7832 1235.2422 C 2073.2148 1239.2031 2071.8828 1243.2188 2070.8594 1247.3125 C 2070.3477 1249.3594 2069.9128 1251.4268 2069.5645 1253.5156 C 2069.2161 1255.6045 2068.9541 1257.7148 2068.7871 1259.8516 C 2068.6201 1261.9883 2068.5476 1264.1494 2068.5801 1266.3398 C 2068.6125 1268.5303 2068.75 1270.75 2069 1273 C 2070 1280.75 2071.1875 1288.3125 2072.5 1295.7969 C 2073.8125 1303.2812 2075.25 1310.6875 2076.75 1318.125 C 2079.75 1333 2083 1348 2086 1364 C 2087 1369.5 2088 1374.75 2089.25 1380 C 2089.875 1382.625 2090.5625 1385.25 2091.3438 1387.9062 C 2092.125 1390.5625 2093 1393.25 2094 1396 C 2094.5 1397.375 2094.875 1398.7969 2095.1602 1400.25 C 2095.4453 1401.7031 2095.6406 1403.1875 2095.7812 1404.6875 C 2096.0625 1407.6875 2096.125 1410.75 2096.25 1413.75 C 2096.375 1416.75 2096.5625 1419.6875 2097.0938 1422.4375 C 2097.3594 1423.8125 2097.7109 1425.1406 2098.1836 1426.4062 C 2098.6562 1427.6719 2099.25 1428.875 2100 1430 C 2100.75 1431.5 2101.1875 1433.0625 2101.5469 1434.625 C 2101.9062 1436.1875 2102.1875 1437.75 2102.625 1439.25 C 2103.0625 1440.75 2103.6562 1442.1875 2104.6406 1443.5 C 2105.1328 1444.1562 2105.7227 1444.7812 2106.4395 1445.3672 C 2107.1562 1445.9531 2108 1446.5 2109 1447 L 2109 1455 C 2110 1456 2110.5 1457 2111.25 1457.75 C 2111.625 1458.125 2112.0625 1458.4375 2112.6562 1458.6562 C 2113.25 1458.875 2114 1459 2115 1459 L 2115 1467 C 2123 1476.5 2131.75 1485.5 2139.625 1494.75 C 2141.5938 1497.0625 2143.5078 1499.3906 2145.3418 1501.7461 C 2147.1758 1504.1016 2148.9297 1506.4844 2150.5781 1508.9062 C 2152.2266 1511.3281 2153.7695 1513.7891 2155.1816 1516.3008 C 2156.5938 1518.8125 2157.875 1521.375 2159 1524 C 2159.25 1524.6875 2159.3943 1525.3123 2159.4434 1525.8789 C 2159.4924 1526.4456 2159.4463 1526.9541 2159.3145 1527.4082 C 2159.1826 1527.8623 2158.9646 1528.2615 2158.6719 1528.6113 C 2158.3792 1528.9612 2158.0117 1529.2617 2157.5781 1529.5156 C 2156.7109 1530.0234 2155.582 1530.3477 2154.2715 1530.5215 C 2152.9609 1530.6953 2151.4688 1530.7188 2149.875 1530.625 C 2148.2812 1530.5312 2146.5859 1530.3203 2144.8691 1530.0254 C 2143.1523 1529.7305 2141.4141 1529.3516 2139.7344 1528.9219 C 2136.375 1528.0625 2133.25 1527 2131 1526 C 2128.625 1524.75 2126.375 1523.4219 2124.2266 1522.0293 C 2122.0781 1520.6367 2120.0312 1519.1797 2118.0625 1517.6719 C 2114.125 1514.6562 2110.5 1511.4375 2107 1508.125 C 2103.5 1504.8125 2100.125 1501.4062 2096.6875 1498.0156 C 2093.25 1494.625 2089.75 1491.25 2086 1488 C 2086 1488 2085.5 1488.5 2085 1489.25 C 2084.75 1489.625 2084.5 1490.0625 2084.3125 1490.5312 C 2084.125 1491 2084 1491.5 2084 1492 C 2085 1493.75 2086.3125 1495.5469 2087.8145 1497.3691 C 2089.3164 1499.1914 2091.0078 1501.0391 2092.7656 1502.8906 C 2096.2812 1506.5938 2100.0625 1510.3125 2103.125 1513.875 C 2104.6562 1515.6562 2106.0078 1517.3984 2107.0566 1519.0801 C 2108.1055 1520.7617 2108.8516 1522.3828 2109.1719 1523.9219 C 2109.332 1524.6914 2109.3865 1525.4402 2109.3184 1526.166 C 2109.2502 1526.8918 2109.0596 1527.5947 2108.7324 1528.2715 C 2108.4053 1528.9482 2107.9412 1529.5984 2107.3242 1530.2207 C 2106.7073 1530.843 2105.9375 1531.4375 2105 1532 C 2104 1532.5 2102.9844 1532.7812 2101.957 1532.9062 C 2100.9297 1533.0312 2099.8906 1533 2098.8438 1532.875 C 2096.75 1532.625 2094.625 1532 2092.5 1531.5 C 2091.4375 1531.25 2090.375 1531.0312 2089.3164 1530.9062 C 2088.2578 1530.7812 2087.2031 1530.75 2086.1562 1530.875 C 2085.1094 1531 2084.0703 1531.2812 2083.043 1531.7812 C 2082.0156 1532.2812 2081 1533 2080 1534 C 2079.5 1534.75 2079.25 1535.5625 2079.1562 1536.4219 C 2079.0625 1537.2812 2079.125 1538.1875 2079.25 1539.125 C 2079.5 1541 2080 1543 2080 1545 C 2078.625 1544 2077.2344 1543.1875 2075.832 1542.5234 C 2074.4297 1541.8594 2073.0156 1541.3438 2071.5938 1540.9375 C 2068.75 1540.125 2065.875 1539.75 2063 1539.5 C 2060.125 1539.25 2057.25 1539.125 2054.4062 1538.8125 C 2052.9844 1538.6562 2051.5703 1538.4531 2050.168 1538.1641 C 2048.7656 1537.875 2047.375 1537.5 2046 1537 C 2045 1536.75 2044.0938 1536.2969 2043.2559 1535.6953 C 2042.418 1535.0938 2041.6484 1534.3438 2040.9219 1533.5 C 2039.4688 1531.8125 2038.1875 1529.75 2036.875 1527.75 C 2036.2188 1526.75 2035.5547 1525.7656 2034.8574 1524.8516 C 2034.1602 1523.9375 2033.4297 1523.0938 2032.6406 1522.375 C 2031.8516 1521.6562 2031.0039 1521.0625 2030.0723 1520.6484 C 2029.1406 1520.2344 2028.125 1520 2027 1520 C 2014.5 1517.5 2002.75 1514.75 1991 1512.375 C 1985.125 1511.1875 1979.25 1510.0938 1973.2812 1509.1719 C 1967.3125 1508.25 1961.25 1507.5 1955 1507 C 1946.5 1506 1938.125 1504.875 1929.8125 1503.8438 C 1921.5 1502.8125 1913.25 1501.875 1905 1501.25 C 1900.875 1500.9375 1896.75 1500.7031 1892.6172 1500.5742 C 1888.4844 1500.4453 1884.3438 1500.4219 1880.1875 1500.5312 C 1876.0312 1500.6406 1871.8594 1500.8828 1867.6641 1501.2852 C 1863.4688 1501.6875 1859.25 1502.25 1855 1503 C 1851.25 1503.25 1847.6094 1503.8125 1844.0723 1504.6504 C 1840.5352 1505.4883 1837.1016 1506.6016 1833.7656 1507.9531 C 1830.4297 1509.3047 1827.1914 1510.8945 1824.0449 1512.6855 C 1820.8984 1514.4766 1817.8438 1516.4688 1814.875 1518.625 C 1811.9062 1520.7812 1809.0234 1523.1016 1806.2207 1525.5488 C 1803.418 1527.9961 1800.6953 1530.5703 1798.0469 1533.2344 C 1795.3984 1535.8984 1792.8242 1538.6523 1790.3184 1541.459 C 1787.8125 1544.2656 1785.375 1547.125 1783 1550 L 1783 1556 C 1784.625 1556.25 1786.1406 1556.2969 1787.5703 1556.1797 C 1789 1556.0625 1790.3438 1555.7812 1791.625 1555.375 C 1792.9062 1554.9688 1794.125 1554.4375 1795.3047 1553.8203 C 1796.4844 1553.2031 1797.625 1552.5 1798.75 1551.75 C 1801 1550.25 1803.1875 1548.5625 1805.5 1547 C 1806.6562 1546.2188 1807.8438 1545.4688 1809.0859 1544.7891 C 1810.3281 1544.1094 1811.625 1543.5 1813 1543 C 1817.75 1542 1822.375 1540.8125 1826.9375 1539.5312 C 1831.5 1538.25 1836 1536.875 1840.5 1535.5 C 1845 1534.125 1849.5 1532.75 1854.0625 1531.4688 C 1858.625 1530.1875 1863.25 1529 1868 1528 C 1882 1525.5 1895.75 1522.25 1909.25 1519.875 C 1912.625 1519.2812 1915.9844 1518.7422 1919.3281 1518.2832 C 1922.6719 1517.8242 1926 1517.4453 1929.3125 1517.1719 C 1932.625 1516.8984 1935.9219 1516.7305 1939.2031 1516.6934 C 1942.4844 1516.6562 1945.75 1516.75 1949 1517 C 1952 1517 1955.25 1516.5 1958.5 1516.25 C 1960.125 1516.125 1961.75 1516.0625 1963.3438 1516.1562 C 1964.9375 1516.25 1966.5 1516.5 1968 1517 C 1963.75 1516.75 1959.5625 1516.7188 1955.4258 1516.873 C 1951.2891 1517.0273 1947.2031 1517.3672 1943.1562 1517.8594 C 1939.1094 1518.3516 1935.1016 1518.9961 1931.1211 1519.7598 C 1927.1406 1520.5234 1923.1875 1521.4062 1919.25 1522.375 C 1911.375 1524.3125 1903.5625 1526.5938 1895.7188 1528.9531 C 1887.875 1531.3125 1880 1533.75 1872 1536 C 1866.5 1537.75 1860.9375 1539.125 1855.3594 1540.375 C 1849.7812 1541.625 1844.1875 1542.75 1838.625 1544 C 1833.0625 1545.25 1827.5312 1546.625 1822.0781 1548.375 C 1819.3516 1549.25 1816.6445 1550.2188 1813.9629 1551.3125 C 1811.2812 1552.4062 1808.625 1553.625 1806 1555 C 1812.125 1554.75 1818.25 1554.6562 1824.3711 1554.7129 C 1830.4922 1554.7695 1836.6094 1554.9766 1842.7188 1555.3281 C 1848.8281 1555.6797 1854.9297 1556.1758 1861.0195 1556.8105 C 1867.1094 1557.4453 1873.1875 1558.2188 1879.25 1559.125 C 1885.3125 1560.0312 1891.3594 1561.0703 1897.3867 1562.2363 C 1903.4141 1563.4023 1909.4219 1564.6953 1915.4062 1566.1094 C 1921.3906 1567.5234 1927.3516 1569.0586 1933.2852 1570.709 C 1939.2188 1572.3594 1945.125 1574.125 1951 1576 C 1955.25 1577.5 1959.375 1579.125 1963.4062 1580.8594 C 1967.4375 1582.5938 1971.375 1584.4375 1975.25 1586.375 C 1979.125 1588.3125 1982.9375 1590.3438 1986.7188 1592.4531 C 1990.5 1594.5625 1994.25 1596.75 1998 1599 C 2000 1600.5 2001.6875 1601.9375 2003.2188 1603.3125 C 2004.75 1604.6875 2006.125 1606 2007.5 1607.25 C 2008.875 1608.5 2010.25 1609.6875 2011.7812 1610.8125 C 2013.3125 1611.9375 2015 1613 2017 1614 C 2018.125 1614.75 2019.3281 1615.4062 2020.5898 1615.9727 C 2021.8516 1616.5391 2023.1719 1617.0156 2024.5312 1617.4062 C 2025.8906 1617.7969 2027.2891 1618.1016 2028.707 1618.3242 C 2030.125 1618.5469 2031.5625 1618.6875 2033 1618.75 C 2035.875 1618.875 2038.75 1618.6875 2041.4688 1618.2188 C 2044.1875 1617.75 2046.75 1617 2049 1616 L 2062 1616 C 2069 1614 2076.125 1612.0625 2083.1719 1609.9531 C 2086.6953 1608.8984 2090.1992 1607.8008 2093.6582 1606.6309 C 2097.1172 1605.4609 2100.5312 1604.2188 2103.875 1602.875 C 2107.2188 1601.5312 2110.4922 1600.0859 2113.6699 1598.5098 C 2116.8477 1596.9336 2119.9297 1595.2266 2122.8906 1593.3594 C 2125.8516 1591.4922 2128.6914 1589.4648 2131.3848 1587.248 C 2134.0781 1585.0312 2136.625 1582.625 2139 1580 C 2139 1580.5 2139.125 1580.875 2139.3438 1581.1562 C 2139.5625 1581.4375 2139.875 1581.625 2140.25 1581.75 C 2141 1582 2142 1582 2143 1582 C 2141.5 1585.75 2140.375 1589.625 2139.3594 1593.5312 C 2138.3438 1597.4375 2137.4375 1601.375 2136.375 1605.25 C 2135.8438 1607.1875 2135.2734 1609.1094 2134.6309 1611.0039 C 2133.9883 1612.8984 2133.2734 1614.7656 2132.4531 1616.5938 C 2131.6328 1618.4219 2130.707 1620.2109 2129.6426 1621.9492 C 2128.5781 1623.6875 2127.375 1625.375 2126 1627 C 2126 1628 2125.5 1629.5 2125.5 1631 C 2125.5 1631.75 2125.625 1632.5 2126 1633.1875 C 2126.375 1633.875 2127 1634.5 2128 1635 L 2132 1635 C 2131 1635 2130 1635 2129.25 1635.25 C 2128.875 1635.375 2128.5625 1635.5625 2128.3438 1635.8438 C 2128.125 1636.125 2128 1636.5 2128 1637 C 2128 1637.5 2128.0938 1637.875 2128.2617 1638.1562 C 2128.4297 1638.4375 2128.6719 1638.625 2128.9688 1638.75 C 2129.5625 1639 2130.375 1639 2131.25 1639 C 2132.125 1639 2133.0625 1639 2133.9062 1639.25 C 2134.3281 1639.375 2134.7266 1639.5625 2135.082 1639.8438 C 2135.4375 1640.125 2135.75 1640.5 2136 1641 C 2133.5 1641.5 2131.0625 1641.9375 2128.7188 1642.4375 C 2126.375 1642.9375 2124.125 1643.5 2122 1644.25 C 2119.875 1645 2117.875 1645.9375 2116.0312 1647.1875 C 2115.1094 1647.8125 2114.2266 1648.5156 2113.3867 1649.3125 C 2112.5469 1650.1094 2111.75 1651 2111 1652 C 2111 1652.5 2111.25 1652.875 2111.6562 1653.1562 C 2112.0625 1653.4375 2112.625 1653.625 2113.25 1653.75 C 2114.5 1654 2116 1654 2117 1654 C 2116.625 1654.5 2116.2031 1654.9062 2115.748 1655.2422 C 2115.293 1655.5781 2114.8047 1655.8438 2114.2969 1656.0625 C 2113.2812 1656.5 2112.1875 1656.75 2111.125 1657 C 2110.0625 1657.25 2109.0312 1657.5 2108.1406 1657.9375 C 2107.6953 1658.1562 2107.2852 1658.4219 2106.9238 1658.7578 C 2106.5625 1659.0938 2106.25 1659.5 2106 1660 C 2106 1660 2106.5 1660.5 2107.25 1661 C 2107.625 1661.25 2108.0625 1661.5 2108.5312 1661.6875 C 2109 1661.875 2109.5 1662 2110 1662 C 2109 1662 2108 1662 2107.25 1662.25 C 2106.875 1662.375 2106.5625 1662.5625 2106.3438 1662.8438 C 2106.125 1663.125 2106 1663.5 2106 1664 L 2106 1670 C 2104.75 1670 2103.6875 1670.25 2102.7344 1670.6562 C 2101.7812 1671.0625 2100.9375 1671.625 2100.125 1672.25 C 2099.3125 1672.875 2098.5312 1673.5625 2097.7031 1674.2188 C 2096.875 1674.875 2096 1675.5 2095 1676 C 2096 1676.75 2096.9531 1677.3125 2097.8711 1677.7227 C 2098.7891 1678.1328 2099.6719 1678.3906 2100.5312 1678.5312 C 2101.3906 1678.6719 2102.2266 1678.6953 2103.0508 1678.6367 C 2103.875 1678.5781 2104.6875 1678.4375 2105.5 1678.25 C 2107.125 1677.875 2108.75 1677.3125 2110.4688 1676.8438 C 2112.1875 1676.375 2114 1676 2116 1676 C 2110.75 1678 2105.75 1680.1875 2100.875 1682.4375 C 2096 1684.6875 2091.25 1687 2086.5 1689.25 C 2081.75 1691.5 2077 1693.6875 2072.125 1695.6875 C 2067.25 1697.6875 2062.25 1699.5 2057 1701 C 2056.5 1701 2056.125 1701.0938 2055.8438 1701.2578 C 2055.5625 1701.4219 2055.375 1701.6562 2055.25 1701.9375 C 2055 1702.5 2055 1703.25 2055 1704 C 2055 1704.75 2055 1705.5 2054.75 1706.0625 C 2054.625 1706.3438 2054.4375 1706.5781 2054.1562 1706.7422 C 2053.875 1706.9062 2053.5 1707 2053 1707 C 2053.75 1707.5 2054.4531 1707.8438 2055.1211 1708.0625 C 2055.7891 1708.2812 2056.4219 1708.375 2057.0312 1708.375 C 2058.25 1708.375 2059.375 1708 2060.5 1707.5 C 2061.625 1707 2062.75 1706.375 2063.9688 1705.875 C 2065.1875 1705.375 2066.5 1705 2068 1705 C 2061.5 1708.75 2054.9375 1712.375 2048.3125 1715.9688 C 2041.6875 1719.5625 2035 1723.125 2028.25 1726.75 C 2021.5 1730.375 2014.6875 1734.0625 2007.8125 1737.9062 C 2000.9375 1741.75 1994 1745.75 1987 1750 C 1987 1750 1986 1751 1985 1752.5 C 1984.5 1753.25 1984 1754.125 1983.625 1755.0625 C 1983.25 1756 1983 1757 1983 1758 L 1975 1758 C 1974.5 1758.25 1974.0938 1758.5469 1973.7578 1758.8828 C 1973.4219 1759.2188 1973.1562 1759.5938 1972.9375 1760 C 1972.5 1760.8125 1972.25 1761.75 1972 1762.75 C 1971.75 1763.75 1971.5 1764.8125 1971.0625 1765.875 C 1970.625 1766.9375 1970 1768 1969 1769 C 1970.125 1769.75 1971.2812 1770.1875 1972.4551 1770.3945 C 1973.6289 1770.6016 1974.8203 1770.5781 1976.0156 1770.4062 C 1977.2109 1770.2344 1978.4102 1769.9141 1979.5996 1769.5273 C 1980.7891 1769.1406 1981.9688 1768.6875 1983.125 1768.25 C 1984.2812 1767.8125 1985.4141 1767.3906 1986.5098 1767.0664 C 1987.6055 1766.7422 1988.6641 1766.5156 1989.6719 1766.4688 C 1990.6797 1766.4219 1991.6367 1766.5547 1992.5293 1766.9492 C 1993.4219 1767.3438 1994.25 1768 1995 1769 C 1995.25 1769 1995.375 1769.0312 1995.3945 1769.0859 C 1995.4141 1769.1406 1995.3281 1769.2188 1995.1562 1769.3125 C 1994.8125 1769.5 1994.125 1769.75 1993.25 1770 C 1991.5 1770.5 1989 1771 1987 1771 C 1986.5 1771 1986.125 1771.25 1985.8125 1771.625 C 1985.5 1772 1985.25 1772.5 1985 1773 C 1984.75 1773.5 1984.5 1774 1984.1875 1774.375 C 1983.875 1774.75 1983.5 1775 1983 1775 L 1977 1775 C 1976 1775.75 1975 1776.4375 1974.0625 1777.1406 C 1973.125 1777.8438 1972.25 1778.5625 1971.5 1779.375 C 1970.75 1780.1875 1970.125 1781.0938 1969.6875 1782.1719 C 1969.25 1783.25 1969 1784.5 1969 1786 C 1967.5 1786 1965.75 1786 1964.125 1786.5 C 1963.3125 1786.75 1962.5312 1787.125 1961.8281 1787.6875 C 1961.125 1788.25 1960.5 1789 1960 1790 C 1965.25 1789.25 1970.5156 1788.6562 1975.7891 1788.1504 C 1981.0625 1787.6445 1986.3438 1787.2266 1991.625 1786.8281 C 2002.1875 1786.0312 2012.75 1785.3125 2023.25 1784.125 C 2028.5 1783.5312 2033.7344 1782.8203 2038.9453 1781.9238 C 2044.1562 1781.0273 2049.3438 1779.9453 2054.5 1778.6094 C 2059.6562 1777.2734 2064.7812 1775.6836 2069.8672 1773.7715 C 2072.4102 1772.8154 2074.9424 1771.7781 2077.4648 1770.6523 C 2079.9873 1769.5266 2082.5 1768.3125 2085 1767 C 2088.75 1765.125 2092.4688 1763.1562 2096.1543 1761.0957 C 2099.8398 1759.0352 2103.4922 1756.8828 2107.1094 1754.6406 C 2110.7266 1752.3984 2114.3086 1750.0664 2117.8535 1747.6465 C 2121.3984 1745.2266 2124.9062 1742.7188 2128.375 1740.125 C 2131.8438 1737.5312 2135.2734 1734.8516 2138.6621 1732.0879 C 2142.0508 1729.3242 2145.3984 1726.4766 2148.7031 1723.5469 C 2152.0078 1720.6172 2155.2695 1717.6055 2158.4863 1714.5137 C 2161.7031 1711.4219 2164.875 1708.25 2168 1705 C 2168 1705 2168.5 1705.5 2169 1706.25 C 2169.25 1706.625 2169.5 1707.0625 2169.6875 1707.5312 C 2169.875 1708 2170 1708.5 2170 1709 C 2169.25 1711.25 2168.4219 1713.4375 2167.5176 1715.5645 C 2166.6133 1717.6914 2165.6328 1719.7578 2164.5781 1721.7656 C 2163.5234 1723.7734 2162.3945 1725.7227 2161.1934 1727.6152 C 2159.9922 1729.5078 2158.7188 1731.3438 2157.375 1733.125 C 2156.0312 1734.9062 2154.6172 1736.6328 2153.1348 1738.3066 C 2151.6523 1739.9805 2150.1016 1741.6016 2148.4844 1743.1719 C 2145.25 1746.3125 2141.75 1749.25 2138 1752 C 2135.25 1753.5 2132.6875 1755.1875 2130.25 1756.9375 C 2127.8125 1758.6875 2125.5 1760.5 2123.25 1762.25 C 2121 1764 2118.8125 1765.6875 2116.625 1767.1875 C 2114.4375 1768.6875 2112.25 1770 2110 1771 C 2107 1772.5 2104.25 1774.25 2101.5 1776.125 C 2098.75 1778 2096 1780 2093 1782 C 2088.625 1783.5 2084.1985 1784.864 2079.7305 1786.1133 C 2075.2625 1787.3625 2070.7529 1788.4971 2066.209 1789.541 C 2057.1211 1791.6289 2047.8984 1793.3516 2038.6094 1794.8906 C 2020.0312 1797.9688 2001.1875 1800.3125 1982.625 1803.375 C 1973.3438 1804.9062 1964.1328 1806.6172 1955.0605 1808.6895 C 1950.5244 1809.7256 1946.0227 1810.8523 1941.5645 1812.0918 C 1937.1062 1813.3313 1932.6914 1814.6836 1928.3281 1816.1719 C 1923.9648 1817.6602 1919.6536 1819.2839 1915.4023 1821.0664 C 1911.1511 1822.8489 1906.96 1824.79 1902.8379 1826.9121 C 1898.7158 1829.0342 1894.6633 1831.3367 1890.6875 1833.8438 C 1886.7117 1836.3508 1882.8125 1839.0625 1879 1842 C 1879 1841.5 1878.875 1841.125 1878.6562 1840.8438 C 1878.4375 1840.5625 1878.125 1840.375 1877.75 1840.25 C 1877 1840 1876 1840 1875 1840 C 1874.25 1840.75 1873.3125 1841.4375 1872.2969 1842.1094 C 1871.2812 1842.7812 1870.1875 1843.4375 1869.125 1844.125 C 1868.0625 1844.8125 1867.0312 1845.5312 1866.1406 1846.3281 C 1865.25 1847.125 1864.5 1848 1864 1849 L 1864 1850 C 1864.75 1850.75 1865.4375 1851.25 1866.0469 1851.5781 C 1866.6562 1851.9062 1867.1875 1852.0625 1867.625 1852.125 C 1868.5 1852.25 1869 1852 1869 1852 C 1870 1851 1872 1850 1872 1850 C 1877 1847 1881.75 1844.25 1886.625 1841.75 C 1889.0625 1840.5 1891.5312 1839.3125 1894.0781 1838.1875 C 1896.625 1837.0625 1899.25 1836 1902 1835 L 1899 1838 C 1892 1842 1884 1846 1877 1850 L 1878 1850 C 1875.5 1851.5 1873 1853 1870.75 1854.75 C 1869.625 1855.625 1868.5625 1856.5625 1867.5938 1857.5938 C 1866.625 1858.625 1865.75 1859.75 1865 1861 C 1865.5 1861 1866 1861.25 1866.25 1861.75 C 1866.375 1862 1866.4375 1862.3125 1866.4062 1862.6875 C 1866.375 1863.0625 1866.25 1863.5 1866 1864 C 1865 1865 1865 1866 1864 1867 C 1864 1867.5 1863.75 1867.75 1863.5 1868 C 1863.25 1868.25 1863 1868.5 1863 1869 C 1863 1869.5 1862.75 1870.25 1862.375 1871 C 1862 1871.75 1861.5 1872.5 1861 1873 C 1861 1873.5 1860.75 1873.75 1860.5 1874 C 1860.25 1874.25 1860 1874.5 1860 1875 C 1860 1875 1859.75 1875.25 1859.5 1875.625 C 1859.25 1876 1859 1876.5 1859 1877 C 1858.5 1877 1858.25 1877.25 1858.125 1877.5 C 1858 1877.75 1858 1878 1858 1878 C 1858 1878.5 1857.75 1878.75 1857.5 1879 C 1857.25 1879.25 1857 1879.5 1857 1880 C 1857 1880.5 1856.75 1880.75 1856.5 1881 C 1856.25 1881.25 1856 1881.5 1856 1882 L 1856 1883 C 1856 1883.5 1856.25 1883.75 1856.625 1883.875 C 1857 1884 1857.5 1884 1858 1884 L 1861 1884 C 1861.875 1884 1862.6875 1883.875 1863.4492 1883.6484 C 1864.2109 1883.4219 1864.9219 1883.0938 1865.5938 1882.6875 C 1866.9375 1881.875 1868.125 1880.75 1869.25 1879.5 C 1870.375 1878.25 1871.4375 1876.875 1872.5312 1875.5625 C 1873.625 1874.25 1874.75 1873 1876 1872 L 1885 1866 C 1885 1866.5 1885.25 1866.75 1885.5 1867 C 1885.75 1867.25 1886 1867.5 1886 1868 C 1885.5 1868.5 1885.25 1868.75 1885.125 1869 C 1885 1869.25 1885 1869.5 1885 1870 C 1884 1872 1883 1873 1882 1875 C 1881.75 1875.25 1881.6875 1875.5 1881.75 1875.7344 C 1881.8125 1875.9688 1882 1876.1875 1882.25 1876.375 C 1882.75 1876.75 1883.5 1877 1884 1877 C 1878.5 1880.5 1872.75 1884.25 1867.25 1888.25 C 1864.5 1890.25 1861.8125 1892.3125 1859.25 1894.4375 C 1856.6875 1896.5625 1854.25 1898.75 1852 1901 C 1852.5 1901 1853 1901 1853.5 1901.125 C 1854 1901.25 1854.5 1901.5 1855 1902 C 1855.5 1902 1855.75 1902.25 1855.75 1902.625 C 1855.75 1903 1855.5 1903.5 1855 1904 C 1853.5 1905.5 1852.25 1907.25 1851 1909.125 C 1849.75 1911 1848.5 1913 1847 1915 L 1841 1924 C 1839 1927 1838 1929 1836 1932 C 1836 1932.5 1835.75 1932.75 1835.5 1933 C 1835.25 1933.25 1835 1933.5 1835 1934 C 1836 1934 1837.25 1934 1838.375 1933.875 C 1839.5 1933.75 1840.5 1933.5 1841 1933 C 1846 1928.5 1851 1923.75 1856 1918.875 C 1861 1914 1866 1909 1871 1904 C 1871.5 1904 1872 1904 1872.5 1903.875 C 1873 1903.75 1873.5 1903.5 1874 1903 C 1879 1898.5 1883.75 1893.75 1888.75 1889.375 C 1891.25 1887.1875 1893.8125 1885.0938 1896.5 1883.1719 C 1899.1875 1881.25 1902 1879.5 1905 1878 C 1906.25 1877.5 1907.4375 1876.8125 1908.5781 1876 C 1909.7188 1875.1875 1910.8125 1874.25 1911.875 1873.25 C 1914 1871.25 1916 1869 1918 1867 L 1922 1863 C 1924.75 1861.5 1927.5625 1860.0625 1930.4219 1858.7031 C 1933.2812 1857.3438 1936.1875 1856.0625 1939.125 1854.875 C 1942.0625 1853.6875 1945.0312 1852.5938 1948.0156 1851.6094 C 1951 1850.625 1954 1849.75 1957 1849 C 1957.5 1848.5 1957.75 1848.25 1958 1848.125 C 1958.25 1848 1958.5 1848 1959 1848 C 1970.5 1845.5 1982 1843 1993.5 1840.875 C 1999.25 1839.8125 2005 1838.8438 2010.75 1838.0156 C 2016.5 1837.1875 2022.25 1836.5 2028 1836 C 2035.5 1836 2043 1836.5 2050.75 1836.5 C 2054.625 1836.5 2058.5625 1836.375 2062.5938 1836 C 2066.625 1835.625 2070.75 1835 2075 1834 C 2078 1833.5 2080.9375 1832.6875 2083.8281 1831.6875 C 2086.7188 1830.6875 2089.5625 1829.5 2092.375 1828.25 C 2095.1875 1827 2097.9688 1825.6875 2100.7344 1824.4375 C 2103.5 1823.1875 2106.25 1822 2109 1821 L 2109 1825 C 2112.5 1823.625 2115.8906 1822.0312 2119.1992 1820.2773 C 2122.5078 1818.5234 2125.7344 1816.6094 2128.9062 1814.5938 C 2135.25 1810.5625 2141.375 1806.125 2147.5 1801.75 C 2150.5625 1799.5625 2153.625 1797.3906 2156.7148 1795.293 C 2159.8047 1793.1953 2162.9219 1791.1719 2166.0938 1789.2812 C 2169.2656 1787.3906 2172.4922 1785.6328 2175.8008 1784.0664 C 2179.1094 1782.5 2182.5 1781.125 2186 1780 C 2186.5 1780 2187.75 1781 2189.375 1781.75 C 2190.1875 1782.125 2191.0938 1782.4375 2192.0469 1782.5312 C 2193 1782.625 2194 1782.5 2195 1782 C 2199.25 1778.25 2203.5625 1774.375 2208.0312 1770.7344 C 2210.2656 1768.9141 2212.5391 1767.1523 2214.8633 1765.4941 C 2217.1875 1763.8359 2219.5625 1762.2812 2222 1760.875 C 2224.4375 1759.4688 2226.9375 1758.2109 2229.5117 1757.1465 C 2232.0859 1756.082 2234.7344 1755.2109 2237.4688 1754.5781 C 2240.2031 1753.9453 2243.0234 1753.5508 2245.9414 1753.4395 C 2248.8594 1753.3281 2251.875 1753.5 2255 1754 C 2255 1755 2255 1756 2255.25 1756.75 C 2255.375 1757.125 2255.5625 1757.4375 2255.8438 1757.6562 C 2256.125 1757.875 2256.5 1758 2257 1758 L 2258 1758 C 2255 1760.5 2251.75 1763 2248.375 1765.5 C 2245 1768 2241.5 1770.5 2238 1773 C 2237.5 1773.5 2237.25 1774 2237.1875 1774.4688 C 2237.125 1774.9375 2237.25 1775.375 2237.5 1775.75 C 2237.75 1776.125 2238.125 1776.4375 2238.5625 1776.6562 C 2239 1776.875 2239.5 1777 2240 1777 C 2242.5 1776 2244.75 1774.8125 2246.8594 1773.5312 C 2248.9688 1772.25 2250.9375 1770.875 2252.875 1769.5 C 2254.8125 1768.125 2256.7188 1766.75 2258.7031 1765.4688 C 2260.6875 1764.1875 2262.75 1763 2265 1762 C 2264.5 1762.5 2264.125 1763.125 2263.8125 1763.8125 C 2263.5 1764.5 2263.25 1765.25 2263 1766 C 2262.75 1766.75 2262.5 1767.5 2262.1875 1768.1875 C 2261.875 1768.875 2261.5 1769.5 2261 1770 C 2259.25 1771 2257.5 1772.125 2255.75 1773.3438 C 2254 1774.5625 2252.25 1775.875 2250.5 1777.25 C 2247 1780 2243.5 1783 2240 1786 C 2234.25 1791 2228.6875 1796.0625 2223.2656 1801.2031 C 2217.8438 1806.3438 2212.5625 1811.5625 2207.375 1816.875 C 2202.1875 1822.1875 2197.0938 1827.5938 2192.0469 1833.1094 C 2187 1838.625 2182 1844.25 2177 1850 C 2172 1856 2166.75 1861.75 2161.375 1867.375 C 2156 1873 2150.5 1878.5 2145 1884 C 2142.75 1886.25 2139.9375 1888.6094 2136.6914 1891.0352 C 2133.4453 1893.4609 2129.7656 1895.9531 2125.7812 1898.4688 C 2121.7969 1900.9844 2117.5078 1903.5234 2113.043 1906.043 C 2108.5781 1908.5625 2103.9375 1911.0625 2099.25 1913.5 C 2089.875 1918.375 2080.3125 1923 2071.5938 1927.0312 C 2062.875 1931.0625 2055 1934.5 2049 1937 C 2036.5 1943.25 2024.875 1948.6875 2013.9062 1953.7344 C 2002.9375 1958.7812 1992.625 1963.4375 1982.75 1968.125 C 1977.8125 1970.4687 1972.9844 1972.8203 1968.2383 1975.2324 C 1963.4922 1977.6445 1958.8281 1980.1172 1954.2188 1982.7031 C 1949.6094 1985.2891 1945.0547 1987.9883 1940.5273 1990.8535 C 1936 1993.7188 1931.5 1996.75 1927 2000 L 2701 2000 C 2698 1998 2694.9374 1996.125 2691.7188 1994.2969 C 2688.4999 1992.4688 2685.125 1990.6875 2681.5 1988.875 C 2674.25 1985.25 2666 1981.5 2656 1977 C 2650.75 1974.625 2645.2188 1972.25 2639.5547 1969.9082 C 2633.8906 1967.5664 2628.0938 1965.2578 2622.3125 1963.0156 C 2610.75 1958.5312 2599.25 1954.3125 2589 1950.625 C 2578.75 1946.9375 2569.75 1943.7812 2563.1875 1941.4219 C 2556.625 1939.0625 2552.5 1937.5 2552 1937 C 2550.875 1935.875 2549.7969 1934.3125 2548.7969 1932.3555 C 2547.7969 1930.3984 2546.875 1928.0469 2546.0625 1925.3438 C 2545.25 1922.6405 2544.5469 1919.5859 2543.9844 1916.2227 C 2543.4219 1912.8594 2543 1909.1875 2542.75 1905.25 C 2542.5 1901.3125 2542.4219 1897.1094 2542.5469 1892.6836 C 2542.6719 1888.2578 2543 1883.6094 2543.5625 1878.7812 C 2544.125 1873.9532 2544.9219 1868.9453 2545.9844 1863.8008 C 2547.0469 1858.6562 2548.375 1853.375 2550 1848 C 2550.75 1845 2551.625 1842 2552.6094 1839.0156 C 2553.5938 1836.0312 2554.6875 1833.0625 2555.875 1830.125 C 2557.0625 1827.1875 2558.3438 1824.2812 2559.7031 1821.4219 C 2561.0625 1818.5625 2562.5 1815.75 2564 1813 C 2564.5 1812.5 2565 1812 2565.375 1811.5 C 2565.75 1811 2566 1810.5 2566 1810 C 2566 1810 2566.25 1810 2566.5 1809.875 C 2566.75 1809.75 2567 1809.5 2567 1809 C 2569.5 1805 2571.75 1801.25 2574.125 1797.625 C 2576.5 1794 2579 1790.5 2582 1787 L 2584 1785 C 2584 1784.5 2584.25 1784 2584.625 1783.5 C 2585 1783 2585.5 1782.5 2586 1782 C 2586.5 1781 2587.25 1780.25 2588 1779.5 C 2588.75 1778.75 2589.5 1778 2590 1777 C 2593.5 1773.5 2597.25 1770 2601.125 1766.625 C 2605 1763.25 2609 1760 2613 1757 C 2614.75 1756.25 2616.6875 1755.5625 2618.75 1754.9219 C 2620.8125 1754.2812 2623 1753.6875 2625.25 1753.125 C 2629.75 1752 2634.5 1751 2639 1750 C 2643 1750 2647 1750.1406 2651 1750.3945 C 2655 1750.6484 2659 1751.0155 2663 1751.4688 C 2671 1752.3749 2679 1753.625 2687 1755 C 2695 1756.375 2703 1757.8751 2711 1759.2812 C 2719 1760.6876 2727 1762 2735 1763 C 2735.75 1763 2736.5625 1763.1249 2737.4219 1763.3438 C 2738.2812 1763.5624 2739.1875 1763.875 2740.125 1764.25 C 2742 1765 2744 1766 2746 1767 C 2748.75 1767.5 2751.6874 1767.8749 2754.7188 1768.0938 C 2757.7499 1768.3124 2760.875 1768.375 2764 1768.25 C 2767.125 1768.125 2770.2501 1767.8126 2773.2812 1767.2812 C 2776.3126 1766.7501 2779.25 1766 2782 1765 C 2783.875 1764.625 2785.7188 1764.1406 2787.5215 1763.5508 C 2789.3242 1762.9609 2791.0859 1762.2656 2792.7969 1761.4688 C 2794.5078 1760.6718 2796.168 1759.7734 2797.7676 1758.7773 C 2799.3672 1757.7812 2800.9062 1756.6875 2802.375 1755.5 C 2803.8438 1754.3125 2805.2422 1753.0312 2806.5605 1751.6602 C 2807.8789 1750.2891 2809.1172 1748.8281 2810.2656 1747.2812 C 2811.4141 1745.7345 2812.4727 1744.1016 2813.4316 1742.3867 C 2814.3906 1740.6719 2815.25 1738.875 2816 1737 C 2817.25 1733.5 2818.5 1729.9375 2819.5469 1726.3594 C 2820.5938 1722.7812 2821.4375 1719.1875 2821.875 1715.625 C 2822.0938 1713.8438 2822.2109 1712.0703 2822.2012 1710.3105 C 2822.1914 1708.5508 2822.0547 1706.8047 2821.7656 1705.0781 C 2821.4766 1703.3516 2821.0352 1701.6445 2820.416 1699.9629 C 2819.7969 1698.2812 2819 1696.625 2818 1695 C 2817.3125 1693.9375 2816.7537 1692.918 2816.3125 1691.9375 C 2815.8713 1690.957 2815.5479 1690.0156 2815.3301 1689.1094 C 2815.1123 1688.2031 2814.9998 1687.332 2814.9824 1686.4922 C 2814.9651 1685.6523 2815.043 1684.8438 2815.2031 1684.0625 C 2815.5234 1682.5 2816.1758 1681.0469 2817.0684 1679.6719 C 2817.9609 1678.2969 2819.0938 1677 2820.375 1675.75 C 2822.9375 1673.25 2826.0938 1670.9375 2829.1094 1668.5625 C 2830.6172 1667.375 2832.0898 1666.1719 2833.4355 1664.9219 C 2834.7812 1663.6719 2836 1662.375 2837 1661 C 2837.625 1659.75 2838.0312 1658.5625 2838.2598 1657.4238 C 2838.4883 1656.2852 2838.5391 1655.1953 2838.4531 1654.1406 C 2838.3672 1653.0859 2838.1445 1652.0664 2837.8262 1651.0684 C 2837.5078 1650.0703 2837.0938 1649.0938 2836.625 1648.125 C 2835.6875 1646.1875 2834.5312 1644.2812 2833.4844 1642.2969 C 2832.9609 1641.3047 2832.4648 1640.293 2832.0371 1639.248 C 2831.6094 1638.2031 2831.25 1637.125 2831 1636 C 2830.75 1635.5 2830.4219 1635.0938 2830.0312 1634.7539 C 2829.6407 1634.4141 2829.1875 1634.1406 2828.6875 1633.9062 C 2827.6875 1633.4376 2826.5 1633.125 2825.25 1632.75 C 2824 1632.375 2822.6875 1631.9374 2821.4375 1631.2188 C 2820.8125 1630.8593 2820.2031 1630.4297 2819.625 1629.9023 C 2819.0469 1629.375 2818.5 1628.75 2818 1628 C 2819.75 1627.375 2821.5938 1626.6562 2823.4629 1625.8438 C 2825.332 1625.0311 2827.2266 1624.125 2829.0781 1623.125 C 2830.9297 1622.125 2832.7383 1621.0312 2834.4355 1619.8438 C 2836.1328 1618.6561 2837.7188 1617.375 2839.125 1616 C 2840.5312 1614.625 2841.7578 1613.1562 2842.7363 1611.5938 C 2843.7148 1610.0311 2844.4453 1608.375 2844.8594 1606.625 C 2845.0664 1605.75 2845.1941 1604.8516 2845.2344 1603.9297 C 2845.2747 1603.0078 2845.2275 1602.0625 2845.084 1601.0938 C 2844.9404 1600.1249 2844.7 1599.1328 2844.3555 1598.1172 C 2844.011 1597.1016 2843.5625 1596.0625 2843 1595 C 2841.5 1592.75 2839.8125 1590.0626 2838.2969 1587.1562 C 2837.5391 1585.7032 2836.8242 1584.1953 2836.1973 1582.6602 C 2835.5703 1581.125 2835.0312 1579.5625 2834.625 1578 C 2834.2188 1576.4375 2833.9453 1574.875 2833.8496 1573.3398 C 2833.7539 1571.8047 2833.8359 1570.2969 2834.1406 1568.8438 C 2834.4453 1567.3905 2834.9727 1565.9922 2835.7676 1564.6758 C 2836.5625 1563.3594 2837.625 1562.125 2839 1561 C 2840.75 1560 2842.5938 1559.1562 2844.4922 1558.4199 C 2846.3906 1557.6836 2848.3438 1557.0547 2850.3125 1556.4844 C 2854.25 1555.3438 2858.25 1554.4375 2862 1553.375 C 2863.875 1552.8438 2865.6875 1552.2734 2867.3984 1551.6152 C 2869.1094 1550.957 2870.7188 1550.2109 2872.1875 1549.3281 C 2873.6562 1548.4453 2874.9844 1547.4258 2876.1328 1546.2207 C 2877.2812 1545.0156 2878.25 1543.625 2879 1542 C 2879.5625 1540.625 2880.0078 1539.2625 2880.3457 1537.9102 C 2880.6836 1536.5579 2880.9141 1535.2158 2881.0469 1533.8848 C 2881.1797 1532.5537 2881.2148 1531.2332 2881.1621 1529.9219 C 2881.1094 1528.6106 2880.9688 1527.3086 2880.75 1526.0156 C 2880.3125 1523.4297 2879.5625 1520.8789 2878.5781 1518.3574 C 2877.5938 1515.8359 2876.375 1513.3438 2875 1510.875 C 2873.625 1508.4062 2872.0938 1505.9609 2870.4844 1503.5332 C 2868.875 1501.1055 2867.1875 1498.6953 2865.5 1496.2969 C 2863.8125 1493.8984 2862.125 1491.5117 2860.5156 1489.1309 C 2858.9062 1486.75 2857.375 1484.375 2856 1482 C 2854.5 1479.25 2852.9375 1476.6874 2851.3125 1474.2188 C 2849.6875 1471.7499 2848 1469.375 2846.25 1467 C 2842.75 1462.25 2839 1457.5 2835 1452 C 2831 1445 2826.75 1438.75 2823 1432.375 C 2821.125 1429.1875 2819.3749 1425.9688 2817.8438 1422.6094 C 2817.0781 1420.9297 2816.3672 1419.2148 2815.7227 1417.4512 C 2815.0781 1415.6875 2814.5 1413.875 2814 1412 C 2813.25 1410.125 2812.7188 1408.2812 2812.3633 1406.4609 C 2812.0078 1404.6406 2811.8281 1402.8438 2811.7812 1401.0625 C 2811.7344 1399.2812 2811.8203 1397.5156 2811.9961 1395.7578 C 2812.1719 1394 2812.4375 1392.25 2812.75 1390.5 C 2813.375 1387 2814.1874 1383.5 2814.8438 1379.9375 C 2815.1718 1378.1562 2815.4609 1376.3594 2815.668 1374.5391 C 2815.875 1372.7188 2816 1370.875 2816 1369 C 2816.25 1365.5 2816.3593 1361.9844 2816.3438 1358.457 C 2816.3281 1354.9297 2816.1875 1351.3905 2815.9375 1347.8438 C 2815.6875 1344.2968 2815.3281 1340.7422 2814.875 1337.1836 C 2814.4219 1333.625 2813.875 1330.0625 2813.25 1326.5 C 2812 1319.375 2810.4375 1312.2501 2808.6875 1305.1562 C 2806.9375 1298.0626 2805 1291 2803 1284 C 2801.75 1280.5 2800.6875 1276.9375 2799.7031 1273.3594 C 2798.7188 1269.7812 2797.8125 1266.1875 2796.875 1262.625 C 2795.9375 1259.0625 2794.9688 1255.5312 2793.8594 1252.0781 C 2792.75 1248.625 2791.5 1245.25 2790 1242 C 2789.75 1240 2789.4375 1238.0626 2789.0156 1236.1562 C 2788.5938 1234.2501 2788.0625 1232.375 2787.375 1230.5 C 2786.6875 1228.625 2785.8438 1226.7499 2784.7969 1224.8438 C 2783.75 1222.9374 2782.5 1221 2781 1219 C 2780.5 1218 2780.125 1216.9374 2779.875 1215.8438 C 2779.625 1214.7499 2779.5 1213.625 2779.5 1212.5 C 2779.5 1211.375 2779.625 1210.2501 2779.875 1209.1562 C 2780.125 1208.0626 2780.5 1207 2781 1206 C 2785 1203 2788.75 1200.25 2792.5 1197.25 C 2796.25 1194.25 2800 1191 2804 1187 C 2804.625 1185.875 2805.1094 1184.6875 2805.4609 1183.459 C 2805.8125 1182.2305 2806.0312 1180.9609 2806.125 1179.6719 C 2806.2188 1178.3828 2806.1875 1177.0742 2806.0391 1175.7676 C 2805.8906 1174.4609 2805.625 1173.1562 2805.25 1171.875 C 2804.875 1170.5938 2804.3906 1169.3359 2803.8047 1168.123 C 2803.2188 1166.9102 2802.5312 1165.7422 2801.75 1164.6406 C 2800.9688 1163.5391 2800.0938 1162.5039 2799.1328 1161.5566 C 2798.1719 1160.6094 2797.125 1159.75 2796 1159 C 2794.375 1158.25 2792.9688 1157.8905 2791.7344 1157.8438 C 2790.5 1157.7968 2789.4375 1158.0625 2788.5 1158.5625 C 2787.5625 1159.0625 2786.75 1159.7969 2786.0156 1160.6875 C 2785.2812 1161.5781 2784.625 1162.625 2784 1163.75 C 2782.75 1166 2781.625 1168.5625 2780.25 1170.8125 C 2779.5625 1171.9375 2778.8125 1172.9844 2777.9531 1173.875 C 2777.0938 1174.7656 2776.125 1175.5 2775 1176 L 2769 1176 C 2768.5 1174.75 2768.3751 1173.6875 2768.5312 1172.7344 C 2768.6876 1171.7812 2769.125 1170.9375 2769.75 1170.125 C 2771 1168.5 2773 1167 2775 1165 C 2775 1164 2775 1162.5 2774.75 1161.25 C 2774.625 1160.625 2774.4376 1160.0626 2774.1562 1159.6562 C 2773.8751 1159.2501 2773.5 1159 2773 1159 C 2771 1159 2769.0625 1158.875 2767.25 1158.625 C 2765.4375 1158.375 2763.75 1158 2762.25 1157.5 C 2760.75 1157 2759.4375 1156.375 2758.375 1155.625 C 2757.3125 1154.875 2756.5 1154 2756 1153 C 2753.625 1149.75 2751.125 1146.6875 2748.5137 1143.7949 C 2745.9023 1140.9023 2743.1797 1138.1797 2740.3594 1135.6094 C 2737.5391 1133.0391 2734.6211 1130.6211 2731.6191 1128.3379 C 2728.6172 1126.0547 2725.5312 1123.9062 2722.375 1121.875 C 2719.2188 1119.8438 2715.9922 1117.9297 2712.709 1116.1152 C 2709.4258 1114.3008 2706.0859 1112.5859 2702.7031 1110.9531 C 2695.9375 1107.6875 2689 1104.75 2682 1102 C 2686 1103 2689.75 1104 2693.5 1104.75 C 2695.375 1105.125 2697.2501 1105.4376 2699.1562 1105.6562 C 2701.0626 1105.8751 2703 1106 2705 1106 C 2708.5 1106.5 2712.0625 1106.875 2715.6094 1107.0625 C 2719.1562 1107.25 2722.6875 1107.25 2726.125 1107 C 2729.5625 1106.75 2732.9062 1106.25 2736.0781 1105.4375 C 2737.6641 1105.0312 2739.207 1104.5469 2740.6973 1103.9766 C 2742.1875 1103.4062 2743.625 1102.75 2745 1102 C 2746.125 1101.625 2747.1406 1101.0469 2748.0645 1100.3047 C 2748.9883 1099.5625 2749.8203 1098.6562 2750.5781 1097.625 C 2751.3359 1096.5938 2752.0195 1095.4375 2752.6465 1094.1953 C 2753.2734 1092.9531 2753.8438 1091.625 2754.375 1090.25 C 2755.4375 1087.5 2756.3438 1084.5625 2757.2344 1081.75 C 2758.125 1078.9375 2759 1076.25 2760 1074 C 2760.375 1073 2760.625 1071.9531 2760.7676 1070.875 C 2760.9102 1069.7969 2760.9453 1068.6875 2760.8906 1067.5625 C 2760.7812 1065.3125 2760.3125 1063 2759.625 1060.75 C 2758.9375 1058.5 2758.0312 1056.3125 2757.0469 1054.3125 C 2756.0625 1052.3125 2755 1050.5 2754 1049 C 2752.875 1047.25 2751.6875 1045.5781 2750.4434 1043.9785 C 2749.1992 1042.3789 2747.8984 1040.8516 2746.5469 1039.3906 C 2743.8438 1036.4688 2740.9375 1033.8125 2737.875 1031.375 C 2734.8125 1028.9375 2731.5938 1026.7188 2728.2656 1024.6719 C 2724.9375 1022.625 2721.5 1020.75 2718 1019 C 2714.5 1017.5 2710 1015.25 2705.25 1012.75 C 2700.5 1010.25 2695.5 1007.5 2691 1005 C 2687 1002.5 2684.5 1001.25 2683 1000.625 C 2681.5 1000 2681 1000 2681 1000 L 2304 1000 z " />
    <path
       d="m 2745,1366 c 8,2 19,2 19,6 -4,15 -26,19 -38,34 h -6 c -6,4 -4,13 -9,13 -6,-2 -11,0 -17,2 8,8 17,13 28,11 2,0 6,4 6,8 0,0 2,0 4,-2 2,0 4,0 4,2 v 8 c -6,8 -15,4 -23,6 15,4 30,4 44,0 11,-4 0,-23 8,-32 -4,0 0,-6 -4,-6 4,-4 8,-9 11,-11 4,0 9,-2 11,-6 0,-4 -8,-6 -6,-9 11,-8 21,-19 17,-30 -2,-6 -17,-6 -26,-10 -9,-4 -21,0 -32,2 -9,0 -19,6 -28,8 -13,4 -25,11 -36,19 13,-6 26,-8 41,-11 11,-2 20,-4 32,-2"
       fill="#808080"
       id="path839" />
    <path
       d="m 2145,1884 c 11,-11 22,-22 32,-34 20,-23 40,-44 63,-64 7,-6 14,-12 21,-16 2,-2 2,-6 4,-8 -9,4 -15,11 -25,15 -2,0 -4,-2 -2,-4 7,-5 14,-10 20,-15 h -1 c -2,0 -2,-2 -2,-4 -25,-4 -43,13 -60,28 -4,2 -8,-2 -9,-2 -28,9 -49,34 -77,45 v -4 c -11,4 -22,11 -34,13 -17,4 -32,2 -47,2 -23,2 -46,7 -69,12 -1,0 -1,0 -2,1 -12,3 -24,8 -35,14 l -4,4 c -4,4 -8,9 -13,11 -12,6 -21,16 -31,25 -1,1 -2,1 -3,1 -10,10 -20,20 -30,29 -1,1 -4,1 -6,1 0,-1 1,-1 1,-2 2,-3 3,-5 5,-8 l 6,-9 c 3,-4 5,-8 8,-11 1,-1 1,-2 0,-2 -1,-1 -2,-1 -3,-1 9,-9 21,-17 32,-24 -1,0 -3,-1 -2,-2 1,-2 2,-3 3,-5 0,-1 0,-1 1,-2 0,-1 -1,-1 -1,-2 l -9,6 c -5,4 -8,12 -15,12 h -3 c -1,0 -2,0 -2,-1 v -1 c 0,-1 1,-1 1,-2 0,-1 1,-1 1,-2 0,0 0,-1 1,-1 0,-1 1,-2 1,-2 0,-1 1,-1 1,-2 1,-1 2,-3 2,-4 0,-1 1,-1 1,-2 1,-1 1,-2 2,-3 1,-2 0,-3 -1,-3 3,-5 8,-8 13,-11 h -1 c 7,-4 15,-8 22,-12 l 3,-3 c -11,4 -20,9 -30,15 0,0 -2,1 -3,2 0,0 -2,1 -5,-2 v -1 c 2,-4 8,-6 11,-9 2,0 4,0 4,2 61,-47 144,-36 214,-60 6,-4 11,-8 17,-11 9,-4 17,-13 28,-19 15,-11 26,-25 32,-43 0,-2 -2,-4 -2,-4 -25,26 -53,47 -83,62 -40,21 -83,17 -125,23 2,-4 6,-4 9,-4 0,-6 4,-8 8,-11 h 6 c 2,0 2,-4 4,-4 4,0 10,-2 8,-2 -6,-8 -17,6 -26,0 4,-4 2,-9 6,-11 h 8 c 0,-4 4,-8 4,-8 28,-17 55,-30 81,-45 -6,0 -9,6 -15,2 4,0 0,-6 4,-6 21,-6 38,-17 59,-25 -8,0 -13,6 -21,0 4,-2 6,-6 11,-6 v -6 c 0,-2 2,-2 4,-2 -2,0 -4,-2 -4,-2 2,-4 8,-2 11,-6 -2,0 -6,0 -6,-2 6,-8 15,-9 25,-11 -2,-4 -8,0 -8,-4 0,-2 2,-2 4,-2 h -4 c -4,-2 -2,-6 -2,-8 11,-13 11,-30 17,-45 -2,0 -4,0 -4,-2 -19,21 -49,28 -77,36 h -13 c -9,4 -23,4 -32,-2 -8,-4 -11,-9 -19,-15 -15,-9 -30,-17 -47,-23 -47,-15 -96,-23 -145,-21 21,-11 44,-12 66,-19 32,-9 62,-21 96,-19 -6,-2 -13,0 -19,0 -26,-2 -53,6 -81,11 -19,4 -36,11 -55,15 -11,4 -17,15 -30,13 v -6 c 19,-23 42,-45 72,-47 34,-6 66,0 100,4 25,2 47,8 72,13 9,0 11,15 19,17 11,4 23,0 34,8 0,-4 -2,-8 0,-11 8,-8 17,2 25,-2 15,-9 -13,-26 -21,-40 0,-2 2,-4 2,-4 15,13 26,28 45,38 9,4 32,9 28,-2 -9,-21 -28,-38 -44,-57 v -8 c -4,0 -4,-2 -6,-4 v -8 c -8,-4 -6,-11 -9,-17 -6,-9 -2,-23 -6,-34 -4,-11 -6,-21 -8,-32 -6,-32 -13,-60 -17,-91 -4,-36 21,-64 38,-96 13,-23 28,-45 53,-60 6,-23 21,-42 36,-60 15,-18 40,-30 58,-38 26,-12 50,-19 50,-19 H 1000 v 1000 h 927 c 36,-26 72,-38 122,-63 24,-10 78,-35 96,-53 m -290,-136 c -4,0 -11,2 -9,-2 2,-9 15,-9 23,-13 4,-2 9,-6 13,-4 4,6 9,4 13,8 -12,11 -27,6 -40,11 m -290,-41 c 0,0 -2,-2 -2,-4 25,-32 43,-62 61,-96 25,-13 45,-32 64,-53 32,-34 66,-64 106,-83 15,-6 34,-4 49,2 -6,8 -15,6 -23,11 -2,0 -4,0 -6,-2 2,-2 2,-4 2,-6 -19,21 -45,30 -60,55 -11,19 -19,43 -43,49 -8,2 2,-6 -2,-4 -59,36 -100,80 -146,131 m 157,-125 c -2,4 -4,4 -6,8 -2,4 -4,6 -8,8 -2,0 -4,0 -4,-2 2,-8 8,-15 15,-17 3,-1 3,1 3,3 m 88,283 c -1,2 -3,4 -5,6 2,0 4,2 2,3 -4,4 -9,8 -14,10 h -3 c -2,2 -5,4 -7,7 -2,2 -13,1 -10,-2 5,-4 9,-9 14,-13 3,-2 6,-5 8,-8 1,-2 2,-3 4,-4 3,-2 13,-3 11,1 m -34,-15 c -8,5 -15,10 -22,15 -8,5 -17,8 -25,12 -1,-1 -2,-1 -3,-1 -7,4 -13,9 -19,15 l -3,3 -3,3 -4,4 c -1,1 -1,2 -3,3 -1,1 -4,1 -4,-1 -1,1 -2,1 -3,2 -1,1 -2,1 -3,2 h -2 c -2,2 -5,4 -7,6 -4,4 -8,7 -11,12 v 1 l -1,1 c 0,0 0,1 -1,1 0,1 -1,1 -1,2 0,0 -1,1 -2,1 l -1,-1 c 0,0 0,-1 -1,-1 -1,-1 -1,-2 -2,-3 v -1 c 2,-2 4,-4 6,-7 1,-1 1,-2 2,-2 1,-1 2,-3 3,-4 0,-1 1,-1 1,-2 2,-3 4,-5 6,-8 l 1,-1 c 1,-1 2,-3 3,-4 1,-1 1,-2 2,-4 v -1 c 1,-2 1,-3 2,-4 v -1 c 0,-1 0,-1 1,-2 0,-1 0,-2 1,-3 v -1 c 2,-4 5,-7 8,-10 h -1 c -3,2 -5,4 -7,6 -2,2 -6,-1 -3,-3 2,-1 3,-3 4,-4 3,-3 6,-7 10,-10 2,-2 4,-3 6,-4 l 1,-1 c 1,-2 3,-3 4,-5 18,-17 49,-17 72,-28 9,-4 21,2 30,0 6,0 11,0 17,4 -17,3 -32,14 -48,24 m 39,-132 c -2,-2 6,0 8,-4 h -15 c -2,0 -2,-2 -2,-4 -9,2 -21,6 -30,8 -13,4 -25,13 -40,17 -21,8 -38,25 -60,32 -2,0 -2,-2 -2,-4 2,-6 9,-8 13,-13 0,-2 0,-4 -2,-4 15,-21 36,-32 55,-49 v -6 c 6,-8 15,-11 19,-21 2,-6 10,-13 19,-17 -2,-2 -6,-2 -6,-6 -8,0 -15,4 -23,-2 4,-3 8,-5 12,-7 -2,0 -3,-1 -4,-3 -2,-4 4,-8 9,-9 8,-2 17,-2 23,-8 -13,-2 -28,4 -42,-4 9,-25 25,-45 47,-57 2,0 6,0 6,2 0,9 -6,17 -15,19 15,4 30,4 45,11 -2,4 -6,2 -8,2 9,6 21,2 30,9 -6,6 -11,0 -17,0 59,17 121,30 170,68 -42,21 -85,30 -130,40 -6,0 -9,0 -15,-2 0,2 0,6 -2,6 -8,0 -13,0 -19,4 -7,6 -18,8 -24,2"
       fill="#000091"
       id="path835" />
    <path
       d="M 3755,1000 H 2681 c 0,0 2,0 10,5 9,5 20,11 27,14 14,7 27,16 36,30 4,6 9,17 6,25 -4,9 -6,25 -15,28 -11,6 -26,6 -40,4 -8,0 -15,-2 -23,-4 28,11 55,25 74,51 2,4 9,6 17,6 2,0 2,4 2,6 -4,4 -8,6 -6,11 h 6 c 9,-4 8,-23 21,-17 9,6 13,19 8,28 -8,8 -15,13 -23,19 -2,4 -2,9 0,13 6,8 8,15 9,23 6,13 8,28 13,42 8,28 15,57 13,85 0,15 -8,28 -2,43 4,15 13,26 21,40 8,11 15,19 21,30 11,19 32,38 23,60 -6,13 -26,11 -40,19 -11,9 -2,25 4,34 9,17 -11,28 -25,33 4,6 11,4 13,8 2,9 11,15 6,25 -8,11 -30,17 -19,34 8,13 3,28 -2,42 -6,15 -19,25 -34,28 -11,4 -25,4 -36,2 -4,-2 -8,-4 -11,-4 -32,-4 -64,-13 -96,-13 -9,2 -19,4 -26,7 -8,6 -16,13 -23,20 -1,2 -3,3 -4,5 -1,1 -2,2 -2,3 l -2,2 c -6,7 -10,14 -15,22 0,1 -1,1 -1,1 0,1 -1,2 -2,3 -6,11 -11,23 -14,35 -13,43 -7,80 2,89 2,2 62,21 104,40 20,9 33,15 45,23 H 3756 V 1000 Z"
       fill="#e1000f"
       id="path837" />
  </g>
</svg>
