<?xml version="1.0" encoding="UTF-8" standalone="no"?>
<svg
   xmlns:dc="http://purl.org/dc/elements/1.1/"
   xmlns:cc="http://creativecommons.org/ns#"
   xmlns:rdf="http://www.w3.org/1999/02/22-rdf-syntax-ns#"
   xmlns:svg="http://www.w3.org/2000/svg"
   xmlns="http://www.w3.org/2000/svg"
   xmlns:sodipodi="http://sodipodi.sourceforge.net/DTD/sodipodi-0.dtd"
   xmlns:inkscape="http://www.inkscape.org/namespaces/inkscape"
   viewBox="0 0 17383.33 7670"
   version="1.1"
   id="svg847"
   sodipodi:docname="marianne+inrae-logo-light.svg"
   inkscape:version="1.0.2 (e86c8708, 2021-01-15)"
   width="17383.33"
   height="7670">
  <metadata
     id="metadata853">
    <rdf:RDF>
      <cc:Work
         rdf:about="">
        <dc:format>image/svg+xml</dc:format>
        <dc:type
           rdf:resource="http://purl.org/dc/dcmitype/StillImage" />
        <dc:title></dc:title>
      </cc:Work>
    </rdf:RDF>
  </metadata>
  <defs
     id="defs851">
    <clipPath
       clipPathUnits="userSpaceOnUse"
       id="clipPath942">
      <rect
         style="fill:#000000;fill-opacity:1;fill-rule:evenodd;stroke:none;stroke-width:1.635;stroke-linecap:round;stroke-linejoin:round;stroke-miterlimit:10"
         id="rect944"
         width="10028.56"
         height="10173.004"
         x="4275.2334"
         y="-701.58649" />
    </clipPath>
  </defs>
  <sodipodi:namedview
     pagecolor="#ffffff"
     bordercolor="#666666"
     borderopacity="1"
     objecttolerance="10"
     gridtolerance="10"
     guidetolerance="10"
     inkscape:pageopacity="0"
     inkscape:pageshadow="2"
     inkscape:window-width="1920"
     inkscape:window-height="1027"
     id="namedview849"
     showgrid="false"
     inkscape:zoom="0.064832157"
     inkscape:cx="9580.8794"
     inkscape:cy="5585.3995"
     inkscape:window-x="0"
     inkscape:window-y="25"
     inkscape:window-maximized="1"
     inkscape:current-layer="svg847"
     inkscape:snap-page="true"
     fit-margin-top="1000"
     fit-margin-left="1000"
     fit-margin-bottom="1000"
     fit-margin-right="1000"
     inkscape:document-rotation="0"
     inkscape:pagecheckerboard="true" />
  <g
     id="g841">
    <path
       d="m 2145,1884 c 11,-11 22,-22 32,-34 20,-23 40,-44 63,-64 7,-6 14,-12 21,-16 2,-2 2,-6 4,-8 -9,4 -15,11 -25,15 -2,0 -4,-2 -2,-4 7,-5 14,-10 20,-15 h -1 c -2,0 -2,-2 -2,-4 -25,-4 -43,13 -60,28 -4,2 -8,-2 -9,-2 -28,9 -49,34 -77,45 v -4 c -11,4 -22,11 -34,13 -17,4 -32,2 -47,2 -23,2 -46,7 -69,12 -1,0 -1,0 -2,1 -12,3 -24,8 -35,14 l -4,4 c -4,4 -8,9 -13,11 -12,6 -21,16 -31,25 -1,1 -2,1 -3,1 -10,10 -20,20 -30,29 -1,1 -4,1 -6,1 0,-1 1,-1 1,-2 2,-3 3,-5 5,-8 l 6,-9 c 3,-4 5,-8 8,-11 1,-1 1,-2 0,-2 -1,-1 -2,-1 -3,-1 9,-9 21,-17 32,-24 -1,0 -3,-1 -2,-2 1,-2 2,-3 3,-5 0,-1 0,-1 1,-2 0,-1 -1,-1 -1,-2 l -9,6 c -5,4 -8,12 -15,12 h -3 c -1,0 -2,0 -2,-1 v -1 c 0,-1 1,-1 1,-2 0,-1 1,-1 1,-2 0,0 0,-1 1,-1 0,-1 1,-2 1,-2 0,-1 1,-1 1,-2 1,-1 2,-3 2,-4 0,-1 1,-1 1,-2 1,-1 1,-2 2,-3 1,-2 0,-3 -1,-3 3,-5 8,-8 13,-11 h -1 c 7,-4 15,-8 22,-12 l 3,-3 c -11,4 -20,9 -30,15 0,0 -2,1 -3,2 0,0 -2,1 -5,-2 v -1 c 2,-4 8,-6 11,-9 2,0 4,0 4,2 61,-47 144,-36 214,-60 6,-4 11,-8 17,-11 9,-4 17,-13 28,-19 15,-11 26,-25 32,-43 0,-2 -2,-4 -2,-4 -25,26 -53,47 -83,62 -40,21 -83,17 -125,23 2,-4 6,-4 9,-4 0,-6 4,-8 8,-11 h 6 c 2,0 2,-4 4,-4 4,0 10,-2 8,-2 -6,-8 -17,6 -26,0 4,-4 2,-9 6,-11 h 8 c 0,-4 4,-8 4,-8 28,-17 55,-30 81,-45 -6,0 -9,6 -15,2 4,0 0,-6 4,-6 21,-6 38,-17 59,-25 -8,0 -13,6 -21,0 4,-2 6,-6 11,-6 v -6 c 0,-2 2,-2 4,-2 -2,0 -4,-2 -4,-2 2,-4 8,-2 11,-6 -2,0 -6,0 -6,-2 6,-8 15,-9 25,-11 -2,-4 -8,0 -8,-4 0,-2 2,-2 4,-2 h -4 c -4,-2 -2,-6 -2,-8 11,-13 11,-30 17,-45 -2,0 -4,0 -4,-2 -19,21 -49,28 -77,36 h -13 c -9,4 -23,4 -32,-2 -8,-4 -11,-9 -19,-15 -15,-9 -30,-17 -47,-23 -47,-15 -96,-23 -145,-21 21,-11 44,-12 66,-19 32,-9 62,-21 96,-19 -6,-2 -13,0 -19,0 -26,-2 -53,6 -81,11 -19,4 -36,11 -55,15 -11,4 -17,15 -30,13 v -6 c 19,-23 42,-45 72,-47 34,-6 66,0 100,4 25,2 47,8 72,13 9,0 11,15 19,17 11,4 23,0 34,8 0,-4 -2,-8 0,-11 8,-8 17,2 25,-2 15,-9 -13,-26 -21,-40 0,-2 2,-4 2,-4 15,13 26,28 45,38 9,4 32,9 28,-2 -9,-21 -28,-38 -44,-57 v -8 c -4,0 -4,-2 -6,-4 v -8 c -8,-4 -6,-11 -9,-17 -6,-9 -2,-23 -6,-34 -4,-11 -6,-21 -8,-32 -6,-32 -13,-60 -17,-91 -4,-36 21,-64 38,-96 13,-23 28,-45 53,-60 6,-23 21,-42 36,-60 15,-18 40,-30 58,-38 26,-12 50,-19 50,-19 H 1000 v 1000 h 927 c 36,-26 72,-38 122,-63 24,-10 78,-35 96,-53 m -290,-136 c -4,0 -11,2 -9,-2 2,-9 15,-9 23,-13 4,-2 9,-6 13,-4 4,6 9,4 13,8 -12,11 -27,6 -40,11 m -290,-41 c 0,0 -2,-2 -2,-4 25,-32 43,-62 61,-96 25,-13 45,-32 64,-53 32,-34 66,-64 106,-83 15,-6 34,-4 49,2 -6,8 -15,6 -23,11 -2,0 -4,0 -6,-2 2,-2 2,-4 2,-6 -19,21 -45,30 -60,55 -11,19 -19,43 -43,49 -8,2 2,-6 -2,-4 -59,36 -100,80 -146,131 m 157,-125 c -2,4 -4,4 -6,8 -2,4 -4,6 -8,8 -2,0 -4,0 -4,-2 2,-8 8,-15 15,-17 3,-1 3,1 3,3 m 88,283 c -1,2 -3,4 -5,6 2,0 4,2 2,3 -4,4 -9,8 -14,10 h -3 c -2,2 -5,4 -7,7 -2,2 -13,1 -10,-2 5,-4 9,-9 14,-13 3,-2 6,-5 8,-8 1,-2 2,-3 4,-4 3,-2 13,-3 11,1 m -34,-15 c -8,5 -15,10 -22,15 -8,5 -17,8 -25,12 -1,-1 -2,-1 -3,-1 -7,4 -13,9 -19,15 l -3,3 -3,3 -4,4 c -1,1 -1,2 -3,3 -1,1 -4,1 -4,-1 -1,1 -2,1 -3,2 -1,1 -2,1 -3,2 h -2 c -2,2 -5,4 -7,6 -4,4 -8,7 -11,12 v 1 l -1,1 c 0,0 0,1 -1,1 0,1 -1,1 -1,2 0,0 -1,1 -2,1 l -1,-1 c 0,0 0,-1 -1,-1 -1,-1 -1,-2 -2,-3 v -1 c 2,-2 4,-4 6,-7 1,-1 1,-2 2,-2 1,-1 2,-3 3,-4 0,-1 1,-1 1,-2 2,-3 4,-5 6,-8 l 1,-1 c 1,-1 2,-3 3,-4 1,-1 1,-2 2,-4 v -1 c 1,-2 1,-3 2,-4 v -1 c 0,-1 0,-1 1,-2 0,-1 0,-2 1,-3 v -1 c 2,-4 5,-7 8,-10 h -1 c -3,2 -5,4 -7,6 -2,2 -6,-1 -3,-3 2,-1 3,-3 4,-4 3,-3 6,-7 10,-10 2,-2 4,-3 6,-4 l 1,-1 c 1,-2 3,-3 4,-5 18,-17 49,-17 72,-28 9,-4 21,2 30,0 6,0 11,0 17,4 -17,3 -32,14 -48,24 m 39,-132 c -2,-2 6,0 8,-4 h -15 c -2,0 -2,-2 -2,-4 -9,2 -21,6 -30,8 -13,4 -25,13 -40,17 -21,8 -38,25 -60,32 -2,0 -2,-2 -2,-4 2,-6 9,-8 13,-13 0,-2 0,-4 -2,-4 15,-21 36,-32 55,-49 v -6 c 6,-8 15,-11 19,-21 2,-6 10,-13 19,-17 -2,-2 -6,-2 -6,-6 -8,0 -15,4 -23,-2 4,-3 8,-5 12,-7 -2,0 -3,-1 -4,-3 -2,-4 4,-8 9,-9 8,-2 17,-2 23,-8 -13,-2 -28,4 -42,-4 9,-25 25,-45 47,-57 2,0 6,0 6,2 0,9 -6,17 -15,19 15,4 30,4 45,11 -2,4 -6,2 -8,2 9,6 21,2 30,9 -6,6 -11,0 -17,0 59,17 121,30 170,68 -42,21 -85,30 -130,40 -6,0 -9,0 -15,-2 0,2 0,6 -2,6 -8,0 -13,0 -19,4 -7,6 -18,8 -24,2"
       fill="#000091"
       id="path835" />
    <path
       d="M 3755,1000 H 2681 c 0,0 2,0 10,5 9,5 20,11 27,14 14,7 27,16 36,30 4,6 9,17 6,25 -4,9 -6,25 -15,28 -11,6 -26,6 -40,4 -8,0 -15,-2 -23,-4 28,11 55,25 74,51 2,4 9,6 17,6 2,0 2,4 2,6 -4,4 -8,6 -6,11 h 6 c 9,-4 8,-23 21,-17 9,6 13,19 8,28 -8,8 -15,13 -23,19 -2,4 -2,9 0,13 6,8 8,15 9,23 6,13 8,28 13,42 8,28 15,57 13,85 0,15 -8,28 -2,43 4,15 13,26 21,40 8,11 15,19 21,30 11,19 32,38 23,60 -6,13 -26,11 -40,19 -11,9 -2,25 4,34 9,17 -11,28 -25,33 4,6 11,4 13,8 2,9 11,15 6,25 -8,11 -30,17 -19,34 8,13 3,28 -2,42 -6,15 -19,25 -34,28 -11,4 -25,4 -36,2 -4,-2 -8,-4 -11,-4 -32,-4 -64,-13 -96,-13 -9,2 -19,4 -26,7 -8,6 -16,13 -23,20 -1,2 -3,3 -4,5 -1,1 -2,2 -2,3 l -2,2 c -6,7 -10,14 -15,22 0,1 -1,1 -1,1 0,1 -1,2 -2,3 -6,11 -11,23 -14,35 -13,43 -7,80 2,89 2,2 62,21 104,40 20,9 33,15 45,23 H 3756 V 1000 Z"
       fill="#e1000f"
       id="path837" />
    <path
       d="m 2745,1366 c 8,2 19,2 19,6 -4,15 -26,19 -38,34 h -6 c -6,4 -4,13 -9,13 -6,-2 -11,0 -17,2 8,8 17,13 28,11 2,0 6,4 6,8 0,0 2,0 4,-2 2,0 4,0 4,2 v 8 c -6,8 -15,4 -23,6 15,4 30,4 44,0 11,-4 0,-23 8,-32 -4,0 0,-6 -4,-6 4,-4 8,-9 11,-11 4,0 9,-2 11,-6 0,-4 -8,-6 -6,-9 11,-8 21,-19 17,-30 -2,-6 -17,-6 -26,-10 -9,-4 -21,0 -32,2 -9,0 -19,6 -28,8 -13,4 -25,11 -36,19 13,-6 26,-8 41,-11 11,-2 20,-4 32,-2"
       fill="#808080"
       id="path839" />
  </g>
  <!-- fond -->
  <!-- Marianne -->
  <!-- RF -->
  <path
     d="m 1000,3250 v -750 h 228 q 124,0 194,60 71,60 72,164 0,67 -31,116 -31,50 -88,78 l 234,332 h -181 l -199,-303 h -77 v 303 z m 152,-432 h 85 q 48,0 74,-25 27,-25 27,-71 0,-43 -27,-68 -27,-25 -74,-24 h -85 z m 563,432 v -750 h 435 v 130 h -284 v 173 h 241 v 130 h -241 v 187 h 284 v 130 z m 147,-814 120,-145 h 156 l -138,145 z m 473,814 v -750 h 247 q 123,0 193,60 71,60 71,164 0,104 -71,163 -71,60 -193,60 h -95 v 303 z m 152,-432 h 101 q 49,0 76,-26 27,-25 27,-70 0,-43 -28,-68 -27,-25 -75,-24 h -101 z m 481,139 v -457 h 152 v 469 q 0,75 40,118 40,42 111,42 70,0 110,-42 40,-42 40,-118 v -469 h 152 v 457 q 0,148 -81,231 -81,83 -222,83 -140,0 -221,-83 -81,-84 -81,-231 z m 803,293 v -750 h 212 q 117,0 183,54 67,54 67,150 0,93 -79,148 59,27 91,72 32,46 32,105 0,103 -75,162 -74,59 -203,59 z m 151,-130 h 86 q 53,0 83,-26 30,-27 30,-73 0,-46 -30,-72 -30,-25 -83,-25 h -86 z m 0,-326 h 64 q 43,0 67,-22 24,-21 24,-61 0,-38 -24,-59 -23,-22 -67,-22 h -64 z m 520,456 v -750 h 151 v 612 h 284 v 138 z m 579,0 v -750 h 151 v 750 z m 336,-222 q -29,-73 -29,-153 0,-80 29,-152 29,-73 80,-127 52,-54 126,-86 75,-32 161,-32 86,0 161,32 75,32 126,86 51,54 80,127 29,72 29,152 0,94 -39,176 -39,82 -108,137 l 45,43 q 79,72 156,71 32,0 54,-8 v 129 q -35,14 -79,13 -121,0 -233,-98 l -89,-80 q -49,13 -103,13 -86,0 -161,-32 -74,-32 -126,-85 -51,-54 -80,-126 z m 195,-334 q -68,73 -69,181 0,108 69,181 68,73 173,73 69,0 123,-33 55,-33 86,-92 31,-58 31,-129 0,-108 -69,-181 -68,-73 -172,-73 -105,0 -173,73 z m 710,263 v -457 h 152 v 469 q 0,75 40,118 40,42 111,42 70,0 110,-42 40,-42 40,-118 v -469 h 152 v 457 q 0,148 -81,231 -81,84 -222,83 -140,0 -221,-83 -81,-84 -81,-231 z m 803,293 v -750 h 435 v 130 h -284 v 173 h 241 v 130 h -241 v 187 h 284 v 130 z M 1000,4335 v -750 h 435 v 130 h -283 v 173 h 241 v 130 h -241 v 317 z m 579,0 v -750 h 228 q 123,0 195,60 71,60 71,164 0,67 -31,117 -31,50 -88,77 l 234,332 h -181 l -199,-303 h -77 v 303 z m 152,-432 h 85 q 48,0 75,-25 27,-25 26,-71 0,-43 -26,-68 -26,-25 -75,-24 h -85 z m 500,432 283,-750 h 198 l 283,750 h -161 l -72,-195 h -299 l -71,195 z m 279,-325 h 206 l -103,-281 z m 611,325 v -750 h 194 l 334,537 v -537 h 151 v 750 h -194 l -334,-539 v 539 z m 836,-375 q 0,-80 29,-152 29,-73 80,-127 52,-54 126,-85 75,-32 162,-32 99,0 180,40 82,41 134,112 l -119,93 q -33,-47 -83,-75 -50,-28 -112,-28 -105,0 -173,73 -68,73 -69,181 0,108 69,182 68,73 173,72 62,0 112,-27 50,-28 83,-76 l 119,92 q -44,61 -110,100 -66,39 -146,49 l -93,156 h -134 l 94,-158 q -95,-17 -169,-73 -74,-56 -114,-139 -40,-83 -39,-178 z m 755,375 283,-750 h 198 l 283,750 h -161 l -71,-195 h -299 l -72,195 z m 280,-325 h 205 l -103,-281 z m 610,325 v -750 h 152 v 750 z m 304,-104 110,-101 q 34,44 76,68 43,24 89,24 45,0 70,-23 26,-23 26,-64 0,-24 -14,-44 -15,-20 -39,-33 -24,-14 -55,-28 -31,-15 -63,-29 -32,-14 -62,-34 -31,-20 -55,-44 -24,-24 -39,-61 -15,-37 -15,-81 0,-91 68,-154 68,-63 172,-63 156,0 261,126 l -111,100 q -72,-94 -149,-94 -38,0 -63,23 -25,23 -24,56 0,21 12,39 12,17 31,31 20,13 46,26 l 53,25 q 29,13 57,26 29,14 54,34 26,19 46,44 20,24 31,57 12,34 12,75 -2,102 -73,163 -70,61 -175,61 -92,0 -159,-31 -67,-32 -118,-94 z m 694,104 v -750 h 435 v 130 h -283 v 173 h 241 v 130 h -241 v 187 h 283 v 130 z"
     id="path843"
     style="fill:#000000;fill-opacity:1" />
  <!-- devise -->
  <path
     d="m 3484,6391 c 22,0 41,17 31,56 l -101,27 c 16,-48 46,-83 70,-83 m 56,164 h -20 c -25,30 -53,54 -80,54 -28,0 -42,-17 -42,-54 0,-15 2,-31 5,-45 l 164,-54 c 32,-76 -7,-109 -52,-109 -78,0 -166,136 -166,243 0,51 24,79 62,79 45,0 91,-43 129,-114 m -26,-244 93,-85 v -12 h -62 l -55,98 h 24 z m -349,82 h 54 l -86,236 c -8,20 3,40 24,40 61,0 134,-52 162,-126 h -15 c -22,31 -70,65 -106,72 l 79,-222 h 81 l 10,-34 h -79 l 30,-85 h -31 l -56,85 -67,9 z m -56,-12 c 7,-22 -8,-34 -19,-34 -47,0 -104,43 -126,102 h 15 c 15,-22 41,-46 66,-50 l -91,236 c -8,22 8,34 20,34 45,0 98,-43 120,-102 h -15 c -15,22 -41,46 -66,50 z m 9,-94 c 20,0 37,-17 37,-37 0,-20 -17,-37 -37,-37 -10,0 -19,4 -26,11 -7,7 -11,16 -11,26 0,21 16,37 37,37 m -439,126 c 14,0 22,22 0,71 l -64,142 c -12,27 1,44 27,44 16,0 23,-4 30,-21 l 63,-166 c 29,-36 83,-74 107,-74 17,0 15,14 4,36 l -97,185 c -9,18 3,40 24,40 47,0 104,-43 126,-102 h -17 c -15,22 -41,46 -66,50 l 83,-168 c 11,-21 16,-41 16,-57 0,-27 -15,-45 -44,-45 -41,0 -76,46 -126,103 v -44 c 0,-31 -10,-59 -38,-59 -33,0 -63,52 -87,102 h 15 c 17,-24 32,-37 44,-37 m -65,6 c 11,-39 5,-72 -24,-72 -37,0 -49,25 -85,103 v -44 c 0,-31 -10,-59 -38,-59 -33,0 -63,52 -87,102 h 15 c 16,-23 31,-37 43,-37 14,0 22,22 0,71 l -64,142 c -12,27 1,44 27,44 16,0 23,-4 30,-21 l 61,-166 c 18,-22 34,-41 54,-62 h 68 z m -349,-28 c 22,0 41,17 31,56 l -101,27 c 17,-48 46,-83 70,-83 m 56,164 h -20 c -25,30 -53,54 -80,54 -28,0 -42,-17 -42,-54 0,-15 2,-31 5,-45 l 164,-54 c 32,-76 -6,-109 -52,-109 -78,0 -166,136 -166,243 0,51 24,79 62,79 45,0 91,-43 129,-114 m -375,-162 h 54 l -86,236 c -8,20 3,40 24,40 61,0 135,-52 162,-126 h -15 c -22,31 -70,65 -106,72 l 79,-222 h 81 l 10,-34 h -79 l 30,-85 h -31 l -56,85 -67,9 z m -287,184 c 0,-73 81,-172 127,-172 10,0 20,1 28,4 l -47,126 c -27,33 -69,73 -89,73 -12,0 -19,-9 -19,-31 m 249,-244 -25,-2 -28,28 h -5 c -119,0 -247,148 -247,265 0,27 15,45 44,45 35,0 69,-50 108,-103 l -2,19 c -5,54 12,84 40,84 33,0 63,-52 86,-102 h -15 c -16,23 -31,37 -43,37 -12,0 -21,-23 0,-71 z m -255,86 c 11,-39 5,-72 -24,-72 -37,0 -49,25 -85,103 v -44 c 0,-31 -10,-59 -39,-59 -33,0 -63,52 -86,102 h 15 c 16,-23 31,-37 43,-37 14,0 22,22 0,71 l -65,143 c -12,27 1,44 27,44 16,0 23,-4 30,-21 l 63,-167 c 18,-22 34,-41 54,-62 h 67 z m -419,239 6,-18 c -79,-15 -89,-15 -57,-101 l 30,-81 h 63 c 39,0 40,17 34,60 h 23 l 52,-143 h -23 c -20,34 -35,60 -78,60 h -63 l 43,-117 c 15,-42 22,-50 76,-50 h 14 c 55,0 62,15 62,73 h 22 l 18,-97 h -305 l -6,18 c 63,13 69,19 40,101 l -65,177 c -30,81 -42,88 -115,101 l -5,18 h 234 z m 1513,-956 c 22,0 41,17 31,56 l -101,27 c 16,-48 46,-83 70,-83 m 56,164 h -20 c -25,30 -53,54 -80,54 -28,0 -42,-17 -42,-54 0,-15 2,-31 5,-45 l 164,-54 c 32,-76 -7,-109 -52,-109 -78,0 -166,136 -166,243 0,51 24,79 62,79 45,1 91,-43 129,-114 m -26,-244 93,-85 v -12 h -62 l -55,98 h 24 z m -349,82 h 54 l -86,236 c -8,20 3,40 24,40 61,0 134,-52 162,-126 h -15 c -22,31 -70,65 -106,72 l 79,-222 h 81 l 10,-34 h -79 l 30,-85 h -31 l -56,85 -67,10 z m -56,-11 c 7,-22 -8,-34 -20,-34 -47,0 -104,43 -126,102 h 15 c 15,-22 41,-46 66,-50 l -91,236 c -8,22 8,34 20,34 45,0 98,-43 120,-102 h -15 c -15,22 -41,46 -66,50 z m 9,-94 c 20,0 37,-17 37,-37 0,-20 -17,-37 -37,-37 -13,0 -25,7 -32,18 -7,11 -7,26 0,38 7,11 19,19 32,18 m -290,330 150,-398 -5,-7 -104,12 v 12 l 20,15 c 18,14 12,27 -4,72 l -114,304 c -10,18 3,40 24,40 47,0 98,-43 120,-102 h -15 c -16,23 -48,47 -72,52 m -306,-41 c 0,-73 81,-172 127,-172 10,0 19,1 28,4 l -48,126 c -27,33 -69,73 -89,73 -11,1 -18,-9 -18,-31 m 249,-243 -25,-2 -28,28 h -5 c -119,0 -247,148 -247,265 0,27 15,45 44,45 35,0 69,-50 108,-103 l -2,19 c -5,54 12,84 40,84 33,0 63,-52 86,-102 h -15 c -16,23 -31,37 -43,37 -12,0 -21,-23 0,-70 z m -579,393 c 0,-31 30,-51 73,-68 14,7 36,15 64,24 45,15 62,21 62,34 0,29 -41,51 -116,51 -56,1 -83,-11 -83,-41 m 123,-191 c -20,0 -27,-17 -27,-36 0,-59 28,-130 73,-130 20,0 27,17 27,36 0,58 -29,130 -73,130 m 128,162 c 0,-38 -34,-52 -89,-68 -47,-14 -69,-18 -69,-34 0,-12 10,-27 30,-38 78,-4 127,-74 127,-136 0,-11 -2,-21 -5,-30 h 53 l 10,-34 h -90 c -12,-8 -27,-12 -44,-12 -82,0 -135,72 -135,136 0,41 24,69 62,74 -38,18 -60,37 -60,61 0,14 5,24 17,33 -88,26 -124,59 -124,97 0,41 54,58 118,58 108,1 199,-58 199,-107 m -408,-240 c 39,0 40,17 34,60 h 23 l 52,-143 h -23 c -20,34 -35,60 -78,60 h -87 l 43,-117 c 15,-42 23,-50 76,-50 h 38 c 55,0 62,15 62,73 h 22 l 18,-97 h -327 l -6,18 c 63,13 69,19 40,101 l -65,177 c -30,81 -42,88 -115,101 l -5,18 h 364 l 65,-103 h -25 c -42,42 -85,79 -166,79 -97,0 -88,-5 -56,-95 l 30,-81 h 86 z m 47,-244 93,-68 v -12 h -62 l -55,80 z m 1390,-511 c 22,0 41,17 31,56 l -101,27 c 16,-49 46,-83 70,-83 m 56,164 h -20 c -25,30 -53,54 -80,54 -28,0 -42,-17 -42,-54 0,-15 2,-31 5,-45 l 164,-54 c 32,-76 -7,-109 -52,-109 -78,0 -166,136 -166,243 0,51 24,79 62,79 45,0 91,-43 129,-114 m -26,-244 93,-85 v -12 h -62 l -55,98 h 24 z m -349,81 h 55 l -86,236 c -8,20 3,40 24,40 61,0 135,-52 162,-126 h -15 c -22,31 -70,65 -106,72 l 79,-222 h 81 l 10,-34 h -79 l 30,-85 h -31 l -56,85 -67,9 v 25 z m -28,27 c 11,-39 5,-72 -24,-72 -37,0 -49,25 -85,103 v -44 c 0,-31 -10,-59 -38,-59 -33,0 -63,52 -87,102 h 15 c 16,-23 31,-37 43,-37 14,0 22,22 0,71 l -64,142 c -12,27 1,44 27,44 16,0 23,-4 30,-21 l 63,-166 c 18,-22 34,-41 54,-62 h 66 z m -349,-28 c 22,0 41,17 31,56 l -101,27 c 16,-49 46,-83 70,-83 m 56,164 h -20 c -25,30 -53,54 -80,54 -28,0 -42,-17 -42,-54 0,-15 2,-31 5,-45 l 164,-54 c 32,-76 -6,-109 -52,-109 -78,0 -166,136 -166,243 0,51 24,79 62,79 45,0 91,-43 129,-114 m -382,66 c -16,0 -39,-15 -39,-28 0,-4 7,-23 16,-46 l 26,-70 c 28,-34 72,-71 97,-71 15,0 26,10 26,31 -1,66 -61,184 -126,184 m 182,-209 c 0,-48 -12,-66 -46,-66 -42,0 -81,45 -121,99 l 84,-226 -5,-7 -104,12 v 12 l 20,15 c 18,14 12,28 -4,72 l -91,239 c -8,20 -17,44 -17,50 0,28 38,55 73,55 79,2 211,-143 211,-255 m -307,-31 c 6,-22 -8,-34 -20,-34 -47,0 -104,43 -126,102 h 15 c 15,-22 41,-46 66,-50 l -91,236 c -8,22 8,34 20,34 45,0 98,-43 120,-102 h -15 c -15,22 -41,46 -66,50 z m 10,-94 c 20,0 37,-17 37,-37 0,-20 -17,-37 -37,-37 -13,0 -25,7 -32,18 -7,11 -7,26 0,38 7,11 19,19 32,18 m -231,-45 h -216 l -6,18 c 63,13 69,19 40,101 l -65,177 c -30,81 -42,88 -115,101 l -5,18 h 328 l 71,-127 h -25 c -41,45 -88,102 -161,102 -55,0 -63,-10 -32,-95 l 65,-177 c 30,-81 42,-88 115,-101 z"
     id="path845"
     style="fill:#000000;fill-opacity:1" />
  <path
     d="m 9662.2181,2519.5626 h -302.9194 c -12.0823,0 -21.8828,9.8179 -21.8828,21.9293 v 1752.5747 c 0,12.1197 9.8005,21.9296 21.8828,21.9296 h 302.9194 c 12.0731,0 21.8814,-9.8099 21.8814,-21.9296 V 2541.4919 c 0,-12.1114 -9.8083,-21.9293 -21.8814,-21.9293"
     style="fill:#00a3a6;fill-opacity:1;fill-rule:nonzero;stroke:none;stroke-width:2.39402"
     id="path958-3" />
  <path
     d="m 11369.212,2519.5626 h -301.731 c -12.111,0 -21.89,9.8179 -21.89,21.9293 v 1172.1165 l -742.167,-1183.7778 c -3.993,-6.4064 -11.008,-10.268 -18.518,-10.268 h -304.1343 c -12.073,0 -21.8909,9.8179 -21.8909,21.9293 v 1752.5747 c 0,12.1197 9.8179,21.9296 21.8909,21.9296 h 304.1343 c 12.083,0 21.903,-9.8099 21.903,-21.9296 V 3126.699 l 739.744,1179.0571 c 3.993,6.3593 10.979,10.2401 18.506,10.2401 h 304.153 c 12.064,0 21.884,-9.8099 21.884,-21.9296 V 2541.4919 c 0,-12.1114 -9.82,-21.9293 -21.884,-21.9293"
     style="fill:#00a3a6;fill-opacity:1;fill-rule:nonzero;stroke:none;stroke-width:2.39402"
     id="path960-2" />
  <path
     d="m 12527.372,3280.4864 c -53.291,47.8062 -129.254,72.0361 -225.829,72.0361 h -290.658 v -543.5823 h 298.774 c 99.52,1.5322 174.836,26.2314 223.77,73.317 48.574,46.8607 73.185,114.8461 73.185,202.1083 0,84.1069 -25.903,148.2595 -79.242,196.1209 m 114.865,278.6141 c 93.894,-43.4372 169.018,-104.0084 223.482,-180.2437 58.917,-82.5364 88.794,-185.8816 88.794,-307.2658 0,-177.9454 -58.079,-316.2003 -172.609,-410.8576 -113.357,-93.6662 -275.336,-141.1708 -481.558,-141.1708 h -615.458 c -12.111,0 -21.893,9.8179 -21.893,21.9101 v 1752.5939 c 0,12.0917 9.782,21.9109 21.893,21.9109 h 304.116 c 12.065,0 21.881,-9.8192 21.881,-21.9109 v -652.1568 h 303.849 l 344.907,662.2847 c 3.759,7.2474 11.228,11.783 19.368,11.783 h 325.803 c 12.09,0 21.881,-9.8192 21.881,-21.9109 v -15.6079 c 0,-3.6566 -0.909,-7.2007 -2.657,-10.4085 l -381.799,-708.9497"
     style="fill:#00a3a6;fill-opacity:1;fill-rule:nonzero;stroke:none;stroke-width:2.39402"
     id="path962-6" />
  <path
     d="m 16383.33,3419.4906 c 0,-123.1534 -26.238,-244.3676 -74.143,-357.0926 -8.786,-12.9445 -17.5,-5.377 -20.588,-1.7956 l -182.497,286.4785 c -16.327,28.4841 -28.249,48.3378 -31.433,119.7371 -0.192,4.9676 -0.431,8.9776 -1.173,12.5615 -30.165,308.7429 -291.137,550.829 -607.651,550.829 -59.276,0 -118.145,-8.6209 -174.98,-25.6592 -96.67,-28.9724 -185.608,-82.2012 -257.19,-153.9572 -2.561,-2.5712 -5.051,-5.1424 -7.541,-7.7615 389.221,-171.7903 715.047,-471.005 919.808,-845.4184 44.768,-81.8924 83.911,-167.7301 116.326,-255.2245 3.184,-8.6496 0.622,-18.4149 -6.464,-24.3616 -68.134,-57.4015 -143.785,-104.4202 -224.847,-139.7607 C 15715.254,2527.585 15592.441,2502 15465.845,2502 c -0.192,0 -0.36,0.036 -0.527,0.036 -0.168,0 -0.335,-0.036 -0.503,-0.036 -313.88,0 -591.228,159.0159 -756.392,400.6519 -100.86,147.29 -160.088,325.2234 -160.088,516.8387 0,86.8217 12.257,172.7336 36.509,255.7296 -41.68,8.7717 -83.911,15.9083 -125.998,21.3499 l -439.447,-1162.8684 c -3.184,-8.5012 -11.371,-14.1223 -20.445,-14.1223 h -272.895 c -9.097,0 -17.26,5.6211 -20.468,14.1606 l -661.158,1752.5927 c -2.538,6.7145 -1.628,14.2614 2.466,20.1996 4.094,5.9383 10.797,9.4639 17.955,9.4639 h 316.203 c 9.265,0 17.572,-5.9103 20.684,-14.7289 l 106.103,-304.7715 h 709.038 l 3.28,9.5498 103.111,295.2497 c 3.088,8.7906 11.371,14.7009 20.66,14.7009 h 317.352 c 7.182,0 13.933,-3.5256 18.003,-9.4639 4.07,-5.9382 5.004,-13.4851 2.49,-20.1996 l -115.703,-306.1258 c 49.317,-8.2019 98.538,-18.4699 146.873,-30.44 1.389,-0.3567 2.777,-0.6081 4.19,-0.9361 1.316,1.8889 2.657,3.8353 4.021,5.705 60.138,83.5754 133.276,156.0327 217.426,215.3688 154.989,109.2929 336.935,167.0955 526.23,167.0955 v -0.056 c 0.335,0 0.67,0.056 1.03,0.056 505.881,0 917.485,-411.5948 917.485,-917.5095 m -918.204,-610.6725 c 76.489,0.036 151.039,14.2038 221.998,42.2306 -178.57,329.5805 -464.584,588.5948 -809.347,732.9927 -15.035,-53.5567 -22.648,-108.7964 -22.648,-164.5508 0,-336.5208 273.589,-610.2894 609.997,-610.6725 m -1350.109,895.9635 2.322,6.6578 h -510.191 l 40.316,-115.8492 214.456,-615.6831 253.097,724.8745"
     style="fill:#00a3a6;fill-opacity:1;fill-rule:nonzero;stroke:none;stroke-width:2.39402"
     id="path964-8" />
</svg>
