<?xml version="1.0" encoding="UTF-8" standalone="no"?>
<!-- Created with Inkscape (http://www.inkscape.org/) -->

<svg
   width="109.99999mm"
   height="40mm"
   viewBox="0 0 109.99999 40"
   version="1.1"
   id="svg5"
   xml:space="preserve"
   inkscape:version="1.2.1 (9c6d41e, 2022-07-14)"
   sodipodi:docname="logo_smash.svg"
   inkscape:export-filename="logo_smash_dark.svg"
   inkscape:export-xdpi="96"
   inkscape:export-ydpi="96"
   xmlns:inkscape="http://www.inkscape.org/namespaces/inkscape"
   xmlns:sodipodi="http://sodipodi.sourceforge.net/DTD/sodipodi-0.dtd"
   xmlns="http://www.w3.org/2000/svg"
   xmlns:svg="http://www.w3.org/2000/svg"><sodipodi:namedview
     id="namedview7"
     pagecolor="#ffffff"
     bordercolor="#000000"
     borderopacity="0.25"
     inkscape:showpageshadow="2"
     inkscape:pageopacity="0.0"
     inkscape:pagecheckerboard="0"
     inkscape:deskcolor="#d1d1d1"
     inkscape:document-units="mm"
     showgrid="false"
     inkscape:zoom="2.1417558"
     inkscape:cx="338.97422"
     inkscape:cy="105.5209"
     inkscape:window-width="1846"
     inkscape:window-height="1016"
     inkscape:window-x="74"
     inkscape:window-y="27"
     inkscape:window-maximized="1"
     inkscape:current-layer="layer2" /><defs
     id="defs2"><inkscape:path-effect
       effect="bspline"
       id="path-effect1467"
       is_visible="true"
       lpeversion="1"
       weight="33.333333"
       steps="2"
       helper_size="0"
       apply_no_weight="true"
       apply_with_weight="true"
       only_selected="false"
       uniform="false" /><inkscape:path-effect
       effect="bspline"
       id="path-effect857"
       is_visible="true"
       lpeversion="1"
       weight="33.333333"
       steps="2"
       helper_size="0"
       apply_no_weight="true"
       apply_with_weight="true"
       only_selected="false"
       uniform="false" /><style
       id="style177">.cls-1{fill:#130754;}.cls-2{fill:#ffca00;}.cls-3{fill:#e70488;}</style></defs><g
     inkscape:groupmode="layer"
     id="layer2"
     inkscape:label="Calque 1"
     transform="translate(-5.8615262,-132.30925)"><path
       id="text3313"
       style="font-style:normal;font-variant:normal;font-weight:bold;font-stretch:normal;font-size:74.6667px;font-family:Ubuntu;-inkscape-font-specification:'Ubuntu Bold';white-space:pre;display:inline;fill:#000000;fill-opacity:1"
       d="m 356.82976,659.79645 -11.125,1.79101 v 56.15039 h 11.125 v -29.86719 c 0.69689,-0.19911 1.46823,-0.3741 2.31446,-0.52343 0.896,-0.19911 1.84233,-0.29688 2.83789,-0.29688 2.48888,0 4.18212,0.74495 5.07812,2.23828 0.94578,1.49334 1.41797,4.03319 1.41797,7.61719 v 20.83203 h 11.125 v -22.17578 c 0,-2.688 -0.27276,-5.12814 -0.82031,-7.31836 -0.49778,-2.19022 -1.39523,-4.08094 -2.68945,-5.67383 -1.24445,-1.59288 -2.93573,-2.81198 -5.07618,-3.6582 -2.09066,-0.896 -4.72828,-1.3457 -7.91406,-1.3457 -1.09511,0 -2.24088,0.12611 -3.43555,0.375 -1.14488,0.19911 -2.09122,0.42298 -2.83789,0.67187 z m -175.0918,17.62109 c -4.77866,0 -8.53761,1.07049 -11.27539,3.21094 -2.73777,2.14044 -4.10742,5.05277 -4.10742,8.73633 0,1.89155 0.27471,3.50951 0.82227,4.85351 0.54755,1.344 1.3189,2.51226 2.31445,3.50781 0.99556,0.94578 2.19021,1.76796 3.58398,2.46485 1.44356,0.69689 3.03708,1.36851 4.7793,2.01562 2.24,0.84622 3.90684,1.61757 5.00195,2.31446 1.09512,0.64711 1.64258,1.41845 1.64258,2.31445 0,1.14489 -0.42331,1.91623 -1.26953,2.31445 -0.84622,0.39822 -2.28919,0.59766 -4.33008,0.59766 -1.94133,0 -3.90732,-0.19944 -5.89843,-0.59766 -1.99111,-0.448 -3.93267,-1.04435 -5.82422,-1.79101 l -1.86719,9.03515 c 0.896,0.39822 2.48952,0.89486 4.7793,1.49219 2.33955,0.59733 5.25188,0.89648 8.73632,0.89648 5.32622,0 9.43125,-0.99521 12.31836,-2.98632 2.93689,-1.99111 4.40625,-4.92789 4.40625,-8.81055 0,-1.64267 -0.19943,-3.08759 -0.59765,-4.33203 -0.34845,-1.24445 -0.99563,-2.36382 -1.94141,-3.35938 -0.896,-1.04533 -2.13953,-1.99167 -3.73242,-2.83789 -1.59289,-0.896 -3.60972,-1.7915 -6.04883,-2.6875 -1.19466,-0.448 -2.18988,-0.84687 -2.98633,-1.19531 -0.74666,-0.39822 -1.34497,-0.74626 -1.79297,-1.04492 -0.448,-0.34845 -0.74519,-0.69648 -0.89453,-1.04492 -0.14933,-0.34845 -0.22461,-0.74732 -0.22461,-1.19532 0,-1.94133 1.74212,-2.91211 5.22657,-2.91211 1.89155,0 3.58479,0.175 5.07812,0.52344 1.54311,0.34845 2.96164,0.74731 4.25586,1.19531 l 1.94141,-8.66211 c -1.29422,-0.49777 -3.03634,-0.94552 -5.22657,-1.34375 -2.19022,-0.448 -4.4798,-0.67187 -6.86914,-0.67187 z m 100.57422,0 c -1.29422,0 -2.58663,0.0753 -3.88086,0.22461 -1.24444,0.0996 -2.44104,0.24815 -3.58593,0.44726 -1.14489,0.14934 -2.21343,0.34877 -3.20899,0.59766 -0.94577,0.19911 -1.74351,0.39855 -2.39062,0.59766 l 1.41992,8.95898 c 1.344,-0.49778 2.93557,-0.87025 4.77734,-1.11914 1.84178,-0.29867 3.71001,-0.44922 5.60157,-0.44922 2.83733,0 4.82776,0.57386 5.97265,1.71875 1.14489,1.14489 1.7168,2.66314 1.7168,4.55469 v 1.04492 c -0.69689,-0.19911 -1.61683,-0.34966 -2.76172,-0.44922 -1.09511,-0.14933 -2.36504,-0.22265 -3.80859,-0.22265 -2.14045,0 -4.20616,0.22387 -6.19727,0.67187 -1.99111,0.39822 -3.75767,1.06985 -5.30078,2.01563 -1.54311,0.94577 -2.7886,2.2157 -3.73438,3.80859 -0.896,1.59289 -1.34375,3.53444 -1.34375,5.82422 0,2.38933 0.39887,4.40421 1.19532,6.04687 0.79644,1.64267 1.94026,2.98787 3.43359,4.03321 1.49333,0.99555 3.26185,1.71606 5.30274,2.16406 2.09066,0.448 4.40469,0.67188 6.94335,0.67188 4.032,0 7.46736,-0.24832 10.30469,-0.7461 2.83733,-0.448 5.05165,-0.84687 6.64453,-1.19531 v -23.14649 c 0,-2.43911 -0.27471,-4.65342 -0.82226,-6.64453 -0.54756,-1.99111 -1.49194,-3.68435 -2.83594,-5.07812 -1.29422,-1.39378 -3.03634,-2.46427 -5.22656,-3.21094 -2.19022,-0.74667 -4.92951,-1.11914 -8.21485,-1.11914 z m 41.29102,0 c -4.77866,0 -8.53566,1.07049 -11.27344,3.21094 -2.73777,2.14044 -4.10742,5.05277 -4.10742,8.73633 0,1.89155 0.27471,3.50951 0.82227,4.85351 0.54755,1.344 1.31889,2.51226 2.31445,3.50781 0.99555,0.94578 2.19021,1.76796 3.58398,2.46485 1.44356,0.69689 3.03513,1.36851 4.77735,2.01562 2.24,0.84622 3.90879,1.61757 5.0039,2.31446 1.09511,0.64711 1.64258,1.41845 1.64258,2.31445 0,1.14489 -0.42331,1.91623 -1.26953,2.31445 -0.84622,0.39822 -2.28919,0.59766 -4.33008,0.59766 -1.94133,0 -3.90928,-0.19944 -5.90039,-0.59766 -1.99111,-0.448 -3.93071,-1.04435 -5.82226,-1.79101 l -1.86719,9.03515 c 0.896,0.39822 2.48757,0.89486 4.77734,1.49219 2.33956,0.59733 5.25189,0.89648 8.73633,0.89648 5.32622,0 9.4332,-0.99521 12.32031,-2.98632 2.93689,-1.99111 4.40625,-4.92789 4.40625,-8.81055 0,-1.64267 -0.19943,-3.08759 -0.59765,-4.33203 -0.34845,-1.24445 -0.99563,-2.36382 -1.94141,-3.35938 -0.896,-1.04533 -2.14149,-1.99167 -3.73437,-2.83789 -1.59289,-0.896 -3.60777,-1.7915 -6.04688,-2.6875 -1.19467,-0.448 -2.18988,-0.84687 -2.98633,-1.19531 -0.74666,-0.39822 -1.34497,-0.74626 -1.79297,-1.04492 -0.448,-0.34845 -0.74715,-0.69648 -0.89648,-1.04492 -0.14933,-0.34845 -0.22266,-0.74732 -0.22266,-1.19532 0,-1.94133 1.74212,-2.91211 5.22657,-2.91211 1.89155,0 3.58284,0.175 5.07617,0.52344 1.54311,0.34845 2.96164,0.74731 4.25586,1.19531 l 1.9414,-8.66211 c -1.29422,-0.49777 -3.03634,-0.94552 -5.22656,-1.34375 -2.19022,-0.448 -4.47981,-0.67187 -6.86914,-0.67187 z m -103.63672,0.14844 c -1.44355,0 -2.91292,0.0753 -4.40625,0.22461 -1.49333,0.0996 -2.96074,0.27455 -4.4043,0.52343 -1.39377,0.19911 -2.73898,0.44743 -4.0332,0.7461 -1.24444,0.24889 -2.33938,0.4972 -3.28516,0.74609 v 37.93164 h 11.12696 V 687.4234 c 0.69689,-0.0996 1.41739,-0.17483 2.16406,-0.22461 0.74667,-0.0996 1.46913,-0.14844 2.16602,-0.14844 2.23999,0 3.80712,0.74495 4.70312,2.23828 0.94578,1.49334 1.41992,4.03319 1.41992,7.61719 v 20.83203 h 11.125 v -21.42969 c 0,-1.44355 -0.0508,-2.7868 -0.15039,-4.03125 -0.0995,-1.29422 -0.32343,-2.51526 -0.67187,-3.66015 0.69689,-0.448 1.56795,-0.82048 2.61328,-1.11914 1.09511,-0.29867 1.94173,-0.44727 2.53906,-0.44727 2.24,0 3.80908,0.74495 4.70508,2.23828 0.94578,1.49334 1.41797,4.03319 1.41797,7.61719 v 20.83203 h 11.125 v -22.17578 c 0,-2.688 -0.22388,-5.12814 -0.67188,-7.31836 -0.448,-2.19022 -1.26822,-4.08094 -2.46289,-5.67383 -1.19466,-1.59288 -2.81263,-2.81198 -4.85351,-3.6582 -1.99111,-0.896 -4.55541,-1.3457 -7.69141,-1.3457 -1.74222,0 -3.65933,0.32359 -5.75,0.9707 -2.04089,0.64711 -3.85633,1.54457 -5.44922,2.68945 -1.14489,-0.99555 -2.61425,-1.84217 -4.40625,-2.53906 -1.74222,-0.74667 -4.03181,-1.12109 -6.86914,-1.12109 z m 64.28711,23.22265 c 0.74667,0 1.56884,0.0489 2.46484,0.14844 0.896,0.0996 1.56763,0.19927 2.01563,0.29883 v 8.4375 c -0.59733,0.0996 -1.39312,0.17483 -2.38867,0.22461 -0.99556,0.0498 -2.04161,0.0742 -3.13672,0.0742 -2.04089,0 -3.65885,-0.32359 -4.85352,-0.97071 -1.14489,-0.69688 -1.71679,-1.91598 -1.71679,-3.6582 0,-0.896 0.19943,-1.6429 0.59765,-2.24023 0.39822,-0.59734 0.94569,-1.07148 1.64258,-1.41993 0.69689,-0.34844 1.49267,-0.57231 2.38867,-0.67187 0.94578,-0.14933 1.941,-0.22266 2.98633,-0.22266 z"
       transform="matrix(0.26458333,0,0,0.26458333,8.9012185,-30.258489)" /><path
       style="fill:#000000;fill-opacity:1;stroke-width:0.264583"
       d="m 33.930325,176.18907 c -0.06359,0.0986 -0.190744,0.2956 -0.303197,0.54127 -0.112453,0.24566 -0.210193,0.53983 -0.234412,0.80566 -0.02422,0.26583 0.02496,0.50315 0.190039,0.67162 0.165076,0.16847 0.445769,0.26826 0.888382,0.31094 0.442612,0.0427 1.047174,0.0283 1.805101,0.0263 0.757928,-0.002 1.669162,0.008 2.473031,0.0467 0.803868,0.0384 1.500308,0.10502 1.98983,0.19381 0.489523,0.0888 0.77207,0.19968 0.926745,0.35642 0.154675,0.15674 0.181751,0.35915 -0.0034,0.54014 -0.185173,0.18099 -0.582678,0.3409 -1.147903,0.6168 -0.565224,0.27589 -1.298094,0.66775 -2.003728,1.05771 -0.705635,0.38996 -1.383987,0.77799 -1.788139,1.12798 -0.404153,0.34999 -0.533949,0.66174 -0.537329,0.89903 -0.0034,0.2373 0.119379,0.39996 0.283756,0.58005 0.164378,0.18009 0.370322,0.37765 0.83147,0.59845 0.461147,0.22079 1.177423,0.46497 1.852985,0.66592 0.675561,0.20094 1.310376,0.35868 2.150251,0.56302 0.839874,0.20434 1.884753,0.45527 3.018457,0.71485 1.133703,0.25958 2.35616,0.5278 3.271901,0.77906 0.915742,0.25126 1.5247,0.48548 2.012301,0.70704 0.4876,0.22155 0.853817,0.43036 1.090823,0.62033 0.237006,0.18996 0.344904,0.36093 0.375254,0.57249 0.03035,0.21156 -0.01662,0.4638 -0.380149,0.81667 -0.363531,0.35286 -1.043702,0.80658 -1.820952,1.18134 -0.77725,0.37475 -1.651634,0.67053 -2.67634,0.90077 -1.024707,0.23024 -2.199737,0.39491 -3.559058,0.53901 -1.35932,0.14411 -2.902865,0.26763 -4.299528,0.32111 -1.396664,0.0535 -2.646395,0.0369 -3.610211,0.11442 -0.963815,0.0775 -1.641579,0.24928 -2.335475,0.43745 -0.693895,0.18818 -1.403868,0.3928 -1.831538,0.53631 -0.427669,0.1435 -0.572881,0.22586 -1.487825,0.27151 -0.914945,0.0456 -2.599704,0.0545 -3.462299,0.0407 -0.862595,-0.0138 -0.903018,-0.0506 -0.928439,-0.1141 -0.02542,-0.0635 -0.03558,-0.15366 -0.03319,-0.52299 0.0024,-0.36932 0.01736,-1.01771 0.02105,-1.92279 0.0037,-0.90509 -0.0039,-2.06681 -0.0036,-3.59633 3.5e-4,-1.52952 0.0087,-3.42673 0.0184,-5.15151 0.0097,-1.72478 0.0209,-3.27702 0.01016,-4.07208 -0.01075,-0.79505 -0.04362,-0.83286 0.07244,-0.88445 0.116058,-0.0516 0.381089,-0.1166 0.76577,-0.22625 0.384681,-0.10965 0.888988,-0.26394 1.562175,-0.45267 0.673188,-0.18874 1.515199,-0.41193 2.272583,-0.60072 0.757384,-0.18879 1.430088,-0.34319 2.044952,-0.45113 0.614864,-0.10794 1.171798,-0.16945 1.592611,-0.20478 0.420813,-0.0353 0.70545,-0.0445 0.847644,-0.0491 0.142193,-0.005 0.142194,-0.005 0.0786,0.0939 z"
       id="path1465"
       inkscape:path-effect="#path-effect1467"
       inkscape:original-d="m 33.99392,176.09051 c -0.126883,0.19731 -0.254034,0.39436 -0.381447,0.59115 -0.09748,0.29445 -0.19522,0.58862 -0.293227,0.88253 0.04945,0.2376 0.09863,0.47492 0.147555,0.71198 0.280975,0.10007 0.561671,0.19986 0.842108,0.2994 0.604848,-0.014 1.209408,-0.0284 1.813716,-0.043 0.911538,0.0106 1.822773,0.0208 2.733763,0.0309 0.69673,0.0668 1.393166,0.13341 2.089353,0.19972 0.282824,0.11117 0.565373,0.22206 0.847662,0.33269 0.02734,0.20268 0.05441,0.40509 0.08123,0.60724 -0.397256,0.16018 -0.794761,0.32009 -1.192538,0.47974 -0.732631,0.39214 -1.465501,0.784 -2.198645,1.1756 -0.678114,0.38831 -1.356466,0.77634 -2.035093,1.16411 -0.12954,0.31203 -0.259337,0.62378 -0.389401,0.93528 0.123029,0.16293 0.245785,0.32559 0.368279,0.48798 0.206217,0.19783 0.412158,0.39539 0.617839,0.59268 0.716569,0.24445 1.432843,0.48863 2.148869,0.73254 0.635106,0.15801 1.269921,0.31575 1.904485,0.47323 1.045186,0.2512 2.090065,0.50213 3.134701,0.7528 1.222772,0.2685 2.445231,0.53671 3.66745,0.80468 0.609251,0.2345 1.218211,0.46872 1.826919,0.70269 0.366495,0.20909 0.732713,0.4179 1.098674,0.62645 0.108167,0.17125 0.216067,0.34222 0.323705,0.51293 -0.0467,0.25251 -0.09367,0.50475 -0.140901,0.75673 -0.679932,0.454 -1.360102,0.90772 -2.040549,1.36118 -0.874152,0.29605 -1.748533,0.59184 -2.623198,0.88736 -1.174814,0.16494 -2.349844,0.32961 -3.525163,0.49401 -1.543341,0.1238 -3.086886,0.24732 -4.630724,0.37058 -1.249516,-0.0163 -2.499246,-0.033 -3.749265,-0.0498 -0.677529,0.17201 -1.355294,0.34374 -2.033339,0.51521 -0.709734,0.20489 -1.419706,0.40951 -2.129957,0.61386 -0.144978,0.0827 -0.290213,0.16502 -0.435718,0.24713 -1.684562,0.009 -3.369321,0.018 -5.05438,0.0266 -0.04016,-0.0365 -0.08058,-0.0733 -0.121271,-0.11039 -0.0099,-0.0899 -0.02006,-0.1801 -0.03048,-0.27055 0.01524,-0.64816 0.03022,-1.29655 0.04493,-1.94523 -0.0073,-1.1615 -0.01495,-2.32322 -0.02282,-3.48523 0.0086,-1.89703 0.01688,-3.79424 0.02493,-5.69177 0.01143,-1.55203 0.02259,-3.10427 0.0335,-4.65681 -0.03263,-0.0376 -0.06552,-0.0754 -0.09868,-0.1135 0.265321,-0.0648 0.530366,-0.12975 0.795151,-0.19503 0.504594,-0.15403 1.008902,-0.30831 1.512955,-0.46286 0.842309,-0.22293 1.684319,-0.44612 2.52608,-0.66957 0.672997,-0.15413 1.3457,-0.30853 2.018155,-0.46319 0.557228,-0.0613 1.114168,-0.12275 1.670854,-0.18452 0.284914,-0.009 0.569553,-0.0181 0.853932,-0.0275 z"
       transform="translate(-13.047055,-32.572635)" /><path
       style="fill:#000000;fill-opacity:1;stroke-width:0.264583"
       d="m 34.747593,175.83453 c -0.08438,0.1247 -0.253109,0.37406 -0.366391,0.60032 -0.113283,0.22626 -0.17111,0.42932 -0.171851,0.59639 -7.41e-4,0.16707 0.05542,0.29802 0.150342,0.38595 0.09493,0.0879 0.228459,0.13309 0.490403,0.15556 0.261945,0.0225 0.652367,0.0224 1.132753,0.004 0.480385,-0.0189 1.050717,-0.0565 1.629778,-0.0852 0.579062,-0.0287 1.16681,-0.0485 1.762316,-0.0689 0.595507,-0.0204 1.198739,-0.0413 1.772968,-0.0158 0.574229,0.0255 1.119385,0.0973 1.617979,0.2025 0.498593,0.10518 0.95057,0.24365 1.318671,0.3879 0.368101,0.14425 0.6523,0.29421 0.869075,0.48358 0.216775,0.18937 0.366224,0.41799 0.425492,0.66943 0.05927,0.25143 0.02857,0.52573 -0.105401,0.82444 -0.133977,0.29871 -0.371223,0.62201 -0.642942,0.89201 -0.271718,0.27001 -0.577987,0.4868 -0.726263,0.65458 -0.148277,0.16778 -0.138527,0.28622 -0.0078,0.4412 0.130761,0.15499 0.382247,0.34656 0.697498,0.4777 0.315251,0.13114 0.694241,0.202 1.33204,0.25955 0.637799,0.0576 1.53439,0.10186 2.327547,0.13487 0.793157,0.033 1.482838,0.0548 2.120692,0.0563 0.637853,0.002 1.223855,-0.017 1.661987,-0.016 0.438131,0.001 0.728345,0.0216 1.138322,0.0575 0.409977,0.0359 0.939675,0.0871 1.509823,0.12862 0.570148,0.0415 1.180717,0.0733 1.689732,0.12303 0.509014,0.0497 0.916434,0.11717 1.236575,0.19802 0.320142,0.0808 0.552967,0.17498 0.696682,0.16683 0.143715,-0.008 0.198676,-0.11855 0.216906,-1.02334 0.01823,-0.9048 -3.27e-4,-2.60409 -0.0195,-3.46334 -0.01917,-0.85924 -0.03926,-0.87843 -0.269445,-0.97515 -0.230189,-0.0967 -0.670551,-0.27089 -1.280126,-0.47292 -0.609574,-0.20204 -1.388322,-0.4319 -2.088865,-0.60085 -0.700543,-0.16896 -1.322829,-0.27695 -1.992095,-0.40557 -0.669266,-0.12862 -1.385476,-0.27786 -2.124975,-0.40638 -0.739499,-0.12852 -1.502232,-0.23629 -2.277515,-0.32488 -0.775282,-0.0886 -1.563063,-0.15798 -2.547711,-0.20298 -0.984648,-0.045 -2.166087,-0.0656 -3.470152,-0.0746 -1.304066,-0.009 -2.730673,-0.006 -3.932159,0.0272 -1.201486,0.0335 -2.177768,0.0979 -2.755183,0.11709 -0.577414,0.0192 -0.755988,-0.007 -0.845422,-0.0197 -0.08943,-0.013 -0.08944,-0.0133 -0.173817,0.11144 z"
       id="path855"
       inkscape:path-effect="#path-effect857"
       inkscape:original-d="m 34.831975,175.70983 c -0.16846,0.24961 -0.337188,0.49896 -0.50618,0.74805 -0.05756,0.20332 -0.115387,0.40638 -0.173479,0.60917 0.05642,0.13121 0.11258,0.26215 0.16847,0.39283 0.133784,0.0454 0.267298,0.0906 0.400551,0.13543 0.390704,1.3e-4 0.781126,0 1.171294,-2.7e-4 0.570619,-0.0374 1.140952,-0.075 1.711031,-0.11287 0.588034,-0.0196 1.175782,-0.0394 1.763276,-0.0594 0.60352,-0.0207 1.206754,-0.0416 1.809732,-0.0628 0.545441,0.0721 1.090596,0.14394 1.635498,0.21551 0.452263,0.13874 0.904242,0.2772 1.355966,0.41541 0.284477,0.15023 0.568676,0.30019 0.852619,0.44989 0.14972,0.2289 0.299173,0.45752 0.448363,0.68589 -0.03043,0.27457 -0.06113,0.54887 -0.09208,0.82291 -0.236988,0.32357 -0.474232,0.64687 -0.711743,0.9699 -0.306014,0.21706 -0.612283,0.43385 -0.918821,0.65038 0.01,0.11871 0.01976,0.23715 0.02925,0.35533 0.251762,0.19185 0.503251,0.38342 0.754481,0.57474 0.379267,0.0711 0.758253,0.14198 1.136983,0.21258 0.896892,0.0446 1.793483,0.0889 2.689831,0.13289 0.689972,0.022 1.379654,0.0437 2.069086,0.0652 0.586291,-0.0183 1.172292,-0.0369 1.758043,-0.0557 0.290491,0.0208 0.580705,0.0414 0.870659,0.0618 0.529987,0.0515 1.059688,0.10268 1.589132,0.15362 0.610862,0.0321 1.221433,0.0639 1.83175,0.0955 0.407697,0.0677 0.815108,0.13524 1.222264,0.20247 0.233106,0.0944 0.465934,0.18852 0.698506,0.28239 0.05523,-0.11014 0.110188,-0.22054 0.164885,-0.3312 -0.01828,-1.69909 -0.03685,-3.39838 -0.05567,-5.09797 -0.01979,-0.0189 -0.03986,-0.0381 -0.06019,-0.0575 -0.440113,-0.1739 -0.880475,-0.34806 -1.321109,-0.52249 -0.778513,-0.2296 -1.557258,-0.45947 -2.336284,-0.6896 -0.622046,-0.10774 -1.244333,-0.21573 -1.866895,-0.32399 -0.715976,-0.14898 -1.432184,-0.29823 -2.148676,-0.44774 -0.762497,-0.10751 -1.52523,-0.21528 -2.288244,-0.32332 -0.787542,-0.0691 -1.575321,-0.13851 -2.36338,-0.20816 -1.181221,-0.0203 -2.36266,-0.0409 -3.544387,-0.0618 -1.426398,0.003 -2.853005,0.006 -4.279905,0.008 -0.976056,0.0646 -1.952337,0.12898 -2.928903,0.19308 -0.178314,-0.0257 -0.356883,-0.0517 -0.535723,-0.0779 z"
       transform="translate(-13.047055,-32.572635)" /></g></svg>
