<?xml version="1.0" encoding="UTF-8" standalone="no"?>
<!-- Created with Inkscape (http://www.inkscape.org/) -->

<svg
   width="133.8237mm"
   height="87.302307mm"
   viewBox="0 0 133.8237 87.302307"
   version="1.1"
   id="svg5"
   sodipodi:docname="g1414.svg"
   xml:space="preserve"
   xmlns:inkscape="http://www.inkscape.org/namespaces/inkscape"
   xmlns:sodipodi="http://sodipodi.sourceforge.net/DTD/sodipodi-0.dtd"
   xmlns="http://www.w3.org/2000/svg"
   xmlns:svg="http://www.w3.org/2000/svg"><sodipodi:namedview
     id="namedview7"
     pagecolor="#ffffff"
     bordercolor="#000000"
     borderopacity="0.25"
     inkscape:showpageshadow="2"
     inkscape:pageopacity="0.0"
     inkscape:pagecheckerboard="0"
     inkscape:deskcolor="#d1d1d1"
     inkscape:document-units="mm"
     showgrid="false"
     inkscape:zoom="0.5946522"
     inkscape:cx="140.41821"
     inkscape:cy="13.453242"
     inkscape:window-width="1920"
     inkscape:window-height="1009"
     inkscape:window-x="-8"
     inkscape:window-y="-8"
     inkscape:window-maximized="1"
     inkscape:current-layer="g1414" /><defs
     id="defs2" /><g
     inkscape:label="Calque 1"
     inkscape:groupmode="layer"
     id="layer1"
     transform="translate(-27.884753,-95.250918)"><g
       inkscape:label=""
       transform="translate(43.5483,102.391)"
       id="g1414"
       inkscape:export-filename="g1414.png"
       inkscape:export-xdpi="96"
       inkscape:export-ydpi="96"><g
         inkscape:label=""
         transform="matrix(5.5332222,0,0,6.4528295,-14.735992,-6.0588673)"
         id="g9632"
         style="fill:#459db9;fill-opacity:1;stroke:#459db9;stroke-width:0.334708;stroke-dasharray:none;stroke-opacity:1"
         inkscape:export-filename="g1414.svg"
         inkscape:export-xdpi="96"
         inkscape:export-ydpi="96"><g
   fill="#000000"
   fill-opacity="1"
   id="g9608"
   transform="matrix(1.05833,0,0,1.05833,-98.8913,-77.3337)"
   style="fill:#459db9;fill-opacity:1;stroke:#459db9;stroke-width:0.31626;stroke-dasharray:none;stroke-opacity:1">
    <g
   id="g9606"
   transform="translate(91.925003,73.892998)"
   style="fill:#459db9;fill-opacity:1;stroke:#459db9;stroke-width:0.31626;stroke-dasharray:none;stroke-opacity:1">
      <path
   d="m 4.109375,11.453125 c 0,-0.03125 -0.015625,-0.0625 -0.03125,-0.09375 C 3.625,10.875 2.9375,10.0625 2.515625,8.4375 2.296875,7.53125 2.203125,6.515625 2.203125,5.578125 c 0,-2.625 0.625,-4.453125 1.828125,-5.75 0.078125,-0.09375 0.078125,-0.109375 0.078125,-0.125 C 4.109375,-0.40625 4.03125,-0.40625 4,-0.40625 c -0.15625,0 -0.6875,0.609375 -0.8125,0.75 -1.03125,1.21875 -1.671875,3 -1.671875,5.234375 0,1.40625 0.25,3.40625 1.5625,5.09375 0.09375,0.125 0.734375,0.875 0.921875,0.875 0.03125,0 0.109375,0 0.109375,-0.09375 z m 0,0"
   id="path9604"
   style="fill:#459db9;fill-opacity:1;stroke:#459db9;stroke-width:0.31626;stroke-dasharray:none;stroke-opacity:1" />
    </g>
  </g>
  <g
   fill="#000000"
   fill-opacity="1"
   id="g30"
   transform="matrix(1.05833,0,0,1.05833,-98.8913,-77.3337)"
   style="fill:#459db9;fill-opacity:1;stroke:#459db9;stroke-width:0.31626;stroke-dasharray:none;stroke-opacity:1">
    <g
   id="use28"
   transform="translate(97.686996,78.040001)"
   style="fill:#459db9;fill-opacity:1;stroke:#459db9;stroke-width:0.31626;stroke-dasharray:none;stroke-opacity:1">
      <path
   d="m 3.65625,-2.359375 c -0.09375,-0.40625 -0.40625,-0.8125 -1.0625,-0.8125 -0.984375,0 -1.78125,0.71875 -2.03125,1.359375 -0.046875,0.109375 -0.140625,0.390625 -0.140625,0.671875 0,0.484375 0.375,1.28125 1.453125,1.28125 1.8125,0 2.546875,-2.25 2.546875,-3.234375 0,-1.203125 -0.78125,-1.875 -1.71875,-1.875 C 1.5625,-4.96875 1.25,-4.0625 1.25,-3.859375 c 0,0.0625 0.046875,0.25 0.28125,0.25 0.25,0 0.390625,-0.203125 0.390625,-0.375 0,-0.1875 -0.140625,-0.25 -0.265625,-0.265625 C 2,-4.78125 2.578125,-4.78125 2.6875,-4.78125 c 0.53125,0 1.140625,0.328125 1.140625,1.328125 0,0.296875 -0.03125,0.546875 -0.15625,1.09375 z m -1.765625,2.28125 c -0.78125,0 -0.875,-0.59375 -0.875,-0.8125 0,-0.265625 0.1875,-0.953125 0.265625,-1.125 0.125,-0.328125 0.546875,-0.96875 1.34375,-0.96875 0.671875,0 0.890625,0.53125 0.890625,0.953125 0,0.46875 -0.453125,1.953125 -1.625,1.953125 z m 0,0"
   id="path9610"
   style="fill:#459db9;fill-opacity:1;stroke:#459db9;stroke-width:0.31626;stroke-dasharray:none;stroke-opacity:1" />
    </g>
  </g>
  <g
   fill="#000000"
   fill-opacity="1"
   id="g34"
   transform="matrix(1.05833,0,0,1.05833,-98.8913,-77.3337)"
   style="fill:#459db9;fill-opacity:1;stroke:#459db9;stroke-width:0.31626;stroke-dasharray:none;stroke-opacity:1">
    <g
   id="use32"
   transform="translate(102.37,78.040001)"
   style="fill:#459db9;fill-opacity:1;stroke:#459db9;stroke-width:0.31626;stroke-dasharray:none;stroke-opacity:1">
      <path
   d="m 7.09375,-2.890625 c 0.140625,-0.140625 0.484375,-0.53125 0.625,-0.6875 -0.078125,0.515625 -0.296875,2.03125 -0.296875,2.8125 0,0.125 0,0.375 0.03125,0.625 C 7.46875,-0.046875 7.5,0.1875 7.828125,0.1875 c 0.328125,0 0.890625,-0.3125 0.890625,-0.46875 0,-0.046875 -0.03125,-0.0625 -0.078125,-0.0625 -0.109375,0 -0.3125,0.09375 -0.328125,0.109375 C 8.125,-0.25 8.109375,-0.390625 8.09375,-0.546875 8.0625,-0.8125 8.0625,-1.015625 8.0625,-1.078125 c 0,-0.6875 0.234375,-2.59375 0.453125,-3.5625 0,0 0.015625,-0.078125 0.015625,-0.140625 0,0 -0.015625,-0.109375 -0.0625,-0.109375 -0.046875,0 -0.046875,0 -0.171875,0.140625 -0.765625,0.859375 -1.546875,1.71875 -2.34375,2.53125 -0.609375,0.609375 -0.8125,0.828125 -1.3125,1.25 C 4.359375,-1.453125 4.1875,-1.984375 3.96875,-2.625 3.765625,-3.296875 3.578125,-3.96875 3.421875,-4.640625 3.375,-4.84375 3.375,-4.859375 3.375,-4.859375 3.34375,-4.90625 3.3125,-4.90625 3.28125,-4.90625 c -0.109375,0 -0.453125,0.140625 -0.484375,0.359375 -0.078125,0.65625 -0.21875,1.765625 -1.015625,3.53125 -0.078125,0.1875 -0.296875,0.6875 -0.546875,0.6875 -0.109375,0 -0.390625,-0.0625 -0.578125,-0.203125 C 0.625,-0.5625 0.609375,-0.578125 0.59375,-0.578125 c -0.109375,0 -0.265625,0.34375 -0.265625,0.5625 0,0.078125 0,0.140625 0.234375,0.265625 0.1875,0.09375 0.375,0.109375 0.453125,0.109375 0.46875,0 0.921875,-1.0625 1.046875,-1.390625 C 2.25,-1.421875 2.71875,-2.578125 2.96875,-3.828125 3.203125,-2.921875 3.59375,-1.5 4,-0.78125 c 0.125,0.21875 0.3125,0.546875 0.40625,0.546875 0.15625,0 1.40625,-1.3125 1.8125,-1.71875 z m 0,0"
   id="path9614"
   style="fill:#459db9;fill-opacity:1;stroke:#459db9;stroke-width:0.31626;stroke-dasharray:none;stroke-opacity:1" />
    </g>
  </g>
  <path
   fill="none"
   stroke-width="0.398"
   stroke-linecap="butt"
   stroke-linejoin="miter"
   stroke="#000000"
   stroke-opacity="1"
   stroke-miterlimit="10"
   d="M 4.2468719,6.4014053 H 18.293747"
   id="path36"
   transform="scale(1.05833)"
   style="fill:#459db9;fill-opacity:1;stroke:#459db9;stroke-width:0.31626;stroke-dasharray:none;stroke-opacity:1" />
  <g
   fill="#000000"
   fill-opacity="1"
   id="g9622"
   transform="matrix(1.05833,0,0,1.05833,-98.8913,-77.3337)"
   style="fill:#459db9;fill-opacity:1;stroke:#459db9;stroke-width:0.31626;stroke-dasharray:none;stroke-opacity:1">
    <g
   id="g9620"
   transform="translate(100.167,85.398003)"
   style="fill:#459db9;fill-opacity:1;stroke:#459db9;stroke-width:0.31626;stroke-dasharray:none;stroke-opacity:1">
      <path
   d="m 3.65625,-2.359375 c -0.09375,-0.40625 -0.40625,-0.8125 -1.0625,-0.8125 -0.984375,0 -1.78125,0.71875 -2.03125,1.359375 -0.046875,0.109375 -0.140625,0.390625 -0.140625,0.671875 0,0.484375 0.375,1.28125 1.453125,1.28125 1.8125,0 2.546875,-2.25 2.546875,-3.234375 0,-1.203125 -0.78125,-1.875 -1.71875,-1.875 C 1.5625,-4.96875 1.25,-4.0625 1.25,-3.859375 c 0,0.0625 0.046875,0.25 0.28125,0.25 0.25,0 0.390625,-0.203125 0.390625,-0.375 0,-0.1875 -0.140625,-0.25 -0.265625,-0.265625 C 2,-4.78125 2.578125,-4.78125 2.6875,-4.78125 c 0.53125,0 1.140625,0.328125 1.140625,1.328125 0,0.296875 -0.03125,0.546875 -0.15625,1.09375 z m -1.765625,2.28125 c -0.78125,0 -0.875,-0.59375 -0.875,-0.8125 0,-0.265625 0.1875,-0.953125 0.265625,-1.125 0.125,-0.328125 0.546875,-0.96875 1.34375,-0.96875 0.671875,0 0.890625,0.53125 0.890625,0.953125 0,0.46875 -0.453125,1.953125 -1.625,1.953125 z m 0,0"
   id="path66"
   style="fill:#459db9;fill-opacity:1;stroke:#459db9;stroke-width:0.31626;stroke-dasharray:none;stroke-opacity:1" />
    </g>
  </g>
  <g
   fill="#000000"
   fill-opacity="1"
   id="g9627"
   transform="matrix(1.05833,0,0,1.05833,-98.8913,-77.3337)"
   style="fill:#459db9;fill-opacity:1;stroke:#459db9;stroke-width:0.31626;stroke-dasharray:none;stroke-opacity:1">
    <g
   id="g9625"
   transform="translate(104.84711,85.398003)"
   style="fill:#459db9;fill-opacity:1;stroke:#459db9;stroke-width:0.31626;stroke-dasharray:none;stroke-opacity:1">
      <path
   d="m 2.1875,-4.625 c 0,-0.015625 0.015625,-0.109375 0.015625,-0.109375 0,-0.046875 -0.015625,-0.109375 -0.109375,-0.109375 -0.140625,0 -0.71875,0.0625 -0.890625,0.078125 -0.046875,0 -0.15625,0.015625 -0.15625,0.15625 0,0.09375 0.109375,0.09375 0.1875,0.09375 0.328125,0 0.328125,0.0625 0.328125,0.109375 0,0.046875 -0.015625,0.09375 -0.015625,0.15625 L 0.5625,-0.3125 c -0.046875,0.125 -0.046875,0.140625 -0.046875,0.15625 0,0.109375 0.09375,0.21875 0.25,0.21875 0.1875,0 0.265625,-0.125 0.3125,-0.28125 0.015625,-0.03125 0.3125,-1.265625 0.34375,-1.359375 0.5,0.046875 0.890625,0.21875 0.890625,0.578125 0,0.03125 0,0.0625 -0.015625,0.140625 -0.03125,0.09375 -0.03125,0.140625 -0.03125,0.21875 0,0.484375 0.40625,0.703125 0.75,0.703125 0.671875,0 0.875,-1.046875 0.875,-1.0625 0,-0.09375 -0.078125,-0.09375 -0.109375,-0.09375 -0.09375,0 -0.109375,0.046875 -0.140625,0.171875 C 3.5625,-0.625 3.375,-0.125 3.03125,-0.125 c -0.1875,0 -0.25,-0.171875 -0.25,-0.359375 0,-0.125 0,-0.140625 0.046875,-0.3125 0.015625,-0.03125 0.03125,-0.140625 0.03125,-0.21875 0,-0.625 -0.828125,-0.71875 -1.125,-0.734375 C 1.9375,-1.875 2.1875,-2.109375 2.3125,-2.21875 2.671875,-2.546875 3.015625,-2.875 3.40625,-2.875 c 0.078125,0 0.171875,0.015625 0.234375,0.09375 C 3.34375,-2.734375 3.28125,-2.5 3.28125,-2.390625 c 0,0.140625 0.109375,0.25 0.265625,0.25 0.203125,0 0.40625,-0.15625 0.40625,-0.4375 0,-0.234375 -0.171875,-0.5 -0.53125,-0.5 -0.40625,0 -0.765625,0.296875 -1.125,0.625 C 2,-2.1875 1.78125,-1.96875 1.484375,-1.84375 Z m 0,0"
   id="path70"
   style="fill:#459db9;fill-opacity:1;stroke:#459db9;stroke-width:0.31626;stroke-dasharray:none;stroke-opacity:1" />
    </g>
  </g>
  <g
   fill="#000000"
   fill-opacity="1"
   id="g48"
   transform="matrix(1.05833,0,0,1.05833,-98.8913,-77.3337)"
   style="fill:#459db9;fill-opacity:1;stroke:#459db9;stroke-width:0.31626;stroke-dasharray:none;stroke-opacity:1">
    <g
   id="use46"
   transform="translate(112.93,73.892998)"
   style="fill:#459db9;fill-opacity:1;stroke:#459db9;stroke-width:0.31626;stroke-dasharray:none;stroke-opacity:1">
      <path
   d="m 3.046875,5.578125 c 0,-1.40625 -0.25,-3.421875 -1.5625,-5.09375 -0.09375,-0.125 -0.75,-0.890625 -0.921875,-0.890625 -0.046875,0 -0.125,0.03125 -0.125,0.109375 0,0.03125 0.015625,0.0625 0.0625,0.09375 C 0.984375,0.3125 1.625,1.125 2.03125,2.71875 2.265625,3.625 2.359375,4.640625 2.359375,5.578125 c 0,1 -0.09375,2.015625 -0.359375,3 -0.375,1.390625 -0.96875,2.1875 -1.46875,2.75 -0.09375,0.09375 -0.09375,0.109375 -0.09375,0.125 0,0.07813 0.078125,0.09375 0.125,0.09375 0.140625,0 0.6875,-0.59375 0.8125,-0.734375 1.015625,-1.21875 1.671875,-3 1.671875,-5.234375 z m 0,0"
   id="path74"
   style="fill:#459db9;fill-opacity:1;stroke:#459db9;stroke-width:0.31626;stroke-dasharray:none;stroke-opacity:1" />
    </g>
  </g>
</g></g></g></svg>
