<?xml version="1.0" encoding="UTF-8" standalone="no"?>
<!-- Created with Inkscape (http://www.inkscape.org/) -->

<svg
   xmlns:dc="http://purl.org/dc/elements/1.1/"
   xmlns:cc="http://creativecommons.org/ns#"
   xmlns:rdf="http://www.w3.org/1999/02/22-rdf-syntax-ns#"
   xmlns:svg="http://www.w3.org/2000/svg"
   xmlns="http://www.w3.org/2000/svg"
   xmlns:sodipodi="http://sodipodi.sourceforge.net/DTD/sodipodi-0.dtd"
   xmlns:inkscape="http://www.inkscape.org/namespaces/inkscape"
   width="115.10302mm"
   height="83.459625mm"
   viewBox="0 0 115.10302 83.459625"
   version="1.1"
   id="svg11"
   sodipodi:docname="model_description_2.svg"
   inkscape:version="0.92.5 (2060ec1f9f, 2020-04-08)">
  <metadata
     id="metadata3769">
    <rdf:RDF>
      <cc:Work
         rdf:about="">
        <dc:format>image/svg+xml</dc:format>
        <dc:type
           rdf:resource="http://purl.org/dc/dcmitype/StillImage" />
        <dc:title></dc:title>
      </cc:Work>
    </rdf:RDF>
  </metadata>
  <sodipodi:namedview
     pagecolor="#ffffff"
     bordercolor="#666666"
     borderopacity="1"
     objecttolerance="10"
     gridtolerance="10"
     guidetolerance="10"
     inkscape:pageopacity="0"
     inkscape:pageshadow="2"
     inkscape:window-width="3694"
     inkscape:window-height="1873"
     id="namedview3767"
     showgrid="false"
     inkscape:zoom="2.3156521"
     inkscape:cx="94.53234"
     inkscape:cy="35.107124"
     inkscape:window-x="144"
     inkscape:window-y="54"
     inkscape:window-maximized="1"
     inkscape:current-layer="svg11" />
  <defs
     id="defs8">
    <linearGradient
       id="linearGradient4008">
      <stop
         style="stop-color:#150458;stop-opacity:1;"
         offset="0"
         id="stop4006" />
    </linearGradient>
  </defs>
  <g
     id="layer1"
     transform="matrix(1.2648518,0,0,1.278375,0.18930158,-0.01277816)"
     inkscape:export-xdpi="96"
     inkscape:export-ydpi="96">
    <path
       d="m 0.56420391,55.673043 c 0.3644716,0.564778 0.74041229,0.666006 2.26787529,0.663893 l 1.4062297,-0.002 0.00522,3.742126 c 0.00573,4.137823 0.017948,4.194331 0.7821989,4.566356 0.3396549,0.157808 1.6853119,0.178566 14.2201452,0.127307 l 13.856234,-0.05311 0.387402,-0.373615 0.399544,-0.36233 0.03389,-1.79763 0.03387,-1.808931 1.697134,-0.03621 1.685008,-0.03622 0.387415,-0.373617 0.399542,-0.362335 0.03159,-3.448228 0.03159,-3.448233 2.169961,-0.0032 2.157842,-0.0032 0.05049,1.413118 0.03834,1.413143 0.400549,0.361218 0.388449,0.372545 6.582659,0.02478 c 5.855287,0.02581 6.606852,0.002 6.94607,-0.15658 0.678398,-0.340101 0.774955,-0.64548 0.772485,-2.420451 l -0.002,-1.594077 1.272884,-0.002 c 1.442597,-0.002 1.87883,-0.138262 2.181136,-0.681351 0.145093,-0.271529 0.180558,-0.9273 0.176428,-3.900653 l -0.0051,-3.561236 5.03091,-0.007 5.030922,-0.007 0.460125,-0.385027 0.448008,-0.385002 0.03401,-1.707185 0.034,-1.707185 1.151654,-0.0016 c 2.012363,-0.0028 2.230241,-0.2405 2.2272,-2.433768 l -0.002,-1.526245 3.151919,-0.0043 c 4.339926,-0.006 4.243022,0.05066 4.239415,-2.549615 l -0.0026,-1.639302 1.297133,-0.0018 c 1.103169,-0.0016 1.369827,-0.03573 1.708993,-0.228474 0.775247,-0.441989 0.751545,-0.04629 0.736939,-10.571694 l -0.01324,-9.553162 1.27289,-0.0018 1.272878,-0.0018 0.460125,-0.385021 0.448007,-0.385008 0.03304,-2.3629039 c 0.04367,-3.5159539 0.165054,-3.4256739 -4.283977,-3.4195205 l -2.970075,0.00411 -0.002,-1.4471149 C 83.081738,1.6874754 82.93543,1.2354626 82.353129,0.94231311 82.171162,0.85213015 80.837611,0.82005908 77.964558,0.83533826 74.327751,0.85164667 73.794385,0.87494074 73.491541,1.0337263 72.922239,1.3510661 72.777397,1.8034809 72.779344,3.2053687 l 0.002,1.2549074 -1.98812,0.00276 -2.000259,0.00276 -0.03863,-1.6279476 C 68.715685,1.1986047 68.715685,1.1986047 68.363587,0.8599226 l -0.364191,-0.34992745 -6.315912,0.008738 -6.315893,0.008738 -0.363201,0.35097311 -0.351087,0.33965414 0.03866,1.6392402 0.05076,1.6279309 -0.375802,5.193e-4 -0.375808,5.202e-4 -0.002,-1.4244918 C 53.986607,1.4338199 53.852997,1.0156998 53.222196,0.71132572 52.870575,0.53146383 52.215934,0.52105598 45.960702,0.56362543 l -6.885657,0.0433585 -0.387413,0.37362961 -0.399537,0.36232536 -0.03426,1.5262949 -0.04639,1.5263056 -3.042806,0.00423 c -3.418607,0.00475 -3.62462,0.050262 -4.181235,0.797175 -0.241982,0.3394976 -0.266014,0.4978169 -0.264099,1.8770872 l 0.0022,1.514933 -3.673182,0.00508 C 23.0357,8.5995746 23.0357,8.5995746 22.660849,9.2784522 22.503603,9.5613111 22.480584,10.45448 22.487177,15.202798 l 0.0078,5.584921 -1.575886,0.04743 -1.575907,0.03601 -0.387407,0.373614 -0.399549,0.362339 -0.03381,1.808924 -0.03388,1.808944 -1.042557,0.0014 c -1.769923,0.0025 -2.096762,0.342057 -2.09411,2.25269 l 0.0018,1.254954 -1.587935,0.0022 c -2.509404,0.0034 -2.654678,0.150647 -2.651131,2.705688 l 0.0024,1.707134 -1.066789,0.0015 c -1.1637838,0.0016 -1.4667035,0.115081 -1.7811008,0.680795 -0.1574539,0.282855 -0.1801294,1.413441 -0.1710259,7.970639 l 0.010594,7.631321 -0.4849134,6.41e-4 -0.4849069,6.43e-4 -0.00218,-1.582769 c -0.00354,-2.566354 -0.05211,-2.600204 -3.3979637,-2.595575 -1.8305263,0.0026 -2.3881288,0.0372 -2.6667582,0.173273 -0.72687245,0.351473 -0.72680942,0.3967 -0.71987157,5.393732 0.0176968,4.013447 0.0305626,4.590007 0.21281604,4.849786 z m 3.17758849,-7.703466 0.4849007,-6.42e-4 0.00218,1.594083 c 0.00354,2.532428 0.076337,2.588853 3.3979545,2.584262 1.8305342,-0.0026 2.3881304,-0.03724 2.6667664,-0.173267 0.751104,-0.362817 0.727229,-0.09145 0.715582,-8.480144 l -0.01059,-7.631221 0.981946,-0.0014 c 1.091041,-0.0016 1.515119,-0.160375 1.853832,-0.680904 0.157263,-0.260284 0.1931,-0.644717 0.191185,-2.023995 l -0.0024,-1.707127 1.588073,-0.0022 c 2.400296,-0.0033 2.654571,-0.218485 2.651745,-2.253475 l -0.0018,-1.254914 1.054681,-0.0015 c 0.836462,-0.0012 1.151596,-0.04684 1.454408,-0.228129 0.617781,-0.351315 0.678124,-0.543593 0.651232,-2.454194 l -0.02665,-1.72971 1.478967,-0.0021 c 1.612326,-0.0023 1.963733,-0.10447 2.338745,-0.681574 0.169318,-0.282865 0.19266,-0.938618 0.185722,-5.935656 l -0.0078,-5.607545 3.709584,0.0175 3.697473,0.02872 0.387423,-0.362309 0.387429,-0.362322 0.03395,-1.7524036 0.03397,-1.7410941 3.333705,-0.03845 3.321579,-0.03843 0.387406,-0.3736142 0.399545,-0.3623322 0.03423,-1.5262884 0.04638,-1.5263185 4.958192,-0.00686 4.95816,-0.00686 0.002,1.4810177 c 0.0032,2.3967771 0.112543,2.4757618 3.276551,2.4713852 3.176138,-0.00437 3.273017,-0.083663 3.269614,-2.5369592 l -0.002,-1.5375558 4.121693,-0.00572 4.121695,-0.00572 0.002,1.5827687 0.002,1.5827771 0.412767,0.4290394 0.412753,0.4177288 3.92781,0.028472 c 4.291474,0.016695 4.303598,0.016676 4.787573,-0.6510376 0.254122,-0.3395206 0.278107,-0.5204438 0.276519,-1.6622993 l -0.002,-1.2888294 2.23058,-0.00308 2.230576,-0.00308 0.05059,1.5261786 0.03851,1.5261938 0.400552,0.3612258 0.388452,0.372547 3.21256,0.029456 3.212566,0.029392 6.43e-4,0.5539672 6.43e-4,0.5652778 -1.212269,0.00167 c -0.860716,0.00122 -1.333416,0.058371 -1.575722,0.1717581 -0.763281,0.3628422 -0.727557,-0.1120388 -0.71281,10.5151491 l 0.01343,9.666159 -1.345637,0.0019 c -2.206333,0.003 -2.412111,0.218141 -2.40882,2.592301 l 0.002,1.605387 -3.200409,-0.0069 c -2.206352,-0.0083 -3.285221,0.02718 -3.466938,0.117846 -0.593615,0.294771 -0.726353,0.735864 -0.724122,2.341252 l 0.002,1.503635 -1.163759,0.0016 c -1.285015,0.0018 -1.684866,0.138 -2.035686,0.681147 -0.15723,0.260244 -0.193057,0.644683 -0.191295,1.9109 l 0.002,1.594095 -4.970241,0.0069 c -5.467302,0.0076 -5.503674,0.0076 -5.87853,0.686463 -0.145119,0.271532 -0.18059,0.927302 -0.176461,3.900655 l 0.0051,3.561282 -1.272872,0.0018 c -2.169954,0.003 -2.363623,0.218076 -2.360315,2.603535 l 0.002,1.582777 -4.667208,0.0064 -4.667227,0.0065 -0.002,-1.31144 c -0.002,-1.469718 -0.123756,-1.820018 -0.778814,-2.13567 -0.327536,-0.157819 -0.873095,-0.179682 -4.461375,-0.140804 l -4.097421,0.03957 -0.387408,0.37362 -0.399555,0.362331 -0.03157,3.459541 -0.03157,3.459541 -1.685118,-0.04289 -1.69723,-0.03153 -0.387406,0.37361 -0.399549,0.362336 -0.03372,1.865457 -0.03378,1.865459 -11.940945,0.01651 -11.9287584,0.01651 -0.00521,-3.742119 C 7.144319,55.098625 7.1193246,54.578611 6.9492213,54.296199 6.5847629,53.731424 6.2209191,53.618877 4.6692107,53.621021 l -1.4062356,0.002 -0.00392,-2.826377 -0.00392,-2.826379 z"
       id="path287"
       style="fill:#150458;fill-opacity:1;stroke:#150458;stroke-width:1;stroke-linecap:round;stroke-linejoin:bevel;stroke-dasharray:none;stroke-opacity:1;paint-order:stroke fill markers"
       inkscape:connector-curvature="0" />
  </g>
</svg>
