<?xml version="1.0" encoding="UTF-8" standalone="no"?>
<!-- Created with Inkscape (http://www.inkscape.org/) -->

<svg
   width="90mm"
   height="65mm"
   viewBox="0 0 90 65"
   version="1.1"
   id="svg11"
   inkscape:version="1.1 (c4e8f9e, 2021-05-24)"
   sodipodi:docname="model_description_2.svg"
   xmlns:inkscape="http://www.inkscape.org/namespaces/inkscape"
   xmlns:sodipodi="http://sodipodi.sourceforge.net/DTD/sodipodi-0.dtd"
   xmlns="http://www.w3.org/2000/svg"
   xmlns:svg="http://www.w3.org/2000/svg">
  <sodipodi:namedview
     id="namedview13"
     pagecolor="#ffffff"
     bordercolor="#666666"
     borderopacity="1.0"
     inkscape:pageshadow="2"
     inkscape:pageopacity="0.0"
     inkscape:pagecheckerboard="0"
     inkscape:document-units="mm"
     showgrid="false"
     inkscape:zoom="0.71068397"
     inkscape:cx="311.67159"
     inkscape:cy="479.11592"
     inkscape:window-width="1680"
     inkscape:window-height="1003"
     inkscape:window-x="0"
     inkscape:window-y="23"
     inkscape:window-maximized="0"
     inkscape:current-layer="layer1"
     width="209mm"
     scale-x="1" />
  <defs
     id="defs8" />
  <g
     inkscape:label="Calque 1"
     inkscape:groupmode="layer"
     id="layer1">
    <path
       d="m 0.2134504,55.163048 c 0.3644716,0.564778 0.74041233,0.666006 2.2678753,0.663893 l 1.4062297,-0.002 0.00522,3.742126 c 0.00573,4.137823 0.017948,4.194331 0.7821989,4.566356 0.3396549,0.157808 1.6853119,0.178566 14.2201447,0.127307 l 13.856234,-0.05311 0.387402,-0.373615 0.399544,-0.36233 0.03389,-1.79763 0.03387,-1.808931 1.697134,-0.03621 1.685008,-0.03622 0.387415,-0.373617 0.399542,-0.362335 0.03159,-3.448228 0.03159,-3.448233 2.169961,-0.0032 2.157842,-0.0032 0.05049,1.413118 0.03834,1.413143 0.400549,0.361218 0.388449,0.372545 6.582659,0.02478 c 5.855287,0.02581 6.606852,0.002 6.94607,-0.15658 0.678398,-0.340101 0.774955,-0.64548 0.772485,-2.420451 l -0.002,-1.594077 1.272884,-0.002 c 1.442597,-0.002 1.87883,-0.138262 2.181136,-0.681351 0.145093,-0.271529 0.180558,-0.9273 0.176428,-3.900653 l -0.0051,-3.561236 5.03091,-0.007 5.030922,-0.007 0.460125,-0.385027 0.448008,-0.385002 0.03401,-1.707185 0.034,-1.707185 1.151654,-0.0016 c 2.012363,-0.0028 2.230241,-0.2405 2.2272,-2.433768 l -0.002,-1.526245 3.151919,-0.0043 c 4.339926,-0.006 4.243022,0.05066 4.239415,-2.549615 l -0.0026,-1.639302 1.297133,-0.0018 c 1.103169,-0.0016 1.369827,-0.03573 1.708993,-0.228474 0.775247,-0.441989 0.751545,-0.04629 0.736939,-10.571694 l -0.01324,-9.553162 1.27289,-0.0018 1.272878,-0.0018 0.460125,-0.385021 0.448007,-0.3850077 0.03304,-2.3629044 C 90.032533,4.061481 90.153913,4.151761 85.704882,4.1579144 l -2.970075,0.00411 -0.002,-1.4471149 C 82.730984,1.1774802 82.584676,0.72546747 82.002375,0.43231796 81.820408,0.342135 80.486857,0.31006393 77.613804,0.32534311 73.976997,0.34165152 73.443631,0.36494559 73.140787,0.52373111 72.571485,0.84107097 72.426643,1.2934857 72.42859,2.6953735 l 0.002,1.2549074 -1.98812,0.00276 -2.000259,0.00276 -0.03863,-1.6279476 C 68.364931,0.68860955 68.364931,0.68860955 68.012833,0.34992745 L 67.648642,0 61.33273,0.00873849 l -6.315893,0.00873848 -0.363201,0.35097311 -0.351087,0.33965413 0.03866,1.63924019 0.05076,1.6279309 -0.375802,5.193e-4 -0.375808,5.202e-4 -0.002,-1.4244918 C 53.635853,0.92382477 53.502243,0.50570463 52.871442,0.20133057 52.519821,0.02146868 51.86518,0.01106083 45.609948,0.05363028 l -6.885657,0.04335855 -0.387413,0.37362961 -0.399537,0.3623254 -0.03426,1.52629476 -0.04639,1.5263057 -3.042806,0.00423 c -3.418607,0.00475 -3.62462,0.050262 -4.181235,0.797175 -0.241982,0.3394975 -0.266014,0.4978169 -0.264099,1.8770872 l 0.0022,1.5149329 -3.673182,0.00508 c -4.012623,0.00553 -4.012623,0.00553 -4.387474,0.6844076 -0.157246,0.2828589 -0.180265,1.1760276 -0.173672,5.924346 l 0.0078,5.584921 -1.575886,0.04743 -1.575907,0.03601 -0.387407,0.373614 -0.399549,0.362339 -0.03381,1.808924 -0.03388,1.808944 -1.042557,0.0014 c -1.769923,0.0025 -2.096762,0.342057 -2.09411,2.25269 l 0.0018,1.254954 -1.587935,0.0022 c -2.509404,0.0034 -2.654678,0.150647 -2.651131,2.705688 l 0.0024,1.707134 -1.0667883,0.0015 c -1.163784,0.0016 -1.4667037,0.115081 -1.781101,0.680795 -0.1574539,0.282855 -0.1801294,1.413441 -0.1710259,7.970639 l 0.010594,7.631321 -0.4849134,6.41e-4 -0.4849069,6.43e-4 -0.00218,-1.582769 c -0.00354,-2.566354 -0.05211,-2.600204 -3.3979637,-2.595575 -1.8305263,0.0026 -2.38812876,0.0372 -2.66675822,0.173273 -0.72687244,0.351473 -0.72680941,0.3967 -0.71987156,5.393732 0.01769682,4.013447 0.03056257,4.590007 0.21281604,4.849786 z m 3.1775885,-7.703466 0.4849007,-6.42e-4 0.00218,1.594083 c 0.00354,2.532428 0.076337,2.588853 3.3979545,2.584262 1.8305342,-0.0026 2.3881304,-0.03724 2.666766,-0.173267 0.7511039,-0.362817 0.7272289,-0.09145 0.7155819,-8.480144 l -0.01059,-7.631221 0.981946,-0.0014 c 1.091041,-0.0016 1.515119,-0.160375 1.853832,-0.680904 0.157263,-0.260284 0.1931,-0.644717 0.191185,-2.023995 l -0.0024,-1.707127 1.588073,-0.0022 c 2.400296,-0.0033 2.654571,-0.218485 2.651745,-2.253475 l -0.0018,-1.254914 1.054681,-0.0015 c 0.836462,-0.0012 1.151596,-0.04684 1.454408,-0.228129 0.617781,-0.351315 0.678124,-0.543593 0.651232,-2.454194 l -0.02665,-1.72971 1.478967,-0.0021 c 1.612326,-0.0023 1.963733,-0.10447 2.338745,-0.681574 0.169318,-0.282865 0.19266,-0.938618 0.185722,-5.935656 l -0.0078,-5.607545 3.709584,0.0175 3.697473,0.02872 0.387423,-0.362309 0.387429,-0.362322 0.03395,-1.7524038 0.03397,-1.7410941 3.333705,-0.03845 3.321579,-0.03843 0.387406,-0.3736142 0.399545,-0.3623322 0.03423,-1.5262884 0.04638,-1.5263185 4.958192,-0.00686 4.95816,-0.00686 0.002,1.4810177 c 0.0032,2.3967771 0.112543,2.4757618 3.276551,2.4713852 3.176138,-0.00437 3.273017,-0.083663 3.269614,-2.5369592 l -0.002,-1.5375558 4.121693,-0.00572 4.121695,-0.00572 0.002,1.5827687 0.002,1.5827771 0.412767,0.4290394 0.412753,0.4177288 3.92781,0.028472 c 4.291474,0.016695 4.303598,0.016676 4.787573,-0.6510376 0.254122,-0.3395206 0.278107,-0.5204438 0.276519,-1.6622993 l -0.002,-1.2888294 2.23058,-0.00308 2.230576,-0.00308 0.05059,1.5261786 0.03851,1.5261938 0.400552,0.3612258 0.388452,0.372547 3.21256,0.029456 3.212566,0.029392 6.43e-4,0.5539672 6.43e-4,0.5652778 -1.212269,0.00167 C 85.030406,8.0032036 84.557706,8.0603546 84.3154,8.1737417 83.552119,8.5365839 83.587843,8.0617029 83.60259,18.688891 l 0.01343,9.666159 -1.345637,0.0019 c -2.206333,0.003 -2.412111,0.218141 -2.40882,2.592301 l 0.002,1.605387 -3.200409,-0.0069 c -2.206352,-0.0083 -3.285221,0.02718 -3.466938,0.117846 -0.593615,0.294771 -0.726353,0.735864 -0.724122,2.341252 l 0.002,1.503635 -1.163759,0.0016 c -1.285015,0.0018 -1.684866,0.138 -2.035686,0.681147 -0.15723,0.260244 -0.193057,0.644683 -0.191295,1.9109 l 0.002,1.594095 -4.970241,0.0069 c -5.467302,0.0076 -5.503674,0.0076 -5.87853,0.686463 -0.145119,0.271532 -0.18059,0.927302 -0.176461,3.900655 l 0.0051,3.561282 -1.272872,0.0018 c -2.169954,0.003 -2.363623,0.218076 -2.360315,2.603535 l 0.002,1.582777 -4.667208,0.0064 -4.667227,0.0065 -0.002,-1.31144 c -0.002,-1.469718 -0.123756,-1.820018 -0.778814,-2.13567 -0.327536,-0.157819 -0.873095,-0.179682 -4.461375,-0.140804 l -4.097421,0.03957 -0.387408,0.37362 -0.399555,0.362331 -0.03157,3.459541 -0.03157,3.459541 -1.685118,-0.04289 -1.69723,-0.03153 -0.387406,0.37361 -0.399549,0.362336 -0.03372,1.865457 -0.03378,1.865459 -11.940945,0.01651 -11.9287579,0.01651 -0.00521,-3.742119 C 6.7935655,54.58863 6.7685711,54.068616 6.5984678,53.786204 6.2340094,53.221429 5.8701656,53.108882 4.3184572,53.111026 l -1.4062356,0.002 -0.00392,-2.826377 -0.00392,-2.826379 z"
       id="path123"
       style="fill:#150458;fill-opacity:1;stroke:none;stroke-width:0.011707" />
  </g>
</svg>
